G04 #@! TF.GenerationSoftware,KiCad,Pcbnew,(5.0.2)-1*
G04 #@! TF.CreationDate,2019-02-20T01:19:10+09:00*
G04 #@! TF.ProjectId,M5Hackfon,4d354861-636b-4666-9f6e-2e6b69636164,v1.2*
G04 #@! TF.SameCoordinates,Original*
G04 #@! TF.FileFunction,Legend,Bot*
G04 #@! TF.FilePolarity,Positive*
%FSLAX46Y46*%
G04 Gerber Fmt 4.6, Leading zero omitted, Abs format (unit mm)*
G04 Created by KiCad (PCBNEW (5.0.2)-1) date 2019/02/20 1:19:10*
%MOMM*%
%LPD*%
G01*
G04 APERTURE LIST*
%ADD10C,0.200000*%
%ADD11C,0.120000*%
%ADD12C,0.150000*%
%ADD13C,1.900000*%
%ADD14R,2.000000X2.000000*%
%ADD15O,2.000000X2.000000*%
%ADD16C,2.400000*%
%ADD17C,2.899360*%
%ADD18C,2.760000*%
%ADD19C,1.920000*%
%ADD20R,3.900000X3.900000*%
%ADD21C,2.100000*%
%ADD22C,1.400000*%
%ADD23C,1.200000*%
%ADD24R,3.550000X1.400000*%
%ADD25R,3.200000X3.900000*%
%ADD26O,1.750000X1.750000*%
%ADD27R,1.750000X1.750000*%
%ADD28C,3.600000*%
%ADD29C,2.600000*%
%ADD30R,2.100000X2.100000*%
%ADD31O,2.100000X2.100000*%
%ADD32R,2.400000X2.400000*%
%ADD33O,2.400000X2.400000*%
%ADD34R,0.900000X1.300000*%
G04 APERTURE END LIST*
D10*
X122827523Y-84144714D02*
X122589428Y-84811380D01*
X122351333Y-84144714D01*
X120684666Y-84811380D02*
X121256095Y-84811380D01*
X120970380Y-84811380D02*
X120970380Y-83811380D01*
X121065619Y-83954238D01*
X121160857Y-84049476D01*
X121256095Y-84097095D01*
X120256095Y-84716142D02*
X120208476Y-84763761D01*
X120256095Y-84811380D01*
X120303714Y-84763761D01*
X120256095Y-84716142D01*
X120256095Y-84811380D01*
X119589428Y-83811380D02*
X119494190Y-83811380D01*
X119398952Y-83859000D01*
X119351333Y-83906619D01*
X119303714Y-84001857D01*
X119256095Y-84192333D01*
X119256095Y-84430428D01*
X119303714Y-84620904D01*
X119351333Y-84716142D01*
X119398952Y-84763761D01*
X119494190Y-84811380D01*
X119589428Y-84811380D01*
X119684666Y-84763761D01*
X119732285Y-84716142D01*
X119779904Y-84620904D01*
X119827523Y-84430428D01*
X119827523Y-84192333D01*
X119779904Y-84001857D01*
X119732285Y-83906619D01*
X119684666Y-83859000D01*
X119589428Y-83811380D01*
X142791000Y-84901857D02*
X142791000Y-83701857D01*
X142791000Y-84273285D02*
X142105285Y-84273285D01*
X142105285Y-84901857D02*
X142105285Y-83701857D01*
X141019571Y-84901857D02*
X141019571Y-84273285D01*
X141076714Y-84159000D01*
X141191000Y-84101857D01*
X141419571Y-84101857D01*
X141533857Y-84159000D01*
X141019571Y-84844714D02*
X141133857Y-84901857D01*
X141419571Y-84901857D01*
X141533857Y-84844714D01*
X141591000Y-84730428D01*
X141591000Y-84616142D01*
X141533857Y-84501857D01*
X141419571Y-84444714D01*
X141133857Y-84444714D01*
X141019571Y-84387571D01*
X139933857Y-84844714D02*
X140048142Y-84901857D01*
X140276714Y-84901857D01*
X140391000Y-84844714D01*
X140448142Y-84787571D01*
X140505285Y-84673285D01*
X140505285Y-84330428D01*
X140448142Y-84216142D01*
X140391000Y-84159000D01*
X140276714Y-84101857D01*
X140048142Y-84101857D01*
X139933857Y-84159000D01*
X139419571Y-84901857D02*
X139419571Y-83701857D01*
X139305285Y-84444714D02*
X138962428Y-84901857D01*
X138962428Y-84101857D02*
X139419571Y-84559000D01*
X138619571Y-84101857D02*
X138162428Y-84101857D01*
X138448142Y-84901857D02*
X138448142Y-83873285D01*
X138391000Y-83759000D01*
X138276714Y-83701857D01*
X138162428Y-83701857D01*
X137591000Y-84901857D02*
X137705285Y-84844714D01*
X137762428Y-84787571D01*
X137819571Y-84673285D01*
X137819571Y-84330428D01*
X137762428Y-84216142D01*
X137705285Y-84159000D01*
X137591000Y-84101857D01*
X137419571Y-84101857D01*
X137305285Y-84159000D01*
X137248142Y-84216142D01*
X137191000Y-84330428D01*
X137191000Y-84673285D01*
X137248142Y-84787571D01*
X137305285Y-84844714D01*
X137419571Y-84901857D01*
X137591000Y-84901857D01*
X136676714Y-84101857D02*
X136676714Y-84901857D01*
X136676714Y-84216142D02*
X136619571Y-84159000D01*
X136505285Y-84101857D01*
X136333857Y-84101857D01*
X136219571Y-84159000D01*
X136162428Y-84273285D01*
X136162428Y-84901857D01*
X134848142Y-84101857D02*
X134391000Y-84101857D01*
X134676714Y-84901857D02*
X134676714Y-83873285D01*
X134619571Y-83759000D01*
X134505285Y-83701857D01*
X134391000Y-83701857D01*
X133819571Y-84901857D02*
X133933857Y-84844714D01*
X133991000Y-84787571D01*
X134048142Y-84673285D01*
X134048142Y-84330428D01*
X133991000Y-84216142D01*
X133933857Y-84159000D01*
X133819571Y-84101857D01*
X133648142Y-84101857D01*
X133533857Y-84159000D01*
X133476714Y-84216142D01*
X133419571Y-84330428D01*
X133419571Y-84673285D01*
X133476714Y-84787571D01*
X133533857Y-84844714D01*
X133648142Y-84901857D01*
X133819571Y-84901857D01*
X132905285Y-84901857D02*
X132905285Y-84101857D01*
X132905285Y-84330428D02*
X132848142Y-84216142D01*
X132791000Y-84159000D01*
X132676714Y-84101857D01*
X132562428Y-84101857D01*
X131248142Y-84901857D02*
X131248142Y-83701857D01*
X130848142Y-84559000D01*
X130448142Y-83701857D01*
X130448142Y-84901857D01*
X129305285Y-83701857D02*
X129876714Y-83701857D01*
X129933857Y-84273285D01*
X129876714Y-84216142D01*
X129762428Y-84159000D01*
X129476714Y-84159000D01*
X129362428Y-84216142D01*
X129305285Y-84273285D01*
X129248142Y-84387571D01*
X129248142Y-84673285D01*
X129305285Y-84787571D01*
X129362428Y-84844714D01*
X129476714Y-84901857D01*
X129762428Y-84901857D01*
X129876714Y-84844714D01*
X129933857Y-84787571D01*
X128791000Y-84844714D02*
X128619571Y-84901857D01*
X128333857Y-84901857D01*
X128219571Y-84844714D01*
X128162428Y-84787571D01*
X128105285Y-84673285D01*
X128105285Y-84559000D01*
X128162428Y-84444714D01*
X128219571Y-84387571D01*
X128333857Y-84330428D01*
X128562428Y-84273285D01*
X128676714Y-84216142D01*
X128733857Y-84159000D01*
X128791000Y-84044714D01*
X128791000Y-83930428D01*
X128733857Y-83816142D01*
X128676714Y-83759000D01*
X128562428Y-83701857D01*
X128276714Y-83701857D01*
X128105285Y-83759000D01*
X127762428Y-84101857D02*
X127305285Y-84101857D01*
X127591000Y-83701857D02*
X127591000Y-84730428D01*
X127533857Y-84844714D01*
X127419571Y-84901857D01*
X127305285Y-84901857D01*
X126391000Y-84901857D02*
X126391000Y-84273285D01*
X126448142Y-84159000D01*
X126562428Y-84101857D01*
X126791000Y-84101857D01*
X126905285Y-84159000D01*
X126391000Y-84844714D02*
X126505285Y-84901857D01*
X126791000Y-84901857D01*
X126905285Y-84844714D01*
X126962428Y-84730428D01*
X126962428Y-84616142D01*
X126905285Y-84501857D01*
X126791000Y-84444714D01*
X126505285Y-84444714D01*
X126391000Y-84387571D01*
X125305285Y-84844714D02*
X125419571Y-84901857D01*
X125648142Y-84901857D01*
X125762428Y-84844714D01*
X125819571Y-84787571D01*
X125876714Y-84673285D01*
X125876714Y-84330428D01*
X125819571Y-84216142D01*
X125762428Y-84159000D01*
X125648142Y-84101857D01*
X125419571Y-84101857D01*
X125305285Y-84159000D01*
X124791000Y-84901857D02*
X124791000Y-83701857D01*
X124676714Y-84444714D02*
X124333857Y-84901857D01*
X124333857Y-84101857D02*
X124791000Y-84559000D01*
D11*
G04 #@! TO.C,R9*
X123804000Y-126478000D02*
X122804000Y-126478000D01*
X122804000Y-127838000D02*
X123804000Y-127838000D01*
D12*
X121184666Y-127864380D02*
X121518000Y-127388190D01*
X121756095Y-127864380D02*
X121756095Y-126864380D01*
X121375142Y-126864380D01*
X121279904Y-126912000D01*
X121232285Y-126959619D01*
X121184666Y-127054857D01*
X121184666Y-127197714D01*
X121232285Y-127292952D01*
X121279904Y-127340571D01*
X121375142Y-127388190D01*
X121756095Y-127388190D01*
X120708476Y-127864380D02*
X120518000Y-127864380D01*
X120422761Y-127816761D01*
X120375142Y-127769142D01*
X120279904Y-127626285D01*
X120232285Y-127435809D01*
X120232285Y-127054857D01*
X120279904Y-126959619D01*
X120327523Y-126912000D01*
X120422761Y-126864380D01*
X120613238Y-126864380D01*
X120708476Y-126912000D01*
X120756095Y-126959619D01*
X120803714Y-127054857D01*
X120803714Y-127292952D01*
X120756095Y-127388190D01*
X120708476Y-127435809D01*
X120613238Y-127483428D01*
X120422761Y-127483428D01*
X120327523Y-127435809D01*
X120279904Y-127388190D01*
X120232285Y-127292952D01*
G04 #@! TD*
%LPC*%
D13*
G04 #@! TO.C,Y1*
X118605000Y-122640000D03*
X118605000Y-117760000D03*
G04 #@! TD*
D14*
G04 #@! TO.C,U7*
X129146000Y-104552000D03*
D15*
X121526000Y-102012000D03*
X129146000Y-102012000D03*
X121526000Y-104552000D03*
G04 #@! TD*
D16*
G04 #@! TO.C,T1*
X122880000Y-91852000D03*
D17*
X122880000Y-94852000D03*
X122880000Y-88852000D03*
X133380000Y-88852000D03*
X133380000Y-94852000D03*
G04 #@! TD*
D18*
G04 #@! TO.C,J4*
X150300000Y-107450000D03*
X150300000Y-95450000D03*
D19*
X148000000Y-99920000D03*
X148000000Y-101960000D03*
X148000000Y-104000000D03*
X145460000Y-98900000D03*
X145460000Y-102980000D03*
X145460000Y-100940000D03*
G04 #@! TD*
D20*
G04 #@! TO.C,J2*
X145500000Y-115800000D03*
X148500000Y-120500000D03*
X142500000Y-120500000D03*
G04 #@! TD*
D21*
G04 #@! TO.C,J1*
X111270000Y-125780000D03*
X108730000Y-125780000D03*
X111270000Y-123240000D03*
X108730000Y-123240000D03*
X111270000Y-120700000D03*
X108730000Y-120700000D03*
X111270000Y-118160000D03*
X108730000Y-118160000D03*
X111270000Y-115620000D03*
X108730000Y-115620000D03*
X111270000Y-113080000D03*
X108730000Y-113080000D03*
X111270000Y-110540000D03*
X108730000Y-110540000D03*
X111270000Y-108000000D03*
X108730000Y-108000000D03*
X111270000Y-105460000D03*
X108730000Y-105460000D03*
X111270000Y-102920000D03*
X108730000Y-102920000D03*
X111270000Y-100380000D03*
X108730000Y-100380000D03*
X111270000Y-97840000D03*
X108730000Y-97840000D03*
X111270000Y-95300000D03*
X108730000Y-95300000D03*
X111270000Y-92760000D03*
X108730000Y-92760000D03*
X111270000Y-90220000D03*
X108730000Y-90220000D03*
D22*
X110000000Y-91490000D03*
D23*
X113175000Y-125780000D03*
X113175000Y-123240000D03*
X113175000Y-120700000D03*
X113175000Y-118160000D03*
X113175000Y-115620000D03*
X113175000Y-113080000D03*
X113175000Y-110540000D03*
X113175000Y-108000000D03*
X113175000Y-105460000D03*
X113175000Y-102920000D03*
X113175000Y-100380000D03*
X113175000Y-97840000D03*
X113175000Y-95300000D03*
X113175000Y-92760000D03*
X113175000Y-90220000D03*
X106825000Y-125780000D03*
X106825000Y-123240000D03*
X106825000Y-120700000D03*
X106825000Y-118160000D03*
X106825000Y-115620000D03*
X106825000Y-113080000D03*
X106825000Y-110540000D03*
X106825000Y-108000000D03*
X106825000Y-105460000D03*
X106825000Y-102920000D03*
X106825000Y-100380000D03*
X106825000Y-97840000D03*
X106825000Y-95300000D03*
X106825000Y-92760000D03*
D24*
X112555000Y-125780000D03*
X107475000Y-125780000D03*
X112555000Y-123240000D03*
X107475000Y-123240000D03*
X112555000Y-120700000D03*
X107475000Y-120700000D03*
X112555000Y-118160000D03*
X107475000Y-118160000D03*
X112555000Y-115620000D03*
X107475000Y-115620000D03*
X112555000Y-113080000D03*
X107475000Y-113080000D03*
X112555000Y-110540000D03*
X107475000Y-110540000D03*
X112555000Y-108000000D03*
X107475000Y-108000000D03*
X112555000Y-105460000D03*
X107475000Y-105460000D03*
X112555000Y-102920000D03*
X107475000Y-102920000D03*
X112555000Y-100380000D03*
X107475000Y-100380000D03*
X112555000Y-97840000D03*
X107475000Y-97840000D03*
X112555000Y-95300000D03*
X107475000Y-95300000D03*
X112555000Y-92760000D03*
X107475000Y-92760000D03*
X112555000Y-90220000D03*
D23*
X106825000Y-90220000D03*
D24*
X107475000Y-90220000D03*
D23*
X110000000Y-94030000D03*
D22*
X110000000Y-124510000D03*
D23*
X110000000Y-121970000D03*
G04 #@! TD*
D25*
G04 #@! TO.C,SW1*
X126820000Y-129190000D03*
D26*
X120320000Y-129190000D03*
X122320000Y-129190000D03*
D27*
X124320000Y-129190000D03*
D25*
X117820000Y-129190000D03*
G04 #@! TD*
D28*
G04 #@! TO.C,MK3*
X151000000Y-86000000D03*
G04 #@! TD*
G04 #@! TO.C,MK1*
X107000000Y-130000000D03*
G04 #@! TD*
G04 #@! TO.C,MK2*
X107000000Y-86000000D03*
G04 #@! TD*
G04 #@! TO.C,MK4*
X151000000Y-130000000D03*
G04 #@! TD*
D29*
G04 #@! TO.C,MK5*
X111000000Y-130000000D03*
G04 #@! TD*
G04 #@! TO.C,MK6*
X111000000Y-86000000D03*
G04 #@! TD*
G04 #@! TO.C,MK7*
X147000000Y-86000000D03*
G04 #@! TD*
G04 #@! TO.C,MK8*
X147000000Y-130000000D03*
G04 #@! TD*
D30*
G04 #@! TO.C,J3*
X136000000Y-130000000D03*
D31*
X138540000Y-130000000D03*
G04 #@! TD*
D32*
G04 #@! TO.C,D4*
X138798000Y-94138000D03*
D33*
X138798000Y-89058000D03*
G04 #@! TD*
G04 #@! TO.C,D5*
X117716000Y-89058000D03*
D32*
X117716000Y-94138000D03*
G04 #@! TD*
D34*
G04 #@! TO.C,R9*
X122554000Y-127158000D03*
X124054000Y-127158000D03*
G04 #@! TD*
M02*
