G04 #@! TF.GenerationSoftware,KiCad,Pcbnew,(5.0.2)-1*
G04 #@! TF.CreationDate,2019-02-20T01:19:10+09:00*
G04 #@! TF.ProjectId,M5Hackfon,4d354861-636b-4666-9f6e-2e6b69636164,v1.2*
G04 #@! TF.SameCoordinates,Original*
G04 #@! TF.FileFunction,Soldermask,Top*
G04 #@! TF.FilePolarity,Negative*
%FSLAX46Y46*%
G04 Gerber Fmt 4.6, Leading zero omitted, Abs format (unit mm)*
G04 Created by KiCad (PCBNEW (5.0.2)-1) date 2019/02/20 1:19:10*
%MOMM*%
%LPD*%
G01*
G04 APERTURE LIST*
%ADD10C,0.100000*%
G04 APERTURE END LIST*
D10*
G36*
X151367494Y-128237835D02*
X151525041Y-128269173D01*
X151852620Y-128404861D01*
X152081856Y-128558032D01*
X152147436Y-128601851D01*
X152398149Y-128852564D01*
X152398151Y-128852567D01*
X152595139Y-129147380D01*
X152705506Y-129413828D01*
X152730827Y-129474960D01*
X152799852Y-129821968D01*
X152800000Y-129822716D01*
X152800000Y-130177284D01*
X152730827Y-130525041D01*
X152595139Y-130852620D01*
X152473405Y-131034807D01*
X152398149Y-131147436D01*
X152147436Y-131398149D01*
X152147433Y-131398151D01*
X151852620Y-131595139D01*
X151525041Y-131730827D01*
X151409122Y-131753885D01*
X151177286Y-131800000D01*
X150822714Y-131800000D01*
X150590878Y-131753885D01*
X150474959Y-131730827D01*
X150147380Y-131595139D01*
X149852567Y-131398151D01*
X149852564Y-131398149D01*
X149601851Y-131147436D01*
X149526595Y-131034807D01*
X149404861Y-130852620D01*
X149269173Y-130525041D01*
X149200000Y-130177284D01*
X149200000Y-129822716D01*
X149200149Y-129821968D01*
X149269173Y-129474960D01*
X149294495Y-129413828D01*
X149404861Y-129147380D01*
X149601849Y-128852567D01*
X149601851Y-128852564D01*
X149852564Y-128601851D01*
X149918144Y-128558032D01*
X150147380Y-128404861D01*
X150474959Y-128269173D01*
X150632506Y-128237835D01*
X150822714Y-128200000D01*
X151177286Y-128200000D01*
X151367494Y-128237835D01*
X151367494Y-128237835D01*
G37*
G36*
X107367494Y-128237835D02*
X107525041Y-128269173D01*
X107852620Y-128404861D01*
X108081856Y-128558032D01*
X108147436Y-128601851D01*
X108398149Y-128852564D01*
X108398151Y-128852567D01*
X108595139Y-129147380D01*
X108705506Y-129413828D01*
X108730827Y-129474960D01*
X108799852Y-129821968D01*
X108800000Y-129822716D01*
X108800000Y-130177284D01*
X108730827Y-130525041D01*
X108595139Y-130852620D01*
X108473405Y-131034807D01*
X108398149Y-131147436D01*
X108147436Y-131398149D01*
X108147433Y-131398151D01*
X107852620Y-131595139D01*
X107525041Y-131730827D01*
X107409122Y-131753885D01*
X107177286Y-131800000D01*
X106822714Y-131800000D01*
X106590878Y-131753885D01*
X106474959Y-131730827D01*
X106147380Y-131595139D01*
X105852567Y-131398151D01*
X105852564Y-131398149D01*
X105601851Y-131147436D01*
X105526595Y-131034807D01*
X105404861Y-130852620D01*
X105269173Y-130525041D01*
X105200000Y-130177284D01*
X105200000Y-129822716D01*
X105200149Y-129821968D01*
X105269173Y-129474960D01*
X105294495Y-129413828D01*
X105404861Y-129147380D01*
X105601849Y-128852567D01*
X105601851Y-128852564D01*
X105852564Y-128601851D01*
X105918144Y-128558032D01*
X106147380Y-128404861D01*
X106474959Y-128269173D01*
X106632506Y-128237835D01*
X106822714Y-128200000D01*
X107177286Y-128200000D01*
X107367494Y-128237835D01*
X107367494Y-128237835D01*
G37*
G36*
X111379196Y-128749958D02*
X111615780Y-128847954D01*
X111828705Y-128990226D01*
X112009774Y-129171295D01*
X112152046Y-129384220D01*
X112250042Y-129620804D01*
X112300000Y-129871960D01*
X112300000Y-130128040D01*
X112250042Y-130379196D01*
X112152046Y-130615780D01*
X112009774Y-130828705D01*
X111828705Y-131009774D01*
X111615780Y-131152046D01*
X111379196Y-131250042D01*
X111128040Y-131300000D01*
X110871960Y-131300000D01*
X110620804Y-131250042D01*
X110384220Y-131152046D01*
X110171295Y-131009774D01*
X109990226Y-130828705D01*
X109847954Y-130615780D01*
X109749958Y-130379196D01*
X109700000Y-130128040D01*
X109700000Y-129871960D01*
X109749958Y-129620804D01*
X109847954Y-129384220D01*
X109990226Y-129171295D01*
X110171295Y-128990226D01*
X110384220Y-128847954D01*
X110620804Y-128749958D01*
X110871960Y-128700000D01*
X111128040Y-128700000D01*
X111379196Y-128749958D01*
X111379196Y-128749958D01*
G37*
G36*
X147379196Y-128749958D02*
X147615780Y-128847954D01*
X147828705Y-128990226D01*
X148009774Y-129171295D01*
X148152046Y-129384220D01*
X148250042Y-129620804D01*
X148300000Y-129871960D01*
X148300000Y-130128040D01*
X148250042Y-130379196D01*
X148152046Y-130615780D01*
X148009774Y-130828705D01*
X147828705Y-131009774D01*
X147615780Y-131152046D01*
X147379196Y-131250042D01*
X147128040Y-131300000D01*
X146871960Y-131300000D01*
X146620804Y-131250042D01*
X146384220Y-131152046D01*
X146171295Y-131009774D01*
X145990226Y-130828705D01*
X145847954Y-130615780D01*
X145749958Y-130379196D01*
X145700000Y-130128040D01*
X145700000Y-129871960D01*
X145749958Y-129620804D01*
X145847954Y-129384220D01*
X145990226Y-129171295D01*
X146171295Y-128990226D01*
X146384220Y-128847954D01*
X146620804Y-128749958D01*
X146871960Y-128700000D01*
X147128040Y-128700000D01*
X147379196Y-128749958D01*
X147379196Y-128749958D01*
G37*
G36*
X119420000Y-128558032D02*
X119422402Y-128582418D01*
X119429515Y-128605867D01*
X119441066Y-128627478D01*
X119456612Y-128646420D01*
X119475554Y-128661966D01*
X119497165Y-128673517D01*
X119520614Y-128680630D01*
X119545000Y-128683032D01*
X119569386Y-128680630D01*
X119592835Y-128673517D01*
X119614446Y-128661966D01*
X119633388Y-128646420D01*
X119641615Y-128637344D01*
X119698288Y-128568288D01*
X119831524Y-128458944D01*
X119932863Y-128404778D01*
X119983531Y-128377695D01*
X120038511Y-128361017D01*
X120148470Y-128327661D01*
X120234171Y-128319220D01*
X120277020Y-128315000D01*
X120362980Y-128315000D01*
X120405829Y-128319220D01*
X120491530Y-128327661D01*
X120601489Y-128361017D01*
X120656469Y-128377695D01*
X120707137Y-128404778D01*
X120808476Y-128458944D01*
X120941712Y-128568288D01*
X121051056Y-128701524D01*
X121076944Y-128749958D01*
X121132305Y-128853531D01*
X121132305Y-128853532D01*
X121182339Y-129018470D01*
X121182339Y-129018472D01*
X121195602Y-129153132D01*
X121200383Y-129177166D01*
X121205699Y-129190000D01*
X121200382Y-129202835D01*
X121195602Y-129226868D01*
X121182339Y-129361530D01*
X121166474Y-129413828D01*
X121132305Y-129526469D01*
X121105222Y-129577137D01*
X121051056Y-129678476D01*
X120941712Y-129811712D01*
X120808476Y-129921056D01*
X120707137Y-129975222D01*
X120656469Y-130002305D01*
X120601489Y-130018983D01*
X120491530Y-130052339D01*
X120405829Y-130060780D01*
X120362980Y-130065000D01*
X120277020Y-130065000D01*
X120234171Y-130060780D01*
X120148470Y-130052339D01*
X120038511Y-130018983D01*
X119983531Y-130002305D01*
X119932863Y-129975222D01*
X119831524Y-129921056D01*
X119698288Y-129811712D01*
X119641621Y-129742663D01*
X119624300Y-129725342D01*
X119603925Y-129711728D01*
X119581286Y-129702351D01*
X119557253Y-129697570D01*
X119532748Y-129697570D01*
X119508715Y-129702350D01*
X119486076Y-129711728D01*
X119465701Y-129725341D01*
X119448374Y-129742668D01*
X119434760Y-129763043D01*
X119425383Y-129785682D01*
X119420602Y-129809715D01*
X119420000Y-129821968D01*
X119420000Y-131140000D01*
X116220000Y-131140000D01*
X116220000Y-127240000D01*
X119420000Y-127240000D01*
X119420000Y-128558032D01*
X119420000Y-128558032D01*
G37*
G36*
X128420000Y-131140000D02*
X125220000Y-131140000D01*
X125220000Y-130190000D01*
X125217598Y-130165614D01*
X125210485Y-130142165D01*
X125198934Y-130120554D01*
X125183388Y-130101612D01*
X125164446Y-130086066D01*
X125142835Y-130074515D01*
X125119386Y-130067402D01*
X125095000Y-130065000D01*
X123445000Y-130065000D01*
X123445000Y-129239120D01*
X123442598Y-129214734D01*
X123435485Y-129191285D01*
X123434518Y-129189476D01*
X123439618Y-129177165D01*
X123445000Y-129140880D01*
X123445000Y-128315000D01*
X125095000Y-128315000D01*
X125119386Y-128312598D01*
X125142835Y-128305485D01*
X125164446Y-128293934D01*
X125183388Y-128278388D01*
X125198934Y-128259446D01*
X125210485Y-128237835D01*
X125217598Y-128214386D01*
X125220000Y-128190000D01*
X125220000Y-127240000D01*
X128420000Y-127240000D01*
X128420000Y-131140000D01*
X128420000Y-131140000D01*
G37*
G36*
X138668707Y-128957597D02*
X138745836Y-128965193D01*
X138877787Y-129005220D01*
X138943763Y-129025233D01*
X139126172Y-129122733D01*
X139286054Y-129253946D01*
X139417267Y-129413828D01*
X139514767Y-129596237D01*
X139514767Y-129596238D01*
X139574807Y-129794164D01*
X139595080Y-130000000D01*
X139574807Y-130205836D01*
X139534780Y-130337787D01*
X139514767Y-130403763D01*
X139417267Y-130586172D01*
X139286054Y-130746054D01*
X139126172Y-130877267D01*
X138943763Y-130974767D01*
X138877787Y-130994780D01*
X138745836Y-131034807D01*
X138668707Y-131042403D01*
X138591580Y-131050000D01*
X138488420Y-131050000D01*
X138411293Y-131042403D01*
X138334164Y-131034807D01*
X138202213Y-130994780D01*
X138136237Y-130974767D01*
X137953828Y-130877267D01*
X137793946Y-130746054D01*
X137662733Y-130586172D01*
X137565233Y-130403763D01*
X137545220Y-130337787D01*
X137505193Y-130205836D01*
X137484920Y-130000000D01*
X137505193Y-129794164D01*
X137565233Y-129596238D01*
X137565233Y-129596237D01*
X137662733Y-129413828D01*
X137793946Y-129253946D01*
X137953828Y-129122733D01*
X138136237Y-129025233D01*
X138202213Y-129005220D01*
X138334164Y-128965193D01*
X138411293Y-128957597D01*
X138488420Y-128950000D01*
X138591580Y-128950000D01*
X138668707Y-128957597D01*
X138668707Y-128957597D01*
G37*
G36*
X137050000Y-131050000D02*
X134950000Y-131050000D01*
X134950000Y-128950000D01*
X137050000Y-128950000D01*
X137050000Y-131050000D01*
X137050000Y-131050000D01*
G37*
G36*
X122405829Y-128319220D02*
X122491530Y-128327661D01*
X122601489Y-128361017D01*
X122656469Y-128377695D01*
X122707137Y-128404778D01*
X122808476Y-128458944D01*
X122941712Y-128568288D01*
X123051056Y-128701524D01*
X123076944Y-128749958D01*
X123132305Y-128853531D01*
X123132305Y-128853532D01*
X123182339Y-129018470D01*
X123182339Y-129018472D01*
X123195602Y-129153132D01*
X123200383Y-129177166D01*
X123205482Y-129189476D01*
X123204515Y-129191285D01*
X123195602Y-129226868D01*
X123182339Y-129361530D01*
X123166474Y-129413828D01*
X123132305Y-129526469D01*
X123105222Y-129577137D01*
X123051056Y-129678476D01*
X122941712Y-129811712D01*
X122808476Y-129921056D01*
X122707137Y-129975222D01*
X122656469Y-130002305D01*
X122601489Y-130018983D01*
X122491530Y-130052339D01*
X122405829Y-130060780D01*
X122362980Y-130065000D01*
X122277020Y-130065000D01*
X122234171Y-130060780D01*
X122148470Y-130052339D01*
X122038511Y-130018983D01*
X121983531Y-130002305D01*
X121932863Y-129975222D01*
X121831524Y-129921056D01*
X121698288Y-129811712D01*
X121588944Y-129678476D01*
X121534778Y-129577137D01*
X121507695Y-129526469D01*
X121473526Y-129413828D01*
X121457661Y-129361530D01*
X121444398Y-129226868D01*
X121439617Y-129202834D01*
X121434301Y-129190000D01*
X121439618Y-129177165D01*
X121444398Y-129153132D01*
X121457661Y-129018472D01*
X121457661Y-129018470D01*
X121507695Y-128853532D01*
X121507695Y-128853531D01*
X121563056Y-128749958D01*
X121588944Y-128701524D01*
X121698288Y-128568288D01*
X121831524Y-128458944D01*
X121932863Y-128404778D01*
X121983531Y-128377695D01*
X122038511Y-128361017D01*
X122148470Y-128327661D01*
X122234171Y-128319220D01*
X122277020Y-128315000D01*
X122362980Y-128315000D01*
X122405829Y-128319220D01*
X122405829Y-128319220D01*
G37*
G36*
X108855888Y-119654470D02*
X109036274Y-119690350D01*
X109227362Y-119769502D01*
X109399336Y-119884411D01*
X109545589Y-120030664D01*
X109660498Y-120202638D01*
X109739650Y-120393726D01*
X109780000Y-120596584D01*
X109780000Y-120803416D01*
X109739650Y-121006274D01*
X109660498Y-121197362D01*
X109645679Y-121219540D01*
X109634133Y-121241142D01*
X109627020Y-121264591D01*
X109624618Y-121288977D01*
X109627020Y-121313363D01*
X109634133Y-121336812D01*
X109645684Y-121358423D01*
X109661230Y-121377365D01*
X109680172Y-121392911D01*
X109701783Y-121404462D01*
X109725232Y-121411575D01*
X109749618Y-121413977D01*
X109774004Y-121411575D01*
X109797454Y-121404462D01*
X109803751Y-121401854D01*
X109824986Y-121393058D01*
X109824987Y-121393058D01*
X109824989Y-121393057D01*
X109940904Y-121370000D01*
X110059096Y-121370000D01*
X110175011Y-121393057D01*
X110175013Y-121393058D01*
X110175014Y-121393058D01*
X110196249Y-121401854D01*
X110202546Y-121404462D01*
X110225995Y-121411575D01*
X110250381Y-121413977D01*
X110274768Y-121411575D01*
X110298217Y-121404462D01*
X110319828Y-121392911D01*
X110338770Y-121377366D01*
X110354315Y-121358424D01*
X110365867Y-121336813D01*
X110372980Y-121313364D01*
X110375382Y-121288978D01*
X110372980Y-121264591D01*
X110365867Y-121241142D01*
X110354321Y-121219540D01*
X110339502Y-121197362D01*
X110260350Y-121006274D01*
X110220000Y-120803416D01*
X110220000Y-120596584D01*
X110260350Y-120393726D01*
X110339502Y-120202638D01*
X110454411Y-120030664D01*
X110600664Y-119884411D01*
X110772638Y-119769502D01*
X110963726Y-119690350D01*
X111144112Y-119654470D01*
X111166583Y-119650000D01*
X111373417Y-119650000D01*
X111395888Y-119654470D01*
X111576274Y-119690350D01*
X111767362Y-119769502D01*
X111939336Y-119884411D01*
X112018313Y-119963388D01*
X112037255Y-119978934D01*
X112058866Y-119990485D01*
X112082315Y-119997598D01*
X112106701Y-120000000D01*
X114300000Y-120000000D01*
X114300000Y-121400000D01*
X112106701Y-121400000D01*
X112082315Y-121402402D01*
X112058866Y-121409515D01*
X112037255Y-121421066D01*
X112018313Y-121436612D01*
X111939336Y-121515589D01*
X111767362Y-121630498D01*
X111576274Y-121709650D01*
X111395888Y-121745530D01*
X111373417Y-121750000D01*
X111166583Y-121750000D01*
X111144112Y-121745530D01*
X110963726Y-121709650D01*
X110772638Y-121630498D01*
X110750460Y-121615679D01*
X110728858Y-121604133D01*
X110705409Y-121597020D01*
X110681023Y-121594618D01*
X110656637Y-121597020D01*
X110633188Y-121604133D01*
X110611577Y-121615684D01*
X110592635Y-121631230D01*
X110577089Y-121650172D01*
X110565538Y-121671783D01*
X110558425Y-121695232D01*
X110556023Y-121719618D01*
X110558425Y-121744004D01*
X110565538Y-121767454D01*
X110576943Y-121794989D01*
X110600000Y-121910904D01*
X110600000Y-122029096D01*
X110576943Y-122145011D01*
X110565538Y-122172546D01*
X110558425Y-122195995D01*
X110556023Y-122220381D01*
X110558425Y-122244768D01*
X110565538Y-122268217D01*
X110577089Y-122289828D01*
X110592634Y-122308770D01*
X110611576Y-122324315D01*
X110633187Y-122335867D01*
X110656636Y-122342980D01*
X110681022Y-122345382D01*
X110705409Y-122342980D01*
X110728858Y-122335867D01*
X110750460Y-122324321D01*
X110772638Y-122309502D01*
X110963726Y-122230350D01*
X111144112Y-122194470D01*
X111166583Y-122190000D01*
X111373417Y-122190000D01*
X111395888Y-122194470D01*
X111576274Y-122230350D01*
X111767362Y-122309502D01*
X111939336Y-122424411D01*
X112018313Y-122503388D01*
X112037255Y-122518934D01*
X112058866Y-122530485D01*
X112082315Y-122537598D01*
X112106701Y-122540000D01*
X114300000Y-122540000D01*
X114300000Y-123940000D01*
X112106701Y-123940000D01*
X112082315Y-123942402D01*
X112058866Y-123949515D01*
X112037255Y-123961066D01*
X112018313Y-123976612D01*
X111939336Y-124055589D01*
X111767362Y-124170498D01*
X111576274Y-124249650D01*
X111395888Y-124285530D01*
X111373417Y-124290000D01*
X111166583Y-124290000D01*
X111144112Y-124285530D01*
X110963726Y-124249650D01*
X110850871Y-124202903D01*
X110827437Y-124195795D01*
X110803050Y-124193393D01*
X110778664Y-124195795D01*
X110755215Y-124202908D01*
X110733604Y-124214459D01*
X110714662Y-124230004D01*
X110699117Y-124248946D01*
X110687565Y-124270557D01*
X110680452Y-124294006D01*
X110678050Y-124318393D01*
X110680452Y-124342779D01*
X110700000Y-124441055D01*
X110700000Y-124578945D01*
X110680452Y-124677221D01*
X110678050Y-124701607D01*
X110680452Y-124725994D01*
X110687565Y-124749443D01*
X110699117Y-124771054D01*
X110714662Y-124789996D01*
X110733604Y-124805541D01*
X110755215Y-124817092D01*
X110778664Y-124824205D01*
X110803050Y-124826607D01*
X110827437Y-124824205D01*
X110850871Y-124817097D01*
X110963726Y-124770350D01*
X111144112Y-124734470D01*
X111166583Y-124730000D01*
X111373417Y-124730000D01*
X111395888Y-124734470D01*
X111576274Y-124770350D01*
X111767362Y-124849502D01*
X111939336Y-124964411D01*
X112018313Y-125043388D01*
X112037255Y-125058934D01*
X112058866Y-125070485D01*
X112082315Y-125077598D01*
X112106701Y-125080000D01*
X114300000Y-125080000D01*
X114300000Y-126480000D01*
X112106701Y-126480000D01*
X112082315Y-126482402D01*
X112058866Y-126489515D01*
X112037255Y-126501066D01*
X112018313Y-126516612D01*
X111939336Y-126595589D01*
X111767362Y-126710498D01*
X111576274Y-126789650D01*
X111395888Y-126825530D01*
X111373417Y-126830000D01*
X111166583Y-126830000D01*
X111144112Y-126825530D01*
X110963726Y-126789650D01*
X110772638Y-126710498D01*
X110600664Y-126595589D01*
X110454411Y-126449336D01*
X110339502Y-126277362D01*
X110260350Y-126086274D01*
X110220000Y-125883416D01*
X110220000Y-125676584D01*
X110260350Y-125473726D01*
X110307097Y-125360871D01*
X110314205Y-125337437D01*
X110316607Y-125313050D01*
X110314205Y-125288664D01*
X110307092Y-125265215D01*
X110295541Y-125243604D01*
X110279996Y-125224662D01*
X110261054Y-125209117D01*
X110239443Y-125197565D01*
X110215994Y-125190452D01*
X110191607Y-125188050D01*
X110167221Y-125190452D01*
X110068945Y-125210000D01*
X109931055Y-125210000D01*
X109832779Y-125190452D01*
X109808393Y-125188050D01*
X109784006Y-125190452D01*
X109760557Y-125197565D01*
X109738946Y-125209117D01*
X109720004Y-125224662D01*
X109704459Y-125243604D01*
X109692908Y-125265215D01*
X109685795Y-125288664D01*
X109683393Y-125313050D01*
X109685795Y-125337437D01*
X109692903Y-125360871D01*
X109739650Y-125473726D01*
X109780000Y-125676584D01*
X109780000Y-125883416D01*
X109739650Y-126086274D01*
X109660498Y-126277362D01*
X109545589Y-126449336D01*
X109399336Y-126595589D01*
X109227362Y-126710498D01*
X109036274Y-126789650D01*
X108855888Y-126825530D01*
X108833417Y-126830000D01*
X108626583Y-126830000D01*
X108604112Y-126825530D01*
X108423726Y-126789650D01*
X108232638Y-126710498D01*
X108060664Y-126595589D01*
X107981687Y-126516612D01*
X107962745Y-126501066D01*
X107941134Y-126489515D01*
X107917685Y-126482402D01*
X107893299Y-126480000D01*
X105700000Y-126480000D01*
X105700000Y-125080000D01*
X107893299Y-125080000D01*
X107917685Y-125077598D01*
X107941134Y-125070485D01*
X107962745Y-125058934D01*
X107981687Y-125043388D01*
X108060664Y-124964411D01*
X108232638Y-124849502D01*
X108423726Y-124770350D01*
X108604112Y-124734470D01*
X108626583Y-124730000D01*
X108833417Y-124730000D01*
X108855888Y-124734470D01*
X109036274Y-124770350D01*
X109149129Y-124817097D01*
X109172563Y-124824205D01*
X109196950Y-124826607D01*
X109221336Y-124824205D01*
X109244785Y-124817092D01*
X109266396Y-124805541D01*
X109285338Y-124789996D01*
X109300883Y-124771054D01*
X109312435Y-124749443D01*
X109319548Y-124725994D01*
X109321950Y-124701607D01*
X109319548Y-124677221D01*
X109300000Y-124578945D01*
X109300000Y-124441055D01*
X109319548Y-124342779D01*
X109321950Y-124318393D01*
X109319548Y-124294006D01*
X109312435Y-124270557D01*
X109300883Y-124248946D01*
X109285338Y-124230004D01*
X109266396Y-124214459D01*
X109244785Y-124202908D01*
X109221336Y-124195795D01*
X109196950Y-124193393D01*
X109172563Y-124195795D01*
X109149129Y-124202903D01*
X109036274Y-124249650D01*
X108855888Y-124285530D01*
X108833417Y-124290000D01*
X108626583Y-124290000D01*
X108604112Y-124285530D01*
X108423726Y-124249650D01*
X108232638Y-124170498D01*
X108060664Y-124055589D01*
X107981687Y-123976612D01*
X107962745Y-123961066D01*
X107941134Y-123949515D01*
X107917685Y-123942402D01*
X107893299Y-123940000D01*
X105700000Y-123940000D01*
X105700000Y-122651022D01*
X109624618Y-122651022D01*
X109627020Y-122675409D01*
X109634133Y-122698858D01*
X109645679Y-122720460D01*
X109660498Y-122742638D01*
X109739650Y-122933726D01*
X109780000Y-123136584D01*
X109780000Y-123343416D01*
X109739650Y-123546274D01*
X109692903Y-123659129D01*
X109685795Y-123682563D01*
X109683393Y-123706950D01*
X109685795Y-123731336D01*
X109692908Y-123754785D01*
X109704459Y-123776396D01*
X109720004Y-123795338D01*
X109738946Y-123810883D01*
X109760557Y-123822435D01*
X109784006Y-123829548D01*
X109808393Y-123831950D01*
X109832779Y-123829548D01*
X109931055Y-123810000D01*
X110068945Y-123810000D01*
X110167221Y-123829548D01*
X110191607Y-123831950D01*
X110215994Y-123829548D01*
X110239443Y-123822435D01*
X110261054Y-123810883D01*
X110279996Y-123795338D01*
X110295541Y-123776396D01*
X110307092Y-123754785D01*
X110314205Y-123731336D01*
X110316607Y-123706950D01*
X110314205Y-123682563D01*
X110307097Y-123659129D01*
X110260350Y-123546274D01*
X110220000Y-123343416D01*
X110220000Y-123136584D01*
X110260350Y-122933726D01*
X110339502Y-122742638D01*
X110354321Y-122720460D01*
X110365867Y-122698858D01*
X110372980Y-122675409D01*
X110375382Y-122651023D01*
X110372980Y-122626637D01*
X110365867Y-122603188D01*
X110354316Y-122581577D01*
X110338770Y-122562635D01*
X110319828Y-122547089D01*
X110298217Y-122535538D01*
X110274768Y-122528425D01*
X110250382Y-122526023D01*
X110225996Y-122528425D01*
X110202545Y-122535538D01*
X110175014Y-122546942D01*
X110175013Y-122546942D01*
X110175011Y-122546943D01*
X110059096Y-122570000D01*
X109940904Y-122570000D01*
X109824989Y-122546943D01*
X109824987Y-122546942D01*
X109824986Y-122546942D01*
X109797455Y-122535538D01*
X109774005Y-122528425D01*
X109749619Y-122526023D01*
X109725232Y-122528425D01*
X109701783Y-122535538D01*
X109680172Y-122547089D01*
X109661230Y-122562634D01*
X109645685Y-122581576D01*
X109634133Y-122603187D01*
X109627020Y-122626636D01*
X109624618Y-122651022D01*
X105700000Y-122651022D01*
X105700000Y-122540000D01*
X107893299Y-122540000D01*
X107917685Y-122537598D01*
X107941134Y-122530485D01*
X107962745Y-122518934D01*
X107981687Y-122503388D01*
X108060664Y-122424411D01*
X108232638Y-122309502D01*
X108423726Y-122230350D01*
X108604112Y-122194470D01*
X108626583Y-122190000D01*
X108833417Y-122190000D01*
X108855888Y-122194470D01*
X109036274Y-122230350D01*
X109227362Y-122309502D01*
X109249540Y-122324321D01*
X109271142Y-122335867D01*
X109294591Y-122342980D01*
X109318977Y-122345382D01*
X109343363Y-122342980D01*
X109366812Y-122335867D01*
X109388423Y-122324316D01*
X109407365Y-122308770D01*
X109422911Y-122289828D01*
X109434462Y-122268217D01*
X109441575Y-122244768D01*
X109443977Y-122220382D01*
X109441575Y-122195996D01*
X109434462Y-122172546D01*
X109423057Y-122145011D01*
X109400000Y-122029096D01*
X109400000Y-121910904D01*
X109423057Y-121794989D01*
X109434462Y-121767454D01*
X109441575Y-121744005D01*
X109443977Y-121719619D01*
X109441575Y-121695232D01*
X109434462Y-121671783D01*
X109422911Y-121650172D01*
X109407366Y-121631230D01*
X109388424Y-121615685D01*
X109366813Y-121604133D01*
X109343364Y-121597020D01*
X109318978Y-121594618D01*
X109294591Y-121597020D01*
X109271142Y-121604133D01*
X109249540Y-121615679D01*
X109227362Y-121630498D01*
X109036274Y-121709650D01*
X108855888Y-121745530D01*
X108833417Y-121750000D01*
X108626583Y-121750000D01*
X108604112Y-121745530D01*
X108423726Y-121709650D01*
X108232638Y-121630498D01*
X108060664Y-121515589D01*
X107981687Y-121436612D01*
X107962745Y-121421066D01*
X107941134Y-121409515D01*
X107917685Y-121402402D01*
X107893299Y-121400000D01*
X105700000Y-121400000D01*
X105700000Y-120000000D01*
X107893299Y-120000000D01*
X107917685Y-119997598D01*
X107941134Y-119990485D01*
X107962745Y-119978934D01*
X107981687Y-119963388D01*
X108060664Y-119884411D01*
X108232638Y-119769502D01*
X108423726Y-119690350D01*
X108604112Y-119654470D01*
X108626583Y-119650000D01*
X108833417Y-119650000D01*
X108855888Y-119654470D01*
X108855888Y-119654470D01*
G37*
G36*
X134900000Y-125080000D02*
X132500000Y-125080000D01*
X132500000Y-124080000D01*
X134900000Y-124080000D01*
X134900000Y-125080000D01*
X134900000Y-125080000D01*
G37*
G36*
X125500000Y-125080000D02*
X123100000Y-125080000D01*
X123100000Y-124080000D01*
X125500000Y-124080000D01*
X125500000Y-125080000D01*
X125500000Y-125080000D01*
G37*
G36*
X134900000Y-123810000D02*
X132500000Y-123810000D01*
X132500000Y-122810000D01*
X134900000Y-122810000D01*
X134900000Y-123810000D01*
X134900000Y-123810000D01*
G37*
G36*
X125500000Y-123810000D02*
X123100000Y-123810000D01*
X123100000Y-122810000D01*
X125500000Y-122810000D01*
X125500000Y-123810000D01*
X125500000Y-123810000D01*
G37*
G36*
X118724870Y-121695232D02*
X118882105Y-121726508D01*
X119054994Y-121798121D01*
X119210590Y-121902087D01*
X119342913Y-122034410D01*
X119446879Y-122190006D01*
X119518492Y-122362895D01*
X119530728Y-122424411D01*
X119553721Y-122540000D01*
X119555000Y-122546433D01*
X119555000Y-122733567D01*
X119518492Y-122917105D01*
X119446879Y-123089994D01*
X119342913Y-123245590D01*
X119210590Y-123377913D01*
X119054994Y-123481879D01*
X118882105Y-123553492D01*
X118744451Y-123580873D01*
X118698568Y-123590000D01*
X118511432Y-123590000D01*
X118465549Y-123580873D01*
X118327895Y-123553492D01*
X118155006Y-123481879D01*
X117999410Y-123377913D01*
X117867087Y-123245590D01*
X117763121Y-123089994D01*
X117691508Y-122917105D01*
X117655000Y-122733567D01*
X117655000Y-122546433D01*
X117656280Y-122540000D01*
X117679272Y-122424411D01*
X117691508Y-122362895D01*
X117763121Y-122190006D01*
X117867087Y-122034410D01*
X117999410Y-121902087D01*
X118155006Y-121798121D01*
X118327895Y-121726508D01*
X118485130Y-121695232D01*
X118511432Y-121690000D01*
X118698568Y-121690000D01*
X118724870Y-121695232D01*
X118724870Y-121695232D01*
G37*
G36*
X134900000Y-122540000D02*
X132500000Y-122540000D01*
X132500000Y-121540000D01*
X134900000Y-121540000D01*
X134900000Y-122540000D01*
X134900000Y-122540000D01*
G37*
G36*
X125500000Y-122540000D02*
X123100000Y-122540000D01*
X123100000Y-121540000D01*
X125500000Y-121540000D01*
X125500000Y-122540000D01*
X125500000Y-122540000D01*
G37*
G36*
X150450000Y-122450000D02*
X146550000Y-122450000D01*
X146550000Y-118550000D01*
X150450000Y-118550000D01*
X150450000Y-122450000D01*
X150450000Y-122450000D01*
G37*
G36*
X144450000Y-122450000D02*
X140550000Y-122450000D01*
X140550000Y-118550000D01*
X144450000Y-118550000D01*
X144450000Y-122450000D01*
X144450000Y-122450000D01*
G37*
G36*
X134900000Y-121270000D02*
X132500000Y-121270000D01*
X132500000Y-120270000D01*
X134900000Y-120270000D01*
X134900000Y-121270000D01*
X134900000Y-121270000D01*
G37*
G36*
X125500000Y-121270000D02*
X123100000Y-121270000D01*
X123100000Y-120270000D01*
X125500000Y-120270000D01*
X125500000Y-121270000D01*
X125500000Y-121270000D01*
G37*
G36*
X125500000Y-120000000D02*
X123100000Y-120000000D01*
X123100000Y-119000000D01*
X125500000Y-119000000D01*
X125500000Y-120000000D01*
X125500000Y-120000000D01*
G37*
G36*
X134900000Y-120000000D02*
X132500000Y-120000000D01*
X132500000Y-119000000D01*
X134900000Y-119000000D01*
X134900000Y-120000000D01*
X134900000Y-120000000D01*
G37*
G36*
X108855888Y-117114470D02*
X109036274Y-117150350D01*
X109227362Y-117229502D01*
X109399336Y-117344411D01*
X109545589Y-117490664D01*
X109660498Y-117662638D01*
X109739650Y-117853726D01*
X109775530Y-118034112D01*
X109776126Y-118037105D01*
X109780000Y-118056584D01*
X109780000Y-118263416D01*
X109739650Y-118466274D01*
X109660498Y-118657362D01*
X109545589Y-118829336D01*
X109399336Y-118975589D01*
X109227362Y-119090498D01*
X109036274Y-119169650D01*
X108855888Y-119205530D01*
X108833417Y-119210000D01*
X108626583Y-119210000D01*
X108604112Y-119205530D01*
X108423726Y-119169650D01*
X108232638Y-119090498D01*
X108060664Y-118975589D01*
X107981687Y-118896612D01*
X107962745Y-118881066D01*
X107941134Y-118869515D01*
X107917685Y-118862402D01*
X107893299Y-118860000D01*
X105700000Y-118860000D01*
X105700000Y-117460000D01*
X107893299Y-117460000D01*
X107917685Y-117457598D01*
X107941134Y-117450485D01*
X107962745Y-117438934D01*
X107981687Y-117423388D01*
X108060664Y-117344411D01*
X108232638Y-117229502D01*
X108423726Y-117150350D01*
X108604112Y-117114470D01*
X108626583Y-117110000D01*
X108833417Y-117110000D01*
X108855888Y-117114470D01*
X108855888Y-117114470D01*
G37*
G36*
X111395888Y-117114470D02*
X111576274Y-117150350D01*
X111767362Y-117229502D01*
X111939336Y-117344411D01*
X112018313Y-117423388D01*
X112037255Y-117438934D01*
X112058866Y-117450485D01*
X112082315Y-117457598D01*
X112106701Y-117460000D01*
X114300000Y-117460000D01*
X114300000Y-118860000D01*
X112106701Y-118860000D01*
X112082315Y-118862402D01*
X112058866Y-118869515D01*
X112037255Y-118881066D01*
X112018313Y-118896612D01*
X111939336Y-118975589D01*
X111767362Y-119090498D01*
X111576274Y-119169650D01*
X111395888Y-119205530D01*
X111373417Y-119210000D01*
X111166583Y-119210000D01*
X111144112Y-119205530D01*
X110963726Y-119169650D01*
X110772638Y-119090498D01*
X110600664Y-118975589D01*
X110454411Y-118829336D01*
X110339502Y-118657362D01*
X110260350Y-118466274D01*
X110220000Y-118263416D01*
X110220000Y-118056584D01*
X110223875Y-118037105D01*
X110224470Y-118034112D01*
X110260350Y-117853726D01*
X110339502Y-117662638D01*
X110454411Y-117490664D01*
X110600664Y-117344411D01*
X110772638Y-117229502D01*
X110963726Y-117150350D01*
X111144112Y-117114470D01*
X111166583Y-117110000D01*
X111373417Y-117110000D01*
X111395888Y-117114470D01*
X111395888Y-117114470D01*
G37*
G36*
X137416000Y-118960000D02*
X136116000Y-118960000D01*
X136116000Y-118060000D01*
X137416000Y-118060000D01*
X137416000Y-118960000D01*
X137416000Y-118960000D01*
G37*
G36*
X134900000Y-118730000D02*
X132500000Y-118730000D01*
X132500000Y-117730000D01*
X134900000Y-117730000D01*
X134900000Y-118730000D01*
X134900000Y-118730000D01*
G37*
G36*
X125500000Y-118730000D02*
X123100000Y-118730000D01*
X123100000Y-117730000D01*
X125500000Y-117730000D01*
X125500000Y-118730000D01*
X125500000Y-118730000D01*
G37*
G36*
X118744451Y-116819127D02*
X118882105Y-116846508D01*
X119054994Y-116918121D01*
X119210590Y-117022087D01*
X119342913Y-117154410D01*
X119446879Y-117310006D01*
X119518492Y-117482895D01*
X119520037Y-117490664D01*
X119555000Y-117666432D01*
X119555000Y-117853568D01*
X119554968Y-117853729D01*
X119518492Y-118037105D01*
X119446879Y-118209994D01*
X119342913Y-118365590D01*
X119210590Y-118497913D01*
X119054994Y-118601879D01*
X118882105Y-118673492D01*
X118744452Y-118700873D01*
X118698568Y-118710000D01*
X118511432Y-118710000D01*
X118465548Y-118700873D01*
X118327895Y-118673492D01*
X118155006Y-118601879D01*
X117999410Y-118497913D01*
X117867087Y-118365590D01*
X117763121Y-118209994D01*
X117691508Y-118037105D01*
X117655032Y-117853729D01*
X117655000Y-117853568D01*
X117655000Y-117666432D01*
X117689963Y-117490664D01*
X117691508Y-117482895D01*
X117763121Y-117310006D01*
X117867087Y-117154410D01*
X117999410Y-117022087D01*
X118155006Y-116918121D01*
X118327895Y-116846508D01*
X118465549Y-116819127D01*
X118511432Y-116810000D01*
X118698568Y-116810000D01*
X118744451Y-116819127D01*
X118744451Y-116819127D01*
G37*
G36*
X147450000Y-117750000D02*
X143550000Y-117750000D01*
X143550000Y-113850000D01*
X147450000Y-113850000D01*
X147450000Y-117750000D01*
X147450000Y-117750000D01*
G37*
G36*
X122811000Y-117563000D02*
X121511000Y-117563000D01*
X121511000Y-116663000D01*
X122811000Y-116663000D01*
X122811000Y-117563000D01*
X122811000Y-117563000D01*
G37*
G36*
X134900000Y-117460000D02*
X132500000Y-117460000D01*
X132500000Y-116460000D01*
X134900000Y-116460000D01*
X134900000Y-117460000D01*
X134900000Y-117460000D01*
G37*
G36*
X125500000Y-117460000D02*
X123100000Y-117460000D01*
X123100000Y-116460000D01*
X125500000Y-116460000D01*
X125500000Y-117460000D01*
X125500000Y-117460000D01*
G37*
G36*
X137416000Y-117460000D02*
X136116000Y-117460000D01*
X136116000Y-116560000D01*
X137416000Y-116560000D01*
X137416000Y-117460000D01*
X137416000Y-117460000D01*
G37*
G36*
X108855888Y-114574470D02*
X109036274Y-114610350D01*
X109227362Y-114689502D01*
X109399336Y-114804411D01*
X109545589Y-114950664D01*
X109660498Y-115122638D01*
X109739650Y-115313726D01*
X109780000Y-115516584D01*
X109780000Y-115723416D01*
X109739650Y-115926274D01*
X109660498Y-116117362D01*
X109545589Y-116289336D01*
X109399336Y-116435589D01*
X109227362Y-116550498D01*
X109036274Y-116629650D01*
X108868608Y-116663000D01*
X108833417Y-116670000D01*
X108626583Y-116670000D01*
X108591392Y-116663000D01*
X108423726Y-116629650D01*
X108232638Y-116550498D01*
X108060664Y-116435589D01*
X107981687Y-116356612D01*
X107962745Y-116341066D01*
X107941134Y-116329515D01*
X107917685Y-116322402D01*
X107893299Y-116320000D01*
X105700000Y-116320000D01*
X105700000Y-114920000D01*
X107893299Y-114920000D01*
X107917685Y-114917598D01*
X107941134Y-114910485D01*
X107962745Y-114898934D01*
X107981687Y-114883388D01*
X108060664Y-114804411D01*
X108232638Y-114689502D01*
X108423726Y-114610350D01*
X108604112Y-114574470D01*
X108626583Y-114570000D01*
X108833417Y-114570000D01*
X108855888Y-114574470D01*
X108855888Y-114574470D01*
G37*
G36*
X111395888Y-114574470D02*
X111576274Y-114610350D01*
X111767362Y-114689502D01*
X111939336Y-114804411D01*
X112018313Y-114883388D01*
X112037255Y-114898934D01*
X112058866Y-114910485D01*
X112082315Y-114917598D01*
X112106701Y-114920000D01*
X114300000Y-114920000D01*
X114300000Y-116320000D01*
X112106701Y-116320000D01*
X112082315Y-116322402D01*
X112058866Y-116329515D01*
X112037255Y-116341066D01*
X112018313Y-116356612D01*
X111939336Y-116435589D01*
X111767362Y-116550498D01*
X111576274Y-116629650D01*
X111408608Y-116663000D01*
X111373417Y-116670000D01*
X111166583Y-116670000D01*
X111131392Y-116663000D01*
X110963726Y-116629650D01*
X110772638Y-116550498D01*
X110600664Y-116435589D01*
X110454411Y-116289336D01*
X110339502Y-116117362D01*
X110260350Y-115926274D01*
X110220000Y-115723416D01*
X110220000Y-115516584D01*
X110260350Y-115313726D01*
X110339502Y-115122638D01*
X110454411Y-114950664D01*
X110600664Y-114804411D01*
X110772638Y-114689502D01*
X110963726Y-114610350D01*
X111144112Y-114574470D01*
X111166583Y-114570000D01*
X111373417Y-114570000D01*
X111395888Y-114574470D01*
X111395888Y-114574470D01*
G37*
G36*
X134900000Y-116190000D02*
X132500000Y-116190000D01*
X132500000Y-115190000D01*
X134900000Y-115190000D01*
X134900000Y-116190000D01*
X134900000Y-116190000D01*
G37*
G36*
X125500000Y-116190000D02*
X123100000Y-116190000D01*
X123100000Y-115190000D01*
X125500000Y-115190000D01*
X125500000Y-116190000D01*
X125500000Y-116190000D01*
G37*
G36*
X122811000Y-116063000D02*
X121511000Y-116063000D01*
X121511000Y-115163000D01*
X122811000Y-115163000D01*
X122811000Y-116063000D01*
X122811000Y-116063000D01*
G37*
G36*
X137341000Y-116062000D02*
X136191000Y-116062000D01*
X136191000Y-114862000D01*
X137341000Y-114862000D01*
X137341000Y-116062000D01*
X137341000Y-116062000D01*
G37*
G36*
X134900000Y-114920000D02*
X132500000Y-114920000D01*
X132500000Y-113920000D01*
X134900000Y-113920000D01*
X134900000Y-114920000D01*
X134900000Y-114920000D01*
G37*
G36*
X125500000Y-114920000D02*
X123100000Y-114920000D01*
X123100000Y-113920000D01*
X125500000Y-113920000D01*
X125500000Y-114920000D01*
X125500000Y-114920000D01*
G37*
G36*
X122811000Y-114769000D02*
X121511000Y-114769000D01*
X121511000Y-113869000D01*
X122811000Y-113869000D01*
X122811000Y-114769000D01*
X122811000Y-114769000D01*
G37*
G36*
X137341000Y-114562000D02*
X136191000Y-114562000D01*
X136191000Y-113362000D01*
X137341000Y-113362000D01*
X137341000Y-114562000D01*
X137341000Y-114562000D01*
G37*
G36*
X111395888Y-112034470D02*
X111576274Y-112070350D01*
X111767362Y-112149502D01*
X111939336Y-112264411D01*
X112018313Y-112343388D01*
X112037255Y-112358934D01*
X112058866Y-112370485D01*
X112082315Y-112377598D01*
X112106701Y-112380000D01*
X114300000Y-112380000D01*
X114300000Y-113780000D01*
X112106701Y-113780000D01*
X112082315Y-113782402D01*
X112058866Y-113789515D01*
X112037255Y-113801066D01*
X112018313Y-113816612D01*
X111939336Y-113895589D01*
X111767362Y-114010498D01*
X111576274Y-114089650D01*
X111395888Y-114125530D01*
X111373417Y-114130000D01*
X111166583Y-114130000D01*
X111144112Y-114125530D01*
X110963726Y-114089650D01*
X110772638Y-114010498D01*
X110600664Y-113895589D01*
X110454411Y-113749336D01*
X110339502Y-113577362D01*
X110260350Y-113386274D01*
X110220000Y-113183416D01*
X110220000Y-112976584D01*
X110260350Y-112773726D01*
X110339502Y-112582638D01*
X110454411Y-112410664D01*
X110600664Y-112264411D01*
X110772638Y-112149502D01*
X110963726Y-112070350D01*
X111144112Y-112034470D01*
X111166583Y-112030000D01*
X111373417Y-112030000D01*
X111395888Y-112034470D01*
X111395888Y-112034470D01*
G37*
G36*
X108855888Y-112034470D02*
X109036274Y-112070350D01*
X109227362Y-112149502D01*
X109399336Y-112264411D01*
X109545589Y-112410664D01*
X109660498Y-112582638D01*
X109739650Y-112773726D01*
X109780000Y-112976584D01*
X109780000Y-113183416D01*
X109739650Y-113386274D01*
X109660498Y-113577362D01*
X109545589Y-113749336D01*
X109399336Y-113895589D01*
X109227362Y-114010498D01*
X109036274Y-114089650D01*
X108855888Y-114125530D01*
X108833417Y-114130000D01*
X108626583Y-114130000D01*
X108604112Y-114125530D01*
X108423726Y-114089650D01*
X108232638Y-114010498D01*
X108060664Y-113895589D01*
X107981687Y-113816612D01*
X107962745Y-113801066D01*
X107941134Y-113789515D01*
X107917685Y-113782402D01*
X107893299Y-113780000D01*
X105700000Y-113780000D01*
X105700000Y-112380000D01*
X107893299Y-112380000D01*
X107917685Y-112377598D01*
X107941134Y-112370485D01*
X107962745Y-112358934D01*
X107981687Y-112343388D01*
X108060664Y-112264411D01*
X108232638Y-112149502D01*
X108423726Y-112070350D01*
X108604112Y-112034470D01*
X108626583Y-112030000D01*
X108833417Y-112030000D01*
X108855888Y-112034470D01*
X108855888Y-112034470D01*
G37*
G36*
X122811000Y-113269000D02*
X121511000Y-113269000D01*
X121511000Y-112369000D01*
X122811000Y-112369000D01*
X122811000Y-113269000D01*
X122811000Y-113269000D01*
G37*
G36*
X133822000Y-113255000D02*
X132622000Y-113255000D01*
X132622000Y-112105000D01*
X133822000Y-112105000D01*
X133822000Y-113255000D01*
X133822000Y-113255000D01*
G37*
G36*
X135322000Y-113255000D02*
X134122000Y-113255000D01*
X134122000Y-112105000D01*
X135322000Y-112105000D01*
X135322000Y-113255000D01*
X135322000Y-113255000D01*
G37*
G36*
X142561000Y-113255000D02*
X141361000Y-113255000D01*
X141361000Y-112105000D01*
X142561000Y-112105000D01*
X142561000Y-113255000D01*
X142561000Y-113255000D01*
G37*
G36*
X141061000Y-113255000D02*
X139861000Y-113255000D01*
X139861000Y-112105000D01*
X141061000Y-112105000D01*
X141061000Y-113255000D01*
X141061000Y-113255000D01*
G37*
G36*
X111395888Y-109494470D02*
X111576274Y-109530350D01*
X111767362Y-109609502D01*
X111939336Y-109724411D01*
X112018313Y-109803388D01*
X112037255Y-109818934D01*
X112058866Y-109830485D01*
X112082315Y-109837598D01*
X112106701Y-109840000D01*
X114300000Y-109840000D01*
X114300000Y-111240000D01*
X112106701Y-111240000D01*
X112082315Y-111242402D01*
X112058866Y-111249515D01*
X112037255Y-111261066D01*
X112018313Y-111276612D01*
X111939336Y-111355589D01*
X111767362Y-111470498D01*
X111576274Y-111549650D01*
X111395888Y-111585530D01*
X111373417Y-111590000D01*
X111166583Y-111590000D01*
X111144112Y-111585530D01*
X110963726Y-111549650D01*
X110772638Y-111470498D01*
X110600664Y-111355589D01*
X110454411Y-111209336D01*
X110339502Y-111037362D01*
X110260350Y-110846274D01*
X110220000Y-110643416D01*
X110220000Y-110436584D01*
X110260350Y-110233726D01*
X110339502Y-110042638D01*
X110454411Y-109870664D01*
X110600664Y-109724411D01*
X110772638Y-109609502D01*
X110963726Y-109530350D01*
X111144112Y-109494470D01*
X111166583Y-109490000D01*
X111373417Y-109490000D01*
X111395888Y-109494470D01*
X111395888Y-109494470D01*
G37*
G36*
X108855888Y-109494470D02*
X109036274Y-109530350D01*
X109227362Y-109609502D01*
X109399336Y-109724411D01*
X109545589Y-109870664D01*
X109660498Y-110042638D01*
X109739650Y-110233726D01*
X109780000Y-110436584D01*
X109780000Y-110643416D01*
X109739650Y-110846274D01*
X109660498Y-111037362D01*
X109545589Y-111209336D01*
X109399336Y-111355589D01*
X109227362Y-111470498D01*
X109036274Y-111549650D01*
X108855888Y-111585530D01*
X108833417Y-111590000D01*
X108626583Y-111590000D01*
X108604112Y-111585530D01*
X108423726Y-111549650D01*
X108232638Y-111470498D01*
X108060664Y-111355589D01*
X107981687Y-111276612D01*
X107962745Y-111261066D01*
X107941134Y-111249515D01*
X107917685Y-111242402D01*
X107893299Y-111240000D01*
X105700000Y-111240000D01*
X105700000Y-109840000D01*
X107893299Y-109840000D01*
X107917685Y-109837598D01*
X107941134Y-109830485D01*
X107962745Y-109818934D01*
X107981687Y-109803388D01*
X108060664Y-109724411D01*
X108232638Y-109609502D01*
X108423726Y-109530350D01*
X108604112Y-109494470D01*
X108626583Y-109490000D01*
X108833417Y-109490000D01*
X108855888Y-109494470D01*
X108855888Y-109494470D01*
G37*
G36*
X125530000Y-111490000D02*
X124380000Y-111490000D01*
X124380000Y-110290000D01*
X125530000Y-110290000D01*
X125530000Y-111490000D01*
X125530000Y-111490000D01*
G37*
G36*
X127506000Y-111361000D02*
X126046000Y-111361000D01*
X126046000Y-108411000D01*
X127506000Y-108411000D01*
X127506000Y-111361000D01*
X127506000Y-111361000D01*
G37*
G36*
X129706000Y-111361000D02*
X128246000Y-111361000D01*
X128246000Y-110311000D01*
X129706000Y-110311000D01*
X129706000Y-111361000D01*
X129706000Y-111361000D01*
G37*
G36*
X122176000Y-111340000D02*
X120876000Y-111340000D01*
X120876000Y-110440000D01*
X122176000Y-110440000D01*
X122176000Y-111340000D01*
X122176000Y-111340000D01*
G37*
G36*
X123954000Y-111340000D02*
X122654000Y-111340000D01*
X122654000Y-110440000D01*
X123954000Y-110440000D01*
X123954000Y-111340000D01*
X123954000Y-111340000D01*
G37*
G36*
X136833000Y-110982000D02*
X135683000Y-110982000D01*
X135683000Y-109782000D01*
X136833000Y-109782000D01*
X136833000Y-110982000D01*
X136833000Y-110982000D01*
G37*
G36*
X135055000Y-110982000D02*
X133905000Y-110982000D01*
X133905000Y-109782000D01*
X135055000Y-109782000D01*
X135055000Y-110982000D01*
X135055000Y-110982000D01*
G37*
G36*
X133352000Y-110832000D02*
X132052000Y-110832000D01*
X132052000Y-109932000D01*
X133352000Y-109932000D01*
X133352000Y-110832000D01*
X133352000Y-110832000D01*
G37*
G36*
X131574000Y-110832000D02*
X130274000Y-110832000D01*
X130274000Y-109932000D01*
X131574000Y-109932000D01*
X131574000Y-110832000D01*
X131574000Y-110832000D01*
G37*
G36*
X125530000Y-109990000D02*
X124380000Y-109990000D01*
X124380000Y-108790000D01*
X125530000Y-108790000D01*
X125530000Y-109990000D01*
X125530000Y-109990000D01*
G37*
G36*
X122176000Y-109840000D02*
X120876000Y-109840000D01*
X120876000Y-108940000D01*
X122176000Y-108940000D01*
X122176000Y-109840000D01*
X122176000Y-109840000D01*
G37*
G36*
X123954000Y-109840000D02*
X122654000Y-109840000D01*
X122654000Y-108940000D01*
X123954000Y-108940000D01*
X123954000Y-109840000D01*
X123954000Y-109840000D01*
G37*
G36*
X135055000Y-109482000D02*
X133905000Y-109482000D01*
X133905000Y-108282000D01*
X135055000Y-108282000D01*
X135055000Y-109482000D01*
X135055000Y-109482000D01*
G37*
G36*
X136833000Y-109482000D02*
X135683000Y-109482000D01*
X135683000Y-108282000D01*
X136833000Y-108282000D01*
X136833000Y-109482000D01*
X136833000Y-109482000D01*
G37*
G36*
X129706000Y-109461000D02*
X128246000Y-109461000D01*
X128246000Y-108411000D01*
X129706000Y-108411000D01*
X129706000Y-109461000D01*
X129706000Y-109461000D01*
G37*
G36*
X133352000Y-109332000D02*
X132052000Y-109332000D01*
X132052000Y-108432000D01*
X133352000Y-108432000D01*
X133352000Y-109332000D01*
X133352000Y-109332000D01*
G37*
G36*
X131574000Y-109332000D02*
X130274000Y-109332000D01*
X130274000Y-108432000D01*
X131574000Y-108432000D01*
X131574000Y-109332000D01*
X131574000Y-109332000D01*
G37*
G36*
X108855888Y-106954470D02*
X109036274Y-106990350D01*
X109227362Y-107069502D01*
X109399336Y-107184411D01*
X109545589Y-107330664D01*
X109660498Y-107502638D01*
X109739650Y-107693726D01*
X109775530Y-107874112D01*
X109780000Y-107896583D01*
X109780000Y-108103417D01*
X109775530Y-108125888D01*
X109739650Y-108306274D01*
X109660498Y-108497362D01*
X109545589Y-108669336D01*
X109399336Y-108815589D01*
X109227362Y-108930498D01*
X109036274Y-109009650D01*
X108855888Y-109045530D01*
X108833417Y-109050000D01*
X108626583Y-109050000D01*
X108604112Y-109045530D01*
X108423726Y-109009650D01*
X108232638Y-108930498D01*
X108060664Y-108815589D01*
X107981687Y-108736612D01*
X107962745Y-108721066D01*
X107941134Y-108709515D01*
X107917685Y-108702402D01*
X107893299Y-108700000D01*
X105700000Y-108700000D01*
X105700000Y-107300000D01*
X107893299Y-107300000D01*
X107917685Y-107297598D01*
X107941134Y-107290485D01*
X107962745Y-107278934D01*
X107981687Y-107263388D01*
X108060664Y-107184411D01*
X108232638Y-107069502D01*
X108423726Y-106990350D01*
X108604112Y-106954470D01*
X108626583Y-106950000D01*
X108833417Y-106950000D01*
X108855888Y-106954470D01*
X108855888Y-106954470D01*
G37*
G36*
X111395888Y-106954470D02*
X111576274Y-106990350D01*
X111767362Y-107069502D01*
X111939336Y-107184411D01*
X112018313Y-107263388D01*
X112037255Y-107278934D01*
X112058866Y-107290485D01*
X112082315Y-107297598D01*
X112106701Y-107300000D01*
X114300000Y-107300000D01*
X114300000Y-108700000D01*
X112106701Y-108700000D01*
X112082315Y-108702402D01*
X112058866Y-108709515D01*
X112037255Y-108721066D01*
X112018313Y-108736612D01*
X111939336Y-108815589D01*
X111767362Y-108930498D01*
X111576274Y-109009650D01*
X111395888Y-109045530D01*
X111373417Y-109050000D01*
X111166583Y-109050000D01*
X111144112Y-109045530D01*
X110963726Y-109009650D01*
X110772638Y-108930498D01*
X110600664Y-108815589D01*
X110454411Y-108669336D01*
X110339502Y-108497362D01*
X110260350Y-108306274D01*
X110224470Y-108125888D01*
X110220000Y-108103417D01*
X110220000Y-107896583D01*
X110224470Y-107874112D01*
X110260350Y-107693726D01*
X110339502Y-107502638D01*
X110454411Y-107330664D01*
X110600664Y-107184411D01*
X110772638Y-107069502D01*
X110963726Y-106990350D01*
X111144112Y-106954470D01*
X111166583Y-106950000D01*
X111373417Y-106950000D01*
X111395888Y-106954470D01*
X111395888Y-106954470D01*
G37*
G36*
X150702530Y-106123032D02*
X150953674Y-106227059D01*
X151179702Y-106378086D01*
X151371914Y-106570298D01*
X151522941Y-106796326D01*
X151626968Y-107047470D01*
X151680000Y-107314080D01*
X151680000Y-107585920D01*
X151626968Y-107852530D01*
X151522941Y-108103674D01*
X151371914Y-108329702D01*
X151179702Y-108521914D01*
X150953674Y-108672941D01*
X150702530Y-108776968D01*
X150435920Y-108830000D01*
X150164080Y-108830000D01*
X149897470Y-108776968D01*
X149646326Y-108672941D01*
X149420298Y-108521914D01*
X149228086Y-108329702D01*
X149077059Y-108103674D01*
X148973032Y-107852530D01*
X148920000Y-107585920D01*
X148920000Y-107314080D01*
X148973032Y-107047470D01*
X149077059Y-106796326D01*
X149228086Y-106570298D01*
X149420298Y-106378086D01*
X149646326Y-106227059D01*
X149897470Y-106123032D01*
X150164080Y-106070000D01*
X150435920Y-106070000D01*
X150702530Y-106123032D01*
X150702530Y-106123032D01*
G37*
G36*
X128107000Y-107794000D02*
X126907000Y-107794000D01*
X126907000Y-106644000D01*
X128107000Y-106644000D01*
X128107000Y-107794000D01*
X128107000Y-107794000D01*
G37*
G36*
X133187000Y-107794000D02*
X131987000Y-107794000D01*
X131987000Y-106644000D01*
X133187000Y-106644000D01*
X133187000Y-107794000D01*
X133187000Y-107794000D01*
G37*
G36*
X129607000Y-107794000D02*
X128407000Y-107794000D01*
X128407000Y-106644000D01*
X129607000Y-106644000D01*
X129607000Y-107794000D01*
X129607000Y-107794000D01*
G37*
G36*
X134687000Y-107794000D02*
X133487000Y-107794000D01*
X133487000Y-106644000D01*
X134687000Y-106644000D01*
X134687000Y-107794000D01*
X134687000Y-107794000D01*
G37*
G36*
X108855888Y-104414470D02*
X109036274Y-104450350D01*
X109227362Y-104529502D01*
X109399336Y-104644411D01*
X109545589Y-104790664D01*
X109660498Y-104962638D01*
X109739650Y-105153726D01*
X109780000Y-105356584D01*
X109780000Y-105563416D01*
X109739650Y-105766274D01*
X109660498Y-105957362D01*
X109545589Y-106129336D01*
X109399336Y-106275589D01*
X109227362Y-106390498D01*
X109036274Y-106469650D01*
X108855888Y-106505530D01*
X108833417Y-106510000D01*
X108626583Y-106510000D01*
X108604112Y-106505530D01*
X108423726Y-106469650D01*
X108232638Y-106390498D01*
X108060664Y-106275589D01*
X107981687Y-106196612D01*
X107962745Y-106181066D01*
X107941134Y-106169515D01*
X107917685Y-106162402D01*
X107893299Y-106160000D01*
X105700000Y-106160000D01*
X105700000Y-104760000D01*
X107893299Y-104760000D01*
X107917685Y-104757598D01*
X107941134Y-104750485D01*
X107962745Y-104738934D01*
X107981687Y-104723388D01*
X108060664Y-104644411D01*
X108232638Y-104529502D01*
X108423726Y-104450350D01*
X108604112Y-104414470D01*
X108626583Y-104410000D01*
X108833417Y-104410000D01*
X108855888Y-104414470D01*
X108855888Y-104414470D01*
G37*
G36*
X111395888Y-104414470D02*
X111576274Y-104450350D01*
X111767362Y-104529502D01*
X111939336Y-104644411D01*
X112018313Y-104723388D01*
X112037255Y-104738934D01*
X112058866Y-104750485D01*
X112082315Y-104757598D01*
X112106701Y-104760000D01*
X114300000Y-104760000D01*
X114300000Y-106160000D01*
X112106701Y-106160000D01*
X112082315Y-106162402D01*
X112058866Y-106169515D01*
X112037255Y-106181066D01*
X112018313Y-106196612D01*
X111939336Y-106275589D01*
X111767362Y-106390498D01*
X111576274Y-106469650D01*
X111395888Y-106505530D01*
X111373417Y-106510000D01*
X111166583Y-106510000D01*
X111144112Y-106505530D01*
X110963726Y-106469650D01*
X110772638Y-106390498D01*
X110600664Y-106275589D01*
X110454411Y-106129336D01*
X110339502Y-105957362D01*
X110260350Y-105766274D01*
X110220000Y-105563416D01*
X110220000Y-105356584D01*
X110260350Y-105153726D01*
X110339502Y-104962638D01*
X110454411Y-104790664D01*
X110600664Y-104644411D01*
X110772638Y-104529502D01*
X110963726Y-104450350D01*
X111144112Y-104414470D01*
X111166583Y-104410000D01*
X111373417Y-104410000D01*
X111395888Y-104414470D01*
X111395888Y-104414470D01*
G37*
G36*
X121722030Y-103566469D02*
X121722033Y-103566470D01*
X121722034Y-103566470D01*
X121910535Y-103623651D01*
X121910537Y-103623652D01*
X122084260Y-103716509D01*
X122236528Y-103841472D01*
X122361491Y-103993740D01*
X122361492Y-103993742D01*
X122454349Y-104167465D01*
X122511530Y-104355966D01*
X122511531Y-104355970D01*
X122530838Y-104552000D01*
X122511531Y-104748030D01*
X122511530Y-104748033D01*
X122511530Y-104748034D01*
X122476656Y-104863000D01*
X122454348Y-104936537D01*
X122361491Y-105110260D01*
X122236528Y-105262528D01*
X122084260Y-105387491D01*
X122084258Y-105387492D01*
X121910535Y-105480349D01*
X121722034Y-105537530D01*
X121722033Y-105537530D01*
X121722030Y-105537531D01*
X121575124Y-105552000D01*
X121476876Y-105552000D01*
X121329970Y-105537531D01*
X121329967Y-105537530D01*
X121329966Y-105537530D01*
X121141465Y-105480349D01*
X120967742Y-105387492D01*
X120967740Y-105387491D01*
X120815472Y-105262528D01*
X120690509Y-105110260D01*
X120597652Y-104936537D01*
X120575345Y-104863000D01*
X120540470Y-104748034D01*
X120540470Y-104748033D01*
X120540469Y-104748030D01*
X120521162Y-104552000D01*
X120540469Y-104355970D01*
X120540470Y-104355966D01*
X120597651Y-104167465D01*
X120690508Y-103993742D01*
X120690509Y-103993740D01*
X120815472Y-103841472D01*
X120967740Y-103716509D01*
X121141463Y-103623652D01*
X121141465Y-103623651D01*
X121329966Y-103566470D01*
X121329967Y-103566470D01*
X121329970Y-103566469D01*
X121476876Y-103552000D01*
X121575124Y-103552000D01*
X121722030Y-103566469D01*
X121722030Y-103566469D01*
G37*
G36*
X130146000Y-105552000D02*
X128146000Y-105552000D01*
X128146000Y-103552000D01*
X130146000Y-103552000D01*
X130146000Y-105552000D01*
X130146000Y-105552000D01*
G37*
G36*
X148187287Y-98978446D02*
X148280022Y-98996892D01*
X148454731Y-99069259D01*
X148609872Y-99172921D01*
X148611967Y-99174321D01*
X148745679Y-99308033D01*
X148745681Y-99308036D01*
X148850741Y-99465269D01*
X148923108Y-99639978D01*
X148929176Y-99670485D01*
X148955547Y-99803058D01*
X148960000Y-99825448D01*
X148960000Y-100014552D01*
X148923108Y-100200022D01*
X148891395Y-100276583D01*
X148850742Y-100374729D01*
X148745679Y-100531967D01*
X148611967Y-100665679D01*
X148611964Y-100665681D01*
X148454731Y-100770741D01*
X148454730Y-100770742D01*
X148454729Y-100770742D01*
X148324909Y-100824515D01*
X148303298Y-100836066D01*
X148284356Y-100851611D01*
X148268810Y-100870554D01*
X148257259Y-100892164D01*
X148250146Y-100915613D01*
X148247744Y-100940000D01*
X148250146Y-100964386D01*
X148257259Y-100987835D01*
X148268810Y-101009446D01*
X148284355Y-101028388D01*
X148303298Y-101043934D01*
X148324909Y-101055485D01*
X148434952Y-101101066D01*
X148454731Y-101109259D01*
X148555376Y-101176508D01*
X148611967Y-101214321D01*
X148745679Y-101348033D01*
X148745681Y-101348036D01*
X148850741Y-101505269D01*
X148922289Y-101678000D01*
X148923108Y-101679979D01*
X148950158Y-101815966D01*
X148960000Y-101865448D01*
X148960000Y-102054552D01*
X148927091Y-102220000D01*
X148923108Y-102240021D01*
X148861695Y-102388287D01*
X148850741Y-102414731D01*
X148776882Y-102525269D01*
X148745679Y-102571967D01*
X148611967Y-102705679D01*
X148611964Y-102705681D01*
X148454731Y-102810741D01*
X148454730Y-102810742D01*
X148454729Y-102810742D01*
X148440625Y-102816584D01*
X148333625Y-102860905D01*
X148324909Y-102864515D01*
X148303298Y-102876066D01*
X148284356Y-102891611D01*
X148268810Y-102910554D01*
X148257259Y-102932164D01*
X148250146Y-102955613D01*
X148247744Y-102980000D01*
X148250146Y-103004386D01*
X148257259Y-103027835D01*
X148268810Y-103049446D01*
X148284355Y-103068388D01*
X148303298Y-103083934D01*
X148324908Y-103095484D01*
X148454731Y-103149259D01*
X148536966Y-103204207D01*
X148611967Y-103254321D01*
X148745679Y-103388033D01*
X148745681Y-103388036D01*
X148850741Y-103545269D01*
X148923108Y-103719978D01*
X148926213Y-103735589D01*
X148960000Y-103905447D01*
X148960000Y-104094553D01*
X148923108Y-104280021D01*
X148850742Y-104454729D01*
X148745679Y-104611967D01*
X148611967Y-104745679D01*
X148611964Y-104745681D01*
X148454731Y-104850741D01*
X148280022Y-104923108D01*
X148212519Y-104936535D01*
X148094553Y-104960000D01*
X147905447Y-104960000D01*
X147787481Y-104936535D01*
X147719978Y-104923108D01*
X147545269Y-104850741D01*
X147388036Y-104745681D01*
X147388033Y-104745679D01*
X147254321Y-104611967D01*
X147149258Y-104454729D01*
X147076892Y-104280021D01*
X147040000Y-104094553D01*
X147040000Y-103905447D01*
X147073787Y-103735589D01*
X147076892Y-103719978D01*
X147149259Y-103545269D01*
X147254319Y-103388036D01*
X147254321Y-103388033D01*
X147388033Y-103254321D01*
X147463034Y-103204207D01*
X147545269Y-103149259D01*
X147675092Y-103095484D01*
X147696702Y-103083934D01*
X147715644Y-103068389D01*
X147731190Y-103049446D01*
X147742741Y-103027836D01*
X147749854Y-103004387D01*
X147752256Y-102980000D01*
X147749854Y-102955614D01*
X147742741Y-102932165D01*
X147731190Y-102910554D01*
X147715645Y-102891612D01*
X147696702Y-102876066D01*
X147675091Y-102864515D01*
X147666376Y-102860905D01*
X147559375Y-102816584D01*
X147545271Y-102810742D01*
X147545270Y-102810742D01*
X147545269Y-102810741D01*
X147388036Y-102705681D01*
X147388033Y-102705679D01*
X147254321Y-102571967D01*
X147223118Y-102525269D01*
X147149259Y-102414731D01*
X147138306Y-102388287D01*
X147076892Y-102240021D01*
X147072910Y-102220000D01*
X147040000Y-102054552D01*
X147040000Y-101865448D01*
X147049843Y-101815966D01*
X147076892Y-101679979D01*
X147077712Y-101678000D01*
X147149259Y-101505269D01*
X147254319Y-101348036D01*
X147254321Y-101348033D01*
X147388033Y-101214321D01*
X147444624Y-101176508D01*
X147545269Y-101109259D01*
X147565049Y-101101066D01*
X147675091Y-101055485D01*
X147696702Y-101043934D01*
X147715644Y-101028389D01*
X147731190Y-101009446D01*
X147742741Y-100987836D01*
X147749854Y-100964387D01*
X147752256Y-100940000D01*
X147749854Y-100915614D01*
X147742741Y-100892165D01*
X147731190Y-100870554D01*
X147715645Y-100851612D01*
X147696702Y-100836066D01*
X147675091Y-100824515D01*
X147545271Y-100770742D01*
X147545270Y-100770742D01*
X147545269Y-100770741D01*
X147388036Y-100665681D01*
X147388033Y-100665679D01*
X147254321Y-100531967D01*
X147149258Y-100374729D01*
X147108605Y-100276583D01*
X147076892Y-100200022D01*
X147040000Y-100014552D01*
X147040000Y-99825448D01*
X147044454Y-99803058D01*
X147070824Y-99670485D01*
X147076892Y-99639978D01*
X147149259Y-99465269D01*
X147254319Y-99308036D01*
X147254321Y-99308033D01*
X147388033Y-99174321D01*
X147390128Y-99172921D01*
X147545269Y-99069259D01*
X147719978Y-98996892D01*
X147812713Y-98978446D01*
X147905447Y-98960000D01*
X148094553Y-98960000D01*
X148187287Y-98978446D01*
X148187287Y-98978446D01*
G37*
G36*
X119890000Y-104863000D02*
X118590000Y-104863000D01*
X118590000Y-103963000D01*
X119890000Y-103963000D01*
X119890000Y-104863000D01*
X119890000Y-104863000D01*
G37*
G36*
X132134000Y-104378000D02*
X130984000Y-104378000D01*
X130984000Y-103178000D01*
X132134000Y-103178000D01*
X132134000Y-104378000D01*
X132134000Y-104378000D01*
G37*
G36*
X135892000Y-104228000D02*
X134592000Y-104228000D01*
X134592000Y-103328000D01*
X135892000Y-103328000D01*
X135892000Y-104228000D01*
X135892000Y-104228000D01*
G37*
G36*
X133987000Y-104228000D02*
X132687000Y-104228000D01*
X132687000Y-103328000D01*
X133987000Y-103328000D01*
X133987000Y-104228000D01*
X133987000Y-104228000D01*
G37*
G36*
X111395888Y-101874470D02*
X111576274Y-101910350D01*
X111767362Y-101989502D01*
X111939336Y-102104411D01*
X112018313Y-102183388D01*
X112037255Y-102198934D01*
X112058866Y-102210485D01*
X112082315Y-102217598D01*
X112106701Y-102220000D01*
X114300000Y-102220000D01*
X114300000Y-103620000D01*
X112106701Y-103620000D01*
X112082315Y-103622402D01*
X112058866Y-103629515D01*
X112037255Y-103641066D01*
X112018313Y-103656612D01*
X111939336Y-103735589D01*
X111767362Y-103850498D01*
X111576274Y-103929650D01*
X111408608Y-103963000D01*
X111373417Y-103970000D01*
X111166583Y-103970000D01*
X111131392Y-103963000D01*
X110963726Y-103929650D01*
X110772638Y-103850498D01*
X110600664Y-103735589D01*
X110454411Y-103589336D01*
X110339502Y-103417362D01*
X110260350Y-103226274D01*
X110220000Y-103023416D01*
X110220000Y-102816584D01*
X110260350Y-102613726D01*
X110339502Y-102422638D01*
X110454411Y-102250664D01*
X110600664Y-102104411D01*
X110772638Y-101989502D01*
X110963726Y-101910350D01*
X111144112Y-101874470D01*
X111166583Y-101870000D01*
X111373417Y-101870000D01*
X111395888Y-101874470D01*
X111395888Y-101874470D01*
G37*
G36*
X108855888Y-101874470D02*
X109036274Y-101910350D01*
X109227362Y-101989502D01*
X109399336Y-102104411D01*
X109545589Y-102250664D01*
X109660498Y-102422638D01*
X109739650Y-102613726D01*
X109780000Y-102816584D01*
X109780000Y-103023416D01*
X109739650Y-103226274D01*
X109660498Y-103417362D01*
X109545589Y-103589336D01*
X109399336Y-103735589D01*
X109227362Y-103850498D01*
X109036274Y-103929650D01*
X108868608Y-103963000D01*
X108833417Y-103970000D01*
X108626583Y-103970000D01*
X108591392Y-103963000D01*
X108423726Y-103929650D01*
X108232638Y-103850498D01*
X108060664Y-103735589D01*
X107981687Y-103656612D01*
X107962745Y-103641066D01*
X107941134Y-103629515D01*
X107917685Y-103622402D01*
X107893299Y-103620000D01*
X105700000Y-103620000D01*
X105700000Y-102220000D01*
X107893299Y-102220000D01*
X107917685Y-102217598D01*
X107941134Y-102210485D01*
X107962745Y-102198934D01*
X107981687Y-102183388D01*
X108060664Y-102104411D01*
X108232638Y-101989502D01*
X108423726Y-101910350D01*
X108604112Y-101874470D01*
X108626583Y-101870000D01*
X108833417Y-101870000D01*
X108855888Y-101874470D01*
X108855888Y-101874470D01*
G37*
G36*
X145571726Y-97943416D02*
X145740022Y-97976892D01*
X145914731Y-98049259D01*
X146026898Y-98124207D01*
X146071967Y-98154321D01*
X146205679Y-98288033D01*
X146205681Y-98288036D01*
X146310741Y-98445269D01*
X146383108Y-98619978D01*
X146420000Y-98805448D01*
X146420000Y-98994552D01*
X146383108Y-99180022D01*
X146310741Y-99354731D01*
X146300304Y-99370351D01*
X146205679Y-99511967D01*
X146071967Y-99645679D01*
X146071964Y-99645681D01*
X145914731Y-99750741D01*
X145914730Y-99750742D01*
X145914729Y-99750742D01*
X145784909Y-99804515D01*
X145763298Y-99816066D01*
X145744356Y-99831611D01*
X145728810Y-99850554D01*
X145717259Y-99872164D01*
X145710146Y-99895613D01*
X145707744Y-99920000D01*
X145710146Y-99944386D01*
X145717259Y-99967835D01*
X145728810Y-99989446D01*
X145744355Y-100008388D01*
X145763298Y-100023934D01*
X145784909Y-100035485D01*
X145877239Y-100073729D01*
X145914731Y-100089259D01*
X146069872Y-100192921D01*
X146071967Y-100194321D01*
X146205679Y-100328033D01*
X146205681Y-100328036D01*
X146310741Y-100485269D01*
X146383108Y-100659978D01*
X146401554Y-100752713D01*
X146420000Y-100845447D01*
X146420000Y-101034553D01*
X146409067Y-101089515D01*
X146383108Y-101220022D01*
X146331937Y-101343559D01*
X146310742Y-101394729D01*
X146205679Y-101551967D01*
X146071967Y-101685679D01*
X146071964Y-101685681D01*
X145914731Y-101790741D01*
X145914730Y-101790742D01*
X145914729Y-101790742D01*
X145784909Y-101844515D01*
X145763298Y-101856066D01*
X145744356Y-101871611D01*
X145728810Y-101890554D01*
X145717259Y-101912164D01*
X145710146Y-101935613D01*
X145707744Y-101960000D01*
X145710146Y-101984386D01*
X145717259Y-102007835D01*
X145728810Y-102029446D01*
X145744355Y-102048388D01*
X145763298Y-102063934D01*
X145784908Y-102075484D01*
X145914731Y-102129259D01*
X146019007Y-102198934D01*
X146071967Y-102234321D01*
X146205679Y-102368033D01*
X146310742Y-102525271D01*
X146329376Y-102570258D01*
X146383108Y-102699978D01*
X146420000Y-102885448D01*
X146420000Y-103074552D01*
X146383108Y-103260022D01*
X146340453Y-103363000D01*
X146310742Y-103434729D01*
X146205679Y-103591967D01*
X146071967Y-103725679D01*
X146071964Y-103725681D01*
X145914731Y-103830741D01*
X145914730Y-103830742D01*
X145914729Y-103830742D01*
X145863559Y-103851937D01*
X145740022Y-103903108D01*
X145647287Y-103921554D01*
X145554553Y-103940000D01*
X145365447Y-103940000D01*
X145272713Y-103921554D01*
X145179978Y-103903108D01*
X145056441Y-103851937D01*
X145005271Y-103830742D01*
X145005270Y-103830742D01*
X145005269Y-103830741D01*
X144848036Y-103725681D01*
X144848033Y-103725679D01*
X144714321Y-103591967D01*
X144609258Y-103434729D01*
X144579547Y-103363000D01*
X144536892Y-103260022D01*
X144500000Y-103074552D01*
X144500000Y-102885448D01*
X144536892Y-102699978D01*
X144590624Y-102570258D01*
X144609258Y-102525271D01*
X144714321Y-102368033D01*
X144848033Y-102234321D01*
X144900993Y-102198934D01*
X145005269Y-102129259D01*
X145135092Y-102075484D01*
X145156702Y-102063934D01*
X145175644Y-102048389D01*
X145191190Y-102029446D01*
X145202741Y-102007836D01*
X145209854Y-101984387D01*
X145212256Y-101960000D01*
X145209854Y-101935614D01*
X145202741Y-101912165D01*
X145191190Y-101890554D01*
X145175645Y-101871612D01*
X145156702Y-101856066D01*
X145135091Y-101844515D01*
X145005271Y-101790742D01*
X145005270Y-101790742D01*
X145005269Y-101790741D01*
X144848036Y-101685681D01*
X144848033Y-101685679D01*
X144714321Y-101551967D01*
X144609258Y-101394729D01*
X144588063Y-101343559D01*
X144536892Y-101220022D01*
X144510933Y-101089515D01*
X144500000Y-101034553D01*
X144500000Y-100845447D01*
X144518446Y-100752713D01*
X144536892Y-100659978D01*
X144609259Y-100485269D01*
X144714319Y-100328036D01*
X144714321Y-100328033D01*
X144848033Y-100194321D01*
X144850128Y-100192921D01*
X145005269Y-100089259D01*
X145042762Y-100073729D01*
X145135091Y-100035485D01*
X145156702Y-100023934D01*
X145175644Y-100008389D01*
X145191190Y-99989446D01*
X145202741Y-99967836D01*
X145209854Y-99944387D01*
X145212256Y-99920000D01*
X145209854Y-99895614D01*
X145202741Y-99872165D01*
X145191190Y-99850554D01*
X145175645Y-99831612D01*
X145156702Y-99816066D01*
X145135091Y-99804515D01*
X145005271Y-99750742D01*
X145005270Y-99750742D01*
X145005269Y-99750741D01*
X144848036Y-99645681D01*
X144848033Y-99645679D01*
X144714321Y-99511967D01*
X144619696Y-99370351D01*
X144609259Y-99354731D01*
X144536892Y-99180022D01*
X144500000Y-98994552D01*
X144500000Y-98805448D01*
X144536892Y-98619978D01*
X144609259Y-98445269D01*
X144714319Y-98288036D01*
X144714321Y-98288033D01*
X144848033Y-98154321D01*
X144893102Y-98124207D01*
X145005269Y-98049259D01*
X145179978Y-97976892D01*
X145348274Y-97943416D01*
X145365447Y-97940000D01*
X145554553Y-97940000D01*
X145571726Y-97943416D01*
X145571726Y-97943416D01*
G37*
G36*
X119890000Y-103363000D02*
X118590000Y-103363000D01*
X118590000Y-102463000D01*
X119890000Y-102463000D01*
X119890000Y-103363000D01*
X119890000Y-103363000D01*
G37*
G36*
X129342030Y-101026469D02*
X129342033Y-101026470D01*
X129342034Y-101026470D01*
X129530535Y-101083651D01*
X129530537Y-101083652D01*
X129704260Y-101176509D01*
X129856528Y-101301472D01*
X129981491Y-101453740D01*
X129981492Y-101453742D01*
X130074349Y-101627465D01*
X130123878Y-101790741D01*
X130131531Y-101815970D01*
X130150838Y-102012000D01*
X130131531Y-102208030D01*
X130131530Y-102208033D01*
X130131530Y-102208034D01*
X130097566Y-102320000D01*
X130074348Y-102396537D01*
X129981491Y-102570260D01*
X129856528Y-102722528D01*
X129704260Y-102847491D01*
X129568605Y-102920000D01*
X129530535Y-102940349D01*
X129342034Y-102997530D01*
X129342033Y-102997530D01*
X129342030Y-102997531D01*
X129195124Y-103012000D01*
X129096876Y-103012000D01*
X128949970Y-102997531D01*
X128949967Y-102997530D01*
X128949966Y-102997530D01*
X128761465Y-102940349D01*
X128723395Y-102920000D01*
X128587740Y-102847491D01*
X128435472Y-102722528D01*
X128310509Y-102570260D01*
X128217652Y-102396537D01*
X128194435Y-102320000D01*
X128160470Y-102208034D01*
X128160470Y-102208033D01*
X128160469Y-102208030D01*
X128141162Y-102012000D01*
X128160469Y-101815970D01*
X128168122Y-101790741D01*
X128217651Y-101627465D01*
X128310508Y-101453742D01*
X128310509Y-101453740D01*
X128435472Y-101301472D01*
X128587740Y-101176509D01*
X128761463Y-101083652D01*
X128761465Y-101083651D01*
X128949966Y-101026470D01*
X128949967Y-101026470D01*
X128949970Y-101026469D01*
X129096876Y-101012000D01*
X129195124Y-101012000D01*
X129342030Y-101026469D01*
X129342030Y-101026469D01*
G37*
G36*
X121722030Y-101026469D02*
X121722033Y-101026470D01*
X121722034Y-101026470D01*
X121910535Y-101083651D01*
X121910537Y-101083652D01*
X122084260Y-101176509D01*
X122236528Y-101301472D01*
X122361491Y-101453740D01*
X122361492Y-101453742D01*
X122454349Y-101627465D01*
X122503878Y-101790741D01*
X122511531Y-101815970D01*
X122530838Y-102012000D01*
X122511531Y-102208030D01*
X122511530Y-102208033D01*
X122511530Y-102208034D01*
X122477566Y-102320000D01*
X122454348Y-102396537D01*
X122361491Y-102570260D01*
X122236528Y-102722528D01*
X122084260Y-102847491D01*
X121948605Y-102920000D01*
X121910535Y-102940349D01*
X121722034Y-102997530D01*
X121722033Y-102997530D01*
X121722030Y-102997531D01*
X121575124Y-103012000D01*
X121476876Y-103012000D01*
X121329970Y-102997531D01*
X121329967Y-102997530D01*
X121329966Y-102997530D01*
X121141465Y-102940349D01*
X121103395Y-102920000D01*
X120967740Y-102847491D01*
X120815472Y-102722528D01*
X120690509Y-102570260D01*
X120597652Y-102396537D01*
X120574435Y-102320000D01*
X120540470Y-102208034D01*
X120540470Y-102208033D01*
X120540469Y-102208030D01*
X120521162Y-102012000D01*
X120540469Y-101815970D01*
X120548122Y-101790741D01*
X120597651Y-101627465D01*
X120690508Y-101453742D01*
X120690509Y-101453740D01*
X120815472Y-101301472D01*
X120967740Y-101176509D01*
X121141463Y-101083652D01*
X121141465Y-101083651D01*
X121329966Y-101026470D01*
X121329967Y-101026470D01*
X121329970Y-101026469D01*
X121476876Y-101012000D01*
X121575124Y-101012000D01*
X121722030Y-101026469D01*
X121722030Y-101026469D01*
G37*
G36*
X132134000Y-102878000D02*
X130984000Y-102878000D01*
X130984000Y-101678000D01*
X132134000Y-101678000D01*
X132134000Y-102878000D01*
X132134000Y-102878000D01*
G37*
G36*
X133987000Y-102728000D02*
X132687000Y-102728000D01*
X132687000Y-101828000D01*
X133987000Y-101828000D01*
X133987000Y-102728000D01*
X133987000Y-102728000D01*
G37*
G36*
X135892000Y-102728000D02*
X134592000Y-102728000D01*
X134592000Y-101828000D01*
X135892000Y-101828000D01*
X135892000Y-102728000D01*
X135892000Y-102728000D01*
G37*
G36*
X111395888Y-99334470D02*
X111576274Y-99370350D01*
X111767362Y-99449502D01*
X111939336Y-99564411D01*
X112018313Y-99643388D01*
X112037255Y-99658934D01*
X112058866Y-99670485D01*
X112082315Y-99677598D01*
X112106701Y-99680000D01*
X114300000Y-99680000D01*
X114300000Y-101080000D01*
X112106701Y-101080000D01*
X112082315Y-101082402D01*
X112058866Y-101089515D01*
X112037255Y-101101066D01*
X112018313Y-101116612D01*
X111939336Y-101195589D01*
X111767362Y-101310498D01*
X111576274Y-101389650D01*
X111395888Y-101425530D01*
X111373417Y-101430000D01*
X111166583Y-101430000D01*
X111144112Y-101425530D01*
X110963726Y-101389650D01*
X110772638Y-101310498D01*
X110600664Y-101195589D01*
X110454411Y-101049336D01*
X110339502Y-100877362D01*
X110260350Y-100686274D01*
X110220369Y-100485271D01*
X110220000Y-100483417D01*
X110220000Y-100276583D01*
X110224470Y-100254112D01*
X110260350Y-100073726D01*
X110339502Y-99882638D01*
X110454411Y-99710664D01*
X110600664Y-99564411D01*
X110772638Y-99449502D01*
X110963726Y-99370350D01*
X111144112Y-99334470D01*
X111166583Y-99330000D01*
X111373417Y-99330000D01*
X111395888Y-99334470D01*
X111395888Y-99334470D01*
G37*
G36*
X108855888Y-99334470D02*
X109036274Y-99370350D01*
X109227362Y-99449502D01*
X109399336Y-99564411D01*
X109545589Y-99710664D01*
X109660498Y-99882638D01*
X109739650Y-100073726D01*
X109775530Y-100254112D01*
X109780000Y-100276583D01*
X109780000Y-100483417D01*
X109779631Y-100485271D01*
X109739650Y-100686274D01*
X109660498Y-100877362D01*
X109545589Y-101049336D01*
X109399336Y-101195589D01*
X109227362Y-101310498D01*
X109036274Y-101389650D01*
X108855888Y-101425530D01*
X108833417Y-101430000D01*
X108626583Y-101430000D01*
X108604112Y-101425530D01*
X108423726Y-101389650D01*
X108232638Y-101310498D01*
X108060664Y-101195589D01*
X107981687Y-101116612D01*
X107962745Y-101101066D01*
X107941134Y-101089515D01*
X107917685Y-101082402D01*
X107893299Y-101080000D01*
X105700000Y-101080000D01*
X105700000Y-99680000D01*
X107893299Y-99680000D01*
X107917685Y-99677598D01*
X107941134Y-99670485D01*
X107962745Y-99658934D01*
X107981687Y-99643388D01*
X108060664Y-99564411D01*
X108232638Y-99449502D01*
X108423726Y-99370350D01*
X108604112Y-99334470D01*
X108626583Y-99330000D01*
X108833417Y-99330000D01*
X108855888Y-99334470D01*
X108855888Y-99334470D01*
G37*
G36*
X137976000Y-98917000D02*
X136826000Y-98917000D01*
X136826000Y-97717000D01*
X137976000Y-97717000D01*
X137976000Y-98917000D01*
X137976000Y-98917000D01*
G37*
G36*
X111395888Y-96794470D02*
X111576274Y-96830350D01*
X111767362Y-96909502D01*
X111939336Y-97024411D01*
X112018313Y-97103388D01*
X112037255Y-97118934D01*
X112058866Y-97130485D01*
X112082315Y-97137598D01*
X112106701Y-97140000D01*
X114300000Y-97140000D01*
X114300000Y-98540000D01*
X112106701Y-98540000D01*
X112082315Y-98542402D01*
X112058866Y-98549515D01*
X112037255Y-98561066D01*
X112018313Y-98576612D01*
X111939336Y-98655589D01*
X111767362Y-98770498D01*
X111576274Y-98849650D01*
X111395888Y-98885530D01*
X111373417Y-98890000D01*
X111166583Y-98890000D01*
X111144112Y-98885530D01*
X110963726Y-98849650D01*
X110772638Y-98770498D01*
X110600664Y-98655589D01*
X110454411Y-98509336D01*
X110339502Y-98337362D01*
X110260350Y-98146274D01*
X110220000Y-97943416D01*
X110220000Y-97736584D01*
X110260350Y-97533726D01*
X110339502Y-97342638D01*
X110454411Y-97170664D01*
X110600664Y-97024411D01*
X110772638Y-96909502D01*
X110963726Y-96830350D01*
X111144112Y-96794470D01*
X111166583Y-96790000D01*
X111373417Y-96790000D01*
X111395888Y-96794470D01*
X111395888Y-96794470D01*
G37*
G36*
X108855888Y-96794470D02*
X109036274Y-96830350D01*
X109227362Y-96909502D01*
X109399336Y-97024411D01*
X109545589Y-97170664D01*
X109660498Y-97342638D01*
X109739650Y-97533726D01*
X109780000Y-97736584D01*
X109780000Y-97943416D01*
X109739650Y-98146274D01*
X109660498Y-98337362D01*
X109545589Y-98509336D01*
X109399336Y-98655589D01*
X109227362Y-98770498D01*
X109036274Y-98849650D01*
X108855888Y-98885530D01*
X108833417Y-98890000D01*
X108626583Y-98890000D01*
X108604112Y-98885530D01*
X108423726Y-98849650D01*
X108232638Y-98770498D01*
X108060664Y-98655589D01*
X107981687Y-98576612D01*
X107962745Y-98561066D01*
X107941134Y-98549515D01*
X107917685Y-98542402D01*
X107893299Y-98540000D01*
X105700000Y-98540000D01*
X105700000Y-97140000D01*
X107893299Y-97140000D01*
X107917685Y-97137598D01*
X107941134Y-97130485D01*
X107962745Y-97118934D01*
X107981687Y-97103388D01*
X108060664Y-97024411D01*
X108232638Y-96909502D01*
X108423726Y-96830350D01*
X108604112Y-96794470D01*
X108626583Y-96790000D01*
X108833417Y-96790000D01*
X108855888Y-96794470D01*
X108855888Y-96794470D01*
G37*
G36*
X118328000Y-97634000D02*
X117128000Y-97634000D01*
X117128000Y-96484000D01*
X118328000Y-96484000D01*
X118328000Y-97634000D01*
X118328000Y-97634000D01*
G37*
G36*
X119828000Y-97634000D02*
X118628000Y-97634000D01*
X118628000Y-96484000D01*
X119828000Y-96484000D01*
X119828000Y-97634000D01*
X119828000Y-97634000D01*
G37*
G36*
X137976000Y-97417000D02*
X136826000Y-97417000D01*
X136826000Y-96217000D01*
X137976000Y-96217000D01*
X137976000Y-97417000D01*
X137976000Y-97417000D01*
G37*
G36*
X150702530Y-94123032D02*
X150953674Y-94227059D01*
X151179702Y-94378086D01*
X151371914Y-94570298D01*
X151522941Y-94796326D01*
X151626968Y-95047470D01*
X151680000Y-95314080D01*
X151680000Y-95585920D01*
X151626968Y-95852530D01*
X151522941Y-96103674D01*
X151371914Y-96329702D01*
X151179702Y-96521914D01*
X150953674Y-96672941D01*
X150702530Y-96776968D01*
X150435920Y-96830000D01*
X150164080Y-96830000D01*
X149897470Y-96776968D01*
X149646326Y-96672941D01*
X149420298Y-96521914D01*
X149228086Y-96329702D01*
X149077059Y-96103674D01*
X148973032Y-95852530D01*
X148920000Y-95585920D01*
X148920000Y-95314080D01*
X148973032Y-95047470D01*
X149077059Y-94796326D01*
X149228086Y-94570298D01*
X149420298Y-94378086D01*
X149646326Y-94227059D01*
X149897470Y-94123032D01*
X150164080Y-94070000D01*
X150435920Y-94070000D01*
X150702530Y-94123032D01*
X150702530Y-94123032D01*
G37*
G36*
X108855888Y-89174470D02*
X109036274Y-89210350D01*
X109227362Y-89289502D01*
X109399336Y-89404411D01*
X109545589Y-89550664D01*
X109660498Y-89722638D01*
X109739650Y-89913726D01*
X109780000Y-90116584D01*
X109780000Y-90323416D01*
X109739650Y-90526274D01*
X109692903Y-90639129D01*
X109685795Y-90662563D01*
X109683393Y-90686950D01*
X109685795Y-90711336D01*
X109692908Y-90734785D01*
X109704459Y-90756396D01*
X109720004Y-90775338D01*
X109738946Y-90790883D01*
X109760557Y-90802435D01*
X109784006Y-90809548D01*
X109808393Y-90811950D01*
X109832779Y-90809548D01*
X109931055Y-90790000D01*
X110068945Y-90790000D01*
X110167221Y-90809548D01*
X110191607Y-90811950D01*
X110215994Y-90809548D01*
X110239443Y-90802435D01*
X110261054Y-90790883D01*
X110279996Y-90775338D01*
X110295541Y-90756396D01*
X110307092Y-90734785D01*
X110314205Y-90711336D01*
X110316607Y-90686950D01*
X110314205Y-90662563D01*
X110307097Y-90639129D01*
X110260350Y-90526274D01*
X110220000Y-90323416D01*
X110220000Y-90116584D01*
X110260350Y-89913726D01*
X110339502Y-89722638D01*
X110454411Y-89550664D01*
X110600664Y-89404411D01*
X110772638Y-89289502D01*
X110963726Y-89210350D01*
X111144112Y-89174470D01*
X111166583Y-89170000D01*
X111373417Y-89170000D01*
X111395888Y-89174470D01*
X111576274Y-89210350D01*
X111767362Y-89289502D01*
X111939336Y-89404411D01*
X112018313Y-89483388D01*
X112037255Y-89498934D01*
X112058866Y-89510485D01*
X112082315Y-89517598D01*
X112106701Y-89520000D01*
X114300000Y-89520000D01*
X114300000Y-90920000D01*
X112106701Y-90920000D01*
X112082315Y-90922402D01*
X112058866Y-90929515D01*
X112037255Y-90941066D01*
X112018313Y-90956612D01*
X111939336Y-91035589D01*
X111767362Y-91150498D01*
X111576274Y-91229650D01*
X111395888Y-91265530D01*
X111373417Y-91270000D01*
X111166583Y-91270000D01*
X111144112Y-91265530D01*
X110963726Y-91229650D01*
X110850871Y-91182903D01*
X110827437Y-91175795D01*
X110803050Y-91173393D01*
X110778664Y-91175795D01*
X110755215Y-91182908D01*
X110733604Y-91194459D01*
X110714662Y-91210004D01*
X110699117Y-91228946D01*
X110687565Y-91250557D01*
X110680452Y-91274006D01*
X110678050Y-91298393D01*
X110680452Y-91322779D01*
X110700000Y-91421055D01*
X110700000Y-91558945D01*
X110680452Y-91657221D01*
X110678050Y-91681607D01*
X110680452Y-91705994D01*
X110687565Y-91729443D01*
X110699117Y-91751054D01*
X110714662Y-91769996D01*
X110733604Y-91785541D01*
X110755215Y-91797092D01*
X110778664Y-91804205D01*
X110803050Y-91806607D01*
X110827437Y-91804205D01*
X110850871Y-91797097D01*
X110963726Y-91750350D01*
X111144112Y-91714470D01*
X111166583Y-91710000D01*
X111373417Y-91710000D01*
X111395888Y-91714470D01*
X111576274Y-91750350D01*
X111767362Y-91829502D01*
X111939336Y-91944411D01*
X112018313Y-92023388D01*
X112037255Y-92038934D01*
X112058866Y-92050485D01*
X112082315Y-92057598D01*
X112106701Y-92060000D01*
X114300000Y-92060000D01*
X114300000Y-93460000D01*
X112106701Y-93460000D01*
X112082315Y-93462402D01*
X112058866Y-93469515D01*
X112037255Y-93481066D01*
X112018313Y-93496612D01*
X111939336Y-93575589D01*
X111767362Y-93690498D01*
X111576274Y-93769650D01*
X111395888Y-93805530D01*
X111373417Y-93810000D01*
X111166583Y-93810000D01*
X111144112Y-93805530D01*
X110963726Y-93769650D01*
X110772638Y-93690498D01*
X110750460Y-93675679D01*
X110728858Y-93664133D01*
X110705409Y-93657020D01*
X110681023Y-93654618D01*
X110656637Y-93657020D01*
X110633188Y-93664133D01*
X110611577Y-93675684D01*
X110592635Y-93691230D01*
X110577089Y-93710172D01*
X110565538Y-93731783D01*
X110558425Y-93755232D01*
X110556023Y-93779618D01*
X110558425Y-93804004D01*
X110565538Y-93827454D01*
X110576943Y-93854989D01*
X110600000Y-93970904D01*
X110600000Y-94089096D01*
X110576943Y-94205011D01*
X110565538Y-94232546D01*
X110558425Y-94255995D01*
X110556023Y-94280381D01*
X110558425Y-94304768D01*
X110565538Y-94328217D01*
X110577089Y-94349828D01*
X110592634Y-94368770D01*
X110611576Y-94384315D01*
X110633187Y-94395867D01*
X110656636Y-94402980D01*
X110681022Y-94405382D01*
X110705409Y-94402980D01*
X110728858Y-94395867D01*
X110750460Y-94384321D01*
X110772638Y-94369502D01*
X110963726Y-94290350D01*
X111144112Y-94254470D01*
X111166583Y-94250000D01*
X111373417Y-94250000D01*
X111395888Y-94254470D01*
X111576274Y-94290350D01*
X111767362Y-94369502D01*
X111939336Y-94484411D01*
X112018313Y-94563388D01*
X112037255Y-94578934D01*
X112058866Y-94590485D01*
X112082315Y-94597598D01*
X112106701Y-94600000D01*
X114300000Y-94600000D01*
X114300000Y-96000000D01*
X112106701Y-96000000D01*
X112082315Y-96002402D01*
X112058866Y-96009515D01*
X112037255Y-96021066D01*
X112018313Y-96036612D01*
X111939336Y-96115589D01*
X111767362Y-96230498D01*
X111576274Y-96309650D01*
X111395888Y-96345530D01*
X111373417Y-96350000D01*
X111166583Y-96350000D01*
X111144112Y-96345530D01*
X110963726Y-96309650D01*
X110772638Y-96230498D01*
X110600664Y-96115589D01*
X110454411Y-95969336D01*
X110339502Y-95797362D01*
X110260350Y-95606274D01*
X110220000Y-95403416D01*
X110220000Y-95196584D01*
X110260350Y-94993726D01*
X110339502Y-94802638D01*
X110354321Y-94780460D01*
X110365867Y-94758858D01*
X110372980Y-94735409D01*
X110375382Y-94711023D01*
X110372980Y-94686637D01*
X110365867Y-94663188D01*
X110354316Y-94641577D01*
X110338770Y-94622635D01*
X110319828Y-94607089D01*
X110298217Y-94595538D01*
X110274768Y-94588425D01*
X110250382Y-94586023D01*
X110225996Y-94588425D01*
X110202545Y-94595538D01*
X110175014Y-94606942D01*
X110175013Y-94606942D01*
X110175011Y-94606943D01*
X110059096Y-94630000D01*
X109940904Y-94630000D01*
X109824989Y-94606943D01*
X109824987Y-94606942D01*
X109824986Y-94606942D01*
X109797455Y-94595538D01*
X109774005Y-94588425D01*
X109749619Y-94586023D01*
X109725232Y-94588425D01*
X109701783Y-94595538D01*
X109680172Y-94607089D01*
X109661230Y-94622634D01*
X109645685Y-94641576D01*
X109634133Y-94663187D01*
X109627020Y-94686636D01*
X109624618Y-94711022D01*
X109627020Y-94735409D01*
X109634133Y-94758858D01*
X109645679Y-94780460D01*
X109660498Y-94802638D01*
X109739650Y-94993726D01*
X109780000Y-95196584D01*
X109780000Y-95403416D01*
X109739650Y-95606274D01*
X109660498Y-95797362D01*
X109545589Y-95969336D01*
X109399336Y-96115589D01*
X109227362Y-96230498D01*
X109036274Y-96309650D01*
X108855888Y-96345530D01*
X108833417Y-96350000D01*
X108626583Y-96350000D01*
X108604112Y-96345530D01*
X108423726Y-96309650D01*
X108232638Y-96230498D01*
X108060664Y-96115589D01*
X107981687Y-96036612D01*
X107962745Y-96021066D01*
X107941134Y-96009515D01*
X107917685Y-96002402D01*
X107893299Y-96000000D01*
X105700000Y-96000000D01*
X105700000Y-94600000D01*
X107893299Y-94600000D01*
X107917685Y-94597598D01*
X107941134Y-94590485D01*
X107962745Y-94578934D01*
X107981687Y-94563388D01*
X108060664Y-94484411D01*
X108232638Y-94369502D01*
X108423726Y-94290350D01*
X108604112Y-94254470D01*
X108626583Y-94250000D01*
X108833417Y-94250000D01*
X108855888Y-94254470D01*
X109036274Y-94290350D01*
X109227362Y-94369502D01*
X109249540Y-94384321D01*
X109271142Y-94395867D01*
X109294591Y-94402980D01*
X109318977Y-94405382D01*
X109343363Y-94402980D01*
X109366812Y-94395867D01*
X109388423Y-94384316D01*
X109407365Y-94368770D01*
X109422911Y-94349828D01*
X109434462Y-94328217D01*
X109441575Y-94304768D01*
X109443977Y-94280382D01*
X109441575Y-94255996D01*
X109434462Y-94232546D01*
X109423057Y-94205011D01*
X109400000Y-94089096D01*
X109400000Y-93970904D01*
X109423057Y-93854989D01*
X109434462Y-93827454D01*
X109441575Y-93804005D01*
X109443977Y-93779619D01*
X109441575Y-93755232D01*
X109434462Y-93731783D01*
X109422911Y-93710172D01*
X109407366Y-93691230D01*
X109388424Y-93675685D01*
X109366813Y-93664133D01*
X109343364Y-93657020D01*
X109318978Y-93654618D01*
X109294591Y-93657020D01*
X109271142Y-93664133D01*
X109249540Y-93675679D01*
X109227362Y-93690498D01*
X109036274Y-93769650D01*
X108855888Y-93805530D01*
X108833417Y-93810000D01*
X108626583Y-93810000D01*
X108604112Y-93805530D01*
X108423726Y-93769650D01*
X108232638Y-93690498D01*
X108060664Y-93575589D01*
X107981687Y-93496612D01*
X107962745Y-93481066D01*
X107941134Y-93469515D01*
X107917685Y-93462402D01*
X107893299Y-93460000D01*
X105700000Y-93460000D01*
X105700000Y-93348977D01*
X109624618Y-93348977D01*
X109627020Y-93373363D01*
X109634133Y-93396812D01*
X109645684Y-93418423D01*
X109661230Y-93437365D01*
X109680172Y-93452911D01*
X109701783Y-93464462D01*
X109725232Y-93471575D01*
X109749618Y-93473977D01*
X109774004Y-93471575D01*
X109797454Y-93464462D01*
X109803751Y-93461854D01*
X109824986Y-93453058D01*
X109824987Y-93453058D01*
X109824989Y-93453057D01*
X109940904Y-93430000D01*
X110059096Y-93430000D01*
X110175011Y-93453057D01*
X110175013Y-93453058D01*
X110175014Y-93453058D01*
X110196249Y-93461854D01*
X110202546Y-93464462D01*
X110225995Y-93471575D01*
X110250381Y-93473977D01*
X110274768Y-93471575D01*
X110298217Y-93464462D01*
X110319828Y-93452911D01*
X110338770Y-93437366D01*
X110354315Y-93418424D01*
X110365867Y-93396813D01*
X110372980Y-93373364D01*
X110375382Y-93348978D01*
X110372980Y-93324591D01*
X110365867Y-93301142D01*
X110354321Y-93279540D01*
X110339502Y-93257362D01*
X110260350Y-93066274D01*
X110220000Y-92863416D01*
X110220000Y-92656584D01*
X110260350Y-92453726D01*
X110307097Y-92340871D01*
X110314205Y-92317437D01*
X110316607Y-92293050D01*
X110314205Y-92268664D01*
X110307092Y-92245215D01*
X110295541Y-92223604D01*
X110279996Y-92204662D01*
X110261054Y-92189117D01*
X110239443Y-92177565D01*
X110215994Y-92170452D01*
X110191607Y-92168050D01*
X110167221Y-92170452D01*
X110068945Y-92190000D01*
X109931055Y-92190000D01*
X109832779Y-92170452D01*
X109808393Y-92168050D01*
X109784006Y-92170452D01*
X109760557Y-92177565D01*
X109738946Y-92189117D01*
X109720004Y-92204662D01*
X109704459Y-92223604D01*
X109692908Y-92245215D01*
X109685795Y-92268664D01*
X109683393Y-92293050D01*
X109685795Y-92317437D01*
X109692903Y-92340871D01*
X109739650Y-92453726D01*
X109780000Y-92656584D01*
X109780000Y-92863416D01*
X109739650Y-93066274D01*
X109660498Y-93257362D01*
X109645679Y-93279540D01*
X109634133Y-93301142D01*
X109627020Y-93324591D01*
X109624618Y-93348977D01*
X105700000Y-93348977D01*
X105700000Y-92060000D01*
X107893299Y-92060000D01*
X107917685Y-92057598D01*
X107941134Y-92050485D01*
X107962745Y-92038934D01*
X107981687Y-92023388D01*
X108060664Y-91944411D01*
X108232638Y-91829502D01*
X108423726Y-91750350D01*
X108604112Y-91714470D01*
X108626583Y-91710000D01*
X108833417Y-91710000D01*
X108855888Y-91714470D01*
X109036274Y-91750350D01*
X109149129Y-91797097D01*
X109172563Y-91804205D01*
X109196950Y-91806607D01*
X109221336Y-91804205D01*
X109244785Y-91797092D01*
X109266396Y-91785541D01*
X109285338Y-91769996D01*
X109300883Y-91751054D01*
X109312435Y-91729443D01*
X109319548Y-91705994D01*
X109321950Y-91681607D01*
X109319548Y-91657221D01*
X109300000Y-91558945D01*
X109300000Y-91421055D01*
X109319548Y-91322779D01*
X109321950Y-91298393D01*
X109319548Y-91274006D01*
X109312435Y-91250557D01*
X109300883Y-91228946D01*
X109285338Y-91210004D01*
X109266396Y-91194459D01*
X109244785Y-91182908D01*
X109221336Y-91175795D01*
X109196950Y-91173393D01*
X109172563Y-91175795D01*
X109149129Y-91182903D01*
X109036274Y-91229650D01*
X108855888Y-91265530D01*
X108833417Y-91270000D01*
X108626583Y-91270000D01*
X108604112Y-91265530D01*
X108423726Y-91229650D01*
X108232638Y-91150498D01*
X108060664Y-91035589D01*
X107981687Y-90956612D01*
X107962745Y-90941066D01*
X107941134Y-90929515D01*
X107917685Y-90922402D01*
X107893299Y-90920000D01*
X105700000Y-90920000D01*
X105700000Y-89520000D01*
X107893299Y-89520000D01*
X107917685Y-89517598D01*
X107941134Y-89510485D01*
X107962745Y-89498934D01*
X107981687Y-89483388D01*
X108060664Y-89404411D01*
X108232638Y-89289502D01*
X108423726Y-89210350D01*
X108604112Y-89174470D01*
X108626583Y-89170000D01*
X108833417Y-89170000D01*
X108855888Y-89174470D01*
X108855888Y-89174470D01*
G37*
G36*
X133802855Y-93458030D02*
X134066680Y-93567310D01*
X134304120Y-93725962D01*
X134506038Y-93927880D01*
X134664690Y-94165320D01*
X134773970Y-94429145D01*
X134829680Y-94709218D01*
X134829680Y-94994782D01*
X134773970Y-95274855D01*
X134664690Y-95538680D01*
X134506038Y-95776120D01*
X134304120Y-95978038D01*
X134066680Y-96136690D01*
X133802855Y-96245970D01*
X133522782Y-96301680D01*
X133237218Y-96301680D01*
X132957145Y-96245970D01*
X132693320Y-96136690D01*
X132455880Y-95978038D01*
X132253962Y-95776120D01*
X132095310Y-95538680D01*
X131986030Y-95274855D01*
X131930320Y-94994782D01*
X131930320Y-94709218D01*
X131986030Y-94429145D01*
X132095310Y-94165320D01*
X132253962Y-93927880D01*
X132455880Y-93725962D01*
X132693320Y-93567310D01*
X132957145Y-93458030D01*
X133237218Y-93402320D01*
X133522782Y-93402320D01*
X133802855Y-93458030D01*
X133802855Y-93458030D01*
G37*
G36*
X123302855Y-93458030D02*
X123566680Y-93567310D01*
X123804120Y-93725962D01*
X124006038Y-93927880D01*
X124164690Y-94165320D01*
X124273970Y-94429145D01*
X124329680Y-94709218D01*
X124329680Y-94994782D01*
X124273970Y-95274855D01*
X124164690Y-95538680D01*
X124006038Y-95776120D01*
X123804120Y-95978038D01*
X123566680Y-96136690D01*
X123302855Y-96245970D01*
X123022782Y-96301680D01*
X122737218Y-96301680D01*
X122457145Y-96245970D01*
X122193320Y-96136690D01*
X121955880Y-95978038D01*
X121753962Y-95776120D01*
X121595310Y-95538680D01*
X121486030Y-95274855D01*
X121430320Y-94994782D01*
X121430320Y-94709218D01*
X121486030Y-94429145D01*
X121595310Y-94165320D01*
X121753962Y-93927880D01*
X121955880Y-93725962D01*
X122193320Y-93567310D01*
X122457145Y-93458030D01*
X122737218Y-93402320D01*
X123022782Y-93402320D01*
X123302855Y-93458030D01*
X123302855Y-93458030D01*
G37*
G36*
X118916000Y-95338000D02*
X116516000Y-95338000D01*
X116516000Y-92938000D01*
X118916000Y-92938000D01*
X118916000Y-95338000D01*
X118916000Y-95338000D01*
G37*
G36*
X139998000Y-95338000D02*
X137598000Y-95338000D01*
X137598000Y-92938000D01*
X139998000Y-92938000D01*
X139998000Y-95338000D01*
X139998000Y-95338000D01*
G37*
G36*
X123230026Y-90698115D02*
X123448412Y-90788573D01*
X123644958Y-90919901D01*
X123812099Y-91087042D01*
X123943427Y-91283588D01*
X124033885Y-91501974D01*
X124080000Y-91733809D01*
X124080000Y-91970191D01*
X124033885Y-92202026D01*
X123943427Y-92420412D01*
X123812099Y-92616958D01*
X123644958Y-92784099D01*
X123448412Y-92915427D01*
X123230026Y-93005885D01*
X122998191Y-93052000D01*
X122761809Y-93052000D01*
X122529974Y-93005885D01*
X122311588Y-92915427D01*
X122115042Y-92784099D01*
X121947901Y-92616958D01*
X121816573Y-92420412D01*
X121726115Y-92202026D01*
X121680000Y-91970191D01*
X121680000Y-91733809D01*
X121726115Y-91501974D01*
X121816573Y-91283588D01*
X121947901Y-91087042D01*
X122115042Y-90919901D01*
X122311588Y-90788573D01*
X122529974Y-90698115D01*
X122761809Y-90652000D01*
X122998191Y-90652000D01*
X123230026Y-90698115D01*
X123230026Y-90698115D01*
G37*
G36*
X142696000Y-92590000D02*
X140996000Y-92590000D01*
X140996000Y-91490000D01*
X142696000Y-91490000D01*
X142696000Y-92590000D01*
X142696000Y-92590000D01*
G37*
G36*
X144855000Y-92590000D02*
X143155000Y-92590000D01*
X143155000Y-91490000D01*
X144855000Y-91490000D01*
X144855000Y-92590000D01*
X144855000Y-92590000D01*
G37*
G36*
X144855000Y-90690000D02*
X143155000Y-90690000D01*
X143155000Y-89590000D01*
X144855000Y-89590000D01*
X144855000Y-90690000D01*
X144855000Y-90690000D01*
G37*
G36*
X142696000Y-90690000D02*
X140996000Y-90690000D01*
X140996000Y-89590000D01*
X142696000Y-89590000D01*
X142696000Y-90690000D01*
X142696000Y-90690000D01*
G37*
G36*
X123302855Y-87458030D02*
X123566680Y-87567310D01*
X123804120Y-87725962D01*
X124006038Y-87927880D01*
X124164690Y-88165320D01*
X124273970Y-88429145D01*
X124329680Y-88709218D01*
X124329680Y-88994782D01*
X124273970Y-89274855D01*
X124164690Y-89538680D01*
X124006038Y-89776120D01*
X123804120Y-89978038D01*
X123566680Y-90136690D01*
X123302855Y-90245970D01*
X123022782Y-90301680D01*
X122737218Y-90301680D01*
X122457145Y-90245970D01*
X122193320Y-90136690D01*
X121955880Y-89978038D01*
X121753962Y-89776120D01*
X121595310Y-89538680D01*
X121486030Y-89274855D01*
X121430320Y-88994782D01*
X121430320Y-88709218D01*
X121486030Y-88429145D01*
X121595310Y-88165320D01*
X121753962Y-87927880D01*
X121955880Y-87725962D01*
X122193320Y-87567310D01*
X122457145Y-87458030D01*
X122737218Y-87402320D01*
X123022782Y-87402320D01*
X123302855Y-87458030D01*
X123302855Y-87458030D01*
G37*
G36*
X133802855Y-87458030D02*
X134066680Y-87567310D01*
X134304120Y-87725962D01*
X134506038Y-87927880D01*
X134664690Y-88165320D01*
X134773970Y-88429145D01*
X134829680Y-88709218D01*
X134829680Y-88994782D01*
X134773970Y-89274855D01*
X134664690Y-89538680D01*
X134506038Y-89776120D01*
X134304120Y-89978038D01*
X134066680Y-90136690D01*
X133802855Y-90245970D01*
X133522782Y-90301680D01*
X133237218Y-90301680D01*
X132957145Y-90245970D01*
X132693320Y-90136690D01*
X132455880Y-89978038D01*
X132253962Y-89776120D01*
X132095310Y-89538680D01*
X131986030Y-89274855D01*
X131930320Y-88994782D01*
X131930320Y-88709218D01*
X131986030Y-88429145D01*
X132095310Y-88165320D01*
X132253962Y-87927880D01*
X132455880Y-87725962D01*
X132693320Y-87567310D01*
X132957145Y-87458030D01*
X133237218Y-87402320D01*
X133522782Y-87402320D01*
X133802855Y-87458030D01*
X133802855Y-87458030D01*
G37*
G36*
X117810208Y-87861473D02*
X117951241Y-87875363D01*
X118177442Y-87943981D01*
X118177444Y-87943982D01*
X118177447Y-87943983D01*
X118385910Y-88055408D01*
X118568634Y-88205366D01*
X118718592Y-88388090D01*
X118830017Y-88596553D01*
X118830018Y-88596556D01*
X118830019Y-88596558D01*
X118898637Y-88822759D01*
X118921806Y-89058000D01*
X118898637Y-89293241D01*
X118836240Y-89498934D01*
X118830017Y-89519447D01*
X118718592Y-89727910D01*
X118568634Y-89910634D01*
X118385910Y-90060592D01*
X118177447Y-90172017D01*
X118177444Y-90172018D01*
X118177442Y-90172019D01*
X117951241Y-90240637D01*
X117810208Y-90254527D01*
X117774951Y-90258000D01*
X117657049Y-90258000D01*
X117621792Y-90254527D01*
X117480759Y-90240637D01*
X117254558Y-90172019D01*
X117254556Y-90172018D01*
X117254553Y-90172017D01*
X117046090Y-90060592D01*
X116863366Y-89910634D01*
X116713408Y-89727910D01*
X116601983Y-89519447D01*
X116595760Y-89498934D01*
X116533363Y-89293241D01*
X116510194Y-89058000D01*
X116533363Y-88822759D01*
X116601981Y-88596558D01*
X116601982Y-88596556D01*
X116601983Y-88596553D01*
X116713408Y-88388090D01*
X116863366Y-88205366D01*
X117046090Y-88055408D01*
X117254553Y-87943983D01*
X117254556Y-87943982D01*
X117254558Y-87943981D01*
X117480759Y-87875363D01*
X117621792Y-87861473D01*
X117657049Y-87858000D01*
X117774951Y-87858000D01*
X117810208Y-87861473D01*
X117810208Y-87861473D01*
G37*
G36*
X138892208Y-87861473D02*
X139033241Y-87875363D01*
X139259442Y-87943981D01*
X139259444Y-87943982D01*
X139259447Y-87943983D01*
X139467910Y-88055408D01*
X139650634Y-88205366D01*
X139800592Y-88388090D01*
X139912017Y-88596553D01*
X139912018Y-88596556D01*
X139912019Y-88596558D01*
X139980637Y-88822759D01*
X140003806Y-89058000D01*
X139980637Y-89293241D01*
X139918240Y-89498934D01*
X139912017Y-89519447D01*
X139800592Y-89727910D01*
X139650634Y-89910634D01*
X139467910Y-90060592D01*
X139259447Y-90172017D01*
X139259444Y-90172018D01*
X139259442Y-90172019D01*
X139033241Y-90240637D01*
X138892208Y-90254527D01*
X138856951Y-90258000D01*
X138739049Y-90258000D01*
X138703792Y-90254527D01*
X138562759Y-90240637D01*
X138336558Y-90172019D01*
X138336556Y-90172018D01*
X138336553Y-90172017D01*
X138128090Y-90060592D01*
X137945366Y-89910634D01*
X137795408Y-89727910D01*
X137683983Y-89519447D01*
X137677760Y-89498934D01*
X137615363Y-89293241D01*
X137592194Y-89058000D01*
X137615363Y-88822759D01*
X137683981Y-88596558D01*
X137683982Y-88596556D01*
X137683983Y-88596553D01*
X137795408Y-88388090D01*
X137945366Y-88205366D01*
X138128090Y-88055408D01*
X138336553Y-87943983D01*
X138336556Y-87943982D01*
X138336558Y-87943981D01*
X138562759Y-87875363D01*
X138703792Y-87861473D01*
X138739049Y-87858000D01*
X138856951Y-87858000D01*
X138892208Y-87861473D01*
X138892208Y-87861473D01*
G37*
G36*
X144855000Y-89034000D02*
X143155000Y-89034000D01*
X143155000Y-87934000D01*
X144855000Y-87934000D01*
X144855000Y-89034000D01*
X144855000Y-89034000D01*
G37*
G36*
X142696000Y-89034000D02*
X140996000Y-89034000D01*
X140996000Y-87934000D01*
X142696000Y-87934000D01*
X142696000Y-89034000D01*
X142696000Y-89034000D01*
G37*
G36*
X151409122Y-84246115D02*
X151525041Y-84269173D01*
X151852620Y-84404861D01*
X152143511Y-84599228D01*
X152147436Y-84601851D01*
X152398149Y-84852564D01*
X152398151Y-84852567D01*
X152595139Y-85147380D01*
X152730827Y-85474959D01*
X152800000Y-85822716D01*
X152800000Y-86177284D01*
X152730827Y-86525041D01*
X152595139Y-86852620D01*
X152407127Y-87134000D01*
X152398149Y-87147436D01*
X152147436Y-87398149D01*
X152147433Y-87398151D01*
X151852620Y-87595139D01*
X151525041Y-87730827D01*
X151409122Y-87753885D01*
X151177286Y-87800000D01*
X150822714Y-87800000D01*
X150590878Y-87753885D01*
X150474959Y-87730827D01*
X150147380Y-87595139D01*
X149852567Y-87398151D01*
X149852564Y-87398149D01*
X149601851Y-87147436D01*
X149592873Y-87134000D01*
X149404861Y-86852620D01*
X149269173Y-86525041D01*
X149200000Y-86177284D01*
X149200000Y-85822716D01*
X149269173Y-85474959D01*
X149404861Y-85147380D01*
X149601849Y-84852567D01*
X149601851Y-84852564D01*
X149852564Y-84601851D01*
X149856489Y-84599228D01*
X150147380Y-84404861D01*
X150474959Y-84269173D01*
X150590878Y-84246115D01*
X150822714Y-84200000D01*
X151177286Y-84200000D01*
X151409122Y-84246115D01*
X151409122Y-84246115D01*
G37*
G36*
X107409122Y-84246115D02*
X107525041Y-84269173D01*
X107852620Y-84404861D01*
X108143511Y-84599228D01*
X108147436Y-84601851D01*
X108398149Y-84852564D01*
X108398151Y-84852567D01*
X108595139Y-85147380D01*
X108730827Y-85474959D01*
X108800000Y-85822716D01*
X108800000Y-86177284D01*
X108730827Y-86525041D01*
X108595139Y-86852620D01*
X108407127Y-87134000D01*
X108398149Y-87147436D01*
X108147436Y-87398149D01*
X108147433Y-87398151D01*
X107852620Y-87595139D01*
X107525041Y-87730827D01*
X107409122Y-87753885D01*
X107177286Y-87800000D01*
X106822714Y-87800000D01*
X106590878Y-87753885D01*
X106474959Y-87730827D01*
X106147380Y-87595139D01*
X105852567Y-87398151D01*
X105852564Y-87398149D01*
X105601851Y-87147436D01*
X105592873Y-87134000D01*
X105404861Y-86852620D01*
X105269173Y-86525041D01*
X105200000Y-86177284D01*
X105200000Y-85822716D01*
X105269173Y-85474959D01*
X105404861Y-85147380D01*
X105601849Y-84852567D01*
X105601851Y-84852564D01*
X105852564Y-84601851D01*
X105856489Y-84599228D01*
X106147380Y-84404861D01*
X106474959Y-84269173D01*
X106590878Y-84246115D01*
X106822714Y-84200000D01*
X107177286Y-84200000D01*
X107409122Y-84246115D01*
X107409122Y-84246115D01*
G37*
G36*
X111379196Y-84749958D02*
X111615780Y-84847954D01*
X111828705Y-84990226D01*
X112009774Y-85171295D01*
X112152046Y-85384220D01*
X112250042Y-85620804D01*
X112300000Y-85871960D01*
X112300000Y-86128040D01*
X112250042Y-86379196D01*
X112152046Y-86615780D01*
X112009774Y-86828705D01*
X111828705Y-87009774D01*
X111615780Y-87152046D01*
X111379196Y-87250042D01*
X111128040Y-87300000D01*
X110871960Y-87300000D01*
X110620804Y-87250042D01*
X110384220Y-87152046D01*
X110171295Y-87009774D01*
X109990226Y-86828705D01*
X109847954Y-86615780D01*
X109749958Y-86379196D01*
X109700000Y-86128040D01*
X109700000Y-85871960D01*
X109749958Y-85620804D01*
X109847954Y-85384220D01*
X109990226Y-85171295D01*
X110171295Y-84990226D01*
X110384220Y-84847954D01*
X110620804Y-84749958D01*
X110871960Y-84700000D01*
X111128040Y-84700000D01*
X111379196Y-84749958D01*
X111379196Y-84749958D01*
G37*
G36*
X147379196Y-84749958D02*
X147615780Y-84847954D01*
X147828705Y-84990226D01*
X148009774Y-85171295D01*
X148152046Y-85384220D01*
X148250042Y-85620804D01*
X148300000Y-85871960D01*
X148300000Y-86128040D01*
X148250042Y-86379196D01*
X148152046Y-86615780D01*
X148009774Y-86828705D01*
X147828705Y-87009774D01*
X147615780Y-87152046D01*
X147379196Y-87250042D01*
X147128040Y-87300000D01*
X146871960Y-87300000D01*
X146620804Y-87250042D01*
X146384220Y-87152046D01*
X146171295Y-87009774D01*
X145990226Y-86828705D01*
X145847954Y-86615780D01*
X145749958Y-86379196D01*
X145700000Y-86128040D01*
X145700000Y-85871960D01*
X145749958Y-85620804D01*
X145847954Y-85384220D01*
X145990226Y-85171295D01*
X146171295Y-84990226D01*
X146384220Y-84847954D01*
X146620804Y-84749958D01*
X146871960Y-84700000D01*
X147128040Y-84700000D01*
X147379196Y-84749958D01*
X147379196Y-84749958D01*
G37*
G36*
X144855000Y-87134000D02*
X143155000Y-87134000D01*
X143155000Y-86034000D01*
X144855000Y-86034000D01*
X144855000Y-87134000D01*
X144855000Y-87134000D01*
G37*
G36*
X142696000Y-87134000D02*
X140996000Y-87134000D01*
X140996000Y-86034000D01*
X142696000Y-86034000D01*
X142696000Y-87134000D01*
X142696000Y-87134000D01*
G37*
M02*
