G04 #@! TF.GenerationSoftware,KiCad,Pcbnew,(5.0.2)-1*
G04 #@! TF.CreationDate,2019-02-20T01:19:10+09:00*
G04 #@! TF.ProjectId,M5Hackfon,4d354861-636b-4666-9f6e-2e6b69636164,v1.2*
G04 #@! TF.SameCoordinates,Original*
G04 #@! TF.FileFunction,Legend,Top*
G04 #@! TF.FilePolarity,Positive*
%FSLAX46Y46*%
G04 Gerber Fmt 4.6, Leading zero omitted, Abs format (unit mm)*
G04 Created by KiCad (PCBNEW (5.0.2)-1) date 2019/02/20 1:19:10*
%MOMM*%
%LPD*%
G01*
G04 APERTURE LIST*
%ADD10C,0.100000*%
%ADD11C,0.150000*%
%ADD12C,0.200000*%
%ADD13C,0.120000*%
%ADD14C,1.900000*%
%ADD15R,1.300000X0.900000*%
%ADD16R,1.460000X1.050000*%
%ADD17R,1.150000X1.200000*%
%ADD18R,2.000000X2.000000*%
%ADD19O,2.000000X2.000000*%
%ADD20C,2.400000*%
%ADD21C,2.899360*%
%ADD22C,2.760000*%
%ADD23C,1.920000*%
%ADD24R,3.900000X3.900000*%
%ADD25C,2.100000*%
%ADD26C,1.400000*%
%ADD27C,1.200000*%
%ADD28R,3.550000X1.400000*%
%ADD29R,3.200000X3.900000*%
%ADD30O,1.750000X1.750000*%
%ADD31R,1.750000X1.750000*%
%ADD32C,3.600000*%
%ADD33R,1.200000X1.150000*%
%ADD34C,2.600000*%
%ADD35R,2.100000X2.100000*%
%ADD36O,2.100000X2.100000*%
%ADD37R,2.400000X2.400000*%
%ADD38O,2.400000X2.400000*%
%ADD39R,2.400000X1.000000*%
%ADD40R,1.700000X1.100000*%
G04 APERTURE END LIST*
D10*
X134861000Y-111664000D02*
X134480000Y-111156000D01*
X137274000Y-111918000D02*
X134861000Y-111664000D01*
D11*
X125224952Y-131690380D02*
X125415428Y-131690380D01*
X125510666Y-131738000D01*
X125605904Y-131833238D01*
X125653523Y-132023714D01*
X125653523Y-132357047D01*
X125605904Y-132547523D01*
X125510666Y-132642761D01*
X125415428Y-132690380D01*
X125224952Y-132690380D01*
X125129714Y-132642761D01*
X125034476Y-132547523D01*
X124986857Y-132357047D01*
X124986857Y-132023714D01*
X125034476Y-131833238D01*
X125129714Y-131738000D01*
X125224952Y-131690380D01*
X126082095Y-132690380D02*
X126082095Y-131690380D01*
X126653523Y-132690380D01*
X126653523Y-131690380D01*
D12*
X140500000Y-128011904D02*
X140452380Y-128107142D01*
X140452380Y-128250000D01*
X140500000Y-128392857D01*
X140595238Y-128488095D01*
X140690476Y-128535714D01*
X140880952Y-128583333D01*
X141023809Y-128583333D01*
X141214285Y-128535714D01*
X141309523Y-128488095D01*
X141404761Y-128392857D01*
X141452380Y-128250000D01*
X141452380Y-128154761D01*
X141404761Y-128011904D01*
X141357142Y-127964285D01*
X141023809Y-127964285D01*
X141023809Y-128154761D01*
X141452380Y-127535714D02*
X140452380Y-127535714D01*
X141452380Y-126964285D01*
X140452380Y-126964285D01*
X141452380Y-126488095D02*
X140452380Y-126488095D01*
X140452380Y-126250000D01*
X140500000Y-126107142D01*
X140595238Y-126011904D01*
X140690476Y-125964285D01*
X140880952Y-125916666D01*
X141023809Y-125916666D01*
X141214285Y-125964285D01*
X141309523Y-126011904D01*
X141404761Y-126107142D01*
X141452380Y-126250000D01*
X141452380Y-126488095D01*
X133678571Y-127988095D02*
X133726190Y-127845238D01*
X133773809Y-127797619D01*
X133869047Y-127750000D01*
X134011904Y-127750000D01*
X134107142Y-127797619D01*
X134154761Y-127845238D01*
X134202380Y-127940476D01*
X134202380Y-128321428D01*
X133202380Y-128321428D01*
X133202380Y-127988095D01*
X133250000Y-127892857D01*
X133297619Y-127845238D01*
X133392857Y-127797619D01*
X133488095Y-127797619D01*
X133583333Y-127845238D01*
X133630952Y-127892857D01*
X133678571Y-127988095D01*
X133678571Y-128321428D01*
X133916666Y-127369047D02*
X133916666Y-126892857D01*
X134202380Y-127464285D02*
X133202380Y-127130952D01*
X134202380Y-126797619D01*
X133202380Y-126607142D02*
X133202380Y-126035714D01*
X134202380Y-126321428D02*
X133202380Y-126321428D01*
D11*
X107516619Y-128245380D02*
X107516619Y-127245380D01*
X107849952Y-127959666D01*
X108183285Y-127245380D01*
X108183285Y-128245380D01*
X108659476Y-127864428D02*
X109421380Y-127864428D01*
X110230904Y-127721571D02*
X110373761Y-127769190D01*
X110421380Y-127816809D01*
X110469000Y-127912047D01*
X110469000Y-128054904D01*
X110421380Y-128150142D01*
X110373761Y-128197761D01*
X110278523Y-128245380D01*
X109897571Y-128245380D01*
X109897571Y-127245380D01*
X110230904Y-127245380D01*
X110326142Y-127293000D01*
X110373761Y-127340619D01*
X110421380Y-127435857D01*
X110421380Y-127531095D01*
X110373761Y-127626333D01*
X110326142Y-127673952D01*
X110230904Y-127721571D01*
X109897571Y-127721571D01*
X110897571Y-127245380D02*
X110897571Y-128054904D01*
X110945190Y-128150142D01*
X110992809Y-128197761D01*
X111088047Y-128245380D01*
X111278523Y-128245380D01*
X111373761Y-128197761D01*
X111421380Y-128150142D01*
X111469000Y-128054904D01*
X111469000Y-127245380D01*
X111897571Y-128197761D02*
X112040428Y-128245380D01*
X112278523Y-128245380D01*
X112373761Y-128197761D01*
X112421380Y-128150142D01*
X112469000Y-128054904D01*
X112469000Y-127959666D01*
X112421380Y-127864428D01*
X112373761Y-127816809D01*
X112278523Y-127769190D01*
X112088047Y-127721571D01*
X111992809Y-127673952D01*
X111945190Y-127626333D01*
X111897571Y-127531095D01*
X111897571Y-127435857D01*
X111945190Y-127340619D01*
X111992809Y-127293000D01*
X112088047Y-127245380D01*
X112326142Y-127245380D01*
X112469000Y-127293000D01*
D12*
X115247428Y-125149904D02*
X115199809Y-125292761D01*
X115152190Y-125340380D01*
X115056952Y-125388000D01*
X114914095Y-125388000D01*
X114818857Y-125340380D01*
X114771238Y-125292761D01*
X114723619Y-125197523D01*
X114723619Y-124816571D01*
X115723619Y-124816571D01*
X115723619Y-125149904D01*
X115676000Y-125245142D01*
X115628380Y-125292761D01*
X115533142Y-125340380D01*
X115437904Y-125340380D01*
X115342666Y-125292761D01*
X115295047Y-125245142D01*
X115247428Y-125149904D01*
X115247428Y-124816571D01*
X115009333Y-125768952D02*
X115009333Y-126245142D01*
X114723619Y-125673714D02*
X115723619Y-126007047D01*
X114723619Y-126340380D01*
X115723619Y-126530857D02*
X115723619Y-127102285D01*
X114723619Y-126816571D02*
X115723619Y-126816571D01*
X115723619Y-123157523D02*
X115723619Y-122681333D01*
X115247428Y-122633714D01*
X115295047Y-122681333D01*
X115342666Y-122776571D01*
X115342666Y-123014666D01*
X115295047Y-123109904D01*
X115247428Y-123157523D01*
X115152190Y-123205142D01*
X114914095Y-123205142D01*
X114818857Y-123157523D01*
X114771238Y-123109904D01*
X114723619Y-123014666D01*
X114723619Y-122776571D01*
X114771238Y-122681333D01*
X114818857Y-122633714D01*
X115723619Y-123490857D02*
X114723619Y-123824190D01*
X115723619Y-124157523D01*
X115723619Y-119998476D02*
X115723619Y-120617523D01*
X115342666Y-120284190D01*
X115342666Y-120427047D01*
X115295047Y-120522285D01*
X115247428Y-120569904D01*
X115152190Y-120617523D01*
X114914095Y-120617523D01*
X114818857Y-120569904D01*
X114771238Y-120522285D01*
X114723619Y-120427047D01*
X114723619Y-120141333D01*
X114771238Y-120046095D01*
X114818857Y-119998476D01*
X115390285Y-121474666D02*
X114723619Y-121474666D01*
X115771238Y-121236571D02*
X115056952Y-120998476D01*
X115056952Y-121617523D01*
X115723619Y-118220380D02*
X115723619Y-118315619D01*
X115676000Y-118410857D01*
X115628380Y-118458476D01*
X115533142Y-118506095D01*
X115342666Y-118553714D01*
X115104571Y-118553714D01*
X114914095Y-118506095D01*
X114818857Y-118458476D01*
X114771238Y-118410857D01*
X114723619Y-118315619D01*
X114723619Y-118220380D01*
X114771238Y-118125142D01*
X114818857Y-118077523D01*
X114914095Y-118029904D01*
X115104571Y-117982285D01*
X115342666Y-117982285D01*
X115533142Y-118029904D01*
X115628380Y-118077523D01*
X115676000Y-118125142D01*
X115723619Y-118220380D01*
X114723619Y-115537523D02*
X114723619Y-114966095D01*
X114723619Y-115251809D02*
X115723619Y-115251809D01*
X115580761Y-115156571D01*
X115485523Y-115061333D01*
X115437904Y-114966095D01*
X115723619Y-115870857D02*
X115723619Y-116489904D01*
X115342666Y-116156571D01*
X115342666Y-116299428D01*
X115295047Y-116394666D01*
X115247428Y-116442285D01*
X115152190Y-116489904D01*
X114914095Y-116489904D01*
X114818857Y-116442285D01*
X114771238Y-116394666D01*
X114723619Y-116299428D01*
X114723619Y-116013714D01*
X114771238Y-115918476D01*
X114818857Y-115870857D01*
X115723619Y-113426095D02*
X115723619Y-112949904D01*
X115247428Y-112902285D01*
X115295047Y-112949904D01*
X115342666Y-113045142D01*
X115342666Y-113283238D01*
X115295047Y-113378476D01*
X115247428Y-113426095D01*
X115152190Y-113473714D01*
X114914095Y-113473714D01*
X114818857Y-113426095D01*
X114771238Y-113378476D01*
X114723619Y-113283238D01*
X114723619Y-113045142D01*
X114771238Y-112949904D01*
X114818857Y-112902285D01*
X115628380Y-109886095D02*
X115676000Y-109933714D01*
X115723619Y-110028952D01*
X115723619Y-110267047D01*
X115676000Y-110362285D01*
X115628380Y-110409904D01*
X115533142Y-110457523D01*
X115437904Y-110457523D01*
X115295047Y-110409904D01*
X114723619Y-109838476D01*
X114723619Y-110457523D01*
X115628380Y-110838476D02*
X115676000Y-110886095D01*
X115723619Y-110981333D01*
X115723619Y-111219428D01*
X115676000Y-111314666D01*
X115628380Y-111362285D01*
X115533142Y-111409904D01*
X115437904Y-111409904D01*
X115295047Y-111362285D01*
X114723619Y-110790857D01*
X114723619Y-111409904D01*
X114723619Y-107917523D02*
X114723619Y-107346095D01*
X114723619Y-107631809D02*
X115723619Y-107631809D01*
X115580761Y-107536571D01*
X115485523Y-107441333D01*
X115437904Y-107346095D01*
X115723619Y-108250857D02*
X115723619Y-108917523D01*
X114723619Y-108488952D01*
X114723619Y-105853714D02*
X114723619Y-105282285D01*
X114723619Y-105568000D02*
X115723619Y-105568000D01*
X115580761Y-105472761D01*
X115485523Y-105377523D01*
X115437904Y-105282285D01*
X115723619Y-101789904D02*
X115723619Y-102408952D01*
X115342666Y-102075619D01*
X115342666Y-102218476D01*
X115295047Y-102313714D01*
X115247428Y-102361333D01*
X115152190Y-102408952D01*
X114914095Y-102408952D01*
X114818857Y-102361333D01*
X114771238Y-102313714D01*
X114723619Y-102218476D01*
X114723619Y-101932761D01*
X114771238Y-101837523D01*
X114818857Y-101789904D01*
X115723619Y-102694666D02*
X114723619Y-103028000D01*
X115723619Y-103361333D01*
X115723619Y-103599428D02*
X115723619Y-104218476D01*
X115342666Y-103885142D01*
X115342666Y-104028000D01*
X115295047Y-104123238D01*
X115247428Y-104170857D01*
X115152190Y-104218476D01*
X114914095Y-104218476D01*
X114818857Y-104170857D01*
X114771238Y-104123238D01*
X114723619Y-104028000D01*
X114723619Y-103742285D01*
X114771238Y-103647047D01*
X114818857Y-103599428D01*
X115628380Y-99726095D02*
X115676000Y-99773714D01*
X115723619Y-99868952D01*
X115723619Y-100107047D01*
X115676000Y-100202285D01*
X115628380Y-100249904D01*
X115533142Y-100297523D01*
X115437904Y-100297523D01*
X115295047Y-100249904D01*
X114723619Y-99678476D01*
X114723619Y-100297523D01*
X115723619Y-101154666D02*
X115723619Y-100964190D01*
X115676000Y-100868952D01*
X115628380Y-100821333D01*
X115485523Y-100726095D01*
X115295047Y-100678476D01*
X114914095Y-100678476D01*
X114818857Y-100726095D01*
X114771238Y-100773714D01*
X114723619Y-100868952D01*
X114723619Y-101059428D01*
X114771238Y-101154666D01*
X114818857Y-101202285D01*
X114914095Y-101249904D01*
X115152190Y-101249904D01*
X115247428Y-101202285D01*
X115295047Y-101154666D01*
X115342666Y-101059428D01*
X115342666Y-100868952D01*
X115295047Y-100773714D01*
X115247428Y-100726095D01*
X115152190Y-100678476D01*
X115628380Y-97186095D02*
X115676000Y-97233714D01*
X115723619Y-97328952D01*
X115723619Y-97567047D01*
X115676000Y-97662285D01*
X115628380Y-97709904D01*
X115533142Y-97757523D01*
X115437904Y-97757523D01*
X115295047Y-97709904D01*
X114723619Y-97138476D01*
X114723619Y-97757523D01*
X115723619Y-98662285D02*
X115723619Y-98186095D01*
X115247428Y-98138476D01*
X115295047Y-98186095D01*
X115342666Y-98281333D01*
X115342666Y-98519428D01*
X115295047Y-98614666D01*
X115247428Y-98662285D01*
X115152190Y-98709904D01*
X114914095Y-98709904D01*
X114818857Y-98662285D01*
X114771238Y-98614666D01*
X114723619Y-98519428D01*
X114723619Y-98281333D01*
X114771238Y-98186095D01*
X114818857Y-98138476D01*
X115247428Y-94669904D02*
X115247428Y-95003238D01*
X114723619Y-95146095D02*
X114723619Y-94669904D01*
X115723619Y-94669904D01*
X115723619Y-95146095D01*
X114723619Y-95574666D02*
X115723619Y-95574666D01*
X114723619Y-96146095D01*
X115723619Y-96146095D01*
X115723619Y-92058476D02*
X115723619Y-92677523D01*
X115342666Y-92344190D01*
X115342666Y-92487047D01*
X115295047Y-92582285D01*
X115247428Y-92629904D01*
X115152190Y-92677523D01*
X114914095Y-92677523D01*
X114818857Y-92629904D01*
X114771238Y-92582285D01*
X114723619Y-92487047D01*
X114723619Y-92201333D01*
X114771238Y-92106095D01*
X114818857Y-92058476D01*
X115723619Y-93534666D02*
X115723619Y-93344190D01*
X115676000Y-93248952D01*
X115628380Y-93201333D01*
X115485523Y-93106095D01*
X115295047Y-93058476D01*
X114914095Y-93058476D01*
X114818857Y-93106095D01*
X114771238Y-93153714D01*
X114723619Y-93248952D01*
X114723619Y-93439428D01*
X114771238Y-93534666D01*
X114818857Y-93582285D01*
X114914095Y-93629904D01*
X115152190Y-93629904D01*
X115247428Y-93582285D01*
X115295047Y-93534666D01*
X115342666Y-93439428D01*
X115342666Y-93248952D01*
X115295047Y-93153714D01*
X115247428Y-93106095D01*
X115152190Y-93058476D01*
X115723619Y-89518476D02*
X115723619Y-90137523D01*
X115342666Y-89804190D01*
X115342666Y-89947047D01*
X115295047Y-90042285D01*
X115247428Y-90089904D01*
X115152190Y-90137523D01*
X114914095Y-90137523D01*
X114818857Y-90089904D01*
X114771238Y-90042285D01*
X114723619Y-89947047D01*
X114723619Y-89661333D01*
X114771238Y-89566095D01*
X114818857Y-89518476D01*
X115723619Y-91042285D02*
X115723619Y-90566095D01*
X115247428Y-90518476D01*
X115295047Y-90566095D01*
X115342666Y-90661333D01*
X115342666Y-90899428D01*
X115295047Y-90994666D01*
X115247428Y-91042285D01*
X115152190Y-91089904D01*
X114914095Y-91089904D01*
X114818857Y-91042285D01*
X114771238Y-90994666D01*
X114723619Y-90899428D01*
X114723619Y-90661333D01*
X114771238Y-90566095D01*
X114818857Y-90518476D01*
X105778000Y-126396000D02*
X104000000Y-126396000D01*
X105778000Y-120300000D02*
X105778000Y-126396000D01*
X104000000Y-120300000D02*
X105778000Y-120300000D01*
X105778000Y-89820000D02*
X105778000Y-95916000D01*
X105778000Y-95916000D02*
X104000000Y-95916000D01*
X104000000Y-89820000D02*
X105778000Y-89820000D01*
X105468380Y-125205142D02*
X104468380Y-125205142D01*
X104944571Y-125205142D02*
X104944571Y-124633714D01*
X105468380Y-124633714D02*
X104468380Y-124633714D01*
X105468380Y-124157523D02*
X104468380Y-124157523D01*
X104468380Y-123776571D01*
X104516000Y-123681333D01*
X104563619Y-123633714D01*
X104658857Y-123586095D01*
X104801714Y-123586095D01*
X104896952Y-123633714D01*
X104944571Y-123681333D01*
X104992190Y-123776571D01*
X104992190Y-124157523D01*
X104468380Y-123252761D02*
X105468380Y-123014666D01*
X104754095Y-122824190D01*
X105468380Y-122633714D01*
X104468380Y-122395619D01*
X105468380Y-121443238D02*
X104992190Y-121776571D01*
X105468380Y-122014666D02*
X104468380Y-122014666D01*
X104468380Y-121633714D01*
X104516000Y-121538476D01*
X104563619Y-121490857D01*
X104658857Y-121443238D01*
X104801714Y-121443238D01*
X104896952Y-121490857D01*
X104944571Y-121538476D01*
X104992190Y-121633714D01*
X104992190Y-122014666D01*
X105468380Y-118458476D02*
X105468380Y-119029904D01*
X105468380Y-118744190D02*
X104468380Y-118744190D01*
X104611238Y-118839428D01*
X104706476Y-118934666D01*
X104754095Y-119029904D01*
X104468380Y-117553714D02*
X104468380Y-118029904D01*
X104944571Y-118077523D01*
X104896952Y-118029904D01*
X104849333Y-117934666D01*
X104849333Y-117696571D01*
X104896952Y-117601333D01*
X104944571Y-117553714D01*
X105039809Y-117506095D01*
X105277904Y-117506095D01*
X105373142Y-117553714D01*
X105420761Y-117601333D01*
X105468380Y-117696571D01*
X105468380Y-117934666D01*
X105420761Y-118029904D01*
X105373142Y-118077523D01*
X105468380Y-115918476D02*
X105468380Y-116489904D01*
X105468380Y-116204190D02*
X104468380Y-116204190D01*
X104611238Y-116299428D01*
X104706476Y-116394666D01*
X104754095Y-116489904D01*
X104563619Y-115537523D02*
X104516000Y-115489904D01*
X104468380Y-115394666D01*
X104468380Y-115156571D01*
X104516000Y-115061333D01*
X104563619Y-115013714D01*
X104658857Y-114966095D01*
X104754095Y-114966095D01*
X104896952Y-115013714D01*
X105468380Y-115585142D01*
X105468380Y-114966095D01*
X104563619Y-113473714D02*
X104516000Y-113426095D01*
X104468380Y-113330857D01*
X104468380Y-113092761D01*
X104516000Y-112997523D01*
X104563619Y-112949904D01*
X104658857Y-112902285D01*
X104754095Y-112902285D01*
X104896952Y-112949904D01*
X105468380Y-113521333D01*
X105468380Y-112902285D01*
X104563619Y-111409904D02*
X104516000Y-111362285D01*
X104468380Y-111267047D01*
X104468380Y-111028952D01*
X104516000Y-110933714D01*
X104563619Y-110886095D01*
X104658857Y-110838476D01*
X104754095Y-110838476D01*
X104896952Y-110886095D01*
X105468380Y-111457523D01*
X105468380Y-110838476D01*
X105468380Y-109886095D02*
X105468380Y-110457523D01*
X105468380Y-110171809D02*
X104468380Y-110171809D01*
X104611238Y-110267047D01*
X104706476Y-110362285D01*
X104754095Y-110457523D01*
X105468380Y-108298476D02*
X105468380Y-108869904D01*
X105468380Y-108584190D02*
X104468380Y-108584190D01*
X104611238Y-108679428D01*
X104706476Y-108774666D01*
X104754095Y-108869904D01*
X104468380Y-107441333D02*
X104468380Y-107631809D01*
X104516000Y-107727047D01*
X104563619Y-107774666D01*
X104706476Y-107869904D01*
X104896952Y-107917523D01*
X105277904Y-107917523D01*
X105373142Y-107869904D01*
X105420761Y-107822285D01*
X105468380Y-107727047D01*
X105468380Y-107536571D01*
X105420761Y-107441333D01*
X105373142Y-107393714D01*
X105277904Y-107346095D01*
X105039809Y-107346095D01*
X104944571Y-107393714D01*
X104896952Y-107441333D01*
X104849333Y-107536571D01*
X104849333Y-107727047D01*
X104896952Y-107822285D01*
X104944571Y-107869904D01*
X105039809Y-107917523D01*
X104468380Y-105901333D02*
X104468380Y-105282285D01*
X104849333Y-105615619D01*
X104849333Y-105472761D01*
X104896952Y-105377523D01*
X104944571Y-105329904D01*
X105039809Y-105282285D01*
X105277904Y-105282285D01*
X105373142Y-105329904D01*
X105420761Y-105377523D01*
X105468380Y-105472761D01*
X105468380Y-105758476D01*
X105420761Y-105853714D01*
X105373142Y-105901333D01*
X105468380Y-103218476D02*
X105468380Y-103789904D01*
X105468380Y-103504190D02*
X104468380Y-103504190D01*
X104611238Y-103599428D01*
X104706476Y-103694666D01*
X104754095Y-103789904D01*
X104896952Y-102647047D02*
X104849333Y-102742285D01*
X104801714Y-102789904D01*
X104706476Y-102837523D01*
X104658857Y-102837523D01*
X104563619Y-102789904D01*
X104516000Y-102742285D01*
X104468380Y-102647047D01*
X104468380Y-102456571D01*
X104516000Y-102361333D01*
X104563619Y-102313714D01*
X104658857Y-102266095D01*
X104706476Y-102266095D01*
X104801714Y-102313714D01*
X104849333Y-102361333D01*
X104896952Y-102456571D01*
X104896952Y-102647047D01*
X104944571Y-102742285D01*
X104992190Y-102789904D01*
X105087428Y-102837523D01*
X105277904Y-102837523D01*
X105373142Y-102789904D01*
X105420761Y-102742285D01*
X105468380Y-102647047D01*
X105468380Y-102456571D01*
X105420761Y-102361333D01*
X105373142Y-102313714D01*
X105277904Y-102266095D01*
X105087428Y-102266095D01*
X104992190Y-102313714D01*
X104944571Y-102361333D01*
X104896952Y-102456571D01*
X105468380Y-100678476D02*
X105468380Y-101249904D01*
X105468380Y-100964190D02*
X104468380Y-100964190D01*
X104611238Y-101059428D01*
X104706476Y-101154666D01*
X104754095Y-101249904D01*
X105468380Y-100202285D02*
X105468380Y-100011809D01*
X105420761Y-99916571D01*
X105373142Y-99868952D01*
X105230285Y-99773714D01*
X105039809Y-99726095D01*
X104658857Y-99726095D01*
X104563619Y-99773714D01*
X104516000Y-99821333D01*
X104468380Y-99916571D01*
X104468380Y-100107047D01*
X104516000Y-100202285D01*
X104563619Y-100249904D01*
X104658857Y-100297523D01*
X104896952Y-100297523D01*
X104992190Y-100249904D01*
X105039809Y-100202285D01*
X105087428Y-100107047D01*
X105087428Y-99916571D01*
X105039809Y-99821333D01*
X104992190Y-99773714D01*
X104896952Y-99726095D01*
X104563619Y-98709904D02*
X104516000Y-98662285D01*
X104468380Y-98567047D01*
X104468380Y-98328952D01*
X104516000Y-98233714D01*
X104563619Y-98186095D01*
X104658857Y-98138476D01*
X104754095Y-98138476D01*
X104896952Y-98186095D01*
X105468380Y-98757523D01*
X105468380Y-98138476D01*
X104468380Y-97805142D02*
X104468380Y-97186095D01*
X104849333Y-97519428D01*
X104849333Y-97376571D01*
X104896952Y-97281333D01*
X104944571Y-97233714D01*
X105039809Y-97186095D01*
X105277904Y-97186095D01*
X105373142Y-97233714D01*
X105420761Y-97281333D01*
X105468380Y-97376571D01*
X105468380Y-97662285D01*
X105420761Y-97757523D01*
X105373142Y-97805142D01*
X104516000Y-93629904D02*
X104468380Y-93725142D01*
X104468380Y-93868000D01*
X104516000Y-94010857D01*
X104611238Y-94106095D01*
X104706476Y-94153714D01*
X104896952Y-94201333D01*
X105039809Y-94201333D01*
X105230285Y-94153714D01*
X105325523Y-94106095D01*
X105420761Y-94010857D01*
X105468380Y-93868000D01*
X105468380Y-93772761D01*
X105420761Y-93629904D01*
X105373142Y-93582285D01*
X105039809Y-93582285D01*
X105039809Y-93772761D01*
X105468380Y-93153714D02*
X104468380Y-93153714D01*
X105468380Y-92582285D01*
X104468380Y-92582285D01*
X105468380Y-92106095D02*
X104468380Y-92106095D01*
X104468380Y-91868000D01*
X104516000Y-91725142D01*
X104611238Y-91629904D01*
X104706476Y-91582285D01*
X104896952Y-91534666D01*
X105039809Y-91534666D01*
X105230285Y-91582285D01*
X105325523Y-91629904D01*
X105420761Y-91725142D01*
X105468380Y-91868000D01*
X105468380Y-92106095D01*
D13*
G04 #@! TO.C,Y1*
X116080000Y-123325000D02*
G75*
G03X121130000Y-123325000I2525000J0D01*
G01*
X116080000Y-117075000D02*
G75*
G02X121130000Y-117075000I2525000J0D01*
G01*
X116080000Y-117075000D02*
X116080000Y-123325000D01*
X121130000Y-117075000D02*
X121130000Y-123325000D01*
G04 #@! TO.C,R8*
X121481000Y-116863000D02*
X121481000Y-115863000D01*
X122841000Y-115863000D02*
X122841000Y-116863000D01*
G04 #@! TO.C,U1*
X128776000Y-108276000D02*
X126326000Y-108276000D01*
X126976000Y-111496000D02*
X128776000Y-111496000D01*
G04 #@! TO.C,C2*
X125555000Y-109790000D02*
X125555000Y-110490000D01*
X124355000Y-110490000D02*
X124355000Y-109790000D01*
G04 #@! TO.C,U7*
X124336000Y-105882000D02*
G75*
G02X126336000Y-105882000I1000000J0D01*
G01*
X126336000Y-105882000D02*
X127986000Y-105882000D01*
X127986000Y-105882000D02*
X127986000Y-100682000D01*
X127986000Y-100682000D02*
X122686000Y-100682000D01*
X122686000Y-100682000D02*
X122686000Y-105882000D01*
X122686000Y-105882000D02*
X124336000Y-105882000D01*
D11*
G04 #@! TO.C,T1*
X130413776Y-96102000D02*
G75*
G03X130413776Y-96102000I-283776J0D01*
G01*
X126411986Y-87602000D02*
G75*
G03X126411986Y-87602000I-281986J0D01*
G01*
X127630000Y-95852000D02*
X127630000Y-87852000D01*
X128630000Y-95852000D02*
X128630000Y-87852000D01*
X126130000Y-94852000D02*
G75*
G03X127130000Y-93852000I0J1000000D01*
G01*
X127130000Y-93852000D02*
G75*
G03X126130000Y-92852000I-1000000J0D01*
G01*
X126130000Y-92852000D02*
G75*
G03X127130000Y-91852000I0J1000000D01*
G01*
X127130000Y-91852000D02*
G75*
G03X126130000Y-90852000I-1000000J0D01*
G01*
X126130000Y-90852000D02*
G75*
G03X127130000Y-89852000I0J1000000D01*
G01*
X127130000Y-89852000D02*
G75*
G03X126130000Y-88852000I-1000000J0D01*
G01*
X130130000Y-88852000D02*
G75*
G03X129130000Y-89852000I0J-1000000D01*
G01*
X129130000Y-89852000D02*
G75*
G03X130130000Y-90852000I1000000J0D01*
G01*
X130130000Y-90852000D02*
G75*
G03X129130000Y-91852000I0J-1000000D01*
G01*
X129130000Y-91852000D02*
G75*
G03X130130000Y-92852000I1000000J0D01*
G01*
X130130000Y-92852000D02*
G75*
G03X129130000Y-93852000I0J-1000000D01*
G01*
X129130000Y-93852000D02*
G75*
G03X130130000Y-94852000I1000000J0D01*
G01*
X126130000Y-94852000D02*
X124130000Y-94852000D01*
X126130000Y-91852000D02*
X124130000Y-91852000D01*
X126130000Y-88852000D02*
X124130000Y-88852000D01*
X130130000Y-94852000D02*
X132130000Y-94852000D01*
X130130000Y-88852000D02*
X132130000Y-88852000D01*
X135630000Y-99852000D02*
X120630000Y-99852000D01*
X120630000Y-99852000D02*
X120630000Y-83852000D01*
X120630000Y-83852000D02*
X135630000Y-83852000D01*
X135630000Y-83852000D02*
X135630000Y-99852000D01*
D13*
G04 #@! TO.C,J4*
X151760000Y-95450000D02*
X156300000Y-95450000D01*
X151760000Y-107450000D02*
X156300000Y-107450000D01*
X143300000Y-107450000D02*
X143300000Y-95450000D01*
X156300000Y-107450000D02*
X156300000Y-95450000D01*
X143300000Y-95450000D02*
X148762000Y-95450000D01*
X143300000Y-107450000D02*
X148762000Y-107450000D01*
G04 #@! TO.C,J2*
X141600000Y-125100000D02*
X141600000Y-122500000D01*
X156300000Y-125100000D02*
X141600000Y-125100000D01*
X141600000Y-115900000D02*
X143500000Y-115900000D01*
X141600000Y-118600000D02*
X141600000Y-115900000D01*
X156300000Y-115900000D02*
X156300000Y-125100000D01*
X147500000Y-115900000D02*
X156300000Y-115900000D01*
G04 #@! TO.C,J1*
X112600000Y-124000000D02*
X112600000Y-125020000D01*
X107400000Y-124000000D02*
X107400000Y-125020000D01*
X112600000Y-121460000D02*
X112600000Y-122480000D01*
X107400000Y-121460000D02*
X107400000Y-122480000D01*
X112600000Y-118920000D02*
X112600000Y-119940000D01*
X107400000Y-118920000D02*
X107400000Y-119940000D01*
X112600000Y-116380000D02*
X112600000Y-117400000D01*
X107400000Y-116380000D02*
X107400000Y-117400000D01*
X112600000Y-113840000D02*
X112600000Y-114860000D01*
X107400000Y-113840000D02*
X107400000Y-114860000D01*
X112600000Y-111300000D02*
X112600000Y-112320000D01*
X107400000Y-111300000D02*
X107400000Y-112320000D01*
X112600000Y-108760000D02*
X112600000Y-109780000D01*
X107400000Y-108760000D02*
X107400000Y-109780000D01*
X112600000Y-106220000D02*
X112600000Y-107240000D01*
X107400000Y-106220000D02*
X107400000Y-107240000D01*
X112600000Y-103680000D02*
X112600000Y-104700000D01*
X107400000Y-103680000D02*
X107400000Y-104700000D01*
X112600000Y-101140000D02*
X112600000Y-102160000D01*
X107400000Y-101140000D02*
X107400000Y-102160000D01*
X112600000Y-98600000D02*
X112600000Y-99620000D01*
X107400000Y-98600000D02*
X107400000Y-99620000D01*
X112600000Y-96060000D02*
X112600000Y-97080000D01*
X107400000Y-96060000D02*
X107400000Y-97080000D01*
X112600000Y-93520000D02*
X112600000Y-94540000D01*
X107400000Y-93520000D02*
X107400000Y-94540000D01*
X112600000Y-90980000D02*
X112600000Y-92000000D01*
X107400000Y-90980000D02*
X107400000Y-92000000D01*
X112600000Y-126540000D02*
X112600000Y-127110000D01*
X107400000Y-126540000D02*
X107400000Y-127110000D01*
X112600000Y-88890000D02*
X112600000Y-89460000D01*
X107400000Y-88890000D02*
X107400000Y-89460000D01*
X105960000Y-89460000D02*
X107400000Y-89460000D01*
X107400000Y-127110000D02*
X112600000Y-127110000D01*
X107400000Y-88890000D02*
X112600000Y-88890000D01*
D11*
G04 #@! TO.C,SW1*
X124320000Y-131390000D02*
X124320000Y-135390000D01*
X123320000Y-135190000D02*
X124320000Y-135390000D01*
X122320000Y-135390000D02*
X123320000Y-135190000D01*
X122320000Y-131390000D02*
X122320000Y-135390000D01*
X126920000Y-127390000D02*
X126920000Y-126990000D01*
X126920000Y-130990000D02*
X126920000Y-131390000D01*
X117720000Y-130990000D02*
X117720000Y-131390000D01*
X117720000Y-127390000D02*
X117720000Y-126990000D01*
X126920000Y-131390000D02*
X117720000Y-131390000D01*
X126920000Y-126990000D02*
X117720000Y-126990000D01*
D13*
G04 #@! TO.C,R4*
X120846000Y-110640000D02*
X120846000Y-109640000D01*
X122206000Y-109640000D02*
X122206000Y-110640000D01*
G04 #@! TO.C,C1*
X132987000Y-106619000D02*
X133687000Y-106619000D01*
X133687000Y-107819000D02*
X132987000Y-107819000D01*
G04 #@! TO.C,C7*
X133880000Y-109982000D02*
X133880000Y-109282000D01*
X135080000Y-109282000D02*
X135080000Y-109982000D01*
G04 #@! TO.C,R1*
X132657000Y-103528000D02*
X132657000Y-102528000D01*
X134017000Y-102528000D02*
X134017000Y-103528000D01*
G04 #@! TO.C,R2*
X135922000Y-102528000D02*
X135922000Y-103528000D01*
X134562000Y-103528000D02*
X134562000Y-102528000D01*
G04 #@! TO.C,R3*
X130244000Y-110132000D02*
X130244000Y-109132000D01*
X131604000Y-109132000D02*
X131604000Y-110132000D01*
G04 #@! TO.C,J3*
X134670000Y-128560000D02*
X139870000Y-128560000D01*
X139870000Y-128560000D02*
X139870000Y-125900000D01*
X139870000Y-125900000D02*
X134670000Y-125900000D01*
X134670000Y-125900000D02*
X134670000Y-128560000D01*
X135620000Y-125900000D02*
X135620000Y-119900000D01*
X135620000Y-119900000D02*
X136380000Y-119900000D01*
X136380000Y-119900000D02*
X136380000Y-125900000D01*
X135680000Y-125900000D02*
X135680000Y-119900000D01*
X135800000Y-125900000D02*
X135800000Y-119900000D01*
X135920000Y-125900000D02*
X135920000Y-119900000D01*
X136040000Y-125900000D02*
X136040000Y-119900000D01*
X136160000Y-125900000D02*
X136160000Y-119900000D01*
X136280000Y-125900000D02*
X136280000Y-119900000D01*
X135620000Y-128890000D02*
X135620000Y-128560000D01*
X136380000Y-128890000D02*
X136380000Y-128560000D01*
X137270000Y-128560000D02*
X137270000Y-125900000D01*
X138160000Y-125900000D02*
X138160000Y-119900000D01*
X138160000Y-119900000D02*
X138920000Y-119900000D01*
X138920000Y-119900000D02*
X138920000Y-125900000D01*
X138160000Y-128957071D02*
X138160000Y-128560000D01*
X138920000Y-128957071D02*
X138920000Y-128560000D01*
X136000000Y-131270000D02*
X134730000Y-131270000D01*
X134730000Y-131270000D02*
X134730000Y-130000000D01*
G04 #@! TO.C,C9*
X134322000Y-113280000D02*
X133622000Y-113280000D01*
X133622000Y-112080000D02*
X134322000Y-112080000D01*
G04 #@! TO.C,C10*
X135658000Y-109982000D02*
X135658000Y-109282000D01*
X136858000Y-109282000D02*
X136858000Y-109982000D01*
G04 #@! TO.C,C19*
X137366000Y-114362000D02*
X137366000Y-115062000D01*
X136166000Y-115062000D02*
X136166000Y-114362000D01*
G04 #@! TO.C,C27*
X128607000Y-107819000D02*
X127907000Y-107819000D01*
X127907000Y-106619000D02*
X128607000Y-106619000D01*
G04 #@! TO.C,D4*
X137618000Y-93258000D02*
X137438000Y-93258000D01*
X137438000Y-93258000D02*
X137438000Y-89938000D01*
X137438000Y-89938000D02*
X137618000Y-89938000D01*
X139978000Y-93258000D02*
X140158000Y-93258000D01*
X140158000Y-93258000D02*
X140158000Y-89938000D01*
X140158000Y-89938000D02*
X139978000Y-89938000D01*
X137438000Y-92718000D02*
X140158000Y-92718000D01*
G04 #@! TO.C,D5*
X116356000Y-92718000D02*
X119076000Y-92718000D01*
X119076000Y-89938000D02*
X118896000Y-89938000D01*
X119076000Y-93258000D02*
X119076000Y-89938000D01*
X118896000Y-93258000D02*
X119076000Y-93258000D01*
X116356000Y-89938000D02*
X116536000Y-89938000D01*
X116356000Y-93258000D02*
X116356000Y-89938000D01*
X116536000Y-93258000D02*
X116356000Y-93258000D01*
G04 #@! TO.C,R5*
X122624000Y-110640000D02*
X122624000Y-109640000D01*
X123984000Y-109640000D02*
X123984000Y-110640000D01*
G04 #@! TO.C,R6*
X133382000Y-109132000D02*
X133382000Y-110132000D01*
X132022000Y-110132000D02*
X132022000Y-109132000D01*
G04 #@! TO.C,R7*
X122841000Y-113069000D02*
X122841000Y-114069000D01*
X121481000Y-114069000D02*
X121481000Y-113069000D01*
G04 #@! TO.C,R10*
X136086000Y-118260000D02*
X136086000Y-117260000D01*
X137446000Y-117260000D02*
X137446000Y-118260000D01*
G04 #@! TO.C,R18*
X119920000Y-103163000D02*
X119920000Y-104163000D01*
X118560000Y-104163000D02*
X118560000Y-103163000D01*
D11*
G04 #@! TO.C,U5*
X125125000Y-113800000D02*
X123300000Y-113800000D01*
X125125000Y-125450000D02*
X132875000Y-125450000D01*
X125125000Y-113550000D02*
X132875000Y-113550000D01*
X125125000Y-125450000D02*
X125125000Y-125105000D01*
X132875000Y-125450000D02*
X132875000Y-125105000D01*
X132875000Y-113550000D02*
X132875000Y-113895000D01*
X125125000Y-113550000D02*
X125125000Y-113800000D01*
D13*
G04 #@! TO.C,C3*
X138001000Y-97217000D02*
X138001000Y-97917000D01*
X136801000Y-97917000D02*
X136801000Y-97217000D01*
G04 #@! TO.C,C5*
X141561000Y-113280000D02*
X140861000Y-113280000D01*
X140861000Y-112080000D02*
X141561000Y-112080000D01*
G04 #@! TO.C,C20*
X118828000Y-97659000D02*
X118128000Y-97659000D01*
X118128000Y-96459000D02*
X118828000Y-96459000D01*
G04 #@! TO.C,C22*
X130959000Y-103378000D02*
X130959000Y-102678000D01*
X132159000Y-102678000D02*
X132159000Y-103378000D01*
G04 #@! TO.C,R11*
X142726000Y-90490000D02*
X142726000Y-91690000D01*
X140966000Y-91690000D02*
X140966000Y-90490000D01*
G04 #@! TO.C,R12*
X140966000Y-88134000D02*
X140966000Y-86934000D01*
X142726000Y-86934000D02*
X142726000Y-88134000D01*
G04 #@! TO.C,R13*
X144885000Y-90490000D02*
X144885000Y-91690000D01*
X143125000Y-91690000D02*
X143125000Y-90490000D01*
G04 #@! TO.C,R14*
X143125000Y-88134000D02*
X143125000Y-86934000D01*
X144885000Y-86934000D02*
X144885000Y-88134000D01*
G04 #@! TO.C,Y1*
D11*
X116930190Y-120395190D02*
X117406380Y-120395190D01*
X116406380Y-120728523D02*
X116930190Y-120395190D01*
X116406380Y-120061857D01*
X117406380Y-119204714D02*
X117406380Y-119776142D01*
X117406380Y-119490428D02*
X116406380Y-119490428D01*
X116549238Y-119585666D01*
X116644476Y-119680904D01*
X116692095Y-119776142D01*
G04 #@! TO.C,R8*
D10*
X122522904Y-118528333D02*
X122141952Y-118795000D01*
X122522904Y-118985476D02*
X121722904Y-118985476D01*
X121722904Y-118680714D01*
X121761000Y-118604523D01*
X121799095Y-118566428D01*
X121875285Y-118528333D01*
X121989571Y-118528333D01*
X122065761Y-118566428D01*
X122103857Y-118604523D01*
X122141952Y-118680714D01*
X122141952Y-118985476D01*
X122065761Y-118071190D02*
X122027666Y-118147380D01*
X121989571Y-118185476D01*
X121913380Y-118223571D01*
X121875285Y-118223571D01*
X121799095Y-118185476D01*
X121761000Y-118147380D01*
X121722904Y-118071190D01*
X121722904Y-117918809D01*
X121761000Y-117842619D01*
X121799095Y-117804523D01*
X121875285Y-117766428D01*
X121913380Y-117766428D01*
X121989571Y-117804523D01*
X122027666Y-117842619D01*
X122065761Y-117918809D01*
X122065761Y-118071190D01*
X122103857Y-118147380D01*
X122141952Y-118185476D01*
X122218142Y-118223571D01*
X122370523Y-118223571D01*
X122446714Y-118185476D01*
X122484809Y-118147380D01*
X122522904Y-118071190D01*
X122522904Y-117918809D01*
X122484809Y-117842619D01*
X122446714Y-117804523D01*
X122370523Y-117766428D01*
X122218142Y-117766428D01*
X122141952Y-117804523D01*
X122103857Y-117842619D01*
X122065761Y-117918809D01*
G04 #@! TO.C,U1*
X126758476Y-111733904D02*
X126758476Y-112381523D01*
X126796571Y-112457714D01*
X126834666Y-112495809D01*
X126910857Y-112533904D01*
X127063238Y-112533904D01*
X127139428Y-112495809D01*
X127177523Y-112457714D01*
X127215619Y-112381523D01*
X127215619Y-111733904D01*
X128015619Y-112533904D02*
X127558476Y-112533904D01*
X127787047Y-112533904D02*
X127787047Y-111733904D01*
X127710857Y-111848190D01*
X127634666Y-111924380D01*
X127558476Y-111962476D01*
G04 #@! TO.C,C2*
X125240714Y-112432333D02*
X125278809Y-112470428D01*
X125316904Y-112584714D01*
X125316904Y-112660904D01*
X125278809Y-112775190D01*
X125202619Y-112851380D01*
X125126428Y-112889476D01*
X124974047Y-112927571D01*
X124859761Y-112927571D01*
X124707380Y-112889476D01*
X124631190Y-112851380D01*
X124555000Y-112775190D01*
X124516904Y-112660904D01*
X124516904Y-112584714D01*
X124555000Y-112470428D01*
X124593095Y-112432333D01*
X124593095Y-112127571D02*
X124555000Y-112089476D01*
X124516904Y-112013285D01*
X124516904Y-111822809D01*
X124555000Y-111746619D01*
X124593095Y-111708523D01*
X124669285Y-111670428D01*
X124745476Y-111670428D01*
X124859761Y-111708523D01*
X125316904Y-112165666D01*
X125316904Y-111670428D01*
G04 #@! TO.C,U7*
X124599476Y-102462904D02*
X124599476Y-103110523D01*
X124637571Y-103186714D01*
X124675666Y-103224809D01*
X124751857Y-103262904D01*
X124904238Y-103262904D01*
X124980428Y-103224809D01*
X125018523Y-103186714D01*
X125056619Y-103110523D01*
X125056619Y-102462904D01*
X125361380Y-102462904D02*
X125894714Y-102462904D01*
X125551857Y-103262904D01*
G04 #@! TO.C,T1*
D11*
X127368095Y-85970380D02*
X127939523Y-85970380D01*
X127653809Y-86970380D02*
X127653809Y-85970380D01*
X128796666Y-86970380D02*
X128225238Y-86970380D01*
X128510952Y-86970380D02*
X128510952Y-85970380D01*
X128415714Y-86113238D01*
X128320476Y-86208476D01*
X128225238Y-86256095D01*
D10*
X136492904Y-94544428D02*
X136492904Y-95001571D01*
X136492904Y-94773000D02*
X135692904Y-94773000D01*
X135807190Y-94849190D01*
X135883380Y-94925380D01*
X135921476Y-95001571D01*
X135896095Y-89080571D02*
X135858000Y-89042476D01*
X135819904Y-88966285D01*
X135819904Y-88775809D01*
X135858000Y-88699619D01*
X135896095Y-88661523D01*
X135972285Y-88623428D01*
X136048476Y-88623428D01*
X136162761Y-88661523D01*
X136619904Y-89118666D01*
X136619904Y-88623428D01*
X119690904Y-89118666D02*
X119690904Y-88623428D01*
X119995666Y-88890095D01*
X119995666Y-88775809D01*
X120033761Y-88699619D01*
X120071857Y-88661523D01*
X120148047Y-88623428D01*
X120338523Y-88623428D01*
X120414714Y-88661523D01*
X120452809Y-88699619D01*
X120490904Y-88775809D01*
X120490904Y-89004380D01*
X120452809Y-89080571D01*
X120414714Y-89118666D01*
X119957571Y-91699619D02*
X120490904Y-91699619D01*
X119652809Y-91890095D02*
X120224238Y-92080571D01*
X120224238Y-91585333D01*
D11*
X126598238Y-97241571D02*
X126931571Y-97241571D01*
X127074428Y-97765380D02*
X126598238Y-97765380D01*
X126598238Y-96765380D01*
X127074428Y-96765380D01*
X127503000Y-97765380D02*
X127503000Y-96765380D01*
X128503000Y-97765380D02*
X127931571Y-97765380D01*
X128217285Y-97765380D02*
X128217285Y-96765380D01*
X128122047Y-96908238D01*
X128026809Y-97003476D01*
X127931571Y-97051095D01*
X129360142Y-97098714D02*
X129360142Y-97765380D01*
X129122047Y-96717761D02*
X128883952Y-97432047D01*
X129503000Y-97432047D01*
D10*
X119690904Y-94661523D02*
X119690904Y-95042476D01*
X120071857Y-95080571D01*
X120033761Y-95042476D01*
X119995666Y-94966285D01*
X119995666Y-94775809D01*
X120033761Y-94699619D01*
X120071857Y-94661523D01*
X120148047Y-94623428D01*
X120338523Y-94623428D01*
X120414714Y-94661523D01*
X120452809Y-94699619D01*
X120490904Y-94775809D01*
X120490904Y-94966285D01*
X120452809Y-95042476D01*
X120414714Y-95080571D01*
G04 #@! TO.C,J4*
D11*
X142012380Y-104250333D02*
X142726666Y-104250333D01*
X142869523Y-104297952D01*
X142964761Y-104393190D01*
X143012380Y-104536047D01*
X143012380Y-104631285D01*
X142345714Y-103345571D02*
X143012380Y-103345571D01*
X141964761Y-103583666D02*
X142679047Y-103821761D01*
X142679047Y-103202714D01*
G04 #@! TO.C,J2*
X140250380Y-124316333D02*
X140964666Y-124316333D01*
X141107523Y-124363952D01*
X141202761Y-124459190D01*
X141250380Y-124602047D01*
X141250380Y-124697285D01*
X140345619Y-123887761D02*
X140298000Y-123840142D01*
X140250380Y-123744904D01*
X140250380Y-123506809D01*
X140298000Y-123411571D01*
X140345619Y-123363952D01*
X140440857Y-123316333D01*
X140536095Y-123316333D01*
X140678952Y-123363952D01*
X141250380Y-123935380D01*
X141250380Y-123316333D01*
G04 #@! TO.C,SW1*
D10*
X121729333Y-126465809D02*
X121843619Y-126503904D01*
X122034095Y-126503904D01*
X122110285Y-126465809D01*
X122148380Y-126427714D01*
X122186476Y-126351523D01*
X122186476Y-126275333D01*
X122148380Y-126199142D01*
X122110285Y-126161047D01*
X122034095Y-126122952D01*
X121881714Y-126084857D01*
X121805523Y-126046761D01*
X121767428Y-126008666D01*
X121729333Y-125932476D01*
X121729333Y-125856285D01*
X121767428Y-125780095D01*
X121805523Y-125742000D01*
X121881714Y-125703904D01*
X122072190Y-125703904D01*
X122186476Y-125742000D01*
X122453142Y-125703904D02*
X122643619Y-126503904D01*
X122796000Y-125932476D01*
X122948380Y-126503904D01*
X123138857Y-125703904D01*
X123862666Y-126503904D02*
X123405523Y-126503904D01*
X123634095Y-126503904D02*
X123634095Y-125703904D01*
X123557904Y-125818190D01*
X123481714Y-125894380D01*
X123405523Y-125932476D01*
G04 #@! TO.C,R4*
X121887904Y-108241333D02*
X121506952Y-108508000D01*
X121887904Y-108698476D02*
X121087904Y-108698476D01*
X121087904Y-108393714D01*
X121126000Y-108317523D01*
X121164095Y-108279428D01*
X121240285Y-108241333D01*
X121354571Y-108241333D01*
X121430761Y-108279428D01*
X121468857Y-108317523D01*
X121506952Y-108393714D01*
X121506952Y-108698476D01*
X121354571Y-107555619D02*
X121887904Y-107555619D01*
X121049809Y-107746095D02*
X121621238Y-107936571D01*
X121621238Y-107441333D01*
G04 #@! TO.C,C1*
X135489666Y-107250714D02*
X135451571Y-107288809D01*
X135337285Y-107326904D01*
X135261095Y-107326904D01*
X135146809Y-107288809D01*
X135070619Y-107212619D01*
X135032523Y-107136428D01*
X134994428Y-106984047D01*
X134994428Y-106869761D01*
X135032523Y-106717380D01*
X135070619Y-106641190D01*
X135146809Y-106565000D01*
X135261095Y-106526904D01*
X135337285Y-106526904D01*
X135451571Y-106565000D01*
X135489666Y-106603095D01*
X136251571Y-107326904D02*
X135794428Y-107326904D01*
X136023000Y-107326904D02*
X136023000Y-106526904D01*
X135946809Y-106641190D01*
X135870619Y-106717380D01*
X135794428Y-106755476D01*
G04 #@! TO.C,C7*
X138194714Y-112305333D02*
X138232809Y-112343428D01*
X138270904Y-112457714D01*
X138270904Y-112533904D01*
X138232809Y-112648190D01*
X138156619Y-112724380D01*
X138080428Y-112762476D01*
X137928047Y-112800571D01*
X137813761Y-112800571D01*
X137661380Y-112762476D01*
X137585190Y-112724380D01*
X137509000Y-112648190D01*
X137470904Y-112533904D01*
X137470904Y-112457714D01*
X137509000Y-112343428D01*
X137547095Y-112305333D01*
X137470904Y-112038666D02*
X137470904Y-111505333D01*
X138270904Y-111848190D01*
G04 #@! TO.C,R1*
X133698904Y-105193333D02*
X133317952Y-105460000D01*
X133698904Y-105650476D02*
X132898904Y-105650476D01*
X132898904Y-105345714D01*
X132937000Y-105269523D01*
X132975095Y-105231428D01*
X133051285Y-105193333D01*
X133165571Y-105193333D01*
X133241761Y-105231428D01*
X133279857Y-105269523D01*
X133317952Y-105345714D01*
X133317952Y-105650476D01*
X133698904Y-104431428D02*
X133698904Y-104888571D01*
X133698904Y-104660000D02*
X132898904Y-104660000D01*
X133013190Y-104736190D01*
X133089380Y-104812380D01*
X133127476Y-104888571D01*
G04 #@! TO.C,R2*
X135603904Y-105193333D02*
X135222952Y-105460000D01*
X135603904Y-105650476D02*
X134803904Y-105650476D01*
X134803904Y-105345714D01*
X134842000Y-105269523D01*
X134880095Y-105231428D01*
X134956285Y-105193333D01*
X135070571Y-105193333D01*
X135146761Y-105231428D01*
X135184857Y-105269523D01*
X135222952Y-105345714D01*
X135222952Y-105650476D01*
X134880095Y-104888571D02*
X134842000Y-104850476D01*
X134803904Y-104774285D01*
X134803904Y-104583809D01*
X134842000Y-104507619D01*
X134880095Y-104469523D01*
X134956285Y-104431428D01*
X135032476Y-104431428D01*
X135146761Y-104469523D01*
X135603904Y-104926666D01*
X135603904Y-104431428D01*
G04 #@! TO.C,R3*
X131031904Y-111924333D02*
X130650952Y-112191000D01*
X131031904Y-112381476D02*
X130231904Y-112381476D01*
X130231904Y-112076714D01*
X130270000Y-112000523D01*
X130308095Y-111962428D01*
X130384285Y-111924333D01*
X130498571Y-111924333D01*
X130574761Y-111962428D01*
X130612857Y-112000523D01*
X130650952Y-112076714D01*
X130650952Y-112381476D01*
X130231904Y-111657666D02*
X130231904Y-111162428D01*
X130536666Y-111429095D01*
X130536666Y-111314809D01*
X130574761Y-111238619D01*
X130612857Y-111200523D01*
X130689047Y-111162428D01*
X130879523Y-111162428D01*
X130955714Y-111200523D01*
X130993809Y-111238619D01*
X131031904Y-111314809D01*
X131031904Y-111543380D01*
X130993809Y-111619571D01*
X130955714Y-111657666D01*
G04 #@! TO.C,J3*
X133910904Y-130266666D02*
X134482333Y-130266666D01*
X134596619Y-130304761D01*
X134672809Y-130380952D01*
X134710904Y-130495238D01*
X134710904Y-130571428D01*
X133910904Y-129961904D02*
X133910904Y-129466666D01*
X134215666Y-129733333D01*
X134215666Y-129619047D01*
X134253761Y-129542857D01*
X134291857Y-129504761D01*
X134368047Y-129466666D01*
X134558523Y-129466666D01*
X134634714Y-129504761D01*
X134672809Y-129542857D01*
X134710904Y-129619047D01*
X134710904Y-129847619D01*
X134672809Y-129923809D01*
X134634714Y-129961904D01*
G04 #@! TO.C,C9*
X136124666Y-112965714D02*
X136086571Y-113003809D01*
X135972285Y-113041904D01*
X135896095Y-113041904D01*
X135781809Y-113003809D01*
X135705619Y-112927619D01*
X135667523Y-112851428D01*
X135629428Y-112699047D01*
X135629428Y-112584761D01*
X135667523Y-112432380D01*
X135705619Y-112356190D01*
X135781809Y-112280000D01*
X135896095Y-112241904D01*
X135972285Y-112241904D01*
X136086571Y-112280000D01*
X136124666Y-112318095D01*
X136505619Y-113041904D02*
X136658000Y-113041904D01*
X136734190Y-113003809D01*
X136772285Y-112965714D01*
X136848476Y-112851428D01*
X136886571Y-112699047D01*
X136886571Y-112394285D01*
X136848476Y-112318095D01*
X136810380Y-112280000D01*
X136734190Y-112241904D01*
X136581809Y-112241904D01*
X136505619Y-112280000D01*
X136467523Y-112318095D01*
X136429428Y-112394285D01*
X136429428Y-112584761D01*
X136467523Y-112660952D01*
X136505619Y-112699047D01*
X136581809Y-112737142D01*
X136734190Y-112737142D01*
X136810380Y-112699047D01*
X136848476Y-112660952D01*
X136886571Y-112584761D01*
G04 #@! TO.C,C10*
X137813714Y-110146285D02*
X137851809Y-110184380D01*
X137889904Y-110298666D01*
X137889904Y-110374857D01*
X137851809Y-110489142D01*
X137775619Y-110565333D01*
X137699428Y-110603428D01*
X137547047Y-110641523D01*
X137432761Y-110641523D01*
X137280380Y-110603428D01*
X137204190Y-110565333D01*
X137128000Y-110489142D01*
X137089904Y-110374857D01*
X137089904Y-110298666D01*
X137128000Y-110184380D01*
X137166095Y-110146285D01*
X137889904Y-109384380D02*
X137889904Y-109841523D01*
X137889904Y-109612952D02*
X137089904Y-109612952D01*
X137204190Y-109689142D01*
X137280380Y-109765333D01*
X137318476Y-109841523D01*
X137089904Y-108889142D02*
X137089904Y-108812952D01*
X137128000Y-108736761D01*
X137166095Y-108698666D01*
X137242285Y-108660571D01*
X137394666Y-108622476D01*
X137585142Y-108622476D01*
X137737523Y-108660571D01*
X137813714Y-108698666D01*
X137851809Y-108736761D01*
X137889904Y-108812952D01*
X137889904Y-108889142D01*
X137851809Y-108965333D01*
X137813714Y-109003428D01*
X137737523Y-109041523D01*
X137585142Y-109079619D01*
X137394666Y-109079619D01*
X137242285Y-109041523D01*
X137166095Y-109003428D01*
X137128000Y-108965333D01*
X137089904Y-108889142D01*
G04 #@! TO.C,C19*
X138321714Y-115353285D02*
X138359809Y-115391380D01*
X138397904Y-115505666D01*
X138397904Y-115581857D01*
X138359809Y-115696142D01*
X138283619Y-115772333D01*
X138207428Y-115810428D01*
X138055047Y-115848523D01*
X137940761Y-115848523D01*
X137788380Y-115810428D01*
X137712190Y-115772333D01*
X137636000Y-115696142D01*
X137597904Y-115581857D01*
X137597904Y-115505666D01*
X137636000Y-115391380D01*
X137674095Y-115353285D01*
X138397904Y-114591380D02*
X138397904Y-115048523D01*
X138397904Y-114819952D02*
X137597904Y-114819952D01*
X137712190Y-114896142D01*
X137788380Y-114972333D01*
X137826476Y-115048523D01*
X138397904Y-114210428D02*
X138397904Y-114058047D01*
X138359809Y-113981857D01*
X138321714Y-113943761D01*
X138207428Y-113867571D01*
X138055047Y-113829476D01*
X137750285Y-113829476D01*
X137674095Y-113867571D01*
X137636000Y-113905666D01*
X137597904Y-113981857D01*
X137597904Y-114134238D01*
X137636000Y-114210428D01*
X137674095Y-114248523D01*
X137750285Y-114286619D01*
X137940761Y-114286619D01*
X138016952Y-114248523D01*
X138055047Y-114210428D01*
X138093142Y-114134238D01*
X138093142Y-113981857D01*
X138055047Y-113905666D01*
X138016952Y-113867571D01*
X137940761Y-113829476D01*
G04 #@! TO.C,C27*
X125202714Y-107123714D02*
X125164619Y-107161809D01*
X125050333Y-107199904D01*
X124974142Y-107199904D01*
X124859857Y-107161809D01*
X124783666Y-107085619D01*
X124745571Y-107009428D01*
X124707476Y-106857047D01*
X124707476Y-106742761D01*
X124745571Y-106590380D01*
X124783666Y-106514190D01*
X124859857Y-106438000D01*
X124974142Y-106399904D01*
X125050333Y-106399904D01*
X125164619Y-106438000D01*
X125202714Y-106476095D01*
X125507476Y-106476095D02*
X125545571Y-106438000D01*
X125621761Y-106399904D01*
X125812238Y-106399904D01*
X125888428Y-106438000D01*
X125926523Y-106476095D01*
X125964619Y-106552285D01*
X125964619Y-106628476D01*
X125926523Y-106742761D01*
X125469380Y-107199904D01*
X125964619Y-107199904D01*
X126231285Y-106399904D02*
X126764619Y-106399904D01*
X126421761Y-107199904D01*
G04 #@! TO.C,D4*
D11*
X139250380Y-86875095D02*
X138250380Y-86875095D01*
X138250380Y-86637000D01*
X138298000Y-86494142D01*
X138393238Y-86398904D01*
X138488476Y-86351285D01*
X138678952Y-86303666D01*
X138821809Y-86303666D01*
X139012285Y-86351285D01*
X139107523Y-86398904D01*
X139202761Y-86494142D01*
X139250380Y-86637000D01*
X139250380Y-86875095D01*
X138583714Y-85446523D02*
X139250380Y-85446523D01*
X138202761Y-85684619D02*
X138917047Y-85922714D01*
X138917047Y-85303666D01*
G04 #@! TO.C,D5*
X118295380Y-87002095D02*
X117295380Y-87002095D01*
X117295380Y-86764000D01*
X117343000Y-86621142D01*
X117438238Y-86525904D01*
X117533476Y-86478285D01*
X117723952Y-86430666D01*
X117866809Y-86430666D01*
X118057285Y-86478285D01*
X118152523Y-86525904D01*
X118247761Y-86621142D01*
X118295380Y-86764000D01*
X118295380Y-87002095D01*
X117295380Y-85525904D02*
X117295380Y-86002095D01*
X117771571Y-86049714D01*
X117723952Y-86002095D01*
X117676333Y-85906857D01*
X117676333Y-85668761D01*
X117723952Y-85573523D01*
X117771571Y-85525904D01*
X117866809Y-85478285D01*
X118104904Y-85478285D01*
X118200142Y-85525904D01*
X118247761Y-85573523D01*
X118295380Y-85668761D01*
X118295380Y-85906857D01*
X118247761Y-86002095D01*
X118200142Y-86049714D01*
G04 #@! TO.C,R5*
D10*
X123919904Y-112305333D02*
X123538952Y-112572000D01*
X123919904Y-112762476D02*
X123119904Y-112762476D01*
X123119904Y-112457714D01*
X123158000Y-112381523D01*
X123196095Y-112343428D01*
X123272285Y-112305333D01*
X123386571Y-112305333D01*
X123462761Y-112343428D01*
X123500857Y-112381523D01*
X123538952Y-112457714D01*
X123538952Y-112762476D01*
X123119904Y-111581523D02*
X123119904Y-111962476D01*
X123500857Y-112000571D01*
X123462761Y-111962476D01*
X123424666Y-111886285D01*
X123424666Y-111695809D01*
X123462761Y-111619619D01*
X123500857Y-111581523D01*
X123577047Y-111543428D01*
X123767523Y-111543428D01*
X123843714Y-111581523D01*
X123881809Y-111619619D01*
X123919904Y-111695809D01*
X123919904Y-111886285D01*
X123881809Y-111962476D01*
X123843714Y-112000571D01*
G04 #@! TO.C,R6*
X132428904Y-111924333D02*
X132047952Y-112191000D01*
X132428904Y-112381476D02*
X131628904Y-112381476D01*
X131628904Y-112076714D01*
X131667000Y-112000523D01*
X131705095Y-111962428D01*
X131781285Y-111924333D01*
X131895571Y-111924333D01*
X131971761Y-111962428D01*
X132009857Y-112000523D01*
X132047952Y-112076714D01*
X132047952Y-112381476D01*
X131628904Y-111238619D02*
X131628904Y-111391000D01*
X131667000Y-111467190D01*
X131705095Y-111505285D01*
X131819380Y-111581476D01*
X131971761Y-111619571D01*
X132276523Y-111619571D01*
X132352714Y-111581476D01*
X132390809Y-111543380D01*
X132428904Y-111467190D01*
X132428904Y-111314809D01*
X132390809Y-111238619D01*
X132352714Y-111200523D01*
X132276523Y-111162428D01*
X132086047Y-111162428D01*
X132009857Y-111200523D01*
X131971761Y-111238619D01*
X131933666Y-111314809D01*
X131933666Y-111467190D01*
X131971761Y-111543380D01*
X132009857Y-111581476D01*
X132086047Y-111619571D01*
G04 #@! TO.C,R7*
X121252904Y-113702333D02*
X120871952Y-113969000D01*
X121252904Y-114159476D02*
X120452904Y-114159476D01*
X120452904Y-113854714D01*
X120491000Y-113778523D01*
X120529095Y-113740428D01*
X120605285Y-113702333D01*
X120719571Y-113702333D01*
X120795761Y-113740428D01*
X120833857Y-113778523D01*
X120871952Y-113854714D01*
X120871952Y-114159476D01*
X120452904Y-113435666D02*
X120452904Y-112902333D01*
X121252904Y-113245190D01*
G04 #@! TO.C,R10*
X138397904Y-118401285D02*
X138016952Y-118667952D01*
X138397904Y-118858428D02*
X137597904Y-118858428D01*
X137597904Y-118553666D01*
X137636000Y-118477476D01*
X137674095Y-118439380D01*
X137750285Y-118401285D01*
X137864571Y-118401285D01*
X137940761Y-118439380D01*
X137978857Y-118477476D01*
X138016952Y-118553666D01*
X138016952Y-118858428D01*
X138397904Y-117639380D02*
X138397904Y-118096523D01*
X138397904Y-117867952D02*
X137597904Y-117867952D01*
X137712190Y-117944142D01*
X137788380Y-118020333D01*
X137826476Y-118096523D01*
X137597904Y-117144142D02*
X137597904Y-117067952D01*
X137636000Y-116991761D01*
X137674095Y-116953666D01*
X137750285Y-116915571D01*
X137902666Y-116877476D01*
X138093142Y-116877476D01*
X138245523Y-116915571D01*
X138321714Y-116953666D01*
X138359809Y-116991761D01*
X138397904Y-117067952D01*
X138397904Y-117144142D01*
X138359809Y-117220333D01*
X138321714Y-117258428D01*
X138245523Y-117296523D01*
X138093142Y-117334619D01*
X137902666Y-117334619D01*
X137750285Y-117296523D01*
X137674095Y-117258428D01*
X137636000Y-117220333D01*
X137597904Y-117144142D01*
G04 #@! TO.C,R18*
X118204904Y-104177285D02*
X117823952Y-104443952D01*
X118204904Y-104634428D02*
X117404904Y-104634428D01*
X117404904Y-104329666D01*
X117443000Y-104253476D01*
X117481095Y-104215380D01*
X117557285Y-104177285D01*
X117671571Y-104177285D01*
X117747761Y-104215380D01*
X117785857Y-104253476D01*
X117823952Y-104329666D01*
X117823952Y-104634428D01*
X118204904Y-103415380D02*
X118204904Y-103872523D01*
X118204904Y-103643952D02*
X117404904Y-103643952D01*
X117519190Y-103720142D01*
X117595380Y-103796333D01*
X117633476Y-103872523D01*
X117747761Y-102958238D02*
X117709666Y-103034428D01*
X117671571Y-103072523D01*
X117595380Y-103110619D01*
X117557285Y-103110619D01*
X117481095Y-103072523D01*
X117443000Y-103034428D01*
X117404904Y-102958238D01*
X117404904Y-102805857D01*
X117443000Y-102729666D01*
X117481095Y-102691571D01*
X117557285Y-102653476D01*
X117595380Y-102653476D01*
X117671571Y-102691571D01*
X117709666Y-102729666D01*
X117747761Y-102805857D01*
X117747761Y-102958238D01*
X117785857Y-103034428D01*
X117823952Y-103072523D01*
X117900142Y-103110619D01*
X118052523Y-103110619D01*
X118128714Y-103072523D01*
X118166809Y-103034428D01*
X118204904Y-102958238D01*
X118204904Y-102805857D01*
X118166809Y-102729666D01*
X118128714Y-102691571D01*
X118052523Y-102653476D01*
X117900142Y-102653476D01*
X117823952Y-102691571D01*
X117785857Y-102729666D01*
X117747761Y-102805857D01*
G04 #@! TO.C,U5*
X128282476Y-112368904D02*
X128282476Y-113016523D01*
X128320571Y-113092714D01*
X128358666Y-113130809D01*
X128434857Y-113168904D01*
X128587238Y-113168904D01*
X128663428Y-113130809D01*
X128701523Y-113092714D01*
X128739619Y-113016523D01*
X128739619Y-112368904D01*
X129501523Y-112368904D02*
X129120571Y-112368904D01*
X129082476Y-112749857D01*
X129120571Y-112711761D01*
X129196761Y-112673666D01*
X129387238Y-112673666D01*
X129463428Y-112711761D01*
X129501523Y-112749857D01*
X129539619Y-112826047D01*
X129539619Y-113016523D01*
X129501523Y-113092714D01*
X129463428Y-113130809D01*
X129387238Y-113168904D01*
X129196761Y-113168904D01*
X129120571Y-113130809D01*
X129082476Y-113092714D01*
G04 #@! TO.C,C3*
X139083714Y-97700333D02*
X139121809Y-97738428D01*
X139159904Y-97852714D01*
X139159904Y-97928904D01*
X139121809Y-98043190D01*
X139045619Y-98119380D01*
X138969428Y-98157476D01*
X138817047Y-98195571D01*
X138702761Y-98195571D01*
X138550380Y-98157476D01*
X138474190Y-98119380D01*
X138398000Y-98043190D01*
X138359904Y-97928904D01*
X138359904Y-97852714D01*
X138398000Y-97738428D01*
X138436095Y-97700333D01*
X138359904Y-97433666D02*
X138359904Y-96938428D01*
X138664666Y-97205095D01*
X138664666Y-97090809D01*
X138702761Y-97014619D01*
X138740857Y-96976523D01*
X138817047Y-96938428D01*
X139007523Y-96938428D01*
X139083714Y-96976523D01*
X139121809Y-97014619D01*
X139159904Y-97090809D01*
X139159904Y-97319380D01*
X139121809Y-97395571D01*
X139083714Y-97433666D01*
G04 #@! TO.C,C5*
X141077666Y-111695714D02*
X141039571Y-111733809D01*
X140925285Y-111771904D01*
X140849095Y-111771904D01*
X140734809Y-111733809D01*
X140658619Y-111657619D01*
X140620523Y-111581428D01*
X140582428Y-111429047D01*
X140582428Y-111314761D01*
X140620523Y-111162380D01*
X140658619Y-111086190D01*
X140734809Y-111010000D01*
X140849095Y-110971904D01*
X140925285Y-110971904D01*
X141039571Y-111010000D01*
X141077666Y-111048095D01*
X141801476Y-110971904D02*
X141420523Y-110971904D01*
X141382428Y-111352857D01*
X141420523Y-111314761D01*
X141496714Y-111276666D01*
X141687190Y-111276666D01*
X141763380Y-111314761D01*
X141801476Y-111352857D01*
X141839571Y-111429047D01*
X141839571Y-111619523D01*
X141801476Y-111695714D01*
X141763380Y-111733809D01*
X141687190Y-111771904D01*
X141496714Y-111771904D01*
X141420523Y-111733809D01*
X141382428Y-111695714D01*
G04 #@! TO.C,C20*
X117963714Y-98614714D02*
X117925619Y-98652809D01*
X117811333Y-98690904D01*
X117735142Y-98690904D01*
X117620857Y-98652809D01*
X117544666Y-98576619D01*
X117506571Y-98500428D01*
X117468476Y-98348047D01*
X117468476Y-98233761D01*
X117506571Y-98081380D01*
X117544666Y-98005190D01*
X117620857Y-97929000D01*
X117735142Y-97890904D01*
X117811333Y-97890904D01*
X117925619Y-97929000D01*
X117963714Y-97967095D01*
X118268476Y-97967095D02*
X118306571Y-97929000D01*
X118382761Y-97890904D01*
X118573238Y-97890904D01*
X118649428Y-97929000D01*
X118687523Y-97967095D01*
X118725619Y-98043285D01*
X118725619Y-98119476D01*
X118687523Y-98233761D01*
X118230380Y-98690904D01*
X118725619Y-98690904D01*
X119220857Y-97890904D02*
X119297047Y-97890904D01*
X119373238Y-97929000D01*
X119411333Y-97967095D01*
X119449428Y-98043285D01*
X119487523Y-98195666D01*
X119487523Y-98386142D01*
X119449428Y-98538523D01*
X119411333Y-98614714D01*
X119373238Y-98652809D01*
X119297047Y-98690904D01*
X119220857Y-98690904D01*
X119144666Y-98652809D01*
X119106571Y-98614714D01*
X119068476Y-98538523D01*
X119030380Y-98386142D01*
X119030380Y-98195666D01*
X119068476Y-98043285D01*
X119106571Y-97967095D01*
X119144666Y-97929000D01*
X119220857Y-97890904D01*
G04 #@! TO.C,C22*
X131590714Y-106209285D02*
X131628809Y-106247380D01*
X131666904Y-106361666D01*
X131666904Y-106437857D01*
X131628809Y-106552142D01*
X131552619Y-106628333D01*
X131476428Y-106666428D01*
X131324047Y-106704523D01*
X131209761Y-106704523D01*
X131057380Y-106666428D01*
X130981190Y-106628333D01*
X130905000Y-106552142D01*
X130866904Y-106437857D01*
X130866904Y-106361666D01*
X130905000Y-106247380D01*
X130943095Y-106209285D01*
X130943095Y-105904523D02*
X130905000Y-105866428D01*
X130866904Y-105790238D01*
X130866904Y-105599761D01*
X130905000Y-105523571D01*
X130943095Y-105485476D01*
X131019285Y-105447380D01*
X131095476Y-105447380D01*
X131209761Y-105485476D01*
X131666904Y-105942619D01*
X131666904Y-105447380D01*
X130943095Y-105142619D02*
X130905000Y-105104523D01*
X130866904Y-105028333D01*
X130866904Y-104837857D01*
X130905000Y-104761666D01*
X130943095Y-104723571D01*
X131019285Y-104685476D01*
X131095476Y-104685476D01*
X131209761Y-104723571D01*
X131666904Y-105180714D01*
X131666904Y-104685476D01*
G04 #@! TO.C,R11*
X141826904Y-94271285D02*
X141445952Y-94537952D01*
X141826904Y-94728428D02*
X141026904Y-94728428D01*
X141026904Y-94423666D01*
X141065000Y-94347476D01*
X141103095Y-94309380D01*
X141179285Y-94271285D01*
X141293571Y-94271285D01*
X141369761Y-94309380D01*
X141407857Y-94347476D01*
X141445952Y-94423666D01*
X141445952Y-94728428D01*
X141826904Y-93509380D02*
X141826904Y-93966523D01*
X141826904Y-93737952D02*
X141026904Y-93737952D01*
X141141190Y-93814142D01*
X141217380Y-93890333D01*
X141255476Y-93966523D01*
X141826904Y-92747476D02*
X141826904Y-93204619D01*
X141826904Y-92976047D02*
X141026904Y-92976047D01*
X141141190Y-93052238D01*
X141217380Y-93128428D01*
X141255476Y-93204619D01*
G04 #@! TO.C,R12*
X142334904Y-85381285D02*
X141953952Y-85647952D01*
X142334904Y-85838428D02*
X141534904Y-85838428D01*
X141534904Y-85533666D01*
X141573000Y-85457476D01*
X141611095Y-85419380D01*
X141687285Y-85381285D01*
X141801571Y-85381285D01*
X141877761Y-85419380D01*
X141915857Y-85457476D01*
X141953952Y-85533666D01*
X141953952Y-85838428D01*
X142334904Y-84619380D02*
X142334904Y-85076523D01*
X142334904Y-84847952D02*
X141534904Y-84847952D01*
X141649190Y-84924142D01*
X141725380Y-85000333D01*
X141763476Y-85076523D01*
X141611095Y-84314619D02*
X141573000Y-84276523D01*
X141534904Y-84200333D01*
X141534904Y-84009857D01*
X141573000Y-83933666D01*
X141611095Y-83895571D01*
X141687285Y-83857476D01*
X141763476Y-83857476D01*
X141877761Y-83895571D01*
X142334904Y-84352714D01*
X142334904Y-83857476D01*
G04 #@! TO.C,R13*
X144366904Y-94271285D02*
X143985952Y-94537952D01*
X144366904Y-94728428D02*
X143566904Y-94728428D01*
X143566904Y-94423666D01*
X143605000Y-94347476D01*
X143643095Y-94309380D01*
X143719285Y-94271285D01*
X143833571Y-94271285D01*
X143909761Y-94309380D01*
X143947857Y-94347476D01*
X143985952Y-94423666D01*
X143985952Y-94728428D01*
X144366904Y-93509380D02*
X144366904Y-93966523D01*
X144366904Y-93737952D02*
X143566904Y-93737952D01*
X143681190Y-93814142D01*
X143757380Y-93890333D01*
X143795476Y-93966523D01*
X143566904Y-93242714D02*
X143566904Y-92747476D01*
X143871666Y-93014142D01*
X143871666Y-92899857D01*
X143909761Y-92823666D01*
X143947857Y-92785571D01*
X144024047Y-92747476D01*
X144214523Y-92747476D01*
X144290714Y-92785571D01*
X144328809Y-92823666D01*
X144366904Y-92899857D01*
X144366904Y-93128428D01*
X144328809Y-93204619D01*
X144290714Y-93242714D01*
G04 #@! TO.C,R14*
X144366904Y-85381285D02*
X143985952Y-85647952D01*
X144366904Y-85838428D02*
X143566904Y-85838428D01*
X143566904Y-85533666D01*
X143605000Y-85457476D01*
X143643095Y-85419380D01*
X143719285Y-85381285D01*
X143833571Y-85381285D01*
X143909761Y-85419380D01*
X143947857Y-85457476D01*
X143985952Y-85533666D01*
X143985952Y-85838428D01*
X144366904Y-84619380D02*
X144366904Y-85076523D01*
X144366904Y-84847952D02*
X143566904Y-84847952D01*
X143681190Y-84924142D01*
X143757380Y-85000333D01*
X143795476Y-85076523D01*
X143833571Y-83933666D02*
X144366904Y-83933666D01*
X143528809Y-84124142D02*
X144100238Y-84314619D01*
X144100238Y-83819380D01*
G04 #@! TD*
%LPC*%
D14*
G04 #@! TO.C,Y1*
X118605000Y-122640000D03*
X118605000Y-117760000D03*
G04 #@! TD*
D15*
G04 #@! TO.C,R8*
X122161000Y-115613000D03*
X122161000Y-117113000D03*
G04 #@! TD*
D16*
G04 #@! TO.C,U1*
X128976000Y-108936000D03*
X128976000Y-110836000D03*
X126776000Y-110836000D03*
X126776000Y-109886000D03*
X126776000Y-108936000D03*
G04 #@! TD*
D17*
G04 #@! TO.C,C2*
X124955000Y-109390000D03*
X124955000Y-110890000D03*
G04 #@! TD*
D18*
G04 #@! TO.C,U7*
X129146000Y-104552000D03*
D19*
X121526000Y-102012000D03*
X129146000Y-102012000D03*
X121526000Y-104552000D03*
G04 #@! TD*
D20*
G04 #@! TO.C,T1*
X122880000Y-91852000D03*
D21*
X122880000Y-94852000D03*
X122880000Y-88852000D03*
X133380000Y-88852000D03*
X133380000Y-94852000D03*
G04 #@! TD*
D22*
G04 #@! TO.C,J4*
X150300000Y-107450000D03*
X150300000Y-95450000D03*
D23*
X148000000Y-99920000D03*
X148000000Y-101960000D03*
X148000000Y-104000000D03*
X145460000Y-98900000D03*
X145460000Y-102980000D03*
X145460000Y-100940000D03*
G04 #@! TD*
D24*
G04 #@! TO.C,J2*
X145500000Y-115800000D03*
X148500000Y-120500000D03*
X142500000Y-120500000D03*
G04 #@! TD*
D25*
G04 #@! TO.C,J1*
X111270000Y-125780000D03*
X108730000Y-125780000D03*
X111270000Y-123240000D03*
X108730000Y-123240000D03*
X111270000Y-120700000D03*
X108730000Y-120700000D03*
X111270000Y-118160000D03*
X108730000Y-118160000D03*
X111270000Y-115620000D03*
X108730000Y-115620000D03*
X111270000Y-113080000D03*
X108730000Y-113080000D03*
X111270000Y-110540000D03*
X108730000Y-110540000D03*
X111270000Y-108000000D03*
X108730000Y-108000000D03*
X111270000Y-105460000D03*
X108730000Y-105460000D03*
X111270000Y-102920000D03*
X108730000Y-102920000D03*
X111270000Y-100380000D03*
X108730000Y-100380000D03*
X111270000Y-97840000D03*
X108730000Y-97840000D03*
X111270000Y-95300000D03*
X108730000Y-95300000D03*
X111270000Y-92760000D03*
X108730000Y-92760000D03*
X111270000Y-90220000D03*
X108730000Y-90220000D03*
D26*
X110000000Y-91490000D03*
D27*
X113175000Y-125780000D03*
X113175000Y-123240000D03*
X113175000Y-120700000D03*
X113175000Y-118160000D03*
X113175000Y-115620000D03*
X113175000Y-113080000D03*
X113175000Y-110540000D03*
X113175000Y-108000000D03*
X113175000Y-105460000D03*
X113175000Y-102920000D03*
X113175000Y-100380000D03*
X113175000Y-97840000D03*
X113175000Y-95300000D03*
X113175000Y-92760000D03*
X113175000Y-90220000D03*
X106825000Y-125780000D03*
X106825000Y-123240000D03*
X106825000Y-120700000D03*
X106825000Y-118160000D03*
X106825000Y-115620000D03*
X106825000Y-113080000D03*
X106825000Y-110540000D03*
X106825000Y-108000000D03*
X106825000Y-105460000D03*
X106825000Y-102920000D03*
X106825000Y-100380000D03*
X106825000Y-97840000D03*
X106825000Y-95300000D03*
X106825000Y-92760000D03*
D28*
X112525000Y-125780000D03*
X107475000Y-125780000D03*
X112525000Y-123240000D03*
X107475000Y-123240000D03*
X112525000Y-120700000D03*
X107475000Y-120700000D03*
X112525000Y-118160000D03*
X107475000Y-118160000D03*
X112525000Y-115620000D03*
X107475000Y-115620000D03*
X112525000Y-113080000D03*
X107475000Y-113080000D03*
X112525000Y-110540000D03*
X107475000Y-110540000D03*
X112525000Y-108000000D03*
X107475000Y-108000000D03*
X112525000Y-105460000D03*
X107475000Y-105460000D03*
X112525000Y-102920000D03*
X112525000Y-100380000D03*
X112525000Y-97840000D03*
X112525000Y-95300000D03*
X112525000Y-92760000D03*
X112525000Y-90220000D03*
D27*
X106825000Y-90220000D03*
D28*
X107475000Y-92760000D03*
X107475000Y-95300000D03*
X107475000Y-97840000D03*
X107475000Y-100380000D03*
X107475000Y-102920000D03*
X107475000Y-90220000D03*
D27*
X110000000Y-94030000D03*
D26*
X110000000Y-124510000D03*
D27*
X110000000Y-121970000D03*
G04 #@! TD*
D29*
G04 #@! TO.C,SW1*
X126820000Y-129190000D03*
D30*
X120320000Y-129190000D03*
X122320000Y-129190000D03*
D31*
X124320000Y-129190000D03*
D29*
X117820000Y-129190000D03*
G04 #@! TD*
D15*
G04 #@! TO.C,R4*
X121526000Y-109390000D03*
X121526000Y-110890000D03*
G04 #@! TD*
D32*
G04 #@! TO.C,MK3*
X151000000Y-86000000D03*
G04 #@! TD*
G04 #@! TO.C,MK1*
X107000000Y-130000000D03*
G04 #@! TD*
D33*
G04 #@! TO.C,C1*
X132587000Y-107219000D03*
X134087000Y-107219000D03*
G04 #@! TD*
D17*
G04 #@! TO.C,C7*
X134480000Y-110382000D03*
X134480000Y-108882000D03*
G04 #@! TD*
D32*
G04 #@! TO.C,MK2*
X107000000Y-86000000D03*
G04 #@! TD*
G04 #@! TO.C,MK4*
X151000000Y-130000000D03*
G04 #@! TD*
D34*
G04 #@! TO.C,MK5*
X111000000Y-130000000D03*
G04 #@! TD*
G04 #@! TO.C,MK6*
X111000000Y-86000000D03*
G04 #@! TD*
G04 #@! TO.C,MK7*
X147000000Y-86000000D03*
G04 #@! TD*
G04 #@! TO.C,MK8*
X147000000Y-130000000D03*
G04 #@! TD*
D15*
G04 #@! TO.C,R1*
X133337000Y-102278000D03*
X133337000Y-103778000D03*
G04 #@! TD*
G04 #@! TO.C,R2*
X135242000Y-103778000D03*
X135242000Y-102278000D03*
G04 #@! TD*
G04 #@! TO.C,R3*
X130924000Y-108882000D03*
X130924000Y-110382000D03*
G04 #@! TD*
D35*
G04 #@! TO.C,J3*
X136000000Y-130000000D03*
D36*
X138540000Y-130000000D03*
G04 #@! TD*
D33*
G04 #@! TO.C,C9*
X134722000Y-112680000D03*
X133222000Y-112680000D03*
G04 #@! TD*
D17*
G04 #@! TO.C,C10*
X136258000Y-110382000D03*
X136258000Y-108882000D03*
G04 #@! TD*
G04 #@! TO.C,C19*
X136766000Y-113962000D03*
X136766000Y-115462000D03*
G04 #@! TD*
D33*
G04 #@! TO.C,C27*
X129007000Y-107219000D03*
X127507000Y-107219000D03*
G04 #@! TD*
D37*
G04 #@! TO.C,D4*
X138798000Y-94138000D03*
D38*
X138798000Y-89058000D03*
G04 #@! TD*
G04 #@! TO.C,D5*
X117716000Y-89058000D03*
D37*
X117716000Y-94138000D03*
G04 #@! TD*
D15*
G04 #@! TO.C,R5*
X123304000Y-109390000D03*
X123304000Y-110890000D03*
G04 #@! TD*
G04 #@! TO.C,R6*
X132702000Y-110382000D03*
X132702000Y-108882000D03*
G04 #@! TD*
G04 #@! TO.C,R7*
X122161000Y-114319000D03*
X122161000Y-112819000D03*
G04 #@! TD*
G04 #@! TO.C,R10*
X136766000Y-117010000D03*
X136766000Y-118510000D03*
G04 #@! TD*
G04 #@! TO.C,R18*
X119240000Y-104413000D03*
X119240000Y-102913000D03*
G04 #@! TD*
D39*
G04 #@! TO.C,U5*
X133700000Y-114420000D03*
X133700000Y-115690000D03*
X133700000Y-116960000D03*
X133700000Y-118230000D03*
X133700000Y-119500000D03*
X133700000Y-120770000D03*
X133700000Y-122040000D03*
X133700000Y-123310000D03*
X133700000Y-124580000D03*
X124300000Y-124580000D03*
X124300000Y-123310000D03*
X124300000Y-122040000D03*
X124300000Y-120770000D03*
X124300000Y-119500000D03*
X124300000Y-118230000D03*
X124300000Y-116960000D03*
X124300000Y-115690000D03*
X124300000Y-114420000D03*
G04 #@! TD*
D17*
G04 #@! TO.C,C3*
X137401000Y-96817000D03*
X137401000Y-98317000D03*
G04 #@! TD*
D33*
G04 #@! TO.C,C5*
X141961000Y-112680000D03*
X140461000Y-112680000D03*
G04 #@! TD*
G04 #@! TO.C,C20*
X119228000Y-97059000D03*
X117728000Y-97059000D03*
G04 #@! TD*
D17*
G04 #@! TO.C,C22*
X131559000Y-103778000D03*
X131559000Y-102278000D03*
G04 #@! TD*
D40*
G04 #@! TO.C,R11*
X141846000Y-92040000D03*
X141846000Y-90140000D03*
G04 #@! TD*
G04 #@! TO.C,R12*
X141846000Y-86584000D03*
X141846000Y-88484000D03*
G04 #@! TD*
G04 #@! TO.C,R13*
X144005000Y-92040000D03*
X144005000Y-90140000D03*
G04 #@! TD*
G04 #@! TO.C,R14*
X144005000Y-86584000D03*
X144005000Y-88484000D03*
G04 #@! TD*
M02*
