G04 #@! TF.GenerationSoftware,KiCad,Pcbnew,(5.0.2)-1*
G04 #@! TF.CreationDate,2019-02-20T01:19:09+09:00*
G04 #@! TF.ProjectId,M5Hackfon,4d354861-636b-4666-9f6e-2e6b69636164,v1.2*
G04 #@! TF.SameCoordinates,Original*
G04 #@! TF.FileFunction,Copper,L1,Top*
G04 #@! TF.FilePolarity,Positive*
%FSLAX46Y46*%
G04 Gerber Fmt 4.6, Leading zero omitted, Abs format (unit mm)*
G04 Created by KiCad (PCBNEW (5.0.2)-1) date 2019/02/20 1:19:10*
%MOMM*%
%LPD*%
G01*
G04 APERTURE LIST*
G04 #@! TA.AperFunction,ComponentPad*
%ADD10C,1.500000*%
G04 #@! TD*
G04 #@! TA.AperFunction,SMDPad,CuDef*
%ADD11R,0.900000X0.500000*%
G04 #@! TD*
G04 #@! TA.AperFunction,SMDPad,CuDef*
%ADD12R,1.060000X0.650000*%
G04 #@! TD*
G04 #@! TA.AperFunction,SMDPad,CuDef*
%ADD13R,0.750000X0.800000*%
G04 #@! TD*
G04 #@! TA.AperFunction,ComponentPad*
%ADD14R,1.600000X1.600000*%
G04 #@! TD*
G04 #@! TA.AperFunction,ComponentPad*
%ADD15O,1.600000X1.600000*%
G04 #@! TD*
G04 #@! TA.AperFunction,ComponentPad*
%ADD16C,2.000000*%
G04 #@! TD*
G04 #@! TA.AperFunction,ComponentPad*
%ADD17C,2.499360*%
G04 #@! TD*
G04 #@! TA.AperFunction,ComponentPad*
%ADD18C,1.520000*%
G04 #@! TD*
G04 #@! TA.AperFunction,ComponentPad*
%ADD19R,3.500000X3.500000*%
G04 #@! TD*
G04 #@! TA.AperFunction,ComponentPad*
%ADD20C,1.700000*%
G04 #@! TD*
G04 #@! TA.AperFunction,ComponentPad*
%ADD21C,0.800000*%
G04 #@! TD*
G04 #@! TA.AperFunction,SMDPad,CuDef*
%ADD22R,3.150000X1.000000*%
G04 #@! TD*
G04 #@! TA.AperFunction,ComponentPad*
%ADD23R,2.800000X3.500000*%
G04 #@! TD*
G04 #@! TA.AperFunction,ComponentPad*
%ADD24O,1.350000X1.350000*%
G04 #@! TD*
G04 #@! TA.AperFunction,ComponentPad*
%ADD25R,1.350000X1.350000*%
G04 #@! TD*
G04 #@! TA.AperFunction,SMDPad,CuDef*
%ADD26R,0.800000X0.750000*%
G04 #@! TD*
G04 #@! TA.AperFunction,ComponentPad*
%ADD27R,1.700000X1.700000*%
G04 #@! TD*
G04 #@! TA.AperFunction,ComponentPad*
%ADD28O,1.700000X1.700000*%
G04 #@! TD*
G04 #@! TA.AperFunction,ComponentPad*
%ADD29R,2.000000X2.000000*%
G04 #@! TD*
G04 #@! TA.AperFunction,ComponentPad*
%ADD30O,2.000000X2.000000*%
G04 #@! TD*
G04 #@! TA.AperFunction,SMDPad,CuDef*
%ADD31R,2.000000X0.600000*%
G04 #@! TD*
G04 #@! TA.AperFunction,SMDPad,CuDef*
%ADD32R,1.300000X0.700000*%
G04 #@! TD*
G04 #@! TA.AperFunction,ViaPad*
%ADD33C,0.600000*%
G04 #@! TD*
G04 #@! TA.AperFunction,Conductor*
%ADD34C,1.000000*%
G04 #@! TD*
G04 #@! TA.AperFunction,Conductor*
%ADD35C,0.250000*%
G04 #@! TD*
G04 #@! TA.AperFunction,Conductor*
%ADD36C,0.400000*%
G04 #@! TD*
G04 #@! TA.AperFunction,Conductor*
%ADD37C,0.254000*%
G04 #@! TD*
G04 APERTURE END LIST*
D10*
G04 #@! TO.P,Y1,2*
G04 #@! TO.N,Net-(U5-Pad8)*
X118605000Y-122640000D03*
G04 #@! TO.P,Y1,1*
G04 #@! TO.N,Net-(U5-Pad7)*
X118605000Y-117760000D03*
G04 #@! TD*
D11*
G04 #@! TO.P,R8,1*
G04 #@! TO.N,Net-(R7-Pad2)*
X122161000Y-115613000D03*
G04 #@! TO.P,R8,2*
G04 #@! TO.N,Net-(R8-Pad2)*
X122161000Y-117113000D03*
G04 #@! TD*
D12*
G04 #@! TO.P,U1,5*
G04 #@! TO.N,+3V3*
X128976000Y-108936000D03*
G04 #@! TO.P,U1,4*
G04 #@! TO.N,Net-(C7-Pad1)*
X128976000Y-110836000D03*
G04 #@! TO.P,U1,3*
G04 #@! TO.N,Net-(C2-Pad1)*
X126776000Y-110836000D03*
G04 #@! TO.P,U1,2*
G04 #@! TO.N,GND*
X126776000Y-109886000D03*
G04 #@! TO.P,U1,1*
G04 #@! TO.N,Net-(C10-Pad1)*
X126776000Y-108936000D03*
G04 #@! TD*
D13*
G04 #@! TO.P,C2,2*
G04 #@! TO.N,GND*
X124955000Y-109390000D03*
G04 #@! TO.P,C2,1*
G04 #@! TO.N,Net-(C2-Pad1)*
X124955000Y-110890000D03*
G04 #@! TD*
D14*
G04 #@! TO.P,U7,1*
G04 #@! TO.N,Net-(C20-Pad2)*
X129146000Y-104552000D03*
D15*
G04 #@! TO.P,U7,3*
G04 #@! TO.N,GND*
X121526000Y-102012000D03*
G04 #@! TO.P,U7,2*
G04 #@! TO.N,Net-(J4-Pad3)*
X129146000Y-102012000D03*
G04 #@! TO.P,U7,4*
G04 #@! TO.N,fon_det*
X121526000Y-104552000D03*
G04 #@! TD*
D16*
G04 #@! TO.P,T1,4*
G04 #@! TO.N,N/C*
X122880000Y-91852000D03*
D17*
G04 #@! TO.P,T1,5*
G04 #@! TO.N,+15V*
X122880000Y-94852000D03*
G04 #@! TO.P,T1,3*
G04 #@! TO.N,Net-(D5-Pad2)*
X122880000Y-88852000D03*
G04 #@! TO.P,T1,2*
G04 #@! TO.N,Net-(D4-Pad2)*
X133380000Y-88852000D03*
G04 #@! TO.P,T1,1*
G04 #@! TO.N,+15V*
X133380000Y-94852000D03*
G04 #@! TD*
D18*
G04 #@! TO.P,J4,2*
G04 #@! TO.N,N/C*
X148000000Y-99920000D03*
G04 #@! TO.P,J4,4*
G04 #@! TO.N,GND*
X148000000Y-101960000D03*
G04 #@! TO.P,J4,6*
G04 #@! TO.N,N/C*
X148000000Y-104000000D03*
G04 #@! TO.P,J4,1*
X145460000Y-98900000D03*
G04 #@! TO.P,J4,5*
X145460000Y-102980000D03*
G04 #@! TO.P,J4,3*
G04 #@! TO.N,Net-(J4-Pad3)*
X145460000Y-100940000D03*
G04 #@! TD*
D19*
G04 #@! TO.P,J2,3*
G04 #@! TO.N,N/C*
X145500000Y-115800000D03*
G04 #@! TO.P,J2,2*
G04 #@! TO.N,GND*
X148500000Y-120500000D03*
G04 #@! TO.P,J2,1*
G04 #@! TO.N,+15V*
X142500000Y-120500000D03*
G04 #@! TD*
D20*
G04 #@! TO.P,J1,30*
G04 #@! TO.N,Net-(J1-Pad30)*
X111270000Y-125780000D03*
G04 #@! TO.P,J1,29*
G04 #@! TO.N,Net-(J1-Pad25)*
X108730000Y-125780000D03*
G04 #@! TO.P,J1,28*
G04 #@! TO.N,Net-(J1-Pad28)*
X111270000Y-123240000D03*
G04 #@! TO.P,J1,27*
G04 #@! TO.N,Net-(J1-Pad25)*
X108730000Y-123240000D03*
G04 #@! TO.P,J1,26*
G04 #@! TO.N,fon_det*
X111270000Y-120700000D03*
G04 #@! TO.P,J1,25*
G04 #@! TO.N,Net-(J1-Pad25)*
X108730000Y-120700000D03*
G04 #@! TO.P,J1,24*
G04 #@! TO.N,Net-(J1-Pad24)*
X111270000Y-118160000D03*
G04 #@! TO.P,J1,23*
G04 #@! TO.N,Net-(J1-Pad23)*
X108730000Y-118160000D03*
G04 #@! TO.P,J1,22*
G04 #@! TO.N,G13*
X111270000Y-115620000D03*
G04 #@! TO.P,J1,21*
G04 #@! TO.N,Net-(J1-Pad21)*
X108730000Y-115620000D03*
G04 #@! TO.P,J1,20*
G04 #@! TO.N,Net-(J1-Pad20)*
X111270000Y-113080000D03*
G04 #@! TO.P,J1,19*
G04 #@! TO.N,Net-(J1-Pad19)*
X108730000Y-113080000D03*
G04 #@! TO.P,J1,18*
G04 #@! TO.N,Net-(J1-Pad18)*
X111270000Y-110540000D03*
G04 #@! TO.P,J1,17*
G04 #@! TO.N,Net-(J1-Pad17)*
X108730000Y-110540000D03*
G04 #@! TO.P,J1,16*
G04 #@! TO.N,G17*
X111270000Y-108000000D03*
G04 #@! TO.P,J1,15*
G04 #@! TO.N,G16*
X108730000Y-108000000D03*
G04 #@! TO.P,J1,14*
G04 #@! TO.N,Net-(J1-Pad14)*
X111270000Y-105460000D03*
G04 #@! TO.P,J1,13*
G04 #@! TO.N,Net-(J1-Pad13)*
X108730000Y-105460000D03*
G04 #@! TO.P,J1,12*
G04 #@! TO.N,+3V3*
X111270000Y-102920000D03*
G04 #@! TO.P,J1,11*
G04 #@! TO.N,Net-(J1-Pad11)*
X108730000Y-102920000D03*
G04 #@! TO.P,J1,10*
G04 #@! TO.N,Net-(J1-Pad10)*
X111270000Y-100380000D03*
G04 #@! TO.P,J1,9*
G04 #@! TO.N,Net-(J1-Pad9)*
X108730000Y-100380000D03*
G04 #@! TO.P,J1,8*
G04 #@! TO.N,Net-(J1-Pad8)*
X111270000Y-97840000D03*
G04 #@! TO.P,J1,7*
G04 #@! TO.N,Net-(J1-Pad7)*
X108730000Y-97840000D03*
G04 #@! TO.P,J1,6*
G04 #@! TO.N,Net-(J1-Pad6)*
X111270000Y-95300000D03*
G04 #@! TO.P,J1,5*
G04 #@! TO.N,GND*
X108730000Y-95300000D03*
G04 #@! TO.P,J1,4*
G04 #@! TO.N,G36*
X111270000Y-92760000D03*
G04 #@! TO.P,J1,3*
G04 #@! TO.N,GND*
X108730000Y-92760000D03*
G04 #@! TO.P,J1,2*
G04 #@! TO.N,G35*
X111270000Y-90220000D03*
G04 #@! TO.P,J1,1*
G04 #@! TO.N,GND*
X108730000Y-90220000D03*
D21*
G04 #@! TO.P,J1,30*
G04 #@! TO.N,Net-(J1-Pad30)*
X113175000Y-125780000D03*
G04 #@! TO.P,J1,28*
G04 #@! TO.N,Net-(J1-Pad28)*
X113175000Y-123240000D03*
G04 #@! TO.P,J1,26*
G04 #@! TO.N,fon_det*
X113175000Y-120700000D03*
G04 #@! TO.P,J1,24*
G04 #@! TO.N,Net-(J1-Pad24)*
X113175000Y-118160000D03*
G04 #@! TO.P,J1,22*
G04 #@! TO.N,G13*
X113175000Y-115620000D03*
G04 #@! TO.P,J1,20*
G04 #@! TO.N,Net-(J1-Pad20)*
X113175000Y-113080000D03*
G04 #@! TO.P,J1,18*
G04 #@! TO.N,Net-(J1-Pad18)*
X113175000Y-110540000D03*
G04 #@! TO.P,J1,16*
G04 #@! TO.N,G17*
X113175000Y-108000000D03*
G04 #@! TO.P,J1,14*
G04 #@! TO.N,Net-(J1-Pad14)*
X113175000Y-105460000D03*
G04 #@! TO.P,J1,12*
G04 #@! TO.N,+3V3*
X113175000Y-102920000D03*
G04 #@! TO.P,J1,10*
G04 #@! TO.N,Net-(J1-Pad10)*
X113175000Y-100380000D03*
G04 #@! TO.P,J1,8*
G04 #@! TO.N,Net-(J1-Pad8)*
X113175000Y-97840000D03*
G04 #@! TO.P,J1,6*
G04 #@! TO.N,Net-(J1-Pad6)*
X113175000Y-95300000D03*
G04 #@! TO.P,J1,4*
G04 #@! TO.N,G36*
X113175000Y-92760000D03*
G04 #@! TO.P,J1,2*
G04 #@! TO.N,G35*
X113175000Y-90220000D03*
G04 #@! TO.P,J1,29*
G04 #@! TO.N,Net-(J1-Pad25)*
X106825000Y-125780000D03*
G04 #@! TO.P,J1,27*
X106825000Y-123240000D03*
G04 #@! TO.P,J1,25*
X106825000Y-120700000D03*
G04 #@! TO.P,J1,23*
G04 #@! TO.N,Net-(J1-Pad23)*
X106825000Y-118160000D03*
G04 #@! TO.P,J1,21*
G04 #@! TO.N,Net-(J1-Pad21)*
X106825000Y-115620000D03*
G04 #@! TO.P,J1,19*
G04 #@! TO.N,Net-(J1-Pad19)*
X106825000Y-113080000D03*
G04 #@! TO.P,J1,17*
G04 #@! TO.N,Net-(J1-Pad17)*
X106825000Y-110540000D03*
G04 #@! TO.P,J1,15*
G04 #@! TO.N,G16*
X106825000Y-108000000D03*
G04 #@! TO.P,J1,13*
G04 #@! TO.N,Net-(J1-Pad13)*
X106825000Y-105460000D03*
G04 #@! TO.P,J1,11*
G04 #@! TO.N,Net-(J1-Pad11)*
X106825000Y-102920000D03*
G04 #@! TO.P,J1,9*
G04 #@! TO.N,Net-(J1-Pad9)*
X106825000Y-100380000D03*
G04 #@! TO.P,J1,7*
G04 #@! TO.N,Net-(J1-Pad7)*
X106825000Y-97840000D03*
G04 #@! TO.P,J1,5*
G04 #@! TO.N,GND*
X106825000Y-95300000D03*
G04 #@! TO.P,J1,3*
X106825000Y-92760000D03*
D22*
G04 #@! TO.P,J1,30*
G04 #@! TO.N,Net-(J1-Pad30)*
X112525000Y-125780000D03*
G04 #@! TO.P,J1,29*
G04 #@! TO.N,Net-(J1-Pad25)*
X107475000Y-125780000D03*
G04 #@! TO.P,J1,28*
G04 #@! TO.N,Net-(J1-Pad28)*
X112525000Y-123240000D03*
G04 #@! TO.P,J1,27*
G04 #@! TO.N,Net-(J1-Pad25)*
X107475000Y-123240000D03*
G04 #@! TO.P,J1,26*
G04 #@! TO.N,fon_det*
X112525000Y-120700000D03*
G04 #@! TO.P,J1,25*
G04 #@! TO.N,Net-(J1-Pad25)*
X107475000Y-120700000D03*
G04 #@! TO.P,J1,24*
G04 #@! TO.N,Net-(J1-Pad24)*
X112525000Y-118160000D03*
G04 #@! TO.P,J1,23*
G04 #@! TO.N,Net-(J1-Pad23)*
X107475000Y-118160000D03*
G04 #@! TO.P,J1,22*
G04 #@! TO.N,G13*
X112525000Y-115620000D03*
G04 #@! TO.P,J1,21*
G04 #@! TO.N,Net-(J1-Pad21)*
X107475000Y-115620000D03*
G04 #@! TO.P,J1,20*
G04 #@! TO.N,Net-(J1-Pad20)*
X112525000Y-113080000D03*
G04 #@! TO.P,J1,19*
G04 #@! TO.N,Net-(J1-Pad19)*
X107475000Y-113080000D03*
G04 #@! TO.P,J1,18*
G04 #@! TO.N,Net-(J1-Pad18)*
X112525000Y-110540000D03*
G04 #@! TO.P,J1,17*
G04 #@! TO.N,Net-(J1-Pad17)*
X107475000Y-110540000D03*
G04 #@! TO.P,J1,16*
G04 #@! TO.N,G17*
X112525000Y-108000000D03*
G04 #@! TO.P,J1,15*
G04 #@! TO.N,G16*
X107475000Y-108000000D03*
G04 #@! TO.P,J1,14*
G04 #@! TO.N,Net-(J1-Pad14)*
X112525000Y-105460000D03*
G04 #@! TO.P,J1,13*
G04 #@! TO.N,Net-(J1-Pad13)*
X107475000Y-105460000D03*
G04 #@! TO.P,J1,12*
G04 #@! TO.N,+3V3*
X112525000Y-102920000D03*
G04 #@! TO.P,J1,10*
G04 #@! TO.N,Net-(J1-Pad10)*
X112525000Y-100380000D03*
G04 #@! TO.P,J1,8*
G04 #@! TO.N,Net-(J1-Pad8)*
X112525000Y-97840000D03*
G04 #@! TO.P,J1,6*
G04 #@! TO.N,Net-(J1-Pad6)*
X112525000Y-95300000D03*
G04 #@! TO.P,J1,4*
G04 #@! TO.N,G36*
X112525000Y-92760000D03*
G04 #@! TO.P,J1,2*
G04 #@! TO.N,G35*
X112525000Y-90220000D03*
D21*
G04 #@! TO.P,J1,1*
G04 #@! TO.N,GND*
X106825000Y-90220000D03*
D22*
G04 #@! TO.P,J1,3*
X107475000Y-92760000D03*
G04 #@! TO.P,J1,5*
X107475000Y-95300000D03*
G04 #@! TO.P,J1,7*
G04 #@! TO.N,Net-(J1-Pad7)*
X107475000Y-97840000D03*
G04 #@! TO.P,J1,9*
G04 #@! TO.N,Net-(J1-Pad9)*
X107475000Y-100380000D03*
G04 #@! TO.P,J1,11*
G04 #@! TO.N,Net-(J1-Pad11)*
X107475000Y-102920000D03*
G04 #@! TO.P,J1,1*
G04 #@! TO.N,GND*
X107475000Y-90220000D03*
G04 #@! TD*
D23*
G04 #@! TO.P,SW1,GND*
G04 #@! TO.N,N/C*
X126820000Y-129190000D03*
D24*
G04 #@! TO.P,SW1,3*
X120320000Y-129190000D03*
G04 #@! TO.P,SW1,2*
G04 #@! TO.N,Net-(J1-Pad30)*
X122320000Y-129190000D03*
D25*
G04 #@! TO.P,SW1,1*
G04 #@! TO.N,Net-(J3-Pad1)*
X124320000Y-129190000D03*
D23*
G04 #@! TO.P,SW1,GND*
G04 #@! TO.N,N/C*
X117820000Y-129190000D03*
G04 #@! TD*
D11*
G04 #@! TO.P,R4,1*
G04 #@! TO.N,+3V3*
X121526000Y-109390000D03*
G04 #@! TO.P,R4,2*
G04 #@! TO.N,Net-(C2-Pad1)*
X121526000Y-110890000D03*
G04 #@! TD*
D26*
G04 #@! TO.P,C1,2*
G04 #@! TO.N,Net-(C1-Pad2)*
X132587000Y-107219000D03*
G04 #@! TO.P,C1,1*
G04 #@! TO.N,Net-(C1-Pad1)*
X134087000Y-107219000D03*
G04 #@! TD*
D13*
G04 #@! TO.P,C7,1*
G04 #@! TO.N,Net-(C7-Pad1)*
X134480000Y-110382000D03*
G04 #@! TO.P,C7,2*
G04 #@! TO.N,Net-(C10-Pad1)*
X134480000Y-108882000D03*
G04 #@! TD*
D11*
G04 #@! TO.P,R1,1*
G04 #@! TO.N,tone_det*
X133337000Y-102278000D03*
G04 #@! TO.P,R1,2*
G04 #@! TO.N,Net-(C1-Pad1)*
X133337000Y-103778000D03*
G04 #@! TD*
G04 #@! TO.P,R2,1*
G04 #@! TO.N,+3V3*
X135242000Y-103778000D03*
G04 #@! TO.P,R2,2*
G04 #@! TO.N,Net-(C1-Pad1)*
X135242000Y-102278000D03*
G04 #@! TD*
G04 #@! TO.P,R3,1*
G04 #@! TO.N,Net-(C1-Pad2)*
X130924000Y-108882000D03*
G04 #@! TO.P,R3,2*
G04 #@! TO.N,Net-(C7-Pad1)*
X130924000Y-110382000D03*
G04 #@! TD*
D27*
G04 #@! TO.P,J3,1*
G04 #@! TO.N,Net-(J3-Pad1)*
X136000000Y-130000000D03*
D28*
G04 #@! TO.P,J3,2*
G04 #@! TO.N,GND*
X138540000Y-130000000D03*
G04 #@! TD*
D26*
G04 #@! TO.P,C9,2*
G04 #@! TO.N,GND*
X134722000Y-112680000D03*
G04 #@! TO.P,C9,1*
G04 #@! TO.N,+3V3*
X133222000Y-112680000D03*
G04 #@! TD*
D13*
G04 #@! TO.P,C10,2*
G04 #@! TO.N,Net-(C10-Pad2)*
X136258000Y-110382000D03*
G04 #@! TO.P,C10,1*
G04 #@! TO.N,Net-(C10-Pad1)*
X136258000Y-108882000D03*
G04 #@! TD*
G04 #@! TO.P,C19,1*
G04 #@! TO.N,+3V3*
X136766000Y-113962000D03*
G04 #@! TO.P,C19,2*
G04 #@! TO.N,Net-(C19-Pad2)*
X136766000Y-115462000D03*
G04 #@! TD*
D26*
G04 #@! TO.P,C27,1*
G04 #@! TO.N,+3V3*
X129007000Y-107219000D03*
G04 #@! TO.P,C27,2*
G04 #@! TO.N,GND*
X127507000Y-107219000D03*
G04 #@! TD*
D29*
G04 #@! TO.P,D4,1*
G04 #@! TO.N,Net-(C20-Pad1)*
X138798000Y-94138000D03*
D30*
G04 #@! TO.P,D4,2*
G04 #@! TO.N,Net-(D4-Pad2)*
X138798000Y-89058000D03*
G04 #@! TD*
G04 #@! TO.P,D5,2*
G04 #@! TO.N,Net-(D5-Pad2)*
X117716000Y-89058000D03*
D29*
G04 #@! TO.P,D5,1*
G04 #@! TO.N,Net-(C20-Pad2)*
X117716000Y-94138000D03*
G04 #@! TD*
D11*
G04 #@! TO.P,R5,2*
G04 #@! TO.N,GND*
X123304000Y-109390000D03*
G04 #@! TO.P,R5,1*
G04 #@! TO.N,Net-(C2-Pad1)*
X123304000Y-110890000D03*
G04 #@! TD*
G04 #@! TO.P,R6,1*
G04 #@! TO.N,Net-(C7-Pad1)*
X132702000Y-110382000D03*
G04 #@! TO.P,R6,2*
G04 #@! TO.N,Net-(C10-Pad1)*
X132702000Y-108882000D03*
G04 #@! TD*
G04 #@! TO.P,R7,2*
G04 #@! TO.N,Net-(R7-Pad2)*
X122161000Y-114319000D03*
G04 #@! TO.P,R7,1*
G04 #@! TO.N,Net-(C10-Pad2)*
X122161000Y-112819000D03*
G04 #@! TD*
G04 #@! TO.P,R10,2*
G04 #@! TO.N,Net-(C19-Pad2)*
X136766000Y-117010000D03*
G04 #@! TO.P,R10,1*
G04 #@! TO.N,Net-(R10-Pad1)*
X136766000Y-118510000D03*
G04 #@! TD*
G04 #@! TO.P,R18,2*
G04 #@! TO.N,+3V3*
X119240000Y-104413000D03*
G04 #@! TO.P,R18,1*
G04 #@! TO.N,fon_det*
X119240000Y-102913000D03*
G04 #@! TD*
D31*
G04 #@! TO.P,U5,18*
G04 #@! TO.N,+3V3*
X133700000Y-114420000D03*
G04 #@! TO.P,U5,17*
G04 #@! TO.N,Net-(C19-Pad2)*
X133700000Y-115690000D03*
G04 #@! TO.P,U5,16*
G04 #@! TO.N,Net-(R10-Pad1)*
X133700000Y-116960000D03*
G04 #@! TO.P,U5,15*
G04 #@! TO.N,G17*
X133700000Y-118230000D03*
G04 #@! TO.P,U5,14*
G04 #@! TO.N,G16*
X133700000Y-119500000D03*
G04 #@! TO.P,U5,13*
G04 #@! TO.N,G35*
X133700000Y-120770000D03*
G04 #@! TO.P,U5,12*
G04 #@! TO.N,G36*
X133700000Y-122040000D03*
G04 #@! TO.P,U5,11*
G04 #@! TO.N,G13*
X133700000Y-123310000D03*
G04 #@! TO.P,U5,10*
G04 #@! TO.N,+3V3*
X133700000Y-124580000D03*
G04 #@! TO.P,U5,9*
G04 #@! TO.N,GND*
X124300000Y-124580000D03*
G04 #@! TO.P,U5,8*
G04 #@! TO.N,Net-(U5-Pad8)*
X124300000Y-123310000D03*
G04 #@! TO.P,U5,7*
G04 #@! TO.N,Net-(U5-Pad7)*
X124300000Y-122040000D03*
G04 #@! TO.P,U5,6*
G04 #@! TO.N,N/C*
X124300000Y-120770000D03*
G04 #@! TO.P,U5,5*
X124300000Y-119500000D03*
G04 #@! TO.P,U5,4*
G04 #@! TO.N,Net-(U5-Pad1)*
X124300000Y-118230000D03*
G04 #@! TO.P,U5,3*
G04 #@! TO.N,Net-(R8-Pad2)*
X124300000Y-116960000D03*
G04 #@! TO.P,U5,2*
G04 #@! TO.N,Net-(R7-Pad2)*
X124300000Y-115690000D03*
G04 #@! TO.P,U5,1*
G04 #@! TO.N,Net-(U5-Pad1)*
X124300000Y-114420000D03*
G04 #@! TD*
D13*
G04 #@! TO.P,C3,1*
G04 #@! TO.N,+15V*
X137401000Y-96817000D03*
G04 #@! TO.P,C3,2*
G04 #@! TO.N,GND*
X137401000Y-98317000D03*
G04 #@! TD*
D26*
G04 #@! TO.P,C5,2*
G04 #@! TO.N,GND*
X141961000Y-112680000D03*
G04 #@! TO.P,C5,1*
G04 #@! TO.N,+15V*
X140461000Y-112680000D03*
G04 #@! TD*
G04 #@! TO.P,C20,1*
G04 #@! TO.N,Net-(C20-Pad1)*
X119228000Y-97059000D03*
G04 #@! TO.P,C20,2*
G04 #@! TO.N,Net-(C20-Pad2)*
X117728000Y-97059000D03*
G04 #@! TD*
D13*
G04 #@! TO.P,C22,2*
G04 #@! TO.N,tone_det*
X131559000Y-103778000D03*
G04 #@! TO.P,C22,1*
G04 #@! TO.N,Net-(C20-Pad2)*
X131559000Y-102278000D03*
G04 #@! TD*
D32*
G04 #@! TO.P,R11,2*
G04 #@! TO.N,Net-(C20-Pad1)*
X141846000Y-92040000D03*
G04 #@! TO.P,R11,1*
G04 #@! TO.N,Net-(R11-Pad1)*
X141846000Y-90140000D03*
G04 #@! TD*
G04 #@! TO.P,R12,1*
G04 #@! TO.N,GND*
X141846000Y-86584000D03*
G04 #@! TO.P,R12,2*
G04 #@! TO.N,Net-(R11-Pad1)*
X141846000Y-88484000D03*
G04 #@! TD*
G04 #@! TO.P,R13,2*
G04 #@! TO.N,Net-(C20-Pad1)*
X144005000Y-92040000D03*
G04 #@! TO.P,R13,1*
G04 #@! TO.N,Net-(R13-Pad1)*
X144005000Y-90140000D03*
G04 #@! TD*
G04 #@! TO.P,R14,1*
G04 #@! TO.N,GND*
X144005000Y-86584000D03*
G04 #@! TO.P,R14,2*
G04 #@! TO.N,Net-(R13-Pad1)*
X144005000Y-88484000D03*
G04 #@! TD*
D33*
G04 #@! TO.N,GND*
X128130000Y-92995000D03*
X129400000Y-98583000D03*
X128130000Y-89058000D03*
X128130000Y-84740000D03*
X117716000Y-91471000D03*
X118097000Y-100361000D03*
X125336000Y-101377000D03*
X125463000Y-104298000D03*
X123304000Y-107854000D03*
X118605000Y-111410000D03*
X116446000Y-116998000D03*
X120637000Y-116871000D03*
X116573000Y-124110000D03*
X130416000Y-119538000D03*
X126860000Y-119411000D03*
X114668000Y-128301000D03*
X114668000Y-130714000D03*
X126860000Y-114458000D03*
X130416000Y-114458000D03*
X137274000Y-120935000D03*
X137250000Y-124750000D03*
X150228000Y-124491000D03*
X150355000Y-117125000D03*
X150482000Y-110902000D03*
X143497000Y-110648000D03*
X138163000Y-102901000D03*
X138163000Y-106584000D03*
X138671000Y-113442000D03*
X138671000Y-116871000D03*
X150990000Y-92868000D03*
X150863000Y-88804000D03*
X146291000Y-88804000D03*
X146291000Y-92741000D03*
X142227000Y-94392000D03*
X142227000Y-96297000D03*
X147561000Y-98329000D03*
X148000000Y-106250000D03*
X126352000Y-124618000D03*
X130289000Y-124618000D03*
X125082000Y-107727000D03*
X135877000Y-99218000D03*
X138798000Y-99218000D03*
X132702000Y-99218000D03*
G04 #@! TO.N,+15V*
X140449000Y-102139000D03*
X140449000Y-99980000D03*
X136131000Y-96805000D03*
G04 #@! TO.N,+3V3*
X116573000Y-102901000D03*
X120637000Y-105949000D03*
X128384000Y-106076000D03*
X131813000Y-112680000D03*
G04 #@! TO.N,G35*
X135250000Y-120750000D03*
G04 #@! TO.N,G36*
X135250000Y-122000000D03*
G04 #@! TO.N,G16*
X135242000Y-119538000D03*
X116094990Y-109378000D03*
G04 #@! TO.N,G17*
X135242000Y-118268000D03*
X116700000Y-108108000D03*
G04 #@! TO.N,G13*
X135242000Y-123348000D03*
G04 #@! TD*
D34*
G04 #@! TO.N,GND*
X107475000Y-92760000D02*
X107475000Y-95300000D01*
X107475000Y-90220000D02*
X107475000Y-92760000D01*
D35*
X107475000Y-90220000D02*
X107780000Y-90220000D01*
D36*
X144005000Y-86584000D02*
X141846000Y-86584000D01*
D35*
X125451000Y-109886000D02*
X126776000Y-109886000D01*
X124955000Y-109390000D02*
X125451000Y-109886000D01*
X123304000Y-109390000D02*
X124955000Y-109390000D01*
D36*
X112702000Y-88169000D02*
X114287000Y-86584000D01*
X107475000Y-89320000D02*
X108626000Y-88169000D01*
X141846000Y-86584000D02*
X114287000Y-86584000D01*
X108626000Y-88169000D02*
X112702000Y-88169000D01*
X107475000Y-90220000D02*
X107475000Y-89320000D01*
D35*
G04 #@! TO.N,Net-(C7-Pad1)*
X132702000Y-110382000D02*
X134480000Y-110382000D01*
X130924000Y-110382000D02*
X132702000Y-110382000D01*
X129430000Y-110382000D02*
X128976000Y-110836000D01*
X130924000Y-110382000D02*
X129430000Y-110382000D01*
D34*
G04 #@! TO.N,Net-(J1-Pad25)*
X107475000Y-123240000D02*
X107475000Y-125780000D01*
X107475000Y-120700000D02*
X107475000Y-123240000D01*
G04 #@! TO.N,Net-(J1-Pad30)*
X112532000Y-125773000D02*
X112525000Y-125780000D01*
X122320000Y-126682000D02*
X122320000Y-129190000D01*
X113175000Y-125780000D02*
X121418000Y-125780000D01*
X121418000Y-125780000D02*
X122320000Y-126682000D01*
G04 #@! TO.N,Net-(J3-Pad1)*
X131000000Y-130000000D02*
X136000000Y-130000000D01*
X124320000Y-127158000D02*
X125082000Y-126396000D01*
X124320000Y-129190000D02*
X124320000Y-127158000D01*
X125082000Y-126396000D02*
X129146000Y-126396000D01*
X129146000Y-126396000D02*
X129908000Y-127158000D01*
X129908000Y-127158000D02*
X129908000Y-128908000D01*
X129908000Y-128908000D02*
X131000000Y-130000000D01*
D35*
G04 #@! TO.N,Net-(C1-Pad2)*
X130924000Y-108382000D02*
X130924000Y-108882000D01*
X130924000Y-108232000D02*
X130924000Y-108382000D01*
X131937000Y-107219000D02*
X130924000Y-108232000D01*
X132587000Y-107219000D02*
X131937000Y-107219000D01*
G04 #@! TO.N,Net-(C1-Pad1)*
X135042000Y-102278000D02*
X135242000Y-102278000D01*
X133542000Y-103778000D02*
X135042000Y-102278000D01*
X133337000Y-103778000D02*
X133542000Y-103778000D01*
X134087000Y-106594000D02*
X134087000Y-107219000D01*
X135997001Y-104683999D02*
X134087000Y-106594000D01*
X135997001Y-102833001D02*
X135997001Y-104683999D01*
X135442000Y-102278000D02*
X135997001Y-102833001D01*
X135242000Y-102278000D02*
X135442000Y-102278000D01*
G04 #@! TO.N,Net-(C2-Pad1)*
X125009000Y-110836000D02*
X124955000Y-110890000D01*
X126776000Y-110836000D02*
X125009000Y-110836000D01*
X124955000Y-110890000D02*
X123304000Y-110890000D01*
X121526000Y-110890000D02*
X123304000Y-110890000D01*
D34*
G04 #@! TO.N,+15V*
X122880000Y-94852000D02*
X133380000Y-94852000D01*
X140500000Y-112719000D02*
X140461000Y-112680000D01*
X140461000Y-112680000D02*
X140461000Y-102151000D01*
X140461000Y-102151000D02*
X140449000Y-102139000D01*
X140449000Y-99980000D02*
X140449000Y-98329000D01*
X138937000Y-96817000D02*
X137401000Y-96817000D01*
X140449000Y-98329000D02*
X138937000Y-96817000D01*
X137401000Y-96817000D02*
X136143000Y-96817000D01*
X136143000Y-96817000D02*
X136131000Y-96805000D01*
X140461000Y-118461000D02*
X142500000Y-120500000D01*
X140461000Y-112680000D02*
X140461000Y-118461000D01*
D35*
G04 #@! TO.N,Net-(C10-Pad1)*
X134480000Y-108882000D02*
X136258000Y-108882000D01*
X132702000Y-108882000D02*
X134480000Y-108882000D01*
X131642991Y-109741009D02*
X128361009Y-109741009D01*
X127556000Y-108936000D02*
X126776000Y-108936000D01*
X132502000Y-108882000D02*
X131642991Y-109741009D01*
X128361009Y-109741009D02*
X127556000Y-108936000D01*
X132702000Y-108882000D02*
X132502000Y-108882000D01*
G04 #@! TO.N,+3V3*
X132232000Y-114420000D02*
X133700000Y-114420000D01*
X131686000Y-114966000D02*
X132232000Y-114420000D01*
X132156000Y-124580000D02*
X133700000Y-124580000D01*
X131686000Y-124110000D02*
X132156000Y-124580000D01*
X131686000Y-114966000D02*
X131686000Y-124110000D01*
X136308000Y-114420000D02*
X136766000Y-113962000D01*
X133700000Y-114420000D02*
X136308000Y-114420000D01*
D34*
X133222000Y-113942000D02*
X133700000Y-114420000D01*
X133222000Y-112680000D02*
X133222000Y-113942000D01*
D35*
X119167000Y-104564000D02*
X119155000Y-104552000D01*
X119367000Y-104564000D02*
X119167000Y-104564000D01*
D34*
X113175000Y-102920000D02*
X116554000Y-102920000D01*
X116554000Y-102920000D02*
X116573000Y-102901000D01*
D35*
X120637000Y-105949000D02*
X119748000Y-105949000D01*
X119240000Y-105441000D02*
X119240000Y-104413000D01*
X119748000Y-105949000D02*
X119240000Y-105441000D01*
X135242000Y-104278000D02*
X133698000Y-105822000D01*
X135242000Y-103778000D02*
X135242000Y-104278000D01*
X133698000Y-105822000D02*
X131940000Y-105822000D01*
X130543000Y-107219000D02*
X129007000Y-107219000D01*
X131940000Y-105822000D02*
X130543000Y-107219000D01*
D34*
X129007000Y-108905000D02*
X128976000Y-108936000D01*
X129007000Y-107219000D02*
X129007000Y-108905000D01*
X129007000Y-107219000D02*
X129007000Y-106699000D01*
X129007000Y-106699000D02*
X128384000Y-106076000D01*
X131813000Y-112680000D02*
X133222000Y-112680000D01*
X120764000Y-106076000D02*
X120637000Y-105949000D01*
X128384000Y-106076000D02*
X120764000Y-106076000D01*
D35*
X121326000Y-109390000D02*
X121526000Y-109390000D01*
X120637000Y-108701000D02*
X121326000Y-109390000D01*
X120637000Y-105949000D02*
X120637000Y-108701000D01*
G04 #@! TO.N,Net-(C10-Pad2)*
X136258000Y-111032000D02*
X135499000Y-111791000D01*
X136258000Y-110382000D02*
X136258000Y-111032000D01*
X122861000Y-112819000D02*
X122161000Y-112819000D01*
X123889000Y-111791000D02*
X122861000Y-112819000D01*
X135499000Y-111791000D02*
X123889000Y-111791000D01*
G04 #@! TO.N,Net-(C19-Pad2)*
X136766000Y-117010000D02*
X136766000Y-115462000D01*
X136538000Y-115690000D02*
X136766000Y-115462000D01*
X133700000Y-115690000D02*
X136538000Y-115690000D01*
D36*
G04 #@! TO.N,Net-(C20-Pad1)*
X140796000Y-92040000D02*
X141846000Y-92040000D01*
X139496000Y-92040000D02*
X140796000Y-92040000D01*
X138798000Y-92738000D02*
X139496000Y-92040000D01*
X138798000Y-94138000D02*
X138798000Y-92738000D01*
X141846000Y-92040000D02*
X144005000Y-92040000D01*
X137172478Y-94138000D02*
X134251478Y-97059000D01*
X134251478Y-97059000D02*
X120028000Y-97059000D01*
X138798000Y-94138000D02*
X137172478Y-94138000D01*
X120028000Y-97059000D02*
X119228000Y-97059000D01*
G04 #@! TO.N,Net-(C20-Pad2)*
X117716000Y-97047000D02*
X117728000Y-97059000D01*
X117716000Y-94138000D02*
X117716000Y-97047000D01*
X117728000Y-97834000D02*
X118477000Y-98583000D01*
X117728000Y-97059000D02*
X117728000Y-97834000D01*
X118477000Y-98583000D02*
X126733000Y-98583000D01*
X126733000Y-98583000D02*
X127368000Y-99218000D01*
X127946000Y-104552000D02*
X129146000Y-104552000D01*
X127368000Y-103974000D02*
X127946000Y-104552000D01*
X127368000Y-99218000D02*
X127368000Y-103974000D01*
D35*
X130934000Y-102278000D02*
X130416000Y-102796000D01*
X131559000Y-102278000D02*
X130934000Y-102278000D01*
X130196000Y-104552000D02*
X129146000Y-104552000D01*
X130416000Y-104332000D02*
X130196000Y-104552000D01*
X130416000Y-102796000D02*
X130416000Y-104332000D01*
G04 #@! TO.N,tone_det*
X131837000Y-103778000D02*
X133337000Y-102278000D01*
X131559000Y-103778000D02*
X131837000Y-103778000D01*
D36*
G04 #@! TO.N,Net-(D4-Pad2)*
X138592000Y-88852000D02*
X138798000Y-89058000D01*
X133380000Y-88852000D02*
X138592000Y-88852000D01*
G04 #@! TO.N,Net-(D5-Pad2)*
X117922000Y-88852000D02*
X117716000Y-89058000D01*
X122880000Y-88852000D02*
X117922000Y-88852000D01*
D35*
G04 #@! TO.N,G35*
X135230000Y-120770000D02*
X135250000Y-120750000D01*
X133700000Y-120770000D02*
X135230000Y-120770000D01*
G04 #@! TO.N,G36*
X133700000Y-122040000D02*
X135210000Y-122040000D01*
X135210000Y-122040000D02*
X135250000Y-122000000D01*
G04 #@! TO.N,G16*
X135204000Y-119500000D02*
X135242000Y-119538000D01*
X133700000Y-119500000D02*
X135204000Y-119500000D01*
X108730000Y-108000000D02*
X110108000Y-109378000D01*
X110108000Y-109378000D02*
X115670726Y-109378000D01*
X115670726Y-109378000D02*
X116094990Y-109378000D01*
G04 #@! TO.N,G17*
X133700000Y-118230000D02*
X135204000Y-118230000D01*
X135204000Y-118230000D02*
X135242000Y-118268000D01*
X113283000Y-108108000D02*
X113175000Y-108000000D01*
X116700000Y-108108000D02*
X113283000Y-108108000D01*
G04 #@! TO.N,G13*
X133700000Y-123310000D02*
X135204000Y-123310000D01*
X135204000Y-123310000D02*
X135242000Y-123348000D01*
D36*
G04 #@! TO.N,fon_det*
X121514000Y-104564000D02*
X121526000Y-104552000D01*
D35*
X117462000Y-110267000D02*
X117462000Y-103409000D01*
X114350000Y-120700000D02*
X114922000Y-120128000D01*
X113175000Y-120700000D02*
X114350000Y-120700000D01*
X114922000Y-120128000D02*
X114922000Y-111410000D01*
X114922000Y-111410000D02*
X115418000Y-110914000D01*
X117958000Y-102913000D02*
X119240000Y-102913000D01*
X117462000Y-103409000D02*
X117958000Y-102913000D01*
X115418000Y-110914000D02*
X116815000Y-110914000D01*
X116815000Y-110914000D02*
X117462000Y-110267000D01*
X120726001Y-103752001D02*
X121526000Y-104552000D01*
X119887000Y-102913000D02*
X120726001Y-103752001D01*
X119240000Y-102913000D02*
X119887000Y-102913000D01*
D36*
G04 #@! TO.N,Net-(J4-Pad3)*
X130218000Y-100940000D02*
X129146000Y-102012000D01*
X130218000Y-100940000D02*
X145460000Y-100940000D01*
D35*
G04 #@! TO.N,Net-(R7-Pad2)*
X122238000Y-115690000D02*
X122161000Y-115613000D01*
X124300000Y-115690000D02*
X122238000Y-115690000D01*
X122161000Y-114319000D02*
X122161000Y-115613000D01*
G04 #@! TO.N,Net-(R8-Pad2)*
X122314000Y-116960000D02*
X122161000Y-117113000D01*
X124300000Y-116960000D02*
X122314000Y-116960000D01*
G04 #@! TO.N,Net-(R10-Pad1)*
X134950000Y-116960000D02*
X133700000Y-116960000D01*
X135016000Y-116960000D02*
X134950000Y-116960000D01*
X136566000Y-118510000D02*
X135016000Y-116960000D01*
X136766000Y-118510000D02*
X136566000Y-118510000D01*
D36*
G04 #@! TO.N,Net-(R11-Pad1)*
X141846000Y-90140000D02*
X141846000Y-88484000D01*
G04 #@! TO.N,Net-(R13-Pad1)*
X144005000Y-88484000D02*
X144005000Y-90140000D01*
D35*
G04 #@! TO.N,Net-(U5-Pad8)*
X119275000Y-123310000D02*
X118605000Y-122640000D01*
X124300000Y-123310000D02*
X119275000Y-123310000D01*
G04 #@! TO.N,Net-(U5-Pad7)*
X122885000Y-122040000D02*
X118605000Y-117760000D01*
X124300000Y-122040000D02*
X122885000Y-122040000D01*
G04 #@! TO.N,Net-(U5-Pad1)*
X125000000Y-118230000D02*
X124300000Y-118230000D01*
X125605001Y-117624999D02*
X125000000Y-118230000D01*
X125605001Y-115025001D02*
X125605001Y-117624999D01*
X125000000Y-114420000D02*
X125605001Y-115025001D01*
X124300000Y-114420000D02*
X125000000Y-114420000D01*
G04 #@! TD*
D37*
G04 #@! TO.N,GND*
G36*
X143448506Y-83752596D02*
X143488119Y-83811881D01*
X143722972Y-83968805D01*
X143930074Y-84010000D01*
X143930075Y-84010000D01*
X143999999Y-84023909D01*
X144069924Y-84010000D01*
X149963949Y-84010000D01*
X149733974Y-84105259D01*
X149105259Y-84733974D01*
X148765000Y-85555431D01*
X148765000Y-86444569D01*
X149105259Y-87266026D01*
X149733974Y-87894741D01*
X150555431Y-88235000D01*
X151444569Y-88235000D01*
X152266026Y-87894741D01*
X152894741Y-87266026D01*
X152990000Y-87036051D01*
X152990001Y-89930071D01*
X152976091Y-90000000D01*
X153023188Y-90236769D01*
X153031196Y-90277028D01*
X153188120Y-90511881D01*
X153247402Y-90551492D01*
X153290000Y-90594090D01*
X153290001Y-99430070D01*
X153290000Y-99430075D01*
X153290001Y-116430070D01*
X153290000Y-116430075D01*
X153290001Y-125405909D01*
X153247402Y-125448508D01*
X153188120Y-125488119D01*
X153128256Y-125577712D01*
X153031196Y-125722972D01*
X152976091Y-126000000D01*
X152990001Y-126069929D01*
X152990000Y-128963949D01*
X152894741Y-128733974D01*
X152266026Y-128105259D01*
X151444569Y-127765000D01*
X150555431Y-127765000D01*
X149733974Y-128105259D01*
X149105259Y-128733974D01*
X148765000Y-129555431D01*
X148765000Y-130444569D01*
X149105259Y-131266026D01*
X149733974Y-131894741D01*
X149963949Y-131990000D01*
X144069924Y-131990000D01*
X143999999Y-131976091D01*
X143930075Y-131990000D01*
X143930074Y-131990000D01*
X143722972Y-132031195D01*
X143488119Y-132188119D01*
X143448506Y-132247404D01*
X143405910Y-132290000D01*
X114594090Y-132290000D01*
X114551494Y-132247404D01*
X114511881Y-132188119D01*
X114277028Y-132031195D01*
X114069926Y-131990000D01*
X114069924Y-131990000D01*
X114000000Y-131976091D01*
X113930076Y-131990000D01*
X108036051Y-131990000D01*
X108266026Y-131894741D01*
X108894741Y-131266026D01*
X109235000Y-130444569D01*
X109235000Y-129654887D01*
X109265000Y-129654887D01*
X109265000Y-130345113D01*
X109529138Y-130982799D01*
X110017201Y-131470862D01*
X110654887Y-131735000D01*
X111345113Y-131735000D01*
X111982799Y-131470862D01*
X112470862Y-130982799D01*
X112735000Y-130345113D01*
X112735000Y-129654887D01*
X112470862Y-129017201D01*
X111982799Y-128529138D01*
X111345113Y-128265000D01*
X110654887Y-128265000D01*
X110017201Y-128529138D01*
X109529138Y-129017201D01*
X109265000Y-129654887D01*
X109235000Y-129654887D01*
X109235000Y-129555431D01*
X108894741Y-128733974D01*
X108266026Y-128105259D01*
X107444569Y-127765000D01*
X106555431Y-127765000D01*
X105733974Y-128105259D01*
X105105259Y-128733974D01*
X105010000Y-128963949D01*
X105010000Y-126069924D01*
X105023909Y-125999999D01*
X105002383Y-125891783D01*
X104968805Y-125722972D01*
X104811881Y-125488119D01*
X104752596Y-125448506D01*
X104710000Y-125405910D01*
X104710000Y-97340000D01*
X105252560Y-97340000D01*
X105252560Y-98340000D01*
X105301843Y-98587765D01*
X105442191Y-98797809D01*
X105652235Y-98938157D01*
X105900000Y-98987440D01*
X107777333Y-98987440D01*
X107888815Y-99098922D01*
X107915560Y-99110000D01*
X107888815Y-99121078D01*
X107777333Y-99232560D01*
X105900000Y-99232560D01*
X105652235Y-99281843D01*
X105442191Y-99422191D01*
X105301843Y-99632235D01*
X105252560Y-99880000D01*
X105252560Y-100880000D01*
X105301843Y-101127765D01*
X105442191Y-101337809D01*
X105652235Y-101478157D01*
X105900000Y-101527440D01*
X107777333Y-101527440D01*
X107888815Y-101638922D01*
X107915560Y-101650000D01*
X107888815Y-101661078D01*
X107777333Y-101772560D01*
X105900000Y-101772560D01*
X105652235Y-101821843D01*
X105442191Y-101962191D01*
X105301843Y-102172235D01*
X105252560Y-102420000D01*
X105252560Y-103420000D01*
X105301843Y-103667765D01*
X105442191Y-103877809D01*
X105652235Y-104018157D01*
X105900000Y-104067440D01*
X107777333Y-104067440D01*
X107888815Y-104178922D01*
X107915560Y-104190000D01*
X107888815Y-104201078D01*
X107777333Y-104312560D01*
X105900000Y-104312560D01*
X105652235Y-104361843D01*
X105442191Y-104502191D01*
X105301843Y-104712235D01*
X105252560Y-104960000D01*
X105252560Y-105960000D01*
X105301843Y-106207765D01*
X105442191Y-106417809D01*
X105652235Y-106558157D01*
X105900000Y-106607440D01*
X107777333Y-106607440D01*
X107888815Y-106718922D01*
X107915560Y-106730000D01*
X107888815Y-106741078D01*
X107777333Y-106852560D01*
X105900000Y-106852560D01*
X105652235Y-106901843D01*
X105442191Y-107042191D01*
X105301843Y-107252235D01*
X105252560Y-107500000D01*
X105252560Y-108500000D01*
X105301843Y-108747765D01*
X105442191Y-108957809D01*
X105652235Y-109098157D01*
X105900000Y-109147440D01*
X107777333Y-109147440D01*
X107888815Y-109258922D01*
X107915560Y-109270000D01*
X107888815Y-109281078D01*
X107777333Y-109392560D01*
X105900000Y-109392560D01*
X105652235Y-109441843D01*
X105442191Y-109582191D01*
X105301843Y-109792235D01*
X105252560Y-110040000D01*
X105252560Y-111040000D01*
X105301843Y-111287765D01*
X105442191Y-111497809D01*
X105652235Y-111638157D01*
X105900000Y-111687440D01*
X107777333Y-111687440D01*
X107888815Y-111798922D01*
X107915560Y-111810000D01*
X107888815Y-111821078D01*
X107777333Y-111932560D01*
X105900000Y-111932560D01*
X105652235Y-111981843D01*
X105442191Y-112122191D01*
X105301843Y-112332235D01*
X105252560Y-112580000D01*
X105252560Y-113580000D01*
X105301843Y-113827765D01*
X105442191Y-114037809D01*
X105652235Y-114178157D01*
X105900000Y-114227440D01*
X107777333Y-114227440D01*
X107888815Y-114338922D01*
X107915560Y-114350000D01*
X107888815Y-114361078D01*
X107777333Y-114472560D01*
X105900000Y-114472560D01*
X105652235Y-114521843D01*
X105442191Y-114662191D01*
X105301843Y-114872235D01*
X105252560Y-115120000D01*
X105252560Y-116120000D01*
X105301843Y-116367765D01*
X105442191Y-116577809D01*
X105652235Y-116718157D01*
X105900000Y-116767440D01*
X107777333Y-116767440D01*
X107888815Y-116878922D01*
X107915560Y-116890000D01*
X107888815Y-116901078D01*
X107777333Y-117012560D01*
X105900000Y-117012560D01*
X105652235Y-117061843D01*
X105442191Y-117202191D01*
X105301843Y-117412235D01*
X105252560Y-117660000D01*
X105252560Y-118660000D01*
X105301843Y-118907765D01*
X105442191Y-119117809D01*
X105652235Y-119258157D01*
X105900000Y-119307440D01*
X107777333Y-119307440D01*
X107888815Y-119418922D01*
X107915560Y-119430000D01*
X107888815Y-119441078D01*
X107777333Y-119552560D01*
X107524243Y-119552560D01*
X107475000Y-119542765D01*
X107425757Y-119552560D01*
X105900000Y-119552560D01*
X105652235Y-119601843D01*
X105442191Y-119742191D01*
X105301843Y-119952235D01*
X105252560Y-120200000D01*
X105252560Y-121200000D01*
X105301843Y-121447765D01*
X105442191Y-121657809D01*
X105652235Y-121798157D01*
X105900000Y-121847440D01*
X106340000Y-121847440D01*
X106340001Y-122092560D01*
X105900000Y-122092560D01*
X105652235Y-122141843D01*
X105442191Y-122282191D01*
X105301843Y-122492235D01*
X105252560Y-122740000D01*
X105252560Y-123740000D01*
X105301843Y-123987765D01*
X105442191Y-124197809D01*
X105652235Y-124338157D01*
X105900000Y-124387440D01*
X106340000Y-124387440D01*
X106340001Y-124632560D01*
X105900000Y-124632560D01*
X105652235Y-124681843D01*
X105442191Y-124822191D01*
X105301843Y-125032235D01*
X105252560Y-125280000D01*
X105252560Y-126280000D01*
X105301843Y-126527765D01*
X105442191Y-126737809D01*
X105652235Y-126878157D01*
X105900000Y-126927440D01*
X107425757Y-126927440D01*
X107475000Y-126937235D01*
X107524243Y-126927440D01*
X107777333Y-126927440D01*
X107888815Y-127038922D01*
X108434615Y-127265000D01*
X109025385Y-127265000D01*
X109571185Y-127038922D01*
X109988922Y-126621185D01*
X110000000Y-126594440D01*
X110011078Y-126621185D01*
X110428815Y-127038922D01*
X110974615Y-127265000D01*
X111565385Y-127265000D01*
X112111185Y-127038922D01*
X112222667Y-126927440D01*
X112475757Y-126927440D01*
X112525000Y-126937235D01*
X112574243Y-126927440D01*
X114100000Y-126927440D01*
X114162541Y-126915000D01*
X116062749Y-126915000D01*
X115962191Y-126982191D01*
X115821843Y-127192235D01*
X115772560Y-127440000D01*
X115772560Y-130940000D01*
X115821843Y-131187765D01*
X115962191Y-131397809D01*
X116172235Y-131538157D01*
X116420000Y-131587440D01*
X119220000Y-131587440D01*
X119467765Y-131538157D01*
X119677809Y-131397809D01*
X119818157Y-131187765D01*
X119867440Y-130940000D01*
X119867440Y-130435644D01*
X120190978Y-130500000D01*
X120449022Y-130500000D01*
X120831136Y-130423993D01*
X121264457Y-130134457D01*
X121320000Y-130051331D01*
X121375543Y-130134457D01*
X121808864Y-130423993D01*
X122190978Y-130500000D01*
X122449022Y-130500000D01*
X122831136Y-130423993D01*
X123124032Y-130228286D01*
X123187191Y-130322809D01*
X123397235Y-130463157D01*
X123645000Y-130512440D01*
X124772560Y-130512440D01*
X124772560Y-130940000D01*
X124821843Y-131187765D01*
X124962191Y-131397809D01*
X125172235Y-131538157D01*
X125420000Y-131587440D01*
X128220000Y-131587440D01*
X128467765Y-131538157D01*
X128677809Y-131397809D01*
X128818157Y-131187765D01*
X128867440Y-130940000D01*
X128867440Y-129393636D01*
X128897745Y-129438990D01*
X129089712Y-129726289D01*
X129184479Y-129789611D01*
X130118389Y-130723521D01*
X130181711Y-130818289D01*
X130453559Y-130999932D01*
X130557145Y-131069146D01*
X130999999Y-131157235D01*
X131111782Y-131135000D01*
X134576723Y-131135000D01*
X134692191Y-131307809D01*
X134902235Y-131448157D01*
X135150000Y-131497440D01*
X136850000Y-131497440D01*
X137097765Y-131448157D01*
X137307809Y-131307809D01*
X137448157Y-131097765D01*
X137468739Y-130994292D01*
X137773076Y-131271645D01*
X138183110Y-131441476D01*
X138413000Y-131320155D01*
X138413000Y-130127000D01*
X138667000Y-130127000D01*
X138667000Y-131320155D01*
X138896890Y-131441476D01*
X139306924Y-131271645D01*
X139735183Y-130881358D01*
X139981486Y-130356892D01*
X139860819Y-130127000D01*
X138667000Y-130127000D01*
X138413000Y-130127000D01*
X138393000Y-130127000D01*
X138393000Y-129873000D01*
X138413000Y-129873000D01*
X138413000Y-128679845D01*
X138667000Y-128679845D01*
X138667000Y-129873000D01*
X139860819Y-129873000D01*
X139975303Y-129654887D01*
X145265000Y-129654887D01*
X145265000Y-130345113D01*
X145529138Y-130982799D01*
X146017201Y-131470862D01*
X146654887Y-131735000D01*
X147345113Y-131735000D01*
X147982799Y-131470862D01*
X148470862Y-130982799D01*
X148735000Y-130345113D01*
X148735000Y-129654887D01*
X148470862Y-129017201D01*
X147982799Y-128529138D01*
X147345113Y-128265000D01*
X146654887Y-128265000D01*
X146017201Y-128529138D01*
X145529138Y-129017201D01*
X145265000Y-129654887D01*
X139975303Y-129654887D01*
X139981486Y-129643108D01*
X139735183Y-129118642D01*
X139306924Y-128728355D01*
X138896890Y-128558524D01*
X138667000Y-128679845D01*
X138413000Y-128679845D01*
X138183110Y-128558524D01*
X137773076Y-128728355D01*
X137468739Y-129005708D01*
X137448157Y-128902235D01*
X137307809Y-128692191D01*
X137097765Y-128551843D01*
X136850000Y-128502560D01*
X135150000Y-128502560D01*
X134902235Y-128551843D01*
X134692191Y-128692191D01*
X134576723Y-128865000D01*
X131470132Y-128865000D01*
X131043000Y-128437869D01*
X131043000Y-127269783D01*
X131065235Y-127158000D01*
X130977146Y-126715145D01*
X130899065Y-126598289D01*
X130726289Y-126339711D01*
X130631521Y-126276389D01*
X130027613Y-125672481D01*
X129964289Y-125577711D01*
X129588855Y-125326854D01*
X129257783Y-125261000D01*
X129146000Y-125238765D01*
X129034217Y-125261000D01*
X125817026Y-125261000D01*
X125838327Y-125239699D01*
X125935000Y-125006310D01*
X125935000Y-124865750D01*
X125776250Y-124707000D01*
X124427000Y-124707000D01*
X124427000Y-125356250D01*
X124494352Y-125423602D01*
X124263711Y-125577711D01*
X124200389Y-125672479D01*
X123596479Y-126276389D01*
X123501712Y-126339711D01*
X123430384Y-126446461D01*
X123389146Y-126239145D01*
X123331318Y-126152600D01*
X123138289Y-125863711D01*
X123043521Y-125800389D01*
X122299613Y-125056481D01*
X122236289Y-124961711D01*
X122092674Y-124865750D01*
X122665000Y-124865750D01*
X122665000Y-125006310D01*
X122761673Y-125239699D01*
X122940302Y-125418327D01*
X123173691Y-125515000D01*
X124014250Y-125515000D01*
X124173000Y-125356250D01*
X124173000Y-124707000D01*
X122823750Y-124707000D01*
X122665000Y-124865750D01*
X122092674Y-124865750D01*
X121860855Y-124710854D01*
X121529783Y-124645000D01*
X121418000Y-124622765D01*
X121306217Y-124645000D01*
X114162541Y-124645000D01*
X114100000Y-124632560D01*
X112616433Y-124632560D01*
X112531999Y-124615765D01*
X112447566Y-124632560D01*
X112222667Y-124632560D01*
X112111185Y-124521078D01*
X112084440Y-124510000D01*
X112111185Y-124498922D01*
X112222667Y-124387440D01*
X114100000Y-124387440D01*
X114347765Y-124338157D01*
X114557809Y-124197809D01*
X114698157Y-123987765D01*
X114747440Y-123740000D01*
X114747440Y-122740000D01*
X114698157Y-122492235D01*
X114557809Y-122282191D01*
X114347765Y-122141843D01*
X114100000Y-122092560D01*
X112222667Y-122092560D01*
X112111185Y-121981078D01*
X112084440Y-121970000D01*
X112111185Y-121958922D01*
X112222667Y-121847440D01*
X114100000Y-121847440D01*
X114347765Y-121798157D01*
X114557809Y-121657809D01*
X114698157Y-121447765D01*
X114713378Y-121371242D01*
X114897929Y-121247929D01*
X114940331Y-121184470D01*
X115406473Y-120718329D01*
X115469929Y-120675929D01*
X115637904Y-120424537D01*
X115682000Y-120202852D01*
X115682000Y-120202848D01*
X115696888Y-120128001D01*
X115682000Y-120053154D01*
X115682000Y-111724801D01*
X115732802Y-111674000D01*
X116740153Y-111674000D01*
X116815000Y-111688888D01*
X116889847Y-111674000D01*
X116889852Y-111674000D01*
X117111537Y-111629904D01*
X117362929Y-111461929D01*
X117405331Y-111398470D01*
X117946473Y-110857329D01*
X118009929Y-110814929D01*
X118177904Y-110563537D01*
X118222000Y-110341852D01*
X118222000Y-110341848D01*
X118236888Y-110267001D01*
X118222000Y-110192154D01*
X118222000Y-104955898D01*
X118332191Y-105120809D01*
X118480000Y-105219573D01*
X118480000Y-105366152D01*
X118465112Y-105441000D01*
X118480000Y-105515847D01*
X118480000Y-105515851D01*
X118524096Y-105737536D01*
X118692071Y-105988929D01*
X118755529Y-106031330D01*
X119157672Y-106433475D01*
X119200071Y-106496929D01*
X119263524Y-106539327D01*
X119263526Y-106539329D01*
X119349670Y-106596888D01*
X119451463Y-106664904D01*
X119673148Y-106709000D01*
X119673152Y-106709000D01*
X119747999Y-106723888D01*
X119797008Y-106714139D01*
X119877000Y-106794131D01*
X119877001Y-108626148D01*
X119862112Y-108701000D01*
X119877001Y-108775852D01*
X119911224Y-108947903D01*
X119921097Y-108997537D01*
X120042038Y-109178537D01*
X120089072Y-109248929D01*
X120152528Y-109291329D01*
X120428560Y-109567361D01*
X120428560Y-109640000D01*
X120477843Y-109887765D01*
X120618191Y-110097809D01*
X120681334Y-110140000D01*
X120618191Y-110182191D01*
X120477843Y-110392235D01*
X120428560Y-110640000D01*
X120428560Y-111140000D01*
X120477843Y-111387765D01*
X120618191Y-111597809D01*
X120828235Y-111738157D01*
X121076000Y-111787440D01*
X121976000Y-111787440D01*
X122223765Y-111738157D01*
X122355700Y-111650000D01*
X122474300Y-111650000D01*
X122606235Y-111738157D01*
X122823771Y-111781427D01*
X122671587Y-111933611D01*
X122611000Y-111921560D01*
X121711000Y-111921560D01*
X121463235Y-111970843D01*
X121253191Y-112111191D01*
X121112843Y-112321235D01*
X121063560Y-112569000D01*
X121063560Y-113069000D01*
X121112843Y-113316765D01*
X121253191Y-113526809D01*
X121316334Y-113569000D01*
X121253191Y-113611191D01*
X121112843Y-113821235D01*
X121063560Y-114069000D01*
X121063560Y-114569000D01*
X121112843Y-114816765D01*
X121212559Y-114966000D01*
X121112843Y-115115235D01*
X121063560Y-115363000D01*
X121063560Y-115863000D01*
X121112843Y-116110765D01*
X121253191Y-116320809D01*
X121316334Y-116363000D01*
X121253191Y-116405191D01*
X121112843Y-116615235D01*
X121063560Y-116863000D01*
X121063560Y-117363000D01*
X121112843Y-117610765D01*
X121253191Y-117820809D01*
X121463235Y-117961157D01*
X121711000Y-118010440D01*
X122611000Y-118010440D01*
X122652560Y-118002173D01*
X122652560Y-118530000D01*
X122701843Y-118777765D01*
X122760132Y-118865000D01*
X122701843Y-118952235D01*
X122652560Y-119200000D01*
X122652560Y-119800000D01*
X122701843Y-120047765D01*
X122760132Y-120135000D01*
X122701843Y-120222235D01*
X122652560Y-120470000D01*
X122652560Y-120732758D01*
X119979835Y-118060034D01*
X119990000Y-118035494D01*
X119990000Y-117484506D01*
X119779147Y-116975460D01*
X119389540Y-116585853D01*
X118880494Y-116375000D01*
X118329506Y-116375000D01*
X117820460Y-116585853D01*
X117430853Y-116975460D01*
X117220000Y-117484506D01*
X117220000Y-118035494D01*
X117430853Y-118544540D01*
X117820460Y-118934147D01*
X118329506Y-119145000D01*
X118880494Y-119145000D01*
X118905034Y-119134835D01*
X122294671Y-122524473D01*
X122311728Y-122550000D01*
X119990000Y-122550000D01*
X119990000Y-122364506D01*
X119779147Y-121855460D01*
X119389540Y-121465853D01*
X118880494Y-121255000D01*
X118329506Y-121255000D01*
X117820460Y-121465853D01*
X117430853Y-121855460D01*
X117220000Y-122364506D01*
X117220000Y-122915494D01*
X117430853Y-123424540D01*
X117820460Y-123814147D01*
X118329506Y-124025000D01*
X118880494Y-124025000D01*
X118940137Y-124000295D01*
X118978463Y-124025904D01*
X119200148Y-124070000D01*
X119200152Y-124070000D01*
X119274999Y-124084888D01*
X119349846Y-124070000D01*
X122699666Y-124070000D01*
X122665000Y-124153690D01*
X122665000Y-124294250D01*
X122823750Y-124453000D01*
X124173000Y-124453000D01*
X124173000Y-124433000D01*
X124427000Y-124433000D01*
X124427000Y-124453000D01*
X125776250Y-124453000D01*
X125935000Y-124294250D01*
X125935000Y-124153690D01*
X125845232Y-123936972D01*
X125898157Y-123857765D01*
X125947440Y-123610000D01*
X125947440Y-123010000D01*
X125898157Y-122762235D01*
X125839868Y-122675000D01*
X125898157Y-122587765D01*
X125947440Y-122340000D01*
X125947440Y-121740000D01*
X125898157Y-121492235D01*
X125839868Y-121405000D01*
X125898157Y-121317765D01*
X125947440Y-121070000D01*
X125947440Y-120470000D01*
X125898157Y-120222235D01*
X125839868Y-120135000D01*
X125898157Y-120047765D01*
X125947440Y-119800000D01*
X125947440Y-119200000D01*
X125898157Y-118952235D01*
X125839868Y-118865000D01*
X125898157Y-118777765D01*
X125947440Y-118530000D01*
X125947440Y-118357362D01*
X126089474Y-118215328D01*
X126152930Y-118172928D01*
X126320905Y-117921536D01*
X126365001Y-117699851D01*
X126365001Y-117699847D01*
X126379889Y-117624999D01*
X126365001Y-117550151D01*
X126365001Y-115099849D01*
X126379889Y-115025001D01*
X126365001Y-114950153D01*
X126365001Y-114950149D01*
X126320905Y-114728464D01*
X126152930Y-114477072D01*
X126089474Y-114434672D01*
X125947440Y-114292638D01*
X125947440Y-114120000D01*
X125898157Y-113872235D01*
X125757809Y-113662191D01*
X125547765Y-113521843D01*
X125300000Y-113472560D01*
X123300000Y-113472560D01*
X123230004Y-113486483D01*
X123408929Y-113366929D01*
X123451331Y-113303470D01*
X124203802Y-112551000D01*
X130681425Y-112551000D01*
X130655765Y-112680000D01*
X130743854Y-113122855D01*
X130994711Y-113498289D01*
X131370145Y-113749146D01*
X131701217Y-113815000D01*
X131769484Y-113815000D01*
X131684071Y-113872071D01*
X131641671Y-113935527D01*
X131201530Y-114375669D01*
X131138071Y-114418071D01*
X130970096Y-114669464D01*
X130926000Y-114891149D01*
X130926000Y-114891153D01*
X130911112Y-114966000D01*
X130926000Y-115040847D01*
X130926001Y-124035148D01*
X130911112Y-124110000D01*
X130970097Y-124406537D01*
X131086001Y-124579999D01*
X131138072Y-124657929D01*
X131201527Y-124700329D01*
X131565671Y-125064472D01*
X131608071Y-125127929D01*
X131859463Y-125295904D01*
X132081148Y-125340000D01*
X132081152Y-125340000D01*
X132155999Y-125354888D01*
X132230846Y-125340000D01*
X132245470Y-125340000D01*
X132452235Y-125478157D01*
X132700000Y-125527440D01*
X134700000Y-125527440D01*
X134947765Y-125478157D01*
X135157809Y-125337809D01*
X135298157Y-125127765D01*
X135347440Y-124880000D01*
X135347440Y-124283000D01*
X135427983Y-124283000D01*
X135771635Y-124140655D01*
X136034655Y-123877635D01*
X136177000Y-123533983D01*
X136177000Y-123162017D01*
X136034655Y-122818365D01*
X135894290Y-122678000D01*
X136042655Y-122529635D01*
X136185000Y-122185983D01*
X136185000Y-121814017D01*
X136042655Y-121470365D01*
X135947290Y-121375000D01*
X136042655Y-121279635D01*
X136185000Y-120935983D01*
X136185000Y-120564017D01*
X136042655Y-120220365D01*
X135962290Y-120140000D01*
X136034655Y-120067635D01*
X136177000Y-119723983D01*
X136177000Y-119379791D01*
X136316000Y-119407440D01*
X137216000Y-119407440D01*
X137463765Y-119358157D01*
X137673809Y-119217809D01*
X137814157Y-119007765D01*
X137863440Y-118760000D01*
X137863440Y-118260000D01*
X137814157Y-118012235D01*
X137673809Y-117802191D01*
X137610666Y-117760000D01*
X137673809Y-117717809D01*
X137814157Y-117507765D01*
X137863440Y-117260000D01*
X137863440Y-116760000D01*
X137814157Y-116512235D01*
X137673809Y-116302191D01*
X137630097Y-116272983D01*
X137739157Y-116109765D01*
X137788440Y-115862000D01*
X137788440Y-115062000D01*
X137739157Y-114814235D01*
X137670845Y-114712000D01*
X137739157Y-114609765D01*
X137788440Y-114362000D01*
X137788440Y-113562000D01*
X137739157Y-113314235D01*
X137598809Y-113104191D01*
X137388765Y-112963843D01*
X137141000Y-112914560D01*
X136391000Y-112914560D01*
X136143235Y-112963843D01*
X135933191Y-113104191D01*
X135792843Y-113314235D01*
X135743560Y-113562000D01*
X135743560Y-113660000D01*
X135320735Y-113660000D01*
X135481698Y-113593327D01*
X135660327Y-113414699D01*
X135757000Y-113181310D01*
X135757000Y-112965750D01*
X135598250Y-112807000D01*
X134849000Y-112807000D01*
X134849000Y-112827000D01*
X134595000Y-112827000D01*
X134595000Y-112807000D01*
X134575000Y-112807000D01*
X134575000Y-112553000D01*
X134595000Y-112553000D01*
X134595000Y-112551000D01*
X134849000Y-112551000D01*
X134849000Y-112553000D01*
X135434208Y-112553000D01*
X135499000Y-112565888D01*
X135563792Y-112553000D01*
X135598250Y-112553000D01*
X135606805Y-112544445D01*
X135795537Y-112506904D01*
X136046929Y-112338929D01*
X136089331Y-112275470D01*
X136742473Y-111622329D01*
X136805929Y-111579929D01*
X136973904Y-111328537D01*
X136976339Y-111316296D01*
X137090809Y-111239809D01*
X137231157Y-111029765D01*
X137280440Y-110782000D01*
X137280440Y-109982000D01*
X137231157Y-109734235D01*
X137162845Y-109632000D01*
X137231157Y-109529765D01*
X137280440Y-109282000D01*
X137280440Y-108482000D01*
X137231157Y-108234235D01*
X137090809Y-108024191D01*
X136880765Y-107883843D01*
X136633000Y-107834560D01*
X135883000Y-107834560D01*
X135635235Y-107883843D01*
X135425191Y-108024191D01*
X135369000Y-108108286D01*
X135312809Y-108024191D01*
X135102765Y-107883843D01*
X135062405Y-107875815D01*
X135085157Y-107841765D01*
X135134440Y-107594000D01*
X135134440Y-106844000D01*
X135097502Y-106658299D01*
X136481477Y-105274326D01*
X136544930Y-105231928D01*
X136587328Y-105168475D01*
X136587330Y-105168473D01*
X136712904Y-104980537D01*
X136712905Y-104980536D01*
X136757001Y-104758851D01*
X136757001Y-104758847D01*
X136771889Y-104684000D01*
X136757001Y-104609153D01*
X136757001Y-102907848D01*
X136771889Y-102833001D01*
X136757001Y-102758154D01*
X136757001Y-102758149D01*
X136712905Y-102536464D01*
X136544930Y-102285072D01*
X136481474Y-102242672D01*
X136339440Y-102100638D01*
X136339440Y-102028000D01*
X136290157Y-101780235D01*
X136286659Y-101775000D01*
X139364169Y-101775000D01*
X139291765Y-102139000D01*
X139326001Y-102311116D01*
X139326000Y-112568217D01*
X139303765Y-112680000D01*
X139326000Y-112791782D01*
X139326001Y-118349212D01*
X139303765Y-118461000D01*
X139391854Y-118903854D01*
X139419951Y-118945904D01*
X139642712Y-119279289D01*
X139737479Y-119342611D01*
X140102560Y-119707691D01*
X140102560Y-122250000D01*
X140151843Y-122497765D01*
X140292191Y-122707809D01*
X140502235Y-122848157D01*
X140750000Y-122897440D01*
X144250000Y-122897440D01*
X144497765Y-122848157D01*
X144707809Y-122707809D01*
X144848157Y-122497765D01*
X144897440Y-122250000D01*
X144897440Y-120785750D01*
X146115000Y-120785750D01*
X146115000Y-122376310D01*
X146211673Y-122609699D01*
X146390302Y-122788327D01*
X146623691Y-122885000D01*
X148214250Y-122885000D01*
X148373000Y-122726250D01*
X148373000Y-120627000D01*
X148627000Y-120627000D01*
X148627000Y-122726250D01*
X148785750Y-122885000D01*
X150376309Y-122885000D01*
X150609698Y-122788327D01*
X150788327Y-122609699D01*
X150885000Y-122376310D01*
X150885000Y-120785750D01*
X150726250Y-120627000D01*
X148627000Y-120627000D01*
X148373000Y-120627000D01*
X146273750Y-120627000D01*
X146115000Y-120785750D01*
X144897440Y-120785750D01*
X144897440Y-118750000D01*
X144848157Y-118502235D01*
X144707809Y-118292191D01*
X144566005Y-118197440D01*
X146424663Y-118197440D01*
X146390302Y-118211673D01*
X146211673Y-118390301D01*
X146115000Y-118623690D01*
X146115000Y-120214250D01*
X146273750Y-120373000D01*
X148373000Y-120373000D01*
X148373000Y-118273750D01*
X148627000Y-118273750D01*
X148627000Y-120373000D01*
X150726250Y-120373000D01*
X150885000Y-120214250D01*
X150885000Y-118623690D01*
X150788327Y-118390301D01*
X150609698Y-118211673D01*
X150376309Y-118115000D01*
X148785750Y-118115000D01*
X148627000Y-118273750D01*
X148373000Y-118273750D01*
X148214250Y-118115000D01*
X147547388Y-118115000D01*
X147707809Y-118007809D01*
X147848157Y-117797765D01*
X147897440Y-117550000D01*
X147897440Y-114050000D01*
X147848157Y-113802235D01*
X147707809Y-113592191D01*
X147497765Y-113451843D01*
X147250000Y-113402560D01*
X143750000Y-113402560D01*
X143502235Y-113451843D01*
X143292191Y-113592191D01*
X143151843Y-113802235D01*
X143102560Y-114050000D01*
X143102560Y-117550000D01*
X143151843Y-117797765D01*
X143292191Y-118007809D01*
X143433995Y-118102560D01*
X141707691Y-118102560D01*
X141596000Y-117990869D01*
X141596000Y-113690000D01*
X141675250Y-113690000D01*
X141834000Y-113531250D01*
X141834000Y-112807000D01*
X142088000Y-112807000D01*
X142088000Y-113531250D01*
X142246750Y-113690000D01*
X142487309Y-113690000D01*
X142720698Y-113593327D01*
X142899327Y-113414699D01*
X142996000Y-113181310D01*
X142996000Y-112965750D01*
X142837250Y-112807000D01*
X142088000Y-112807000D01*
X141834000Y-112807000D01*
X141814000Y-112807000D01*
X141814000Y-112553000D01*
X141834000Y-112553000D01*
X141834000Y-111828750D01*
X142088000Y-111828750D01*
X142088000Y-112553000D01*
X142837250Y-112553000D01*
X142996000Y-112394250D01*
X142996000Y-112178690D01*
X142899327Y-111945301D01*
X142720698Y-111766673D01*
X142487309Y-111670000D01*
X142246750Y-111670000D01*
X142088000Y-111828750D01*
X141834000Y-111828750D01*
X141675250Y-111670000D01*
X141596000Y-111670000D01*
X141596000Y-107088974D01*
X148485000Y-107088974D01*
X148485000Y-107811026D01*
X148761317Y-108478115D01*
X149271885Y-108988683D01*
X149938974Y-109265000D01*
X150661026Y-109265000D01*
X151328115Y-108988683D01*
X151838683Y-108478115D01*
X152115000Y-107811026D01*
X152115000Y-107088974D01*
X151838683Y-106421885D01*
X151328115Y-105911317D01*
X150661026Y-105635000D01*
X149938974Y-105635000D01*
X149271885Y-105911317D01*
X148761317Y-106421885D01*
X148485000Y-107088974D01*
X141596000Y-107088974D01*
X141596000Y-102262783D01*
X141618235Y-102151000D01*
X141544517Y-101780395D01*
X141543444Y-101775000D01*
X144322172Y-101775000D01*
X144507172Y-101960000D01*
X144277376Y-102189796D01*
X144065000Y-102702517D01*
X144065000Y-103257483D01*
X144277376Y-103770204D01*
X144669796Y-104162624D01*
X145182517Y-104375000D01*
X145737483Y-104375000D01*
X146250204Y-104162624D01*
X146605000Y-103807828D01*
X146605000Y-104277483D01*
X146817376Y-104790204D01*
X147209796Y-105182624D01*
X147722517Y-105395000D01*
X148277483Y-105395000D01*
X148790204Y-105182624D01*
X149182624Y-104790204D01*
X149395000Y-104277483D01*
X149395000Y-103722517D01*
X149182624Y-103209796D01*
X148790204Y-102817376D01*
X148598269Y-102737874D01*
X148000000Y-102139605D01*
X147401731Y-102737874D01*
X147209796Y-102817376D01*
X146855000Y-103172172D01*
X146855000Y-102711607D01*
X147021236Y-102759159D01*
X147820395Y-101960000D01*
X148179605Y-101960000D01*
X148978764Y-102759159D01*
X149220742Y-102689941D01*
X149407155Y-102167220D01*
X149379341Y-101612951D01*
X149220742Y-101230059D01*
X148978764Y-101160841D01*
X148179605Y-101960000D01*
X147820395Y-101960000D01*
X147021236Y-101160841D01*
X146855000Y-101208393D01*
X146855000Y-100747828D01*
X147209796Y-101102624D01*
X147401731Y-101182126D01*
X148000000Y-101780395D01*
X148598269Y-101182126D01*
X148790204Y-101102624D01*
X149182624Y-100710204D01*
X149395000Y-100197483D01*
X149395000Y-99642517D01*
X149182624Y-99129796D01*
X148790204Y-98737376D01*
X148277483Y-98525000D01*
X147722517Y-98525000D01*
X147209796Y-98737376D01*
X146855000Y-99092172D01*
X146855000Y-98622517D01*
X146642624Y-98109796D01*
X146250204Y-97717376D01*
X145737483Y-97505000D01*
X145182517Y-97505000D01*
X144669796Y-97717376D01*
X144277376Y-98109796D01*
X144065000Y-98622517D01*
X144065000Y-99177483D01*
X144277376Y-99690204D01*
X144507172Y-99920000D01*
X144322172Y-100105000D01*
X141581371Y-100105000D01*
X141584000Y-100091783D01*
X141584000Y-98440783D01*
X141606235Y-98329000D01*
X141518146Y-97886145D01*
X141503643Y-97864440D01*
X141267289Y-97510711D01*
X141172521Y-97447389D01*
X139818613Y-96093482D01*
X139755289Y-95998711D01*
X139436106Y-95785440D01*
X139798000Y-95785440D01*
X140045765Y-95736157D01*
X140255809Y-95595809D01*
X140396157Y-95385765D01*
X140445440Y-95138000D01*
X140445440Y-95088974D01*
X148485000Y-95088974D01*
X148485000Y-95811026D01*
X148761317Y-96478115D01*
X149271885Y-96988683D01*
X149938974Y-97265000D01*
X150661026Y-97265000D01*
X151328115Y-96988683D01*
X151838683Y-96478115D01*
X152115000Y-95811026D01*
X152115000Y-95088974D01*
X151838683Y-94421885D01*
X151328115Y-93911317D01*
X150661026Y-93635000D01*
X149938974Y-93635000D01*
X149271885Y-93911317D01*
X148761317Y-94421885D01*
X148485000Y-95088974D01*
X140445440Y-95088974D01*
X140445440Y-93138000D01*
X140396157Y-92890235D01*
X140385977Y-92875000D01*
X140778885Y-92875000D01*
X140948235Y-92988157D01*
X141196000Y-93037440D01*
X142496000Y-93037440D01*
X142743765Y-92988157D01*
X142913115Y-92875000D01*
X142937885Y-92875000D01*
X143107235Y-92988157D01*
X143355000Y-93037440D01*
X144655000Y-93037440D01*
X144902765Y-92988157D01*
X145112809Y-92847809D01*
X145253157Y-92637765D01*
X145302440Y-92390000D01*
X145302440Y-91690000D01*
X145253157Y-91442235D01*
X145112809Y-91232191D01*
X144902765Y-91091843D01*
X144893500Y-91090000D01*
X144902765Y-91088157D01*
X145112809Y-90947809D01*
X145253157Y-90737765D01*
X145302440Y-90490000D01*
X145302440Y-89790000D01*
X145253157Y-89542235D01*
X145112809Y-89332191D01*
X145082591Y-89312000D01*
X145112809Y-89291809D01*
X145253157Y-89081765D01*
X145302440Y-88834000D01*
X145302440Y-88134000D01*
X145253157Y-87886235D01*
X145112809Y-87676191D01*
X144902765Y-87535843D01*
X144874791Y-87530279D01*
X145014699Y-87472327D01*
X145193327Y-87293698D01*
X145290000Y-87060309D01*
X145290000Y-86869750D01*
X145131250Y-86711000D01*
X144132000Y-86711000D01*
X144132000Y-86731000D01*
X143878000Y-86731000D01*
X143878000Y-86711000D01*
X141973000Y-86711000D01*
X141973000Y-86731000D01*
X141719000Y-86731000D01*
X141719000Y-86711000D01*
X140719750Y-86711000D01*
X140561000Y-86869750D01*
X140561000Y-87060309D01*
X140657673Y-87293698D01*
X140836301Y-87472327D01*
X140976209Y-87530279D01*
X140948235Y-87535843D01*
X140738191Y-87676191D01*
X140597843Y-87886235D01*
X140548560Y-88134000D01*
X140548560Y-88834000D01*
X140597843Y-89081765D01*
X140738191Y-89291809D01*
X140768409Y-89312000D01*
X140738191Y-89332191D01*
X140597843Y-89542235D01*
X140548560Y-89790000D01*
X140548560Y-90490000D01*
X140597843Y-90737765D01*
X140738191Y-90947809D01*
X140948235Y-91088157D01*
X140957500Y-91090000D01*
X140948235Y-91091843D01*
X140778885Y-91205000D01*
X139578232Y-91205000D01*
X139495999Y-91188643D01*
X139413766Y-91205000D01*
X139413763Y-91205000D01*
X139170199Y-91253448D01*
X138893999Y-91437999D01*
X138847414Y-91507718D01*
X138265718Y-92089415D01*
X138196000Y-92135999D01*
X138149416Y-92205717D01*
X138011448Y-92412200D01*
X137995861Y-92490560D01*
X137798000Y-92490560D01*
X137550235Y-92539843D01*
X137340191Y-92680191D01*
X137199843Y-92890235D01*
X137150560Y-93138000D01*
X137150560Y-93291002D01*
X137090241Y-93303000D01*
X136846677Y-93351448D01*
X136570477Y-93535999D01*
X136523893Y-93605717D01*
X135264680Y-94864930D01*
X135264680Y-94477114D01*
X134977755Y-93784415D01*
X134447585Y-93254245D01*
X133754886Y-92967320D01*
X133005114Y-92967320D01*
X132312415Y-93254245D01*
X131849660Y-93717000D01*
X124410340Y-93717000D01*
X123947585Y-93254245D01*
X123836151Y-93208088D01*
X124266086Y-92778153D01*
X124515000Y-92177222D01*
X124515000Y-91526778D01*
X124266086Y-90925847D01*
X123836151Y-90495912D01*
X123947585Y-90449755D01*
X124477755Y-89919585D01*
X124764680Y-89226886D01*
X124764680Y-88477114D01*
X131495320Y-88477114D01*
X131495320Y-89226886D01*
X131782245Y-89919585D01*
X132312415Y-90449755D01*
X133005114Y-90736680D01*
X133754886Y-90736680D01*
X134447585Y-90449755D01*
X134977755Y-89919585D01*
X135074095Y-89687000D01*
X137256085Y-89687000D01*
X137257864Y-89695945D01*
X137619231Y-90236769D01*
X138160055Y-90598136D01*
X138636969Y-90693000D01*
X138959031Y-90693000D01*
X139435945Y-90598136D01*
X139976769Y-90236769D01*
X140338136Y-89695945D01*
X140465031Y-89058000D01*
X140338136Y-88420055D01*
X139976769Y-87879231D01*
X139435945Y-87517864D01*
X138959031Y-87423000D01*
X138636969Y-87423000D01*
X138160055Y-87517864D01*
X137619231Y-87879231D01*
X137527177Y-88017000D01*
X135074095Y-88017000D01*
X134977755Y-87784415D01*
X134447585Y-87254245D01*
X133754886Y-86967320D01*
X133005114Y-86967320D01*
X132312415Y-87254245D01*
X131782245Y-87784415D01*
X131495320Y-88477114D01*
X124764680Y-88477114D01*
X124477755Y-87784415D01*
X123947585Y-87254245D01*
X123254886Y-86967320D01*
X122505114Y-86967320D01*
X121812415Y-87254245D01*
X121282245Y-87784415D01*
X121185905Y-88017000D01*
X118986823Y-88017000D01*
X118894769Y-87879231D01*
X118353945Y-87517864D01*
X117877031Y-87423000D01*
X117554969Y-87423000D01*
X117078055Y-87517864D01*
X116537231Y-87879231D01*
X116175864Y-88420055D01*
X116048969Y-89058000D01*
X116175864Y-89695945D01*
X116537231Y-90236769D01*
X117078055Y-90598136D01*
X117554969Y-90693000D01*
X117877031Y-90693000D01*
X118353945Y-90598136D01*
X118894769Y-90236769D01*
X119256136Y-89695945D01*
X119257915Y-89687000D01*
X121185905Y-89687000D01*
X121282245Y-89919585D01*
X121812415Y-90449755D01*
X121923849Y-90495912D01*
X121493914Y-90925847D01*
X121245000Y-91526778D01*
X121245000Y-92177222D01*
X121493914Y-92778153D01*
X121923849Y-93208088D01*
X121812415Y-93254245D01*
X121282245Y-93784415D01*
X120995320Y-94477114D01*
X120995320Y-95226886D01*
X121282245Y-95919585D01*
X121586660Y-96224000D01*
X120082530Y-96224000D01*
X119875765Y-96085843D01*
X119628000Y-96036560D01*
X118828000Y-96036560D01*
X118580235Y-96085843D01*
X118551000Y-96105377D01*
X118551000Y-95785440D01*
X118716000Y-95785440D01*
X118963765Y-95736157D01*
X119173809Y-95595809D01*
X119314157Y-95385765D01*
X119363440Y-95138000D01*
X119363440Y-93138000D01*
X119314157Y-92890235D01*
X119173809Y-92680191D01*
X118963765Y-92539843D01*
X118716000Y-92490560D01*
X116716000Y-92490560D01*
X116468235Y-92539843D01*
X116258191Y-92680191D01*
X116117843Y-92890235D01*
X116068560Y-93138000D01*
X116068560Y-95138000D01*
X116117843Y-95385765D01*
X116258191Y-95595809D01*
X116468235Y-95736157D01*
X116716000Y-95785440D01*
X116881001Y-95785440D01*
X116881001Y-96218968D01*
X116870191Y-96226191D01*
X116729843Y-96436235D01*
X116680560Y-96684000D01*
X116680560Y-97434000D01*
X116729843Y-97681765D01*
X116870191Y-97891809D01*
X116890893Y-97905642D01*
X116893000Y-97916233D01*
X116893000Y-97916237D01*
X116915878Y-98031250D01*
X116941448Y-98159800D01*
X116941449Y-98159801D01*
X117126000Y-98436001D01*
X117195718Y-98482585D01*
X117828414Y-99115282D01*
X117874999Y-99185001D01*
X118084522Y-99325000D01*
X118151199Y-99369552D01*
X118477000Y-99434358D01*
X118559237Y-99418000D01*
X126387133Y-99418000D01*
X126533000Y-99563868D01*
X126533001Y-103891762D01*
X126516643Y-103974000D01*
X126581448Y-104299800D01*
X126622904Y-104361843D01*
X126766000Y-104576001D01*
X126835717Y-104622585D01*
X127154132Y-104941000D01*
X122911736Y-104941000D01*
X122989113Y-104552000D01*
X122877740Y-103992091D01*
X122560577Y-103517423D01*
X122176892Y-103261053D01*
X122381134Y-103164389D01*
X122757041Y-102749423D01*
X122917904Y-102361039D01*
X122795915Y-102139000D01*
X121653000Y-102139000D01*
X121653000Y-102159000D01*
X121399000Y-102159000D01*
X121399000Y-102139000D01*
X120256085Y-102139000D01*
X120213257Y-102216954D01*
X120183537Y-102197096D01*
X120115415Y-102183546D01*
X119937765Y-102064843D01*
X119690000Y-102015560D01*
X118790000Y-102015560D01*
X118542235Y-102064843D01*
X118410300Y-102153000D01*
X118032847Y-102153000D01*
X117958000Y-102138112D01*
X117883153Y-102153000D01*
X117883148Y-102153000D01*
X117661463Y-102197096D01*
X117527519Y-102286595D01*
X117391288Y-102082712D01*
X117015854Y-101831854D01*
X116572999Y-101743765D01*
X116365697Y-101785000D01*
X114162541Y-101785000D01*
X114100000Y-101772560D01*
X112222667Y-101772560D01*
X112113068Y-101662961D01*
X120134096Y-101662961D01*
X120256085Y-101885000D01*
X121399000Y-101885000D01*
X121399000Y-100741371D01*
X121653000Y-100741371D01*
X121653000Y-101885000D01*
X122795915Y-101885000D01*
X122917904Y-101662961D01*
X122757041Y-101274577D01*
X122381134Y-100859611D01*
X121875041Y-100620086D01*
X121653000Y-100741371D01*
X121399000Y-100741371D01*
X121176959Y-100620086D01*
X120670866Y-100859611D01*
X120294959Y-101274577D01*
X120134096Y-101662961D01*
X112113068Y-101662961D01*
X112111185Y-101661078D01*
X112084440Y-101650000D01*
X112111185Y-101638922D01*
X112222667Y-101527440D01*
X114100000Y-101527440D01*
X114347765Y-101478157D01*
X114557809Y-101337809D01*
X114698157Y-101127765D01*
X114747440Y-100880000D01*
X114747440Y-99880000D01*
X114698157Y-99632235D01*
X114557809Y-99422191D01*
X114347765Y-99281843D01*
X114100000Y-99232560D01*
X112222667Y-99232560D01*
X112111185Y-99121078D01*
X112084440Y-99110000D01*
X112111185Y-99098922D01*
X112222667Y-98987440D01*
X114100000Y-98987440D01*
X114347765Y-98938157D01*
X114557809Y-98797809D01*
X114698157Y-98587765D01*
X114747440Y-98340000D01*
X114747440Y-97340000D01*
X114698157Y-97092235D01*
X114557809Y-96882191D01*
X114347765Y-96741843D01*
X114100000Y-96692560D01*
X112222667Y-96692560D01*
X112111185Y-96581078D01*
X112084440Y-96570000D01*
X112111185Y-96558922D01*
X112222667Y-96447440D01*
X114100000Y-96447440D01*
X114347765Y-96398157D01*
X114557809Y-96257809D01*
X114698157Y-96047765D01*
X114747440Y-95800000D01*
X114747440Y-94800000D01*
X114698157Y-94552235D01*
X114557809Y-94342191D01*
X114347765Y-94201843D01*
X114100000Y-94152560D01*
X112222667Y-94152560D01*
X112111185Y-94041078D01*
X112084440Y-94030000D01*
X112111185Y-94018922D01*
X112222667Y-93907440D01*
X114100000Y-93907440D01*
X114347765Y-93858157D01*
X114557809Y-93717809D01*
X114698157Y-93507765D01*
X114747440Y-93260000D01*
X114747440Y-92260000D01*
X114698157Y-92012235D01*
X114557809Y-91802191D01*
X114347765Y-91661843D01*
X114100000Y-91612560D01*
X112222667Y-91612560D01*
X112111185Y-91501078D01*
X112084440Y-91490000D01*
X112111185Y-91478922D01*
X112222667Y-91367440D01*
X114100000Y-91367440D01*
X114347765Y-91318157D01*
X114557809Y-91177809D01*
X114698157Y-90967765D01*
X114747440Y-90720000D01*
X114747440Y-89720000D01*
X114698157Y-89472235D01*
X114557809Y-89262191D01*
X114347765Y-89121843D01*
X114100000Y-89072560D01*
X112222667Y-89072560D01*
X112111185Y-88961078D01*
X111565385Y-88735000D01*
X110974615Y-88735000D01*
X110428815Y-88961078D01*
X110011078Y-89378815D01*
X109991845Y-89425247D01*
X109773958Y-89355647D01*
X109641334Y-89488271D01*
X109588327Y-89360301D01*
X109499210Y-89271185D01*
X109594353Y-89176042D01*
X109514080Y-88924741D01*
X108958721Y-88723282D01*
X108368542Y-88749685D01*
X107945920Y-88924741D01*
X107894729Y-89085000D01*
X107760750Y-89085000D01*
X107602000Y-89243750D01*
X107602000Y-89382493D01*
X107506778Y-89412910D01*
X107479630Y-89385762D01*
X107362745Y-89502647D01*
X107348000Y-89380483D01*
X107348000Y-89243750D01*
X107189250Y-89085000D01*
X105773691Y-89085000D01*
X105540302Y-89181673D01*
X105361673Y-89360301D01*
X105265000Y-89593690D01*
X105265000Y-89934250D01*
X105423750Y-90093000D01*
X105778600Y-90093000D01*
X105776691Y-90098931D01*
X105796921Y-90347000D01*
X105423750Y-90347000D01*
X105265000Y-90505750D01*
X105265000Y-90846310D01*
X105361673Y-91079699D01*
X105540302Y-91258327D01*
X105773691Y-91355000D01*
X107189250Y-91355000D01*
X107348000Y-91196250D01*
X107348000Y-91059517D01*
X107362745Y-90937353D01*
X107479630Y-91054238D01*
X107506778Y-91027090D01*
X107602000Y-91057507D01*
X107602000Y-91196250D01*
X107760750Y-91355000D01*
X107894729Y-91355000D01*
X107937852Y-91490000D01*
X107894729Y-91625000D01*
X107760750Y-91625000D01*
X107602000Y-91783750D01*
X107602000Y-91922493D01*
X107506778Y-91952910D01*
X107479630Y-91925762D01*
X107362745Y-92042647D01*
X107348000Y-91920483D01*
X107348000Y-91783750D01*
X107189250Y-91625000D01*
X105773691Y-91625000D01*
X105540302Y-91721673D01*
X105361673Y-91900301D01*
X105265000Y-92133690D01*
X105265000Y-92474250D01*
X105423750Y-92633000D01*
X105778600Y-92633000D01*
X105776691Y-92638931D01*
X105796921Y-92887000D01*
X105423750Y-92887000D01*
X105265000Y-93045750D01*
X105265000Y-93386310D01*
X105361673Y-93619699D01*
X105540302Y-93798327D01*
X105773691Y-93895000D01*
X107189250Y-93895000D01*
X107348000Y-93736250D01*
X107348000Y-93599517D01*
X107362745Y-93477353D01*
X107479630Y-93594238D01*
X107506778Y-93567090D01*
X107602000Y-93597507D01*
X107602000Y-93736250D01*
X107760750Y-93895000D01*
X107894729Y-93895000D01*
X107937852Y-94030000D01*
X107894729Y-94165000D01*
X107760750Y-94165000D01*
X107602000Y-94323750D01*
X107602000Y-94462493D01*
X107506778Y-94492910D01*
X107479630Y-94465762D01*
X107362745Y-94582647D01*
X107348000Y-94460483D01*
X107348000Y-94323750D01*
X107189250Y-94165000D01*
X105773691Y-94165000D01*
X105540302Y-94261673D01*
X105361673Y-94440301D01*
X105265000Y-94673690D01*
X105265000Y-95014250D01*
X105423750Y-95173000D01*
X105778600Y-95173000D01*
X105776691Y-95178931D01*
X105796921Y-95427000D01*
X105423750Y-95427000D01*
X105265000Y-95585750D01*
X105265000Y-95926310D01*
X105361673Y-96159699D01*
X105540302Y-96338327D01*
X105773691Y-96435000D01*
X107189250Y-96435000D01*
X107348000Y-96276250D01*
X107348000Y-96139517D01*
X107362745Y-96017353D01*
X107479630Y-96134238D01*
X107506778Y-96107090D01*
X107602000Y-96137507D01*
X107602000Y-96276250D01*
X107760750Y-96435000D01*
X107894729Y-96435000D01*
X107935247Y-96561845D01*
X107888815Y-96581078D01*
X107777333Y-96692560D01*
X105900000Y-96692560D01*
X105652235Y-96741843D01*
X105442191Y-96882191D01*
X105301843Y-97092235D01*
X105252560Y-97340000D01*
X104710000Y-97340000D01*
X104710000Y-90594090D01*
X104752596Y-90551494D01*
X104811881Y-90511881D01*
X104968805Y-90277028D01*
X105010000Y-90069926D01*
X105010000Y-90069925D01*
X105023909Y-90000001D01*
X105010000Y-89930076D01*
X105010000Y-87036051D01*
X105105259Y-87266026D01*
X105733974Y-87894741D01*
X106555431Y-88235000D01*
X107444569Y-88235000D01*
X108266026Y-87894741D01*
X108894741Y-87266026D01*
X109235000Y-86444569D01*
X109235000Y-85555431D01*
X108894741Y-84733974D01*
X108266026Y-84105259D01*
X108036051Y-84010000D01*
X111790000Y-84010000D01*
X111790001Y-84449278D01*
X111345113Y-84265000D01*
X110654887Y-84265000D01*
X110017201Y-84529138D01*
X109529138Y-85017201D01*
X109265000Y-85654887D01*
X109265000Y-86345113D01*
X109529138Y-86982799D01*
X110017201Y-87470862D01*
X110654887Y-87735000D01*
X111345113Y-87735000D01*
X111982799Y-87470862D01*
X112470862Y-86982799D01*
X112735000Y-86345113D01*
X112735000Y-86171198D01*
X113000000Y-86223909D01*
X113069926Y-86210000D01*
X115930076Y-86210000D01*
X116000000Y-86223909D01*
X116069924Y-86210000D01*
X116069926Y-86210000D01*
X116277028Y-86168805D01*
X116368491Y-86107691D01*
X140561000Y-86107691D01*
X140561000Y-86298250D01*
X140719750Y-86457000D01*
X141719000Y-86457000D01*
X141719000Y-85757750D01*
X141973000Y-85757750D01*
X141973000Y-86457000D01*
X143878000Y-86457000D01*
X143878000Y-85757750D01*
X144132000Y-85757750D01*
X144132000Y-86457000D01*
X145131250Y-86457000D01*
X145265000Y-86323250D01*
X145265000Y-86345113D01*
X145529138Y-86982799D01*
X146017201Y-87470862D01*
X146654887Y-87735000D01*
X147345113Y-87735000D01*
X147982799Y-87470862D01*
X148470862Y-86982799D01*
X148735000Y-86345113D01*
X148735000Y-85654887D01*
X148470862Y-85017201D01*
X147982799Y-84529138D01*
X147345113Y-84265000D01*
X146654887Y-84265000D01*
X146017201Y-84529138D01*
X145529138Y-85017201D01*
X145265000Y-85654887D01*
X145265000Y-86047336D01*
X145193327Y-85874302D01*
X145014699Y-85695673D01*
X144781310Y-85599000D01*
X144290750Y-85599000D01*
X144132000Y-85757750D01*
X143878000Y-85757750D01*
X143719250Y-85599000D01*
X143228690Y-85599000D01*
X142995301Y-85695673D01*
X142925500Y-85765474D01*
X142855699Y-85695673D01*
X142622310Y-85599000D01*
X142131750Y-85599000D01*
X141973000Y-85757750D01*
X141719000Y-85757750D01*
X141560250Y-85599000D01*
X141069690Y-85599000D01*
X140836301Y-85695673D01*
X140657673Y-85874302D01*
X140561000Y-86107691D01*
X116368491Y-86107691D01*
X116511881Y-86011881D01*
X116551493Y-85952597D01*
X116952603Y-85551489D01*
X117011880Y-85511881D01*
X117051488Y-85452604D01*
X117051491Y-85452601D01*
X117168805Y-85277029D01*
X117223909Y-85000000D01*
X117210000Y-84930074D01*
X117210000Y-83794091D01*
X117294091Y-83710000D01*
X143405910Y-83710000D01*
X143448506Y-83752596D01*
X143448506Y-83752596D01*
G37*
X143448506Y-83752596D02*
X143488119Y-83811881D01*
X143722972Y-83968805D01*
X143930074Y-84010000D01*
X143930075Y-84010000D01*
X143999999Y-84023909D01*
X144069924Y-84010000D01*
X149963949Y-84010000D01*
X149733974Y-84105259D01*
X149105259Y-84733974D01*
X148765000Y-85555431D01*
X148765000Y-86444569D01*
X149105259Y-87266026D01*
X149733974Y-87894741D01*
X150555431Y-88235000D01*
X151444569Y-88235000D01*
X152266026Y-87894741D01*
X152894741Y-87266026D01*
X152990000Y-87036051D01*
X152990001Y-89930071D01*
X152976091Y-90000000D01*
X153023188Y-90236769D01*
X153031196Y-90277028D01*
X153188120Y-90511881D01*
X153247402Y-90551492D01*
X153290000Y-90594090D01*
X153290001Y-99430070D01*
X153290000Y-99430075D01*
X153290001Y-116430070D01*
X153290000Y-116430075D01*
X153290001Y-125405909D01*
X153247402Y-125448508D01*
X153188120Y-125488119D01*
X153128256Y-125577712D01*
X153031196Y-125722972D01*
X152976091Y-126000000D01*
X152990001Y-126069929D01*
X152990000Y-128963949D01*
X152894741Y-128733974D01*
X152266026Y-128105259D01*
X151444569Y-127765000D01*
X150555431Y-127765000D01*
X149733974Y-128105259D01*
X149105259Y-128733974D01*
X148765000Y-129555431D01*
X148765000Y-130444569D01*
X149105259Y-131266026D01*
X149733974Y-131894741D01*
X149963949Y-131990000D01*
X144069924Y-131990000D01*
X143999999Y-131976091D01*
X143930075Y-131990000D01*
X143930074Y-131990000D01*
X143722972Y-132031195D01*
X143488119Y-132188119D01*
X143448506Y-132247404D01*
X143405910Y-132290000D01*
X114594090Y-132290000D01*
X114551494Y-132247404D01*
X114511881Y-132188119D01*
X114277028Y-132031195D01*
X114069926Y-131990000D01*
X114069924Y-131990000D01*
X114000000Y-131976091D01*
X113930076Y-131990000D01*
X108036051Y-131990000D01*
X108266026Y-131894741D01*
X108894741Y-131266026D01*
X109235000Y-130444569D01*
X109235000Y-129654887D01*
X109265000Y-129654887D01*
X109265000Y-130345113D01*
X109529138Y-130982799D01*
X110017201Y-131470862D01*
X110654887Y-131735000D01*
X111345113Y-131735000D01*
X111982799Y-131470862D01*
X112470862Y-130982799D01*
X112735000Y-130345113D01*
X112735000Y-129654887D01*
X112470862Y-129017201D01*
X111982799Y-128529138D01*
X111345113Y-128265000D01*
X110654887Y-128265000D01*
X110017201Y-128529138D01*
X109529138Y-129017201D01*
X109265000Y-129654887D01*
X109235000Y-129654887D01*
X109235000Y-129555431D01*
X108894741Y-128733974D01*
X108266026Y-128105259D01*
X107444569Y-127765000D01*
X106555431Y-127765000D01*
X105733974Y-128105259D01*
X105105259Y-128733974D01*
X105010000Y-128963949D01*
X105010000Y-126069924D01*
X105023909Y-125999999D01*
X105002383Y-125891783D01*
X104968805Y-125722972D01*
X104811881Y-125488119D01*
X104752596Y-125448506D01*
X104710000Y-125405910D01*
X104710000Y-97340000D01*
X105252560Y-97340000D01*
X105252560Y-98340000D01*
X105301843Y-98587765D01*
X105442191Y-98797809D01*
X105652235Y-98938157D01*
X105900000Y-98987440D01*
X107777333Y-98987440D01*
X107888815Y-99098922D01*
X107915560Y-99110000D01*
X107888815Y-99121078D01*
X107777333Y-99232560D01*
X105900000Y-99232560D01*
X105652235Y-99281843D01*
X105442191Y-99422191D01*
X105301843Y-99632235D01*
X105252560Y-99880000D01*
X105252560Y-100880000D01*
X105301843Y-101127765D01*
X105442191Y-101337809D01*
X105652235Y-101478157D01*
X105900000Y-101527440D01*
X107777333Y-101527440D01*
X107888815Y-101638922D01*
X107915560Y-101650000D01*
X107888815Y-101661078D01*
X107777333Y-101772560D01*
X105900000Y-101772560D01*
X105652235Y-101821843D01*
X105442191Y-101962191D01*
X105301843Y-102172235D01*
X105252560Y-102420000D01*
X105252560Y-103420000D01*
X105301843Y-103667765D01*
X105442191Y-103877809D01*
X105652235Y-104018157D01*
X105900000Y-104067440D01*
X107777333Y-104067440D01*
X107888815Y-104178922D01*
X107915560Y-104190000D01*
X107888815Y-104201078D01*
X107777333Y-104312560D01*
X105900000Y-104312560D01*
X105652235Y-104361843D01*
X105442191Y-104502191D01*
X105301843Y-104712235D01*
X105252560Y-104960000D01*
X105252560Y-105960000D01*
X105301843Y-106207765D01*
X105442191Y-106417809D01*
X105652235Y-106558157D01*
X105900000Y-106607440D01*
X107777333Y-106607440D01*
X107888815Y-106718922D01*
X107915560Y-106730000D01*
X107888815Y-106741078D01*
X107777333Y-106852560D01*
X105900000Y-106852560D01*
X105652235Y-106901843D01*
X105442191Y-107042191D01*
X105301843Y-107252235D01*
X105252560Y-107500000D01*
X105252560Y-108500000D01*
X105301843Y-108747765D01*
X105442191Y-108957809D01*
X105652235Y-109098157D01*
X105900000Y-109147440D01*
X107777333Y-109147440D01*
X107888815Y-109258922D01*
X107915560Y-109270000D01*
X107888815Y-109281078D01*
X107777333Y-109392560D01*
X105900000Y-109392560D01*
X105652235Y-109441843D01*
X105442191Y-109582191D01*
X105301843Y-109792235D01*
X105252560Y-110040000D01*
X105252560Y-111040000D01*
X105301843Y-111287765D01*
X105442191Y-111497809D01*
X105652235Y-111638157D01*
X105900000Y-111687440D01*
X107777333Y-111687440D01*
X107888815Y-111798922D01*
X107915560Y-111810000D01*
X107888815Y-111821078D01*
X107777333Y-111932560D01*
X105900000Y-111932560D01*
X105652235Y-111981843D01*
X105442191Y-112122191D01*
X105301843Y-112332235D01*
X105252560Y-112580000D01*
X105252560Y-113580000D01*
X105301843Y-113827765D01*
X105442191Y-114037809D01*
X105652235Y-114178157D01*
X105900000Y-114227440D01*
X107777333Y-114227440D01*
X107888815Y-114338922D01*
X107915560Y-114350000D01*
X107888815Y-114361078D01*
X107777333Y-114472560D01*
X105900000Y-114472560D01*
X105652235Y-114521843D01*
X105442191Y-114662191D01*
X105301843Y-114872235D01*
X105252560Y-115120000D01*
X105252560Y-116120000D01*
X105301843Y-116367765D01*
X105442191Y-116577809D01*
X105652235Y-116718157D01*
X105900000Y-116767440D01*
X107777333Y-116767440D01*
X107888815Y-116878922D01*
X107915560Y-116890000D01*
X107888815Y-116901078D01*
X107777333Y-117012560D01*
X105900000Y-117012560D01*
X105652235Y-117061843D01*
X105442191Y-117202191D01*
X105301843Y-117412235D01*
X105252560Y-117660000D01*
X105252560Y-118660000D01*
X105301843Y-118907765D01*
X105442191Y-119117809D01*
X105652235Y-119258157D01*
X105900000Y-119307440D01*
X107777333Y-119307440D01*
X107888815Y-119418922D01*
X107915560Y-119430000D01*
X107888815Y-119441078D01*
X107777333Y-119552560D01*
X107524243Y-119552560D01*
X107475000Y-119542765D01*
X107425757Y-119552560D01*
X105900000Y-119552560D01*
X105652235Y-119601843D01*
X105442191Y-119742191D01*
X105301843Y-119952235D01*
X105252560Y-120200000D01*
X105252560Y-121200000D01*
X105301843Y-121447765D01*
X105442191Y-121657809D01*
X105652235Y-121798157D01*
X105900000Y-121847440D01*
X106340000Y-121847440D01*
X106340001Y-122092560D01*
X105900000Y-122092560D01*
X105652235Y-122141843D01*
X105442191Y-122282191D01*
X105301843Y-122492235D01*
X105252560Y-122740000D01*
X105252560Y-123740000D01*
X105301843Y-123987765D01*
X105442191Y-124197809D01*
X105652235Y-124338157D01*
X105900000Y-124387440D01*
X106340000Y-124387440D01*
X106340001Y-124632560D01*
X105900000Y-124632560D01*
X105652235Y-124681843D01*
X105442191Y-124822191D01*
X105301843Y-125032235D01*
X105252560Y-125280000D01*
X105252560Y-126280000D01*
X105301843Y-126527765D01*
X105442191Y-126737809D01*
X105652235Y-126878157D01*
X105900000Y-126927440D01*
X107425757Y-126927440D01*
X107475000Y-126937235D01*
X107524243Y-126927440D01*
X107777333Y-126927440D01*
X107888815Y-127038922D01*
X108434615Y-127265000D01*
X109025385Y-127265000D01*
X109571185Y-127038922D01*
X109988922Y-126621185D01*
X110000000Y-126594440D01*
X110011078Y-126621185D01*
X110428815Y-127038922D01*
X110974615Y-127265000D01*
X111565385Y-127265000D01*
X112111185Y-127038922D01*
X112222667Y-126927440D01*
X112475757Y-126927440D01*
X112525000Y-126937235D01*
X112574243Y-126927440D01*
X114100000Y-126927440D01*
X114162541Y-126915000D01*
X116062749Y-126915000D01*
X115962191Y-126982191D01*
X115821843Y-127192235D01*
X115772560Y-127440000D01*
X115772560Y-130940000D01*
X115821843Y-131187765D01*
X115962191Y-131397809D01*
X116172235Y-131538157D01*
X116420000Y-131587440D01*
X119220000Y-131587440D01*
X119467765Y-131538157D01*
X119677809Y-131397809D01*
X119818157Y-131187765D01*
X119867440Y-130940000D01*
X119867440Y-130435644D01*
X120190978Y-130500000D01*
X120449022Y-130500000D01*
X120831136Y-130423993D01*
X121264457Y-130134457D01*
X121320000Y-130051331D01*
X121375543Y-130134457D01*
X121808864Y-130423993D01*
X122190978Y-130500000D01*
X122449022Y-130500000D01*
X122831136Y-130423993D01*
X123124032Y-130228286D01*
X123187191Y-130322809D01*
X123397235Y-130463157D01*
X123645000Y-130512440D01*
X124772560Y-130512440D01*
X124772560Y-130940000D01*
X124821843Y-131187765D01*
X124962191Y-131397809D01*
X125172235Y-131538157D01*
X125420000Y-131587440D01*
X128220000Y-131587440D01*
X128467765Y-131538157D01*
X128677809Y-131397809D01*
X128818157Y-131187765D01*
X128867440Y-130940000D01*
X128867440Y-129393636D01*
X128897745Y-129438990D01*
X129089712Y-129726289D01*
X129184479Y-129789611D01*
X130118389Y-130723521D01*
X130181711Y-130818289D01*
X130453559Y-130999932D01*
X130557145Y-131069146D01*
X130999999Y-131157235D01*
X131111782Y-131135000D01*
X134576723Y-131135000D01*
X134692191Y-131307809D01*
X134902235Y-131448157D01*
X135150000Y-131497440D01*
X136850000Y-131497440D01*
X137097765Y-131448157D01*
X137307809Y-131307809D01*
X137448157Y-131097765D01*
X137468739Y-130994292D01*
X137773076Y-131271645D01*
X138183110Y-131441476D01*
X138413000Y-131320155D01*
X138413000Y-130127000D01*
X138667000Y-130127000D01*
X138667000Y-131320155D01*
X138896890Y-131441476D01*
X139306924Y-131271645D01*
X139735183Y-130881358D01*
X139981486Y-130356892D01*
X139860819Y-130127000D01*
X138667000Y-130127000D01*
X138413000Y-130127000D01*
X138393000Y-130127000D01*
X138393000Y-129873000D01*
X138413000Y-129873000D01*
X138413000Y-128679845D01*
X138667000Y-128679845D01*
X138667000Y-129873000D01*
X139860819Y-129873000D01*
X139975303Y-129654887D01*
X145265000Y-129654887D01*
X145265000Y-130345113D01*
X145529138Y-130982799D01*
X146017201Y-131470862D01*
X146654887Y-131735000D01*
X147345113Y-131735000D01*
X147982799Y-131470862D01*
X148470862Y-130982799D01*
X148735000Y-130345113D01*
X148735000Y-129654887D01*
X148470862Y-129017201D01*
X147982799Y-128529138D01*
X147345113Y-128265000D01*
X146654887Y-128265000D01*
X146017201Y-128529138D01*
X145529138Y-129017201D01*
X145265000Y-129654887D01*
X139975303Y-129654887D01*
X139981486Y-129643108D01*
X139735183Y-129118642D01*
X139306924Y-128728355D01*
X138896890Y-128558524D01*
X138667000Y-128679845D01*
X138413000Y-128679845D01*
X138183110Y-128558524D01*
X137773076Y-128728355D01*
X137468739Y-129005708D01*
X137448157Y-128902235D01*
X137307809Y-128692191D01*
X137097765Y-128551843D01*
X136850000Y-128502560D01*
X135150000Y-128502560D01*
X134902235Y-128551843D01*
X134692191Y-128692191D01*
X134576723Y-128865000D01*
X131470132Y-128865000D01*
X131043000Y-128437869D01*
X131043000Y-127269783D01*
X131065235Y-127158000D01*
X130977146Y-126715145D01*
X130899065Y-126598289D01*
X130726289Y-126339711D01*
X130631521Y-126276389D01*
X130027613Y-125672481D01*
X129964289Y-125577711D01*
X129588855Y-125326854D01*
X129257783Y-125261000D01*
X129146000Y-125238765D01*
X129034217Y-125261000D01*
X125817026Y-125261000D01*
X125838327Y-125239699D01*
X125935000Y-125006310D01*
X125935000Y-124865750D01*
X125776250Y-124707000D01*
X124427000Y-124707000D01*
X124427000Y-125356250D01*
X124494352Y-125423602D01*
X124263711Y-125577711D01*
X124200389Y-125672479D01*
X123596479Y-126276389D01*
X123501712Y-126339711D01*
X123430384Y-126446461D01*
X123389146Y-126239145D01*
X123331318Y-126152600D01*
X123138289Y-125863711D01*
X123043521Y-125800389D01*
X122299613Y-125056481D01*
X122236289Y-124961711D01*
X122092674Y-124865750D01*
X122665000Y-124865750D01*
X122665000Y-125006310D01*
X122761673Y-125239699D01*
X122940302Y-125418327D01*
X123173691Y-125515000D01*
X124014250Y-125515000D01*
X124173000Y-125356250D01*
X124173000Y-124707000D01*
X122823750Y-124707000D01*
X122665000Y-124865750D01*
X122092674Y-124865750D01*
X121860855Y-124710854D01*
X121529783Y-124645000D01*
X121418000Y-124622765D01*
X121306217Y-124645000D01*
X114162541Y-124645000D01*
X114100000Y-124632560D01*
X112616433Y-124632560D01*
X112531999Y-124615765D01*
X112447566Y-124632560D01*
X112222667Y-124632560D01*
X112111185Y-124521078D01*
X112084440Y-124510000D01*
X112111185Y-124498922D01*
X112222667Y-124387440D01*
X114100000Y-124387440D01*
X114347765Y-124338157D01*
X114557809Y-124197809D01*
X114698157Y-123987765D01*
X114747440Y-123740000D01*
X114747440Y-122740000D01*
X114698157Y-122492235D01*
X114557809Y-122282191D01*
X114347765Y-122141843D01*
X114100000Y-122092560D01*
X112222667Y-122092560D01*
X112111185Y-121981078D01*
X112084440Y-121970000D01*
X112111185Y-121958922D01*
X112222667Y-121847440D01*
X114100000Y-121847440D01*
X114347765Y-121798157D01*
X114557809Y-121657809D01*
X114698157Y-121447765D01*
X114713378Y-121371242D01*
X114897929Y-121247929D01*
X114940331Y-121184470D01*
X115406473Y-120718329D01*
X115469929Y-120675929D01*
X115637904Y-120424537D01*
X115682000Y-120202852D01*
X115682000Y-120202848D01*
X115696888Y-120128001D01*
X115682000Y-120053154D01*
X115682000Y-111724801D01*
X115732802Y-111674000D01*
X116740153Y-111674000D01*
X116815000Y-111688888D01*
X116889847Y-111674000D01*
X116889852Y-111674000D01*
X117111537Y-111629904D01*
X117362929Y-111461929D01*
X117405331Y-111398470D01*
X117946473Y-110857329D01*
X118009929Y-110814929D01*
X118177904Y-110563537D01*
X118222000Y-110341852D01*
X118222000Y-110341848D01*
X118236888Y-110267001D01*
X118222000Y-110192154D01*
X118222000Y-104955898D01*
X118332191Y-105120809D01*
X118480000Y-105219573D01*
X118480000Y-105366152D01*
X118465112Y-105441000D01*
X118480000Y-105515847D01*
X118480000Y-105515851D01*
X118524096Y-105737536D01*
X118692071Y-105988929D01*
X118755529Y-106031330D01*
X119157672Y-106433475D01*
X119200071Y-106496929D01*
X119263524Y-106539327D01*
X119263526Y-106539329D01*
X119349670Y-106596888D01*
X119451463Y-106664904D01*
X119673148Y-106709000D01*
X119673152Y-106709000D01*
X119747999Y-106723888D01*
X119797008Y-106714139D01*
X119877000Y-106794131D01*
X119877001Y-108626148D01*
X119862112Y-108701000D01*
X119877001Y-108775852D01*
X119911224Y-108947903D01*
X119921097Y-108997537D01*
X120042038Y-109178537D01*
X120089072Y-109248929D01*
X120152528Y-109291329D01*
X120428560Y-109567361D01*
X120428560Y-109640000D01*
X120477843Y-109887765D01*
X120618191Y-110097809D01*
X120681334Y-110140000D01*
X120618191Y-110182191D01*
X120477843Y-110392235D01*
X120428560Y-110640000D01*
X120428560Y-111140000D01*
X120477843Y-111387765D01*
X120618191Y-111597809D01*
X120828235Y-111738157D01*
X121076000Y-111787440D01*
X121976000Y-111787440D01*
X122223765Y-111738157D01*
X122355700Y-111650000D01*
X122474300Y-111650000D01*
X122606235Y-111738157D01*
X122823771Y-111781427D01*
X122671587Y-111933611D01*
X122611000Y-111921560D01*
X121711000Y-111921560D01*
X121463235Y-111970843D01*
X121253191Y-112111191D01*
X121112843Y-112321235D01*
X121063560Y-112569000D01*
X121063560Y-113069000D01*
X121112843Y-113316765D01*
X121253191Y-113526809D01*
X121316334Y-113569000D01*
X121253191Y-113611191D01*
X121112843Y-113821235D01*
X121063560Y-114069000D01*
X121063560Y-114569000D01*
X121112843Y-114816765D01*
X121212559Y-114966000D01*
X121112843Y-115115235D01*
X121063560Y-115363000D01*
X121063560Y-115863000D01*
X121112843Y-116110765D01*
X121253191Y-116320809D01*
X121316334Y-116363000D01*
X121253191Y-116405191D01*
X121112843Y-116615235D01*
X121063560Y-116863000D01*
X121063560Y-117363000D01*
X121112843Y-117610765D01*
X121253191Y-117820809D01*
X121463235Y-117961157D01*
X121711000Y-118010440D01*
X122611000Y-118010440D01*
X122652560Y-118002173D01*
X122652560Y-118530000D01*
X122701843Y-118777765D01*
X122760132Y-118865000D01*
X122701843Y-118952235D01*
X122652560Y-119200000D01*
X122652560Y-119800000D01*
X122701843Y-120047765D01*
X122760132Y-120135000D01*
X122701843Y-120222235D01*
X122652560Y-120470000D01*
X122652560Y-120732758D01*
X119979835Y-118060034D01*
X119990000Y-118035494D01*
X119990000Y-117484506D01*
X119779147Y-116975460D01*
X119389540Y-116585853D01*
X118880494Y-116375000D01*
X118329506Y-116375000D01*
X117820460Y-116585853D01*
X117430853Y-116975460D01*
X117220000Y-117484506D01*
X117220000Y-118035494D01*
X117430853Y-118544540D01*
X117820460Y-118934147D01*
X118329506Y-119145000D01*
X118880494Y-119145000D01*
X118905034Y-119134835D01*
X122294671Y-122524473D01*
X122311728Y-122550000D01*
X119990000Y-122550000D01*
X119990000Y-122364506D01*
X119779147Y-121855460D01*
X119389540Y-121465853D01*
X118880494Y-121255000D01*
X118329506Y-121255000D01*
X117820460Y-121465853D01*
X117430853Y-121855460D01*
X117220000Y-122364506D01*
X117220000Y-122915494D01*
X117430853Y-123424540D01*
X117820460Y-123814147D01*
X118329506Y-124025000D01*
X118880494Y-124025000D01*
X118940137Y-124000295D01*
X118978463Y-124025904D01*
X119200148Y-124070000D01*
X119200152Y-124070000D01*
X119274999Y-124084888D01*
X119349846Y-124070000D01*
X122699666Y-124070000D01*
X122665000Y-124153690D01*
X122665000Y-124294250D01*
X122823750Y-124453000D01*
X124173000Y-124453000D01*
X124173000Y-124433000D01*
X124427000Y-124433000D01*
X124427000Y-124453000D01*
X125776250Y-124453000D01*
X125935000Y-124294250D01*
X125935000Y-124153690D01*
X125845232Y-123936972D01*
X125898157Y-123857765D01*
X125947440Y-123610000D01*
X125947440Y-123010000D01*
X125898157Y-122762235D01*
X125839868Y-122675000D01*
X125898157Y-122587765D01*
X125947440Y-122340000D01*
X125947440Y-121740000D01*
X125898157Y-121492235D01*
X125839868Y-121405000D01*
X125898157Y-121317765D01*
X125947440Y-121070000D01*
X125947440Y-120470000D01*
X125898157Y-120222235D01*
X125839868Y-120135000D01*
X125898157Y-120047765D01*
X125947440Y-119800000D01*
X125947440Y-119200000D01*
X125898157Y-118952235D01*
X125839868Y-118865000D01*
X125898157Y-118777765D01*
X125947440Y-118530000D01*
X125947440Y-118357362D01*
X126089474Y-118215328D01*
X126152930Y-118172928D01*
X126320905Y-117921536D01*
X126365001Y-117699851D01*
X126365001Y-117699847D01*
X126379889Y-117624999D01*
X126365001Y-117550151D01*
X126365001Y-115099849D01*
X126379889Y-115025001D01*
X126365001Y-114950153D01*
X126365001Y-114950149D01*
X126320905Y-114728464D01*
X126152930Y-114477072D01*
X126089474Y-114434672D01*
X125947440Y-114292638D01*
X125947440Y-114120000D01*
X125898157Y-113872235D01*
X125757809Y-113662191D01*
X125547765Y-113521843D01*
X125300000Y-113472560D01*
X123300000Y-113472560D01*
X123230004Y-113486483D01*
X123408929Y-113366929D01*
X123451331Y-113303470D01*
X124203802Y-112551000D01*
X130681425Y-112551000D01*
X130655765Y-112680000D01*
X130743854Y-113122855D01*
X130994711Y-113498289D01*
X131370145Y-113749146D01*
X131701217Y-113815000D01*
X131769484Y-113815000D01*
X131684071Y-113872071D01*
X131641671Y-113935527D01*
X131201530Y-114375669D01*
X131138071Y-114418071D01*
X130970096Y-114669464D01*
X130926000Y-114891149D01*
X130926000Y-114891153D01*
X130911112Y-114966000D01*
X130926000Y-115040847D01*
X130926001Y-124035148D01*
X130911112Y-124110000D01*
X130970097Y-124406537D01*
X131086001Y-124579999D01*
X131138072Y-124657929D01*
X131201527Y-124700329D01*
X131565671Y-125064472D01*
X131608071Y-125127929D01*
X131859463Y-125295904D01*
X132081148Y-125340000D01*
X132081152Y-125340000D01*
X132155999Y-125354888D01*
X132230846Y-125340000D01*
X132245470Y-125340000D01*
X132452235Y-125478157D01*
X132700000Y-125527440D01*
X134700000Y-125527440D01*
X134947765Y-125478157D01*
X135157809Y-125337809D01*
X135298157Y-125127765D01*
X135347440Y-124880000D01*
X135347440Y-124283000D01*
X135427983Y-124283000D01*
X135771635Y-124140655D01*
X136034655Y-123877635D01*
X136177000Y-123533983D01*
X136177000Y-123162017D01*
X136034655Y-122818365D01*
X135894290Y-122678000D01*
X136042655Y-122529635D01*
X136185000Y-122185983D01*
X136185000Y-121814017D01*
X136042655Y-121470365D01*
X135947290Y-121375000D01*
X136042655Y-121279635D01*
X136185000Y-120935983D01*
X136185000Y-120564017D01*
X136042655Y-120220365D01*
X135962290Y-120140000D01*
X136034655Y-120067635D01*
X136177000Y-119723983D01*
X136177000Y-119379791D01*
X136316000Y-119407440D01*
X137216000Y-119407440D01*
X137463765Y-119358157D01*
X137673809Y-119217809D01*
X137814157Y-119007765D01*
X137863440Y-118760000D01*
X137863440Y-118260000D01*
X137814157Y-118012235D01*
X137673809Y-117802191D01*
X137610666Y-117760000D01*
X137673809Y-117717809D01*
X137814157Y-117507765D01*
X137863440Y-117260000D01*
X137863440Y-116760000D01*
X137814157Y-116512235D01*
X137673809Y-116302191D01*
X137630097Y-116272983D01*
X137739157Y-116109765D01*
X137788440Y-115862000D01*
X137788440Y-115062000D01*
X137739157Y-114814235D01*
X137670845Y-114712000D01*
X137739157Y-114609765D01*
X137788440Y-114362000D01*
X137788440Y-113562000D01*
X137739157Y-113314235D01*
X137598809Y-113104191D01*
X137388765Y-112963843D01*
X137141000Y-112914560D01*
X136391000Y-112914560D01*
X136143235Y-112963843D01*
X135933191Y-113104191D01*
X135792843Y-113314235D01*
X135743560Y-113562000D01*
X135743560Y-113660000D01*
X135320735Y-113660000D01*
X135481698Y-113593327D01*
X135660327Y-113414699D01*
X135757000Y-113181310D01*
X135757000Y-112965750D01*
X135598250Y-112807000D01*
X134849000Y-112807000D01*
X134849000Y-112827000D01*
X134595000Y-112827000D01*
X134595000Y-112807000D01*
X134575000Y-112807000D01*
X134575000Y-112553000D01*
X134595000Y-112553000D01*
X134595000Y-112551000D01*
X134849000Y-112551000D01*
X134849000Y-112553000D01*
X135434208Y-112553000D01*
X135499000Y-112565888D01*
X135563792Y-112553000D01*
X135598250Y-112553000D01*
X135606805Y-112544445D01*
X135795537Y-112506904D01*
X136046929Y-112338929D01*
X136089331Y-112275470D01*
X136742473Y-111622329D01*
X136805929Y-111579929D01*
X136973904Y-111328537D01*
X136976339Y-111316296D01*
X137090809Y-111239809D01*
X137231157Y-111029765D01*
X137280440Y-110782000D01*
X137280440Y-109982000D01*
X137231157Y-109734235D01*
X137162845Y-109632000D01*
X137231157Y-109529765D01*
X137280440Y-109282000D01*
X137280440Y-108482000D01*
X137231157Y-108234235D01*
X137090809Y-108024191D01*
X136880765Y-107883843D01*
X136633000Y-107834560D01*
X135883000Y-107834560D01*
X135635235Y-107883843D01*
X135425191Y-108024191D01*
X135369000Y-108108286D01*
X135312809Y-108024191D01*
X135102765Y-107883843D01*
X135062405Y-107875815D01*
X135085157Y-107841765D01*
X135134440Y-107594000D01*
X135134440Y-106844000D01*
X135097502Y-106658299D01*
X136481477Y-105274326D01*
X136544930Y-105231928D01*
X136587328Y-105168475D01*
X136587330Y-105168473D01*
X136712904Y-104980537D01*
X136712905Y-104980536D01*
X136757001Y-104758851D01*
X136757001Y-104758847D01*
X136771889Y-104684000D01*
X136757001Y-104609153D01*
X136757001Y-102907848D01*
X136771889Y-102833001D01*
X136757001Y-102758154D01*
X136757001Y-102758149D01*
X136712905Y-102536464D01*
X136544930Y-102285072D01*
X136481474Y-102242672D01*
X136339440Y-102100638D01*
X136339440Y-102028000D01*
X136290157Y-101780235D01*
X136286659Y-101775000D01*
X139364169Y-101775000D01*
X139291765Y-102139000D01*
X139326001Y-102311116D01*
X139326000Y-112568217D01*
X139303765Y-112680000D01*
X139326000Y-112791782D01*
X139326001Y-118349212D01*
X139303765Y-118461000D01*
X139391854Y-118903854D01*
X139419951Y-118945904D01*
X139642712Y-119279289D01*
X139737479Y-119342611D01*
X140102560Y-119707691D01*
X140102560Y-122250000D01*
X140151843Y-122497765D01*
X140292191Y-122707809D01*
X140502235Y-122848157D01*
X140750000Y-122897440D01*
X144250000Y-122897440D01*
X144497765Y-122848157D01*
X144707809Y-122707809D01*
X144848157Y-122497765D01*
X144897440Y-122250000D01*
X144897440Y-120785750D01*
X146115000Y-120785750D01*
X146115000Y-122376310D01*
X146211673Y-122609699D01*
X146390302Y-122788327D01*
X146623691Y-122885000D01*
X148214250Y-122885000D01*
X148373000Y-122726250D01*
X148373000Y-120627000D01*
X148627000Y-120627000D01*
X148627000Y-122726250D01*
X148785750Y-122885000D01*
X150376309Y-122885000D01*
X150609698Y-122788327D01*
X150788327Y-122609699D01*
X150885000Y-122376310D01*
X150885000Y-120785750D01*
X150726250Y-120627000D01*
X148627000Y-120627000D01*
X148373000Y-120627000D01*
X146273750Y-120627000D01*
X146115000Y-120785750D01*
X144897440Y-120785750D01*
X144897440Y-118750000D01*
X144848157Y-118502235D01*
X144707809Y-118292191D01*
X144566005Y-118197440D01*
X146424663Y-118197440D01*
X146390302Y-118211673D01*
X146211673Y-118390301D01*
X146115000Y-118623690D01*
X146115000Y-120214250D01*
X146273750Y-120373000D01*
X148373000Y-120373000D01*
X148373000Y-118273750D01*
X148627000Y-118273750D01*
X148627000Y-120373000D01*
X150726250Y-120373000D01*
X150885000Y-120214250D01*
X150885000Y-118623690D01*
X150788327Y-118390301D01*
X150609698Y-118211673D01*
X150376309Y-118115000D01*
X148785750Y-118115000D01*
X148627000Y-118273750D01*
X148373000Y-118273750D01*
X148214250Y-118115000D01*
X147547388Y-118115000D01*
X147707809Y-118007809D01*
X147848157Y-117797765D01*
X147897440Y-117550000D01*
X147897440Y-114050000D01*
X147848157Y-113802235D01*
X147707809Y-113592191D01*
X147497765Y-113451843D01*
X147250000Y-113402560D01*
X143750000Y-113402560D01*
X143502235Y-113451843D01*
X143292191Y-113592191D01*
X143151843Y-113802235D01*
X143102560Y-114050000D01*
X143102560Y-117550000D01*
X143151843Y-117797765D01*
X143292191Y-118007809D01*
X143433995Y-118102560D01*
X141707691Y-118102560D01*
X141596000Y-117990869D01*
X141596000Y-113690000D01*
X141675250Y-113690000D01*
X141834000Y-113531250D01*
X141834000Y-112807000D01*
X142088000Y-112807000D01*
X142088000Y-113531250D01*
X142246750Y-113690000D01*
X142487309Y-113690000D01*
X142720698Y-113593327D01*
X142899327Y-113414699D01*
X142996000Y-113181310D01*
X142996000Y-112965750D01*
X142837250Y-112807000D01*
X142088000Y-112807000D01*
X141834000Y-112807000D01*
X141814000Y-112807000D01*
X141814000Y-112553000D01*
X141834000Y-112553000D01*
X141834000Y-111828750D01*
X142088000Y-111828750D01*
X142088000Y-112553000D01*
X142837250Y-112553000D01*
X142996000Y-112394250D01*
X142996000Y-112178690D01*
X142899327Y-111945301D01*
X142720698Y-111766673D01*
X142487309Y-111670000D01*
X142246750Y-111670000D01*
X142088000Y-111828750D01*
X141834000Y-111828750D01*
X141675250Y-111670000D01*
X141596000Y-111670000D01*
X141596000Y-107088974D01*
X148485000Y-107088974D01*
X148485000Y-107811026D01*
X148761317Y-108478115D01*
X149271885Y-108988683D01*
X149938974Y-109265000D01*
X150661026Y-109265000D01*
X151328115Y-108988683D01*
X151838683Y-108478115D01*
X152115000Y-107811026D01*
X152115000Y-107088974D01*
X151838683Y-106421885D01*
X151328115Y-105911317D01*
X150661026Y-105635000D01*
X149938974Y-105635000D01*
X149271885Y-105911317D01*
X148761317Y-106421885D01*
X148485000Y-107088974D01*
X141596000Y-107088974D01*
X141596000Y-102262783D01*
X141618235Y-102151000D01*
X141544517Y-101780395D01*
X141543444Y-101775000D01*
X144322172Y-101775000D01*
X144507172Y-101960000D01*
X144277376Y-102189796D01*
X144065000Y-102702517D01*
X144065000Y-103257483D01*
X144277376Y-103770204D01*
X144669796Y-104162624D01*
X145182517Y-104375000D01*
X145737483Y-104375000D01*
X146250204Y-104162624D01*
X146605000Y-103807828D01*
X146605000Y-104277483D01*
X146817376Y-104790204D01*
X147209796Y-105182624D01*
X147722517Y-105395000D01*
X148277483Y-105395000D01*
X148790204Y-105182624D01*
X149182624Y-104790204D01*
X149395000Y-104277483D01*
X149395000Y-103722517D01*
X149182624Y-103209796D01*
X148790204Y-102817376D01*
X148598269Y-102737874D01*
X148000000Y-102139605D01*
X147401731Y-102737874D01*
X147209796Y-102817376D01*
X146855000Y-103172172D01*
X146855000Y-102711607D01*
X147021236Y-102759159D01*
X147820395Y-101960000D01*
X148179605Y-101960000D01*
X148978764Y-102759159D01*
X149220742Y-102689941D01*
X149407155Y-102167220D01*
X149379341Y-101612951D01*
X149220742Y-101230059D01*
X148978764Y-101160841D01*
X148179605Y-101960000D01*
X147820395Y-101960000D01*
X147021236Y-101160841D01*
X146855000Y-101208393D01*
X146855000Y-100747828D01*
X147209796Y-101102624D01*
X147401731Y-101182126D01*
X148000000Y-101780395D01*
X148598269Y-101182126D01*
X148790204Y-101102624D01*
X149182624Y-100710204D01*
X149395000Y-100197483D01*
X149395000Y-99642517D01*
X149182624Y-99129796D01*
X148790204Y-98737376D01*
X148277483Y-98525000D01*
X147722517Y-98525000D01*
X147209796Y-98737376D01*
X146855000Y-99092172D01*
X146855000Y-98622517D01*
X146642624Y-98109796D01*
X146250204Y-97717376D01*
X145737483Y-97505000D01*
X145182517Y-97505000D01*
X144669796Y-97717376D01*
X144277376Y-98109796D01*
X144065000Y-98622517D01*
X144065000Y-99177483D01*
X144277376Y-99690204D01*
X144507172Y-99920000D01*
X144322172Y-100105000D01*
X141581371Y-100105000D01*
X141584000Y-100091783D01*
X141584000Y-98440783D01*
X141606235Y-98329000D01*
X141518146Y-97886145D01*
X141503643Y-97864440D01*
X141267289Y-97510711D01*
X141172521Y-97447389D01*
X139818613Y-96093482D01*
X139755289Y-95998711D01*
X139436106Y-95785440D01*
X139798000Y-95785440D01*
X140045765Y-95736157D01*
X140255809Y-95595809D01*
X140396157Y-95385765D01*
X140445440Y-95138000D01*
X140445440Y-95088974D01*
X148485000Y-95088974D01*
X148485000Y-95811026D01*
X148761317Y-96478115D01*
X149271885Y-96988683D01*
X149938974Y-97265000D01*
X150661026Y-97265000D01*
X151328115Y-96988683D01*
X151838683Y-96478115D01*
X152115000Y-95811026D01*
X152115000Y-95088974D01*
X151838683Y-94421885D01*
X151328115Y-93911317D01*
X150661026Y-93635000D01*
X149938974Y-93635000D01*
X149271885Y-93911317D01*
X148761317Y-94421885D01*
X148485000Y-95088974D01*
X140445440Y-95088974D01*
X140445440Y-93138000D01*
X140396157Y-92890235D01*
X140385977Y-92875000D01*
X140778885Y-92875000D01*
X140948235Y-92988157D01*
X141196000Y-93037440D01*
X142496000Y-93037440D01*
X142743765Y-92988157D01*
X142913115Y-92875000D01*
X142937885Y-92875000D01*
X143107235Y-92988157D01*
X143355000Y-93037440D01*
X144655000Y-93037440D01*
X144902765Y-92988157D01*
X145112809Y-92847809D01*
X145253157Y-92637765D01*
X145302440Y-92390000D01*
X145302440Y-91690000D01*
X145253157Y-91442235D01*
X145112809Y-91232191D01*
X144902765Y-91091843D01*
X144893500Y-91090000D01*
X144902765Y-91088157D01*
X145112809Y-90947809D01*
X145253157Y-90737765D01*
X145302440Y-90490000D01*
X145302440Y-89790000D01*
X145253157Y-89542235D01*
X145112809Y-89332191D01*
X145082591Y-89312000D01*
X145112809Y-89291809D01*
X145253157Y-89081765D01*
X145302440Y-88834000D01*
X145302440Y-88134000D01*
X145253157Y-87886235D01*
X145112809Y-87676191D01*
X144902765Y-87535843D01*
X144874791Y-87530279D01*
X145014699Y-87472327D01*
X145193327Y-87293698D01*
X145290000Y-87060309D01*
X145290000Y-86869750D01*
X145131250Y-86711000D01*
X144132000Y-86711000D01*
X144132000Y-86731000D01*
X143878000Y-86731000D01*
X143878000Y-86711000D01*
X141973000Y-86711000D01*
X141973000Y-86731000D01*
X141719000Y-86731000D01*
X141719000Y-86711000D01*
X140719750Y-86711000D01*
X140561000Y-86869750D01*
X140561000Y-87060309D01*
X140657673Y-87293698D01*
X140836301Y-87472327D01*
X140976209Y-87530279D01*
X140948235Y-87535843D01*
X140738191Y-87676191D01*
X140597843Y-87886235D01*
X140548560Y-88134000D01*
X140548560Y-88834000D01*
X140597843Y-89081765D01*
X140738191Y-89291809D01*
X140768409Y-89312000D01*
X140738191Y-89332191D01*
X140597843Y-89542235D01*
X140548560Y-89790000D01*
X140548560Y-90490000D01*
X140597843Y-90737765D01*
X140738191Y-90947809D01*
X140948235Y-91088157D01*
X140957500Y-91090000D01*
X140948235Y-91091843D01*
X140778885Y-91205000D01*
X139578232Y-91205000D01*
X139495999Y-91188643D01*
X139413766Y-91205000D01*
X139413763Y-91205000D01*
X139170199Y-91253448D01*
X138893999Y-91437999D01*
X138847414Y-91507718D01*
X138265718Y-92089415D01*
X138196000Y-92135999D01*
X138149416Y-92205717D01*
X138011448Y-92412200D01*
X137995861Y-92490560D01*
X137798000Y-92490560D01*
X137550235Y-92539843D01*
X137340191Y-92680191D01*
X137199843Y-92890235D01*
X137150560Y-93138000D01*
X137150560Y-93291002D01*
X137090241Y-93303000D01*
X136846677Y-93351448D01*
X136570477Y-93535999D01*
X136523893Y-93605717D01*
X135264680Y-94864930D01*
X135264680Y-94477114D01*
X134977755Y-93784415D01*
X134447585Y-93254245D01*
X133754886Y-92967320D01*
X133005114Y-92967320D01*
X132312415Y-93254245D01*
X131849660Y-93717000D01*
X124410340Y-93717000D01*
X123947585Y-93254245D01*
X123836151Y-93208088D01*
X124266086Y-92778153D01*
X124515000Y-92177222D01*
X124515000Y-91526778D01*
X124266086Y-90925847D01*
X123836151Y-90495912D01*
X123947585Y-90449755D01*
X124477755Y-89919585D01*
X124764680Y-89226886D01*
X124764680Y-88477114D01*
X131495320Y-88477114D01*
X131495320Y-89226886D01*
X131782245Y-89919585D01*
X132312415Y-90449755D01*
X133005114Y-90736680D01*
X133754886Y-90736680D01*
X134447585Y-90449755D01*
X134977755Y-89919585D01*
X135074095Y-89687000D01*
X137256085Y-89687000D01*
X137257864Y-89695945D01*
X137619231Y-90236769D01*
X138160055Y-90598136D01*
X138636969Y-90693000D01*
X138959031Y-90693000D01*
X139435945Y-90598136D01*
X139976769Y-90236769D01*
X140338136Y-89695945D01*
X140465031Y-89058000D01*
X140338136Y-88420055D01*
X139976769Y-87879231D01*
X139435945Y-87517864D01*
X138959031Y-87423000D01*
X138636969Y-87423000D01*
X138160055Y-87517864D01*
X137619231Y-87879231D01*
X137527177Y-88017000D01*
X135074095Y-88017000D01*
X134977755Y-87784415D01*
X134447585Y-87254245D01*
X133754886Y-86967320D01*
X133005114Y-86967320D01*
X132312415Y-87254245D01*
X131782245Y-87784415D01*
X131495320Y-88477114D01*
X124764680Y-88477114D01*
X124477755Y-87784415D01*
X123947585Y-87254245D01*
X123254886Y-86967320D01*
X122505114Y-86967320D01*
X121812415Y-87254245D01*
X121282245Y-87784415D01*
X121185905Y-88017000D01*
X118986823Y-88017000D01*
X118894769Y-87879231D01*
X118353945Y-87517864D01*
X117877031Y-87423000D01*
X117554969Y-87423000D01*
X117078055Y-87517864D01*
X116537231Y-87879231D01*
X116175864Y-88420055D01*
X116048969Y-89058000D01*
X116175864Y-89695945D01*
X116537231Y-90236769D01*
X117078055Y-90598136D01*
X117554969Y-90693000D01*
X117877031Y-90693000D01*
X118353945Y-90598136D01*
X118894769Y-90236769D01*
X119256136Y-89695945D01*
X119257915Y-89687000D01*
X121185905Y-89687000D01*
X121282245Y-89919585D01*
X121812415Y-90449755D01*
X121923849Y-90495912D01*
X121493914Y-90925847D01*
X121245000Y-91526778D01*
X121245000Y-92177222D01*
X121493914Y-92778153D01*
X121923849Y-93208088D01*
X121812415Y-93254245D01*
X121282245Y-93784415D01*
X120995320Y-94477114D01*
X120995320Y-95226886D01*
X121282245Y-95919585D01*
X121586660Y-96224000D01*
X120082530Y-96224000D01*
X119875765Y-96085843D01*
X119628000Y-96036560D01*
X118828000Y-96036560D01*
X118580235Y-96085843D01*
X118551000Y-96105377D01*
X118551000Y-95785440D01*
X118716000Y-95785440D01*
X118963765Y-95736157D01*
X119173809Y-95595809D01*
X119314157Y-95385765D01*
X119363440Y-95138000D01*
X119363440Y-93138000D01*
X119314157Y-92890235D01*
X119173809Y-92680191D01*
X118963765Y-92539843D01*
X118716000Y-92490560D01*
X116716000Y-92490560D01*
X116468235Y-92539843D01*
X116258191Y-92680191D01*
X116117843Y-92890235D01*
X116068560Y-93138000D01*
X116068560Y-95138000D01*
X116117843Y-95385765D01*
X116258191Y-95595809D01*
X116468235Y-95736157D01*
X116716000Y-95785440D01*
X116881001Y-95785440D01*
X116881001Y-96218968D01*
X116870191Y-96226191D01*
X116729843Y-96436235D01*
X116680560Y-96684000D01*
X116680560Y-97434000D01*
X116729843Y-97681765D01*
X116870191Y-97891809D01*
X116890893Y-97905642D01*
X116893000Y-97916233D01*
X116893000Y-97916237D01*
X116915878Y-98031250D01*
X116941448Y-98159800D01*
X116941449Y-98159801D01*
X117126000Y-98436001D01*
X117195718Y-98482585D01*
X117828414Y-99115282D01*
X117874999Y-99185001D01*
X118084522Y-99325000D01*
X118151199Y-99369552D01*
X118477000Y-99434358D01*
X118559237Y-99418000D01*
X126387133Y-99418000D01*
X126533000Y-99563868D01*
X126533001Y-103891762D01*
X126516643Y-103974000D01*
X126581448Y-104299800D01*
X126622904Y-104361843D01*
X126766000Y-104576001D01*
X126835717Y-104622585D01*
X127154132Y-104941000D01*
X122911736Y-104941000D01*
X122989113Y-104552000D01*
X122877740Y-103992091D01*
X122560577Y-103517423D01*
X122176892Y-103261053D01*
X122381134Y-103164389D01*
X122757041Y-102749423D01*
X122917904Y-102361039D01*
X122795915Y-102139000D01*
X121653000Y-102139000D01*
X121653000Y-102159000D01*
X121399000Y-102159000D01*
X121399000Y-102139000D01*
X120256085Y-102139000D01*
X120213257Y-102216954D01*
X120183537Y-102197096D01*
X120115415Y-102183546D01*
X119937765Y-102064843D01*
X119690000Y-102015560D01*
X118790000Y-102015560D01*
X118542235Y-102064843D01*
X118410300Y-102153000D01*
X118032847Y-102153000D01*
X117958000Y-102138112D01*
X117883153Y-102153000D01*
X117883148Y-102153000D01*
X117661463Y-102197096D01*
X117527519Y-102286595D01*
X117391288Y-102082712D01*
X117015854Y-101831854D01*
X116572999Y-101743765D01*
X116365697Y-101785000D01*
X114162541Y-101785000D01*
X114100000Y-101772560D01*
X112222667Y-101772560D01*
X112113068Y-101662961D01*
X120134096Y-101662961D01*
X120256085Y-101885000D01*
X121399000Y-101885000D01*
X121399000Y-100741371D01*
X121653000Y-100741371D01*
X121653000Y-101885000D01*
X122795915Y-101885000D01*
X122917904Y-101662961D01*
X122757041Y-101274577D01*
X122381134Y-100859611D01*
X121875041Y-100620086D01*
X121653000Y-100741371D01*
X121399000Y-100741371D01*
X121176959Y-100620086D01*
X120670866Y-100859611D01*
X120294959Y-101274577D01*
X120134096Y-101662961D01*
X112113068Y-101662961D01*
X112111185Y-101661078D01*
X112084440Y-101650000D01*
X112111185Y-101638922D01*
X112222667Y-101527440D01*
X114100000Y-101527440D01*
X114347765Y-101478157D01*
X114557809Y-101337809D01*
X114698157Y-101127765D01*
X114747440Y-100880000D01*
X114747440Y-99880000D01*
X114698157Y-99632235D01*
X114557809Y-99422191D01*
X114347765Y-99281843D01*
X114100000Y-99232560D01*
X112222667Y-99232560D01*
X112111185Y-99121078D01*
X112084440Y-99110000D01*
X112111185Y-99098922D01*
X112222667Y-98987440D01*
X114100000Y-98987440D01*
X114347765Y-98938157D01*
X114557809Y-98797809D01*
X114698157Y-98587765D01*
X114747440Y-98340000D01*
X114747440Y-97340000D01*
X114698157Y-97092235D01*
X114557809Y-96882191D01*
X114347765Y-96741843D01*
X114100000Y-96692560D01*
X112222667Y-96692560D01*
X112111185Y-96581078D01*
X112084440Y-96570000D01*
X112111185Y-96558922D01*
X112222667Y-96447440D01*
X114100000Y-96447440D01*
X114347765Y-96398157D01*
X114557809Y-96257809D01*
X114698157Y-96047765D01*
X114747440Y-95800000D01*
X114747440Y-94800000D01*
X114698157Y-94552235D01*
X114557809Y-94342191D01*
X114347765Y-94201843D01*
X114100000Y-94152560D01*
X112222667Y-94152560D01*
X112111185Y-94041078D01*
X112084440Y-94030000D01*
X112111185Y-94018922D01*
X112222667Y-93907440D01*
X114100000Y-93907440D01*
X114347765Y-93858157D01*
X114557809Y-93717809D01*
X114698157Y-93507765D01*
X114747440Y-93260000D01*
X114747440Y-92260000D01*
X114698157Y-92012235D01*
X114557809Y-91802191D01*
X114347765Y-91661843D01*
X114100000Y-91612560D01*
X112222667Y-91612560D01*
X112111185Y-91501078D01*
X112084440Y-91490000D01*
X112111185Y-91478922D01*
X112222667Y-91367440D01*
X114100000Y-91367440D01*
X114347765Y-91318157D01*
X114557809Y-91177809D01*
X114698157Y-90967765D01*
X114747440Y-90720000D01*
X114747440Y-89720000D01*
X114698157Y-89472235D01*
X114557809Y-89262191D01*
X114347765Y-89121843D01*
X114100000Y-89072560D01*
X112222667Y-89072560D01*
X112111185Y-88961078D01*
X111565385Y-88735000D01*
X110974615Y-88735000D01*
X110428815Y-88961078D01*
X110011078Y-89378815D01*
X109991845Y-89425247D01*
X109773958Y-89355647D01*
X109641334Y-89488271D01*
X109588327Y-89360301D01*
X109499210Y-89271185D01*
X109594353Y-89176042D01*
X109514080Y-88924741D01*
X108958721Y-88723282D01*
X108368542Y-88749685D01*
X107945920Y-88924741D01*
X107894729Y-89085000D01*
X107760750Y-89085000D01*
X107602000Y-89243750D01*
X107602000Y-89382493D01*
X107506778Y-89412910D01*
X107479630Y-89385762D01*
X107362745Y-89502647D01*
X107348000Y-89380483D01*
X107348000Y-89243750D01*
X107189250Y-89085000D01*
X105773691Y-89085000D01*
X105540302Y-89181673D01*
X105361673Y-89360301D01*
X105265000Y-89593690D01*
X105265000Y-89934250D01*
X105423750Y-90093000D01*
X105778600Y-90093000D01*
X105776691Y-90098931D01*
X105796921Y-90347000D01*
X105423750Y-90347000D01*
X105265000Y-90505750D01*
X105265000Y-90846310D01*
X105361673Y-91079699D01*
X105540302Y-91258327D01*
X105773691Y-91355000D01*
X107189250Y-91355000D01*
X107348000Y-91196250D01*
X107348000Y-91059517D01*
X107362745Y-90937353D01*
X107479630Y-91054238D01*
X107506778Y-91027090D01*
X107602000Y-91057507D01*
X107602000Y-91196250D01*
X107760750Y-91355000D01*
X107894729Y-91355000D01*
X107937852Y-91490000D01*
X107894729Y-91625000D01*
X107760750Y-91625000D01*
X107602000Y-91783750D01*
X107602000Y-91922493D01*
X107506778Y-91952910D01*
X107479630Y-91925762D01*
X107362745Y-92042647D01*
X107348000Y-91920483D01*
X107348000Y-91783750D01*
X107189250Y-91625000D01*
X105773691Y-91625000D01*
X105540302Y-91721673D01*
X105361673Y-91900301D01*
X105265000Y-92133690D01*
X105265000Y-92474250D01*
X105423750Y-92633000D01*
X105778600Y-92633000D01*
X105776691Y-92638931D01*
X105796921Y-92887000D01*
X105423750Y-92887000D01*
X105265000Y-93045750D01*
X105265000Y-93386310D01*
X105361673Y-93619699D01*
X105540302Y-93798327D01*
X105773691Y-93895000D01*
X107189250Y-93895000D01*
X107348000Y-93736250D01*
X107348000Y-93599517D01*
X107362745Y-93477353D01*
X107479630Y-93594238D01*
X107506778Y-93567090D01*
X107602000Y-93597507D01*
X107602000Y-93736250D01*
X107760750Y-93895000D01*
X107894729Y-93895000D01*
X107937852Y-94030000D01*
X107894729Y-94165000D01*
X107760750Y-94165000D01*
X107602000Y-94323750D01*
X107602000Y-94462493D01*
X107506778Y-94492910D01*
X107479630Y-94465762D01*
X107362745Y-94582647D01*
X107348000Y-94460483D01*
X107348000Y-94323750D01*
X107189250Y-94165000D01*
X105773691Y-94165000D01*
X105540302Y-94261673D01*
X105361673Y-94440301D01*
X105265000Y-94673690D01*
X105265000Y-95014250D01*
X105423750Y-95173000D01*
X105778600Y-95173000D01*
X105776691Y-95178931D01*
X105796921Y-95427000D01*
X105423750Y-95427000D01*
X105265000Y-95585750D01*
X105265000Y-95926310D01*
X105361673Y-96159699D01*
X105540302Y-96338327D01*
X105773691Y-96435000D01*
X107189250Y-96435000D01*
X107348000Y-96276250D01*
X107348000Y-96139517D01*
X107362745Y-96017353D01*
X107479630Y-96134238D01*
X107506778Y-96107090D01*
X107602000Y-96137507D01*
X107602000Y-96276250D01*
X107760750Y-96435000D01*
X107894729Y-96435000D01*
X107935247Y-96561845D01*
X107888815Y-96581078D01*
X107777333Y-96692560D01*
X105900000Y-96692560D01*
X105652235Y-96741843D01*
X105442191Y-96882191D01*
X105301843Y-97092235D01*
X105252560Y-97340000D01*
X104710000Y-97340000D01*
X104710000Y-90594090D01*
X104752596Y-90551494D01*
X104811881Y-90511881D01*
X104968805Y-90277028D01*
X105010000Y-90069926D01*
X105010000Y-90069925D01*
X105023909Y-90000001D01*
X105010000Y-89930076D01*
X105010000Y-87036051D01*
X105105259Y-87266026D01*
X105733974Y-87894741D01*
X106555431Y-88235000D01*
X107444569Y-88235000D01*
X108266026Y-87894741D01*
X108894741Y-87266026D01*
X109235000Y-86444569D01*
X109235000Y-85555431D01*
X108894741Y-84733974D01*
X108266026Y-84105259D01*
X108036051Y-84010000D01*
X111790000Y-84010000D01*
X111790001Y-84449278D01*
X111345113Y-84265000D01*
X110654887Y-84265000D01*
X110017201Y-84529138D01*
X109529138Y-85017201D01*
X109265000Y-85654887D01*
X109265000Y-86345113D01*
X109529138Y-86982799D01*
X110017201Y-87470862D01*
X110654887Y-87735000D01*
X111345113Y-87735000D01*
X111982799Y-87470862D01*
X112470862Y-86982799D01*
X112735000Y-86345113D01*
X112735000Y-86171198D01*
X113000000Y-86223909D01*
X113069926Y-86210000D01*
X115930076Y-86210000D01*
X116000000Y-86223909D01*
X116069924Y-86210000D01*
X116069926Y-86210000D01*
X116277028Y-86168805D01*
X116368491Y-86107691D01*
X140561000Y-86107691D01*
X140561000Y-86298250D01*
X140719750Y-86457000D01*
X141719000Y-86457000D01*
X141719000Y-85757750D01*
X141973000Y-85757750D01*
X141973000Y-86457000D01*
X143878000Y-86457000D01*
X143878000Y-85757750D01*
X144132000Y-85757750D01*
X144132000Y-86457000D01*
X145131250Y-86457000D01*
X145265000Y-86323250D01*
X145265000Y-86345113D01*
X145529138Y-86982799D01*
X146017201Y-87470862D01*
X146654887Y-87735000D01*
X147345113Y-87735000D01*
X147982799Y-87470862D01*
X148470862Y-86982799D01*
X148735000Y-86345113D01*
X148735000Y-85654887D01*
X148470862Y-85017201D01*
X147982799Y-84529138D01*
X147345113Y-84265000D01*
X146654887Y-84265000D01*
X146017201Y-84529138D01*
X145529138Y-85017201D01*
X145265000Y-85654887D01*
X145265000Y-86047336D01*
X145193327Y-85874302D01*
X145014699Y-85695673D01*
X144781310Y-85599000D01*
X144290750Y-85599000D01*
X144132000Y-85757750D01*
X143878000Y-85757750D01*
X143719250Y-85599000D01*
X143228690Y-85599000D01*
X142995301Y-85695673D01*
X142925500Y-85765474D01*
X142855699Y-85695673D01*
X142622310Y-85599000D01*
X142131750Y-85599000D01*
X141973000Y-85757750D01*
X141719000Y-85757750D01*
X141560250Y-85599000D01*
X141069690Y-85599000D01*
X140836301Y-85695673D01*
X140657673Y-85874302D01*
X140561000Y-86107691D01*
X116368491Y-86107691D01*
X116511881Y-86011881D01*
X116551493Y-85952597D01*
X116952603Y-85551489D01*
X117011880Y-85511881D01*
X117051488Y-85452604D01*
X117051491Y-85452601D01*
X117168805Y-85277029D01*
X117223909Y-85000000D01*
X117210000Y-84930074D01*
X117210000Y-83794091D01*
X117294091Y-83710000D01*
X143405910Y-83710000D01*
X143448506Y-83752596D01*
G36*
X127654000Y-107346000D02*
X127634000Y-107346000D01*
X127634000Y-107366000D01*
X127380000Y-107366000D01*
X127380000Y-107346000D01*
X126630750Y-107346000D01*
X126472000Y-107504750D01*
X126472000Y-107720310D01*
X126568673Y-107953699D01*
X126578534Y-107963560D01*
X126246000Y-107963560D01*
X125998235Y-108012843D01*
X125788191Y-108153191D01*
X125647843Y-108363235D01*
X125634777Y-108428923D01*
X125456310Y-108355000D01*
X125240750Y-108355000D01*
X125082000Y-108513750D01*
X125082000Y-109263000D01*
X125102000Y-109263000D01*
X125102000Y-109517000D01*
X125082000Y-109517000D01*
X125082000Y-109537000D01*
X124828000Y-109537000D01*
X124828000Y-109517000D01*
X124232250Y-109517000D01*
X124230250Y-109515000D01*
X123431000Y-109515000D01*
X123431000Y-109537000D01*
X123177000Y-109537000D01*
X123177000Y-109515000D01*
X123157000Y-109515000D01*
X123157000Y-109265000D01*
X123177000Y-109265000D01*
X123177000Y-108663750D01*
X123431000Y-108663750D01*
X123431000Y-109265000D01*
X124230250Y-109265000D01*
X124232250Y-109263000D01*
X124828000Y-109263000D01*
X124828000Y-108513750D01*
X124669250Y-108355000D01*
X124453690Y-108355000D01*
X124220301Y-108451673D01*
X124083013Y-108588962D01*
X123880310Y-108505000D01*
X123589750Y-108505000D01*
X123431000Y-108663750D01*
X123177000Y-108663750D01*
X123018250Y-108505000D01*
X122727690Y-108505000D01*
X122494301Y-108601673D01*
X122421805Y-108674170D01*
X122223765Y-108541843D01*
X121976000Y-108492560D01*
X121503361Y-108492560D01*
X121397000Y-108386199D01*
X121397000Y-107211000D01*
X127654000Y-107211000D01*
X127654000Y-107346000D01*
X127654000Y-107346000D01*
G37*
X127654000Y-107346000D02*
X127634000Y-107346000D01*
X127634000Y-107366000D01*
X127380000Y-107366000D01*
X127380000Y-107346000D01*
X126630750Y-107346000D01*
X126472000Y-107504750D01*
X126472000Y-107720310D01*
X126568673Y-107953699D01*
X126578534Y-107963560D01*
X126246000Y-107963560D01*
X125998235Y-108012843D01*
X125788191Y-108153191D01*
X125647843Y-108363235D01*
X125634777Y-108428923D01*
X125456310Y-108355000D01*
X125240750Y-108355000D01*
X125082000Y-108513750D01*
X125082000Y-109263000D01*
X125102000Y-109263000D01*
X125102000Y-109517000D01*
X125082000Y-109517000D01*
X125082000Y-109537000D01*
X124828000Y-109537000D01*
X124828000Y-109517000D01*
X124232250Y-109517000D01*
X124230250Y-109515000D01*
X123431000Y-109515000D01*
X123431000Y-109537000D01*
X123177000Y-109537000D01*
X123177000Y-109515000D01*
X123157000Y-109515000D01*
X123157000Y-109265000D01*
X123177000Y-109265000D01*
X123177000Y-108663750D01*
X123431000Y-108663750D01*
X123431000Y-109265000D01*
X124230250Y-109265000D01*
X124232250Y-109263000D01*
X124828000Y-109263000D01*
X124828000Y-108513750D01*
X124669250Y-108355000D01*
X124453690Y-108355000D01*
X124220301Y-108451673D01*
X124083013Y-108588962D01*
X123880310Y-108505000D01*
X123589750Y-108505000D01*
X123431000Y-108663750D01*
X123177000Y-108663750D01*
X123018250Y-108505000D01*
X122727690Y-108505000D01*
X122494301Y-108601673D01*
X122421805Y-108674170D01*
X122223765Y-108541843D01*
X121976000Y-108492560D01*
X121503361Y-108492560D01*
X121397000Y-108386199D01*
X121397000Y-107211000D01*
X127654000Y-107211000D01*
X127654000Y-107346000D01*
G36*
X135249392Y-97528523D02*
X135261387Y-97540518D01*
X135324711Y-97635289D01*
X135700145Y-97886146D01*
X136031217Y-97952000D01*
X136143000Y-97974235D01*
X136254783Y-97952000D01*
X136391000Y-97952000D01*
X136391000Y-98031250D01*
X136549750Y-98190000D01*
X137274000Y-98190000D01*
X137274000Y-98170000D01*
X137528000Y-98170000D01*
X137528000Y-98190000D01*
X138252250Y-98190000D01*
X138411000Y-98031250D01*
X138411000Y-97952000D01*
X138466869Y-97952000D01*
X139314000Y-98799132D01*
X139314000Y-100091782D01*
X139316629Y-100105000D01*
X130300237Y-100105000D01*
X130218000Y-100088642D01*
X130135763Y-100105000D01*
X129892199Y-100153448D01*
X129615999Y-100337999D01*
X129569415Y-100407718D01*
X129381418Y-100595715D01*
X129287333Y-100577000D01*
X129004667Y-100577000D01*
X128586091Y-100660260D01*
X128203000Y-100916233D01*
X128203000Y-99300237D01*
X128219358Y-99218000D01*
X128173497Y-98987440D01*
X128154552Y-98892199D01*
X127970001Y-98615999D01*
X127950173Y-98602750D01*
X136391000Y-98602750D01*
X136391000Y-98843309D01*
X136487673Y-99076698D01*
X136666301Y-99255327D01*
X136899690Y-99352000D01*
X137115250Y-99352000D01*
X137274000Y-99193250D01*
X137274000Y-98444000D01*
X137528000Y-98444000D01*
X137528000Y-99193250D01*
X137686750Y-99352000D01*
X137902310Y-99352000D01*
X138135699Y-99255327D01*
X138314327Y-99076698D01*
X138411000Y-98843309D01*
X138411000Y-98602750D01*
X138252250Y-98444000D01*
X137528000Y-98444000D01*
X137274000Y-98444000D01*
X136549750Y-98444000D01*
X136391000Y-98602750D01*
X127950173Y-98602750D01*
X127900283Y-98569415D01*
X127381587Y-98050720D01*
X127335001Y-97980999D01*
X127204798Y-97894000D01*
X134169245Y-97894000D01*
X134251478Y-97910357D01*
X134333711Y-97894000D01*
X134333715Y-97894000D01*
X134577279Y-97845552D01*
X134853479Y-97661001D01*
X134900065Y-97591280D01*
X135134608Y-97356737D01*
X135249392Y-97528523D01*
X135249392Y-97528523D01*
G37*
X135249392Y-97528523D02*
X135261387Y-97540518D01*
X135324711Y-97635289D01*
X135700145Y-97886146D01*
X136031217Y-97952000D01*
X136143000Y-97974235D01*
X136254783Y-97952000D01*
X136391000Y-97952000D01*
X136391000Y-98031250D01*
X136549750Y-98190000D01*
X137274000Y-98190000D01*
X137274000Y-98170000D01*
X137528000Y-98170000D01*
X137528000Y-98190000D01*
X138252250Y-98190000D01*
X138411000Y-98031250D01*
X138411000Y-97952000D01*
X138466869Y-97952000D01*
X139314000Y-98799132D01*
X139314000Y-100091782D01*
X139316629Y-100105000D01*
X130300237Y-100105000D01*
X130218000Y-100088642D01*
X130135763Y-100105000D01*
X129892199Y-100153448D01*
X129615999Y-100337999D01*
X129569415Y-100407718D01*
X129381418Y-100595715D01*
X129287333Y-100577000D01*
X129004667Y-100577000D01*
X128586091Y-100660260D01*
X128203000Y-100916233D01*
X128203000Y-99300237D01*
X128219358Y-99218000D01*
X128173497Y-98987440D01*
X128154552Y-98892199D01*
X127970001Y-98615999D01*
X127950173Y-98602750D01*
X136391000Y-98602750D01*
X136391000Y-98843309D01*
X136487673Y-99076698D01*
X136666301Y-99255327D01*
X136899690Y-99352000D01*
X137115250Y-99352000D01*
X137274000Y-99193250D01*
X137274000Y-98444000D01*
X137528000Y-98444000D01*
X137528000Y-99193250D01*
X137686750Y-99352000D01*
X137902310Y-99352000D01*
X138135699Y-99255327D01*
X138314327Y-99076698D01*
X138411000Y-98843309D01*
X138411000Y-98602750D01*
X138252250Y-98444000D01*
X137528000Y-98444000D01*
X137274000Y-98444000D01*
X136549750Y-98444000D01*
X136391000Y-98602750D01*
X127950173Y-98602750D01*
X127900283Y-98569415D01*
X127381587Y-98050720D01*
X127335001Y-97980999D01*
X127204798Y-97894000D01*
X134169245Y-97894000D01*
X134251478Y-97910357D01*
X134333711Y-97894000D01*
X134333715Y-97894000D01*
X134577279Y-97845552D01*
X134853479Y-97661001D01*
X134900065Y-97591280D01*
X135134608Y-97356737D01*
X135249392Y-97528523D01*
G36*
X107018748Y-95285858D02*
X107004605Y-95300000D01*
X107018748Y-95314143D01*
X106905890Y-95427000D01*
X106744110Y-95427000D01*
X106631253Y-95314143D01*
X106645395Y-95300000D01*
X106631253Y-95285858D01*
X106744110Y-95173000D01*
X106905890Y-95173000D01*
X107018748Y-95285858D01*
X107018748Y-95285858D01*
G37*
X107018748Y-95285858D02*
X107004605Y-95300000D01*
X107018748Y-95314143D01*
X106905890Y-95427000D01*
X106744110Y-95427000D01*
X106631253Y-95314143D01*
X106645395Y-95300000D01*
X106631253Y-95285858D01*
X106744110Y-95173000D01*
X106905890Y-95173000D01*
X107018748Y-95285858D01*
G36*
X107018748Y-92745858D02*
X107004605Y-92760000D01*
X107018748Y-92774143D01*
X106905890Y-92887000D01*
X106744110Y-92887000D01*
X106631253Y-92774143D01*
X106645395Y-92760000D01*
X106631253Y-92745858D01*
X106744110Y-92633000D01*
X106905890Y-92633000D01*
X107018748Y-92745858D01*
X107018748Y-92745858D01*
G37*
X107018748Y-92745858D02*
X107004605Y-92760000D01*
X107018748Y-92774143D01*
X106905890Y-92887000D01*
X106744110Y-92887000D01*
X106631253Y-92774143D01*
X106645395Y-92760000D01*
X106631253Y-92745858D01*
X106744110Y-92633000D01*
X106905890Y-92633000D01*
X107018748Y-92745858D01*
G36*
X107018748Y-90205858D02*
X107004605Y-90220000D01*
X107018748Y-90234143D01*
X106905890Y-90347000D01*
X106744110Y-90347000D01*
X106631253Y-90234143D01*
X106645395Y-90220000D01*
X106631253Y-90205858D01*
X106744110Y-90093000D01*
X106905890Y-90093000D01*
X107018748Y-90205858D01*
X107018748Y-90205858D01*
G37*
X107018748Y-90205858D02*
X107004605Y-90220000D01*
X107018748Y-90234143D01*
X106905890Y-90347000D01*
X106744110Y-90347000D01*
X106631253Y-90234143D01*
X106645395Y-90220000D01*
X106631253Y-90205858D01*
X106744110Y-90093000D01*
X106905890Y-90093000D01*
X107018748Y-90205858D01*
G04 #@! TD*
M02*
