M48
;DRILL file {KiCad (5.0.2)-1} date 2019/02/20 1:19:26
;FORMAT={3:3/ absolute / metric / suppress trailing zeros}
FMAT,2
METRIC,LZ
T1C0.400
T2C0.800
T3C0.900
T4C1.000
%
G90
G05
T1
X114668Y-128301
X114668Y-130714
X116095Y-109378
X116446Y-116998
X116573Y-102901
X116573Y-12411
X1167Y-108108
X117716Y-091471
X118097Y-100361
X118605Y-11141
X120637Y-105949
X120637Y-116871
X123304Y-107854
X125082Y-107727
X125336Y-101377
X125463Y-104298
X126352Y-124618
X12686Y-114458
X12686Y-119411
X12813Y-08474
X12813Y-089058
X12813Y-092995
X128384Y-106076
X1294Y-098583
X130289Y-124618
X130416Y-114458
X130416Y-119538
X131813Y-11268
X132702Y-099218
X135242Y-118268
X135242Y-119538
X135242Y-123348
X13525Y-12075
X13525Y-122
X135877Y-099218
X136131Y-096805
X13725Y-12475
X137274Y-120935
X138163Y-102901
X138163Y-106584
X138671Y-113442
X138671Y-116871
X138798Y-099218
X140449Y-09998
X140449Y-102139
X142227Y-094392
X142227Y-096297
X143497Y-110648
X146291Y-088804
X146291Y-092741
X147561Y-098329
X148Y-10625
X150228Y-124491
X150355Y-117125
X150482Y-110902
X150863Y-088804
X15099Y-092868
X106825Y-09022
X106825Y-09276
X106825Y-0953
X106825Y-09784
X106825Y-10038
X106825Y-10292
X106825Y-10546
X106825Y-108
X106825Y-11054
X106825Y-11308
X106825Y-11562
X106825Y-11816
X106825Y-1207
X106825Y-12324
X106825Y-12578
X113175Y-09022
X113175Y-09276
X113175Y-0953
X113175Y-09784
X113175Y-10038
X113175Y-10292
X113175Y-10546
X113175Y-108
X113175Y-11054
X113175Y-11308
X113175Y-11562
X113175Y-11816
X113175Y-1207
X113175Y-12324
X113175Y-12578
T2
X12032Y-12919
X12232Y-12919
X12432Y-12919
X118605Y-11776
X118605Y-12264
X121526Y-102012
X121526Y-104552
X129146Y-102012
X129146Y-104552
T3
X14546Y-0989
X14546Y-10094
X14546Y-10298
X148Y-09992
X148Y-10196
X148Y-104
T4
X12288Y-088852
X12288Y-091852
X12288Y-094852
X13338Y-088852
X13338Y-094852
X138798Y-089058
X138798Y-094138
X136Y-13
X13854Y-13
X117716Y-089058
X117716Y-094138
X10873Y-09022
X10873Y-09276
X10873Y-0953
X10873Y-09784
X10873Y-10038
X10873Y-10292
X10873Y-10546
X10873Y-108
X10873Y-11054
X10873Y-11308
X10873Y-11562
X10873Y-11816
X10873Y-1207
X10873Y-12324
X10873Y-12578
X11127Y-09022
X11127Y-09276
X11127Y-0953
X11127Y-09784
X11127Y-10038
X11127Y-10292
X11127Y-10546
X11127Y-108
X11127Y-11054
X11127Y-11308
X11127Y-11562
X11127Y-11816
X11127Y-1207
X11127Y-12324
X11127Y-12578
T2
X11782Y-12884G85X11782Y-12954
G05
X12682Y-12884G85X12682Y-12954
G05
T4
X1425Y-1215G85X1425Y-1195
G05
X1465Y-1158G85X1445Y-1158
G05
X1485Y-1215G85X1485Y-1195
G05
T0
M30
